<svg width="44" height="332" viewBox="0 0 44 332" fill="none" xmlns="http://www.w3.org/2000/svg">
<path d="M1 0.16L43 18.7V30.4L1 49V36.64L37.18 22.12V26.8L1 12.28V0.16ZM9.16 10.3L17.92 13.36V33.88L9.16 36.94V10.3ZM1 52.368H43V73.848C43 79.368 41.98 83.488 39.94 86.208C37.94 88.928 35.3 90.288 32.02 90.288C29.86 90.288 27.96 89.708 26.32 88.548C24.72 87.428 23.44 85.828 22.48 83.748C21.56 81.708 21.1 79.268 21.1 76.428L23.98 77.628C23.98 80.588 23.52 83.168 22.6 85.368C21.72 87.568 20.42 89.268 18.7 90.468C17.02 91.708 14.96 92.328 12.52 92.328C8.88 92.328 6.04 90.848 4 87.888C2 84.968 1 80.688 1 75.048V52.368ZM9.58 64.128V74.088C9.58 76.128 9.92 77.668 10.6 78.708C11.32 79.788 12.4 80.328 13.84 80.328C15.28 80.328 16.34 79.788 17.02 78.708C17.74 77.668 18.1 76.128 18.1 74.088V63.288H26.32V72.288C26.32 74.288 26.66 75.788 27.34 76.788C28.02 77.788 29.04 78.288 30.4 78.288C31.76 78.288 32.76 77.788 33.4 76.788C34.08 75.788 34.42 74.288 34.42 72.288V64.128H9.58ZM0.16 119.661C0.16 116.301 0.7 113.201 1.78 110.361C2.86 107.521 4.38 105.041 6.34 102.921C8.34 100.841 10.66 99.2213 13.3 98.0613C15.94 96.9013 18.84 96.3213 22 96.3213C25.16 96.3213 28.06 96.9013 30.7 98.0613C33.34 99.2213 35.64 100.841 37.6 102.921C39.6 105.041 41.14 107.521 42.22 110.361C43.3 113.201 43.84 116.301 43.84 119.661C43.84 123.061 43.3 126.161 42.22 128.961C41.14 131.801 39.6 134.261 37.6 136.341C35.64 138.421 33.34 140.041 30.7 141.201C28.06 142.401 25.16 143.001 22 143.001C18.84 143.001 15.92 142.401 13.24 141.201C10.6 140.041 8.3 138.421 6.34 136.341C4.38 134.261 2.86 131.801 1.78 128.961C0.7 126.161 0.16 123.061 0.16 119.661ZM10 119.661C10 121.261 10.28 122.741 10.84 124.101C11.4 125.501 12.2 126.701 13.24 127.701C14.32 128.741 15.6 129.541 17.08 130.101C18.56 130.701 20.2 131.001 22 131.001C23.84 131.001 25.48 130.701 26.92 130.101C28.4 129.541 29.66 128.741 30.7 127.701C31.78 126.701 32.6 125.501 33.16 124.101C33.72 122.741 34 121.261 34 119.661C34 118.061 33.72 116.561 33.16 115.161C32.6 113.801 31.78 112.601 30.7 111.561C29.66 110.561 28.4 109.761 26.92 109.161C25.48 108.601 23.84 108.321 22 108.321C20.2 108.321 18.56 108.601 17.08 109.161C15.6 109.761 14.32 110.561 13.24 111.561C12.2 112.601 11.4 113.801 10.84 115.161C10.28 116.561 10 118.061 10 119.661ZM0.16 168.603C0.16 162.403 1.86 157.563 5.26 154.083C8.66 150.603 13.48 148.863 19.72 148.863H43V160.743H20.08C16.48 160.743 13.9 161.443 12.34 162.843C10.78 164.283 10 166.243 10 168.723C10 171.203 10.78 173.143 12.34 174.543C13.9 175.943 16.48 176.643 20.08 176.643H43V188.343H19.72C13.48 188.343 8.66 186.603 5.26 183.123C1.86 179.643 0.16 174.803 0.16 168.603ZM1 204.687H33.58V191.787H43V229.407H33.58V216.567H1V204.687ZM0.16 270.674C0.16 264.474 1.86 259.634 5.26 256.154C8.66 252.674 13.48 250.934 19.72 250.934H43V262.814H20.08C16.48 262.814 13.9 263.514 12.34 264.914C10.78 266.354 10 268.314 10 270.794C10 273.274 10.78 275.214 12.34 276.614C13.9 278.014 16.48 278.714 20.08 278.714H43V290.414H19.72C13.48 290.414 8.66 288.674 5.26 285.194C1.86 281.714 0.16 276.874 0.16 270.674ZM0.16 313.222C0.16 309.782 0.58 306.462 1.42 303.262C2.3 300.102 3.42 297.522 4.78 295.522L13.54 299.422C12.34 301.302 11.34 303.462 10.54 305.902C9.78 308.382 9.4 310.842 9.4 313.282C9.4 314.922 9.54 316.242 9.82 317.242C10.14 318.242 10.54 318.962 11.02 319.402C11.54 319.882 12.14 320.122 12.82 320.122C13.78 320.122 14.54 319.682 15.1 318.802C15.66 317.922 16.12 316.782 16.48 315.382C16.84 313.982 17.2 312.422 17.56 310.702C17.92 309.022 18.38 307.322 18.94 305.602C19.5 303.922 20.22 302.382 21.1 300.982C22.02 299.582 23.2 298.442 24.64 297.562C26.12 296.682 27.98 296.242 30.22 296.242C32.74 296.242 35.02 296.922 37.06 298.282C39.1 299.682 40.74 301.762 41.98 304.522C43.22 307.282 43.84 310.722 43.84 314.842C43.84 317.602 43.52 320.302 42.88 322.942C42.28 325.622 41.38 328.002 40.18 330.082L31.36 326.422C32.44 324.422 33.24 322.442 33.76 320.482C34.32 318.522 34.6 316.622 34.6 314.782C34.6 313.142 34.42 311.822 34.06 310.822C33.74 309.822 33.3 309.102 32.74 308.662C32.18 308.222 31.54 308.002 30.82 308.002C29.9 308.002 29.16 308.422 28.6 309.262C28.08 310.142 27.64 311.282 27.28 312.682C26.96 314.122 26.62 315.682 26.26 317.362C25.9 319.082 25.44 320.782 24.88 322.462C24.36 324.182 23.64 325.742 22.72 327.142C21.84 328.542 20.66 329.662 19.18 330.502C17.74 331.382 15.92 331.822 13.72 331.822C11.28 331.822 9.02 331.122 6.94 329.722C4.9 328.362 3.26 326.302 2.02 323.542C0.78 320.822 0.16 317.382 0.16 313.222Z" fill="black"/>
</svg>
