<svg width="386" height="380" viewBox="0 0 386 380" fill="none" xmlns="http://www.w3.org/2000/svg">
<path d="M71.9829 203.661C2.45801 243.786 2.45801 308.87 71.9829 349.012C141.508 389.154 254.224 389.154 323.748 349.012C393.273 308.87 393.265 243.795 323.748 203.661C254.232 163.527 141.499 163.519 71.9829 203.661Z" fill="#FAFAFA"/>
<path d="M18.4149 64.7215C18.4149 42.0051 33.378 14.9578 51.7974 4.30868C61.5633 -1.33008 70.3526 -1.24516 76.4245 3.45947C84.0674 6.61004 88.8909 15.3484 88.8909 28.2904V135.206L22.058 173.786L18.4149 171.603V64.7215Z" fill="#E6E6E6"/>
<path d="M22.1262 173.786V66.8616C22.1262 44.1537 37.0893 17.0978 55.5427 6.4487C73.996 -4.2004 88.9591 5.59949 88.9591 28.2819V135.206L22.1262 173.786Z" fill="#F5F5F5"/>
<path d="M25.7776 66.8616V167.451L85.2988 133.083V28.2904C85.2988 16.9365 81.3075 9.09824 74.5902 6.63553C73.0298 6.0611 71.3785 5.77341 69.7157 5.78632C65.9113 5.78632 61.7671 7.06863 57.3682 9.60777C39.9509 19.6709 25.7776 45.3511 25.7776 66.8616Z" fill="#E0E0E0"/>
<path d="M85.299 133.083L81.5285 130.909L25.7863 163.103V167.451L85.299 133.083Z" fill="#EBEBEB"/>
<path d="M25.7776 66.8616V163.111L81.5198 130.909V26.0994C81.5198 17.0469 78.9721 10.2532 74.5902 6.63553C73.0298 6.0611 71.3785 5.77341 69.7158 5.78632C65.9113 5.78632 61.7671 7.06863 57.3682 9.60777C39.9509 19.6709 25.7776 45.3511 25.7776 66.8616Z" fill="white"/>
<path d="M53.7167 151.324L57.3683 149.21V8.29147H53.7167V151.324Z" fill="#F5F5F5"/>
<path d="M50.0991 14.8983V149.218L53.7592 151.324V11.9516C52.4684 12.8772 51.254 13.8453 50.0991 14.8983Z" fill="#E0E0E0"/>
<path d="M85.299 99.0297L57.3684 115.156V119.445L85.299 103.318V99.0297Z" fill="#F5F5F5"/>
<path d="M81.5285 96.8557L85.299 99.0296L57.3684 115.156V110.868L81.5285 96.8557Z" fill="#EBEBEB"/>
<path d="M53.7168 117.262L25.7863 133.389V137.677L53.7168 121.551V117.262Z" fill="#F5F5F5"/>
<path d="M49.9378 115.088L53.7168 117.262L25.7863 133.389V129.1L49.9378 115.088Z" fill="#EBEBEB"/>
<path d="M85.299 36.4258L57.3684 52.5524V56.8409L85.299 40.7144V36.4258Z" fill="#F5F5F5"/>
<path d="M81.5285 34.2518L85.299 36.4258L57.3684 52.5523V48.2638L81.5285 34.2518Z" fill="#EBEBEB"/>
<path d="M53.7168 54.6584L25.7863 70.7849V75.0734L53.7168 58.9469V54.6584Z" fill="#F5F5F5"/>
<path d="M49.9378 52.4844L53.7168 54.6584L25.7863 70.7849V66.4964L49.9378 52.4844Z" fill="#EBEBEB"/>
<path d="M299.088 93.4163L323.01 79.6082L385.996 115.929V118.561L362.074 132.37L299.088 96.0404V93.4163Z" fill="#EBEBEB"/>
<path d="M362.074 129.746L299.088 93.4163L323.01 79.6082L385.996 115.929L362.074 129.746Z" fill="#FAFAFA"/>
<path d="M362.074 129.746V132.37L385.996 118.561V115.929L362.074 129.746Z" fill="#E6E6E6"/>
<path d="M315.809 56.8408L301.78 64.9508V91.6415L315.809 83.54V56.8408Z" fill="#EBEBEB"/>
<path d="M302.23 65.3924L315.817 57.5966C316.648 58.4762 317.736 59.0707 318.925 59.2951L305.457 67.0569C304.312 66.648 303.226 66.0882 302.23 65.3924Z" fill="white"/>
<path d="M306.756 67.0059C306.352 67.211 305.906 67.3179 305.453 67.3179C305 67.3179 304.553 67.211 304.149 67.0059L301.856 65.6981C301.701 65.6426 301.567 65.5407 301.473 65.4061C301.378 65.2716 301.327 65.1111 301.327 64.9465C301.327 64.782 301.378 64.6215 301.473 64.487C301.567 64.3524 301.701 64.2504 301.856 64.195L315.248 56.5521L315.809 56.8748L302.646 64.5177C302.552 64.5497 302.471 64.6104 302.413 64.6911C302.355 64.7718 302.324 64.8685 302.324 64.9678C302.324 65.067 302.355 65.1638 302.413 65.2445C302.471 65.3252 302.552 65.3858 302.646 65.4179L304.778 66.6237C305.02 66.7455 305.288 66.8089 305.559 66.8089C305.83 66.8089 306.098 66.7455 306.34 66.6237L319.503 59.0318L320.14 59.4054L306.756 67.0059Z" fill="#FAFAFA"/>
<path d="M320.148 59.329V86.0197L306.765 93.7051C306.361 93.9102 305.914 94.0171 305.461 94.0171C305.008 94.0171 304.562 93.9102 304.158 93.7051L301.865 92.3888C301.717 92.323 301.59 92.2191 301.496 92.0878C301.402 91.9564 301.344 91.8024 301.33 91.6415V64.9423C301.344 65.1044 301.401 65.2598 301.495 65.3927C301.589 65.5255 301.717 65.6309 301.865 65.6981L304.158 67.0059C304.562 67.211 305.008 67.3179 305.461 67.3179C305.914 67.3179 306.361 67.211 306.765 67.0059L320.148 59.329Z" fill="#E0E0E0"/>
<path d="M305.448 67.3201C304.995 67.3301 304.547 67.2218 304.149 67.0059L301.856 65.6981C301.708 65.6309 301.58 65.5255 301.486 65.3927C301.392 65.2599 301.335 65.1044 301.321 64.9423V91.6415C301.336 91.8024 301.393 91.9564 301.487 92.0878C301.581 92.2191 301.709 92.3231 301.856 92.3888L304.149 93.7051C304.55 93.9145 304.996 94.0196 305.448 94.0108V67.3201Z" fill="#F0F0F0"/>
<path d="M321.694 60.8831L307.665 68.993L312.021 96.4905L326.059 88.389L321.694 60.8831Z" fill="#EBEBEB"/>
<path d="M308.259 69.3752L321.847 61.5794C322.908 62.3561 324.156 62.8394 325.464 62.9806L311.996 70.7424C310.703 70.4265 309.45 69.968 308.259 69.3752Z" fill="white"/>
<path d="M313.354 70.632C312.916 70.8423 312.439 70.9619 311.953 70.9838C311.468 71.0057 310.982 70.9294 310.527 70.7594L307.86 69.6979C307.011 69.3497 306.917 68.7383 307.639 68.3222L321.031 60.6793L321.694 60.951L308.531 68.5514C308.098 68.8062 308.157 69.1714 308.667 69.4007L311.146 70.4027C311.421 70.5024 311.712 70.547 312.003 70.5338C312.295 70.5207 312.581 70.4502 312.845 70.3263L325.999 62.7344L326.755 63.0401L313.354 70.632Z" fill="#FAFAFA"/>
<path d="M326.755 62.9467L331.111 90.4526L317.719 98.138C317.28 98.3464 316.804 98.465 316.318 98.4868C315.833 98.5087 315.348 98.4334 314.892 98.2654L312.217 97.1784C311.8 97 311.563 96.7623 311.529 96.516L307.164 69.0101C307.206 69.2563 307.444 69.5026 307.86 69.6724L310.535 70.7679C310.992 70.9336 311.476 71.0077 311.962 70.9858C312.447 70.964 312.923 70.8466 313.363 70.6405L326.755 62.9467Z" fill="#E0E0E0"/>
<path d="M311.996 70.9802C311.499 71.0133 311.002 70.941 310.535 70.7679L307.86 69.6979C307.444 69.528 307.206 69.2818 307.164 69.0355L311.529 96.5414C311.529 96.7877 311.8 97.0255 312.217 97.2038L314.892 98.2908C315.357 98.4668 315.855 98.542 316.352 98.5116L311.996 70.9802Z" fill="#F0F0F0"/>
<path opacity="0.05" d="M326.814 96.0235C323.519 97.9342 323.519 101.025 326.814 102.928C328.666 103.87 330.715 104.36 332.793 104.36C334.871 104.36 336.919 103.87 338.771 102.928C342.075 101.025 342.075 97.9342 338.771 96.0235C336.918 95.0855 334.87 94.5968 332.793 94.5968C330.716 94.5968 328.668 95.0855 326.814 96.0235Z" fill="black"/>
<path d="M338.168 100.855C341.047 97.9172 342.737 90.5885 339.935 88.2617H325.659C322.857 90.5885 324.547 97.9172 327.417 100.847L327.494 100.932L327.596 101.025C327.679 101.106 327.767 101.183 327.859 101.255C327.877 101.279 327.901 101.299 327.927 101.314L328.139 101.475C328.267 101.56 328.385 101.645 328.513 101.713C329.84 102.387 331.308 102.739 332.797 102.739C334.286 102.739 335.754 102.387 337.081 101.713C337.209 101.645 337.328 101.56 337.455 101.475L337.659 101.323L337.744 101.255L337.99 101.034L338.109 100.923L338.168 100.855Z" fill="#F5F5F5"/>
<path d="M326.942 87.1492C323.689 89.026 323.689 92.0746 326.942 93.9429C328.77 94.8682 330.79 95.3503 332.84 95.3503C334.889 95.3503 336.909 94.8682 338.737 93.9429C341.99 92.0576 341.99 89.009 338.737 87.1492C336.909 86.2239 334.889 85.7418 332.84 85.7418C330.79 85.7418 328.77 86.2239 326.942 87.1492Z" fill="white"/>
<path d="M329.209 88.4825C327.231 89.6289 327.231 91.4802 329.209 92.6266C330.322 93.188 331.551 93.4804 332.797 93.4804C334.043 93.4804 335.272 93.188 336.385 92.6266C338.364 91.4802 338.364 89.6289 336.385 88.4825C335.274 87.9172 334.044 87.6225 332.797 87.6225C331.55 87.6225 330.321 87.9172 329.209 88.4825Z" fill="#EBEBEB"/>
<path d="M336.385 90.4441C335.272 89.8828 334.043 89.5903 332.797 89.5903C331.551 89.5903 330.322 89.8828 329.209 90.4441C328.732 90.7059 328.324 91.0787 328.02 91.5311C328.321 91.9882 328.729 92.3644 329.209 92.6266C330.322 93.188 331.551 93.4804 332.797 93.4804C334.043 93.4804 335.272 93.188 336.385 92.6266C336.865 92.3668 337.271 91.9899 337.565 91.5311C337.268 91.0771 336.862 90.7036 336.385 90.4441Z" fill="#E0E0E0"/>
<path d="M329.642 91.5311C328.629 90.5029 327.757 89.3433 327.052 88.0833C325.855 85.9688 325.634 83.1324 326.254 82.7757C326.874 82.4191 329.396 85.2555 329.396 85.2555C329.163 84.0674 329.072 82.8559 329.124 81.6463C329.235 79.7526 329.693 78.0372 330.237 77.6975C330.78 77.3578 331.986 79.7271 332.504 81.451C333.022 83.1749 333.353 84.6016 333.353 84.6016C333.563 83.2549 333.875 81.9263 334.288 80.6272C334.916 78.8354 335.485 78.4278 335.926 78.6061C336.368 78.7845 336.657 79.6252 336.776 82.003C336.818 83.1364 336.781 84.2715 336.665 85.3998C336.665 85.3998 337.557 84.4147 338.542 83.4721C339.527 82.5295 340.088 82.2832 340.402 82.487C340.716 82.6908 340.792 84.3043 339.12 87.336C338.286 88.8813 337.217 90.2879 335.952 91.5056C335.952 91.5056 333.617 93.0342 329.642 91.5311Z" fill="#EBEBEB"/>
<path d="M355.059 77.0945L341.03 85.196V111.895L355.059 103.794V77.0945Z" fill="#E0E0E0"/>
<path d="M341.48 85.6461L355.068 77.8503C355.901 78.7267 356.988 79.3205 358.176 79.5487L344.707 87.3105C343.562 86.9016 342.477 86.3419 341.48 85.6461Z" fill="white"/>
<path d="M346.007 87.2595C345.603 87.4647 345.156 87.5716 344.703 87.5716C344.25 87.5716 343.804 87.4647 343.4 87.2595L341.107 85.9518C340.948 85.9004 340.809 85.8 340.711 85.665C340.613 85.53 340.56 85.3672 340.56 85.2002C340.56 85.0332 340.613 84.8705 340.711 84.7354C340.809 84.6004 340.948 84.5 341.107 84.4487L354.49 76.8058L355.059 77.1285L341.897 84.7289C341.803 84.7609 341.721 84.8216 341.663 84.9023C341.606 84.983 341.575 85.0797 341.575 85.179C341.575 85.2782 341.606 85.375 341.663 85.4557C341.721 85.5364 341.803 85.597 341.897 85.6291L344.02 86.8349C344.264 86.9561 344.533 87.0192 344.805 87.0192C345.078 87.0192 345.346 86.9561 345.591 86.8349L358.745 79.243L359.39 79.6166L346.007 87.2595Z" fill="#FAFAFA"/>
<path d="M359.39 79.5742V106.273L346.007 113.959C345.601 114.16 345.155 114.265 344.703 114.265C344.251 114.265 343.804 114.16 343.399 113.959L341.107 112.642C340.959 112.577 340.832 112.473 340.738 112.341C340.644 112.21 340.586 112.056 340.572 111.895V85.196C340.586 85.3568 340.644 85.5109 340.738 85.6422C340.832 85.7736 340.959 85.8775 341.107 85.9433L343.399 87.2595C343.803 87.4647 344.25 87.5716 344.703 87.5716C345.156 87.5716 345.603 87.4647 346.007 87.2595L359.39 79.5742Z" fill="#E0E0E0"/>
<path d="M344.699 87.5738C344.246 87.5837 343.798 87.4754 343.399 87.2596L341.107 85.9433C340.959 85.8775 340.832 85.7736 340.738 85.6423C340.644 85.5109 340.586 85.3569 340.572 85.196V111.895C340.586 112.056 340.644 112.21 340.738 112.341C340.832 112.473 340.959 112.577 341.107 112.642L343.399 113.959C343.8 114.168 344.247 114.273 344.699 114.264V87.5738Z" fill="#F0F0F0"/>
<path d="M360.8 80.3894L346.771 88.4909V115.19L360.8 107.089V80.3894Z" fill="#EBEBEB"/>
<path d="M347.221 88.941L360.808 81.1453C361.64 82.0235 362.728 82.6176 363.916 82.8437L350.448 90.6055C349.303 90.1966 348.218 89.6368 347.221 88.941Z" fill="white"/>
<path d="M351.747 90.5545C351.342 90.7597 350.894 90.8666 350.439 90.8666C349.985 90.8666 349.537 90.7597 349.132 90.5545L346.847 89.2297C346.688 89.1784 346.55 89.078 346.451 88.943C346.353 88.8079 346.3 88.6452 346.3 88.4782C346.3 88.3112 346.353 88.1484 346.451 88.0134C346.55 87.8784 346.688 87.778 346.847 87.7266L360.231 80.0837L360.8 80.4064L347.637 88.0069C347.543 88.0389 347.462 88.0995 347.404 88.1803C347.346 88.261 347.315 88.3577 347.315 88.457C347.315 88.5562 347.346 88.653 347.404 88.7337C347.462 88.8144 347.543 88.875 347.637 88.907L349.76 90.1129C350.004 90.2341 350.273 90.2972 350.546 90.2972C350.818 90.2972 351.087 90.2341 351.331 90.1129L364.485 82.521L365.131 82.8946L351.747 90.5545Z" fill="#FAFAFA"/>
<path d="M365.156 82.8692V109.611L351.747 117.254C351.341 117.455 350.893 117.56 350.44 117.56C349.986 117.56 349.538 117.455 349.132 117.254L346.847 115.937C346.699 115.872 346.57 115.769 346.475 115.637C346.379 115.506 346.32 115.352 346.304 115.19V88.491C346.32 88.6525 346.379 88.8068 346.475 88.9381C346.57 89.0694 346.699 89.1729 346.847 89.2383L349.132 90.5545C349.537 90.7597 349.985 90.8667 350.44 90.8667C350.894 90.8667 351.342 90.7597 351.747 90.5545L365.156 82.8692Z" fill="#E0E0E0"/>
<path d="M350.44 90.8687C349.984 90.8786 349.533 90.7703 349.132 90.5545L346.847 89.2297C346.699 89.1644 346.57 89.0608 346.475 88.9295C346.379 88.7982 346.32 88.6439 346.304 88.4824V115.182C346.32 115.343 346.379 115.497 346.475 115.629C346.57 115.76 346.699 115.864 346.847 115.929L349.132 117.245C349.535 117.455 349.985 117.56 350.44 117.551V90.8687Z" fill="#F0F0F0"/>
<path d="M366.464 86.0537L352.435 94.1552L356.792 121.661L370.829 113.56L366.464 86.0537Z" fill="#EBEBEB"/>
<path d="M352.987 94.5373L366.574 86.7415C367.636 87.5182 368.884 88.0015 370.192 88.1427L356.724 95.9045C355.431 95.5886 354.178 95.1301 352.987 94.5373Z" fill="white"/>
<path d="M358.133 95.8026C357.694 96.011 357.218 96.1296 356.732 96.1515C356.247 96.1734 355.762 96.0981 355.305 95.93L352.63 94.8345C351.781 94.4949 351.688 93.8834 352.41 93.4673L365.802 85.782L366.464 86.0537L353.301 93.6966C352.868 93.9429 352.928 94.308 353.437 94.5458L355.917 95.5479C356.191 95.6475 356.482 95.6921 356.774 95.679C357.065 95.6659 357.351 95.5953 357.615 95.4715L370.77 87.8795L371.525 88.1852L358.133 95.8026Z" fill="#FAFAFA"/>
<path d="M371.525 88.1172L375.882 115.623L362.49 123.266C362.05 123.473 361.573 123.59 361.088 123.611C360.602 123.631 360.117 123.554 359.662 123.385L356.987 122.349C356.571 122.179 356.333 121.941 356.299 121.687L351.934 94.1891C351.977 94.4354 352.214 94.6732 352.63 94.843L355.305 95.9385C355.762 96.1065 356.247 96.1818 356.732 96.1599C357.218 96.1381 357.694 96.0195 358.133 95.8111L371.525 88.1172Z" fill="#E0E0E0"/>
<path d="M356.766 96.1508C356.269 96.1812 355.771 96.106 355.305 95.93L352.63 94.8345C352.214 94.6647 351.977 94.4269 351.934 94.1806L356.299 121.678C356.299 121.933 356.571 122.171 356.987 122.34L359.662 123.427C360.127 123.607 360.625 123.683 361.123 123.648L356.766 96.1508Z" fill="#F0F0F0"/>
<path d="M299.088 41.606L323.01 27.7978L385.996 64.1186V66.7426L362.074 80.5593L299.088 44.23V41.606Z" fill="#EBEBEB"/>
<path d="M362.074 77.9267L299.088 41.606L323.01 27.7978L385.996 64.1186L362.074 77.9267Z" fill="#FAFAFA"/>
<path d="M362.074 77.9267V80.5593L385.996 66.7426V64.1186L362.074 77.9267Z" fill="#E6E6E6"/>
<path d="M319.333 2.49135L303.818 11.4505V40.9606L319.333 32.0014V2.49135Z" fill="#EBEBEB"/>
<path d="M304.319 11.9515L319.299 3.32356C320.204 4.29326 321.393 4.95045 322.696 5.20032L307.877 13.7858C306.616 13.333 305.419 12.7163 304.319 11.9515Z" fill="white"/>
<path d="M309.321 13.7349C308.873 13.9571 308.381 14.0727 307.881 14.0727C307.382 14.0727 306.889 13.9571 306.442 13.7349L303.894 12.2828C303.669 12.2828 303.453 12.1933 303.294 12.034C303.134 11.8748 303.045 11.6588 303.045 11.4335C303.045 11.2083 303.134 10.9923 303.294 10.8331C303.453 10.6738 303.669 10.5843 303.894 10.5843L318.687 2.09222L319.316 2.44889L304.769 10.8561C304.285 11.1278 304.285 11.5694 304.769 11.8497L307.113 13.1744C307.376 13.3067 307.667 13.3755 307.962 13.3755C308.257 13.3755 308.548 13.3067 308.811 13.1744L323.358 4.79271L324.063 5.20034L309.321 13.7349Z" fill="#FAFAFA"/>
<path d="M324.114 5.24277V34.7443L309.321 43.2365C308.875 43.4625 308.381 43.5803 307.881 43.5803C307.381 43.5803 306.888 43.4625 306.442 43.2365L303.894 41.7843C303.727 41.7104 303.584 41.5922 303.479 41.4425C303.374 41.2929 303.312 41.1174 303.3 40.9351V11.4505C303.312 11.6328 303.374 11.8083 303.479 11.9579C303.584 12.1076 303.727 12.2258 303.894 12.2997L306.442 13.7519C306.889 13.9741 307.382 14.0897 307.881 14.0897C308.381 14.0897 308.873 13.9741 309.321 13.7519L324.114 5.24277Z" fill="#E0E0E0"/>
<path d="M307.877 14.0746C307.377 14.0863 306.883 13.9693 306.442 13.7349L303.894 12.2827C303.727 12.2088 303.584 12.0906 303.479 11.941C303.374 11.7913 303.312 11.6158 303.3 11.4335V40.9606C303.312 41.1429 303.374 41.3183 303.479 41.468C303.584 41.6177 303.727 41.7359 303.894 41.8098L306.442 43.2619C306.883 43.4964 307.377 43.6134 307.877 43.6016V14.0746Z" fill="#F0F0F0"/>
<path d="M325.354 7.62059L309.847 16.5798L314.662 46.9815L330.177 38.0223L325.354 7.62059Z" fill="#EBEBEB"/>
<path d="M310.459 17.0468L325.481 8.38489C326.652 9.24383 328.029 9.77713 329.472 9.93045L314.586 18.516C313.16 18.1791 311.776 17.6864 310.459 17.0468Z" fill="white"/>
<path d="M316.14 18.3971C315.655 18.6276 315.128 18.7584 314.591 18.7817C314.054 18.805 313.518 18.7204 313.015 18.5329L310.06 17.3271C309.134 16.9534 309.024 16.274 309.822 15.8155L324.624 7.32335L325.354 7.62057L310.807 16.0193C310.331 16.291 310.391 16.6986 310.951 16.9279L313.694 18.0319C313.997 18.145 314.319 18.1958 314.641 18.1812C314.964 18.1666 315.28 18.0869 315.571 17.947L330.118 9.56526L330.967 9.90495L316.14 18.3971Z" fill="#FAFAFA"/>
<path d="M330.942 9.90495L335.757 40.2982L320.963 48.7903C320.476 49.0192 319.948 49.1491 319.41 49.1724C318.872 49.1958 318.335 49.1121 317.83 48.9262L314.883 47.7203C314.416 47.5335 314.153 47.2702 314.11 46.99L309.295 16.5882C309.295 16.8685 309.601 17.1317 310.06 17.3186L313.015 18.5329C313.519 18.7172 314.055 18.7994 314.592 18.7746C315.128 18.7498 315.655 18.6186 316.14 18.3886L330.942 9.90495Z" fill="#E0E0E0"/>
<path d="M314.628 18.7452C314.08 18.7781 313.531 18.6971 313.015 18.5074L310.06 17.2931C309.601 17.1062 309.338 16.843 309.295 16.5627L314.11 46.9645C314.153 47.2447 314.416 47.508 314.883 47.6948L317.83 48.9007C318.345 49.0928 318.894 49.1766 319.443 49.147L314.628 18.7452Z" fill="#F0F0F0"/>
<path d="M351.127 62.8362L350.032 63.3712L329.685 51.6182L330.78 51.0916L351.127 62.8362Z" fill="#FAFAFA"/>
<path d="M330.78 51.0917L350.134 62.2673L352.953 33.3092L333.591 22.1421L330.78 51.0917Z" fill="white"/>
<path d="M327.613 52.5863L351.705 66.4964L355.025 32.3326L330.933 18.431L327.613 52.5863ZM332.606 21.5561L352.987 33.3092L350.066 63.3713L329.685 51.6182L332.606 21.5561Z" fill="#F0F0F0"/>
<path d="M329.685 51.6182L330.78 51.0917L333.591 22.1421L332.606 21.5561L329.685 51.6182Z" fill="#E0E0E0"/>
<path d="M330.933 18.431L332.046 17.9215L356.138 31.8316L355.025 32.3411L330.933 18.431Z" fill="#FAFAFA"/>
<path d="M356.138 31.8316L355.025 32.3411L351.705 66.4964L352.817 65.9784L356.138 31.8316Z" fill="#E0E0E0"/>
<path d="M331.629 50.5398L349.48 60.8407L349.955 55.9662L346.635 41.6315L343.467 46.523L344.121 50.6417L338.848 35.4408L332.105 45.6653L331.629 50.5398Z" fill="#F0F0F0"/>
<path d="M346.907 35.6021C347.277 35.8373 347.58 36.1642 347.787 36.551C347.994 36.9378 348.097 37.3715 348.087 37.81C348.011 38.5998 347.357 38.9055 346.627 38.4894C346.256 38.2541 345.953 37.9272 345.746 37.5404C345.54 37.1536 345.436 36.7199 345.446 36.2814C345.523 35.4832 346.177 35.1775 346.907 35.6021Z" fill="#F0F0F0"/>
<path opacity="0.05" d="M361.157 60.8321C357.853 62.7343 357.853 65.8254 361.157 67.7362C363.01 68.6741 365.058 69.1629 367.135 69.1629C369.212 69.1629 371.26 68.6741 373.114 67.7362C376.417 65.8254 376.408 62.7343 373.114 60.8321C371.261 59.8901 369.213 59.3992 367.135 59.3992C365.057 59.3992 363.009 59.8901 361.157 60.8321Z" fill="black"/>
<path d="M372.511 65.6386C375.381 62.7003 377.071 55.3802 374.268 53.0533H360.002C357.191 55.3802 358.881 62.7003 361.751 65.6386L361.836 65.715L361.929 65.8085L362.193 66.0462L362.261 66.0972C362.331 66.1557 362.404 66.2096 362.481 66.2585C362.597 66.3467 362.719 66.4261 362.847 66.4963C364.174 67.1706 365.642 67.522 367.131 67.522C368.62 67.522 370.088 67.1706 371.415 66.4963C371.545 66.4251 371.669 66.3457 371.789 66.2585L371.993 66.1057L372.077 66.0377L372.324 65.817L372.443 65.7066L372.511 65.6386Z" fill="#F5F5F5"/>
<path d="M361.233 51.9324C357.98 53.8176 357.98 56.8578 361.233 58.7261C363.061 59.6513 365.082 60.1335 367.131 60.1335C369.18 60.1335 371.2 59.6513 373.028 58.7261C376.281 56.8493 376.281 53.8006 373.028 51.9324C371.2 51.0071 369.18 50.5249 367.131 50.5249C365.082 50.5249 363.061 51.0071 361.233 51.9324Z" fill="white"/>
<path d="M363.543 53.2656C361.564 54.4121 361.564 56.2634 363.543 57.4098C364.654 57.9751 365.884 58.2698 367.131 58.2698C368.378 58.2698 369.607 57.9751 370.719 57.4098C372.697 56.2634 372.697 54.4121 370.719 53.2656C369.607 52.7003 368.378 52.4057 367.131 52.4057C365.884 52.4057 364.654 52.7003 363.543 53.2656Z" fill="#EBEBEB"/>
<path d="M370.719 55.2613C369.607 54.696 368.378 54.4013 367.131 54.4013C365.884 54.4013 364.654 54.696 363.543 55.2613C363.064 55.5182 362.658 55.8921 362.362 56.3483C362.66 56.8026 363.066 57.176 363.543 57.4353C364.654 58.0006 365.884 58.2953 367.131 58.2953C368.378 58.2953 369.607 58.0006 370.719 57.4353C371.198 57.176 371.607 56.8027 371.908 56.3483C371.609 55.8918 371.2 55.5179 370.719 55.2613Z" fill="#E0E0E0"/>
<path d="M363.985 56.3228C362.969 55.294 362.095 54.1345 361.386 52.875C360.189 50.752 359.968 47.9156 360.588 47.5674C361.208 47.2193 363.73 50.0471 363.73 50.0471C363.495 48.8565 363.403 47.6419 363.458 46.4295C363.56 44.5442 364.018 42.8288 364.562 42.4807C365.105 42.1325 366.311 44.5188 366.829 46.2427C367.347 47.9666 367.679 49.3847 367.679 49.3847C367.883 48.0379 368.193 46.7092 368.604 45.4104C369.233 43.6186 369.802 43.2195 370.243 43.3978C370.685 43.5761 370.982 44.4084 371.092 46.7946C371.14 47.9281 371.103 49.0635 370.982 50.1915C370.982 50.1915 371.874 49.2149 372.859 48.2638C373.844 47.3127 374.413 47.0834 374.719 47.2787C375.024 47.474 375.118 49.096 373.436 52.1362C372.603 53.6819 371.534 55.0886 370.269 56.3058C370.269 56.3058 367.95 57.8089 363.985 56.3228Z" fill="#EBEBEB"/>
<path opacity="0.99" d="M27.1701 263.7C15.2812 270.553 15.2812 281.661 27.1701 288.514C39.0591 295.367 58.2767 295.359 70.1402 288.514C82.0037 281.669 82.0291 270.553 70.1402 263.7C58.2512 256.847 39.0591 256.847 27.1701 263.7Z" fill="#E0E0E0"/>
<path d="M247.006 359.27C280.094 359.27 306.917 343.785 306.917 324.682C306.917 305.579 280.094 290.094 247.006 290.094C213.917 290.094 187.094 305.579 187.094 324.682C187.094 343.785 213.917 359.27 247.006 359.27Z" fill="#E0E0E0"/>
<path d="M145.915 360.349C180.031 360.349 207.687 344.38 207.687 324.682C207.687 304.984 180.031 289.015 145.915 289.015C111.8 289.015 84.1438 304.984 84.1438 324.682C84.1438 344.38 111.8 360.349 145.915 360.349Z" fill="#E0E0E0"/>
<path opacity="0.99" d="M347.773 285.134L385.342 263.488C385.534 263.423 385.7 263.3 385.818 263.135C385.937 262.971 386 262.773 386 262.571C386 262.368 385.937 262.171 385.818 262.006C385.7 261.842 385.534 261.718 385.342 261.654L304.565 214.913C304.076 214.664 303.534 214.534 302.985 214.534C302.436 214.534 301.895 214.664 301.406 214.913L263.845 236.517C263.653 236.582 263.487 236.705 263.369 236.87C263.251 237.034 263.187 237.232 263.187 237.434C263.187 237.637 263.251 237.834 263.369 237.998C263.487 238.163 263.653 238.286 263.845 238.351L344.622 285.134C345.11 285.382 345.65 285.511 346.197 285.511C346.745 285.511 347.285 285.382 347.773 285.134Z" fill="#E0E0E0"/>
<path d="M31.4162 280.302C22.3891 270.961 17.09 247.455 25.8963 240.067H70.6497C79.4475 247.455 74.1485 270.969 65.1298 280.285C65.0534 280.379 64.9685 280.464 64.8836 280.548L64.5779 280.854C64.3231 281.1 64.0514 281.347 63.7287 281.585L63.5079 281.754C63.2871 281.933 63.0663 282.111 62.8285 282.281C62.4538 282.55 62.0654 282.799 61.6651 283.028C54.2345 287.368 42.2012 287.368 34.7791 283.028C34.3712 282.799 33.977 282.547 33.5987 282.272C33.3779 282.111 33.174 281.95 32.9702 281.788L32.6985 281.576C32.4182 281.347 32.1635 281.109 31.9172 280.871L31.5521 280.515L31.4162 280.302Z" fill="#EBEBEB"/>
<path d="M66.7605 237.069C76.9511 243.013 76.9511 252.711 66.7605 258.673C56.57 264.634 39.9679 264.617 29.7519 258.673C19.5359 252.728 19.5614 243.03 29.7519 237.069C39.9425 231.107 56.5361 231.099 66.7605 237.069Z" fill="#FAFAFA"/>
<path d="M61.8433 239.939C69.3504 244.321 69.3504 251.421 61.8433 255.802C54.3363 260.184 42.1671 260.184 34.6686 255.802C27.1701 251.421 27.1616 244.321 34.6686 239.939C42.1756 235.557 54.3448 235.557 61.8433 239.939Z" fill="#EBEBEB"/>
<path d="M34.6688 247.472C42.1673 243.09 54.3365 243.09 61.8435 247.472C63.6628 248.465 65.2066 249.895 66.3359 251.633C65.2071 253.373 63.6634 254.806 61.8435 255.802C54.3365 260.184 42.1673 260.184 34.6688 255.802C32.8448 254.809 31.2977 253.376 30.168 251.633C31.2985 249.893 32.8456 248.463 34.6688 247.472Z" fill="white"/>
<path d="M42.1249 191.84C39.1017 195.661 30.0151 197.343 25.4888 187.984C21.2258 179.246 16.7504 170.924 15.4087 167.688C14.0669 164.453 17.26 163.103 17.26 163.103C17.26 163.103 17.1411 158.118 25.82 160.835C34.4989 163.553 40.8341 168.223 45.1396 176.214C49.4451 184.205 47.6787 190.286 42.1249 191.84Z" fill="#F0F0F0"/>
<path d="M46.7445 204.315C46.4655 202.636 46.0912 200.975 45.6235 199.338C44.6766 196.093 43.496 192.92 42.0908 189.844C39.2287 183.582 35.4791 177.764 30.9576 172.571C28.4374 169.611 25.6455 166.893 22.6184 164.453C22.5335 164.385 22.474 164.58 22.542 164.64C27.6526 169.245 32.12 174.518 35.8236 180.316C39.3986 186.027 42.2162 192.179 44.2053 198.617C44.7715 200.417 45.2951 202.229 45.7764 204.051C46.2604 205.903 46.6256 207.788 47.0587 209.648C47.1096 209.835 47.4069 209.92 47.3984 209.648C47.3158 207.856 47.0972 206.073 46.7445 204.315Z" fill="#E0E0E0"/>
<path opacity="0.1" d="M46.7445 204.315C46.4655 202.636 46.0912 200.975 45.6235 199.338C44.6766 196.093 43.496 192.92 42.0908 189.844C39.2287 183.582 35.4791 177.764 30.9576 172.571C28.4374 169.611 25.6455 166.893 22.6184 164.453C22.5335 164.385 22.474 164.58 22.542 164.64C27.6526 169.245 32.12 174.518 35.8236 180.316C39.3986 186.027 42.2162 192.179 44.2053 198.617C44.7715 200.417 45.2951 202.229 45.7764 204.051C46.2604 205.903 46.6256 207.788 47.0587 209.648C47.1096 209.835 47.4069 209.92 47.3984 209.648C47.3158 207.856 47.0972 206.073 46.7445 204.315Z" fill="black"/>
<path d="M51.9671 185.131C44.0864 187.568 38.2099 181.42 40.265 171.773C42.3201 162.126 52.4257 151.392 56.2471 154.296C58.6419 151.902 63.89 152.759 66.3867 160.597C68.8834 168.436 66.6075 188.587 51.9671 185.131Z" fill="#E0E0E0"/>
<path d="M56.5955 160.164C54.3573 165.782 52.6044 171.58 51.3558 177.497C50.0121 183.486 48.9972 189.544 48.3157 195.644C47.031 207.454 46.4921 219.332 46.7022 231.209C46.7022 234.496 46.7701 237.774 46.8295 241.06C46.889 244.347 46.8295 247.854 47.1268 251.251C47.2372 252.541 49.0715 252.193 49.0969 251.013C49.2158 245.068 48.8931 239.175 48.8337 233.264C48.7742 227.354 48.8337 221.579 48.9441 215.737C49.1415 203.834 50.2059 191.962 52.1286 180.214C52.6891 176.945 53.3175 173.675 54.0818 170.448C54.8801 167.051 55.8651 163.697 56.7568 160.326C56.8247 160.156 56.6719 159.978 56.5955 160.164Z" fill="#E0E0E0"/>
<path opacity="0.1" d="M56.5955 160.164C54.3573 165.782 52.6044 171.58 51.3558 177.497C50.0121 183.486 48.9972 189.544 48.3157 195.644C47.031 207.454 46.4921 219.332 46.7022 231.209C46.7022 234.496 46.7701 237.774 46.8295 241.06C46.889 244.347 46.8295 247.854 47.1268 251.251C47.2372 252.541 49.0715 252.193 49.0969 251.013C49.2158 245.068 48.8931 239.175 48.8337 233.264C48.7742 227.354 48.8337 221.579 48.9441 215.737C49.1415 203.834 50.2059 191.962 52.1286 180.214C52.6891 176.945 53.3175 173.675 54.0818 170.448C54.8801 167.051 55.8651 163.697 56.7568 160.326C56.8247 160.156 56.6719 159.978 56.5955 160.164Z" fill="black"/>
<path d="M37.3098 211.516C35.0339 216.195 27.3401 217.979 20.385 212.688C13.43 207.397 3.40081 183.059 10.9758 182.668C11.5617 178.881 33.6412 181.454 40.7491 197.19C45.9208 208.646 37.3098 211.516 37.3098 211.516Z" fill="#E0E0E0"/>
<path d="M46.5493 221.8C45.895 220.306 45.1432 218.856 44.2989 217.461C42.6004 214.599 40.7746 211.839 38.813 209.155C34.7689 203.729 30.1821 198.73 25.1237 194.235C22.359 191.671 19.4347 189.286 16.3683 187.093C16.2834 187.033 16.2664 187.229 16.3174 187.271C18.8055 189.36 21.3107 191.415 23.6545 193.674C26.0768 196.018 28.3783 198.484 30.5501 201.062C34.7626 205.998 38.5815 211.257 41.972 216.79C42.9316 218.361 43.8063 219.983 44.7829 221.545C45.7595 223.108 46.9399 224.713 47.8825 226.377C48.0184 226.624 48.3751 226.624 48.2477 226.292C47.6617 224.815 47.1862 223.278 46.5493 221.8Z" fill="#E0E0E0"/>
<path opacity="0.1" d="M46.5493 221.8C45.895 220.306 45.1432 218.856 44.2989 217.461C42.6004 214.599 40.7746 211.839 38.813 209.155C34.7689 203.729 30.1821 198.73 25.1237 194.235C22.359 191.671 19.4347 189.286 16.3683 187.093C16.2834 187.033 16.2664 187.229 16.3174 187.271C18.8055 189.36 21.3107 191.415 23.6545 193.674C26.0768 196.018 28.3783 198.484 30.5501 201.062C34.7626 205.998 38.5815 211.257 41.972 216.79C42.9316 218.361 43.8063 219.983 44.7829 221.545C45.7595 223.108 46.9399 224.713 47.8825 226.377C48.0184 226.624 48.3751 226.624 48.2477 226.292C47.6617 224.815 47.1862 223.278 46.5493 221.8Z" fill="black"/>
<path d="M51.7464 209.563C47.2456 208.535 47.0163 203.126 52.6466 196.485C58.2769 189.844 72.4672 186.948 73.1381 189.742C76.2886 189.742 76.2886 199.619 69.3081 208.697C62.3276 217.775 52.171 215.66 51.7464 209.563Z" fill="#E0E0E0"/>
<path d="M60.5697 199.907C54.6133 204.053 50.07 209.924 47.5513 216.73C47.4069 217.121 48.0693 217.681 48.2307 217.265C50.7859 210.529 55.0535 204.576 60.6122 199.992C60.6122 199.992 60.6292 199.865 60.5697 199.907Z" fill="#E0E0E0"/>
<path opacity="0.1" d="M60.5697 199.907C54.6133 204.053 50.07 209.924 47.5513 216.73C47.4069 217.121 48.0693 217.681 48.2307 217.265C50.7859 210.529 55.0535 204.576 60.6122 199.992C60.6122 199.992 60.6292 199.865 60.5697 199.907Z" fill="black"/>
<path d="M56.8925 242.512C50.6508 245.06 53.3258 252.474 59.4401 258.112C65.5545 263.751 74.2419 265.246 78.4285 264.948C82.6151 264.651 83.6936 264.099 83.6936 264.099C83.6936 264.099 84.3645 257.679 83.6936 253.773C83.0198 250 81.2748 246.501 78.6668 243.693C76.0588 240.884 72.698 238.886 68.9853 237.935C59.2278 235.294 56.8925 238.801 56.8925 242.512Z" fill="#F0F0F0"/>
<path d="M74.1655 253.484C71.2782 250.257 68.221 247.047 64.6119 244.644C61.0027 242.241 56.3236 240.313 52.0605 241.773C50.4131 242.334 47.8145 243.981 48.1542 246.02C48.1542 246.223 48.5448 246.724 48.7911 246.444C49.4473 245.496 50.1985 244.616 51.033 243.82C52.0264 243.092 53.2023 242.654 54.4298 242.555C57.4776 242.34 60.5207 243.032 63.1767 244.542C67.4227 246.775 70.8196 250.249 74.157 253.577C74.157 253.62 74.191 253.518 74.1655 253.484Z" fill="#E0E0E0"/>
<path opacity="0.1" d="M74.1655 253.484C71.2782 250.257 68.221 247.047 64.6119 244.644C61.0027 242.241 56.3236 240.313 52.0605 241.773C50.4131 242.334 47.8145 243.981 48.1542 246.02C48.1542 246.223 48.5448 246.724 48.7911 246.444C49.4473 245.496 50.1985 244.616 51.033 243.82C52.0264 243.092 53.2023 242.654 54.4298 242.555C57.4776 242.34 60.5207 243.032 63.1767 244.542C67.4227 246.775 70.8196 250.249 74.157 253.577C74.157 253.62 74.191 253.518 74.1655 253.484Z" fill="black"/>
<path d="M33.1741 218.123C33.242 215.473 28.444 210.038 16.7504 210.973C11.4088 211.397 6.55984 212.841 2.59402 216.611C1.23984 217.845 0.34209 219.5 0.0463923 221.307C-0.0677287 222.011 0.0298177 222.732 0.326632 223.38C0.580552 223.83 0.924562 224.223 1.33719 224.534C4.13959 226.785 7.7827 226.19 11.0691 227.031C16.1644 228.33 26.9239 232.976 33.1486 229.885C39.3733 226.793 36.8852 220.059 33.1741 218.123Z" fill="#F0F0F0"/>
<path d="M43.526 225.409C36.8512 216.297 23.8158 215.533 13.6253 217.461C10.2721 218.089 7.0111 219.136 3.91877 220.577C3.87631 220.577 3.91877 220.705 3.91877 220.688C9.25058 218.742 14.8569 217.653 20.5293 217.461C26.1087 217.35 31.7304 218.055 36.7832 220.535C39.2821 221.782 41.5078 223.514 43.3306 225.63C43.5175 225.859 43.6618 225.596 43.526 225.409Z" fill="#E0E0E0"/>
<path opacity="0.1" d="M43.526 225.409C36.8512 216.297 23.8158 215.533 13.6253 217.461C10.2721 218.089 7.0111 219.136 3.91877 220.577C3.87631 220.577 3.91877 220.705 3.91877 220.688C9.25058 218.742 14.8569 217.653 20.5293 217.461C26.1087 217.35 31.7304 218.055 36.7832 220.535C39.2821 221.782 41.5078 223.514 43.3306 225.63C43.5175 225.859 43.6618 225.596 43.526 225.409Z" fill="black"/>
<path d="M62.9392 195.636C62.7778 200.111 69.0704 202.71 75.1678 198.837C81.2651 194.965 87.6427 191.194 93.2899 189.742C98.9372 188.29 101.612 183.679 99.8289 181.454C98.0455 179.229 95.2092 173.599 80.365 175.433C65.5207 177.267 60.2641 183.925 58.226 188.681C56.1879 193.436 60.7057 196.927 62.9392 195.636Z" fill="#F0F0F0"/>
<path d="M87.0989 181.437C84.953 181.232 82.7877 181.457 80.7298 182.099C78.8574 182.585 77.0327 183.239 75.2779 184.053C71.7819 185.68 68.6308 187.963 65.996 190.778C65.2464 191.582 64.5486 192.433 63.907 193.326C63.2573 194.113 62.7226 194.988 62.319 195.925C62.217 196.213 62.6501 196.697 62.9049 196.392C63.6437 195.542 64.1957 194.515 64.8836 193.615C65.626 192.658 66.4227 191.745 67.2699 190.88C68.9896 189.155 70.9114 187.644 72.9935 186.379C74.9969 185.143 77.1192 184.11 79.3286 183.297C80.5402 182.863 81.7732 182.492 83.0227 182.184C84.3285 181.782 85.6905 181.593 87.0565 181.624C87.1329 181.607 87.1669 181.446 87.0989 181.437Z" fill="#E0E0E0"/>
<path opacity="0.1" d="M87.0989 181.437C84.953 181.232 82.7877 181.457 80.7298 182.099C78.8574 182.585 77.0327 183.239 75.2779 184.053C71.7819 185.68 68.6308 187.963 65.996 190.778C65.2464 191.582 64.5486 192.433 63.907 193.326C63.2573 194.113 62.7226 194.988 62.319 195.925C62.217 196.213 62.6501 196.697 62.9049 196.392C63.6437 195.542 64.1957 194.515 64.8836 193.615C65.626 192.658 66.4227 191.745 67.2699 190.88C68.9896 189.155 70.9114 187.644 72.9935 186.379C74.9969 185.143 77.1192 184.11 79.3286 183.297C80.5402 182.863 81.7732 182.492 83.0227 182.184C84.3285 181.782 85.6905 181.593 87.0565 181.624C87.1329 181.607 87.1669 181.446 87.0989 181.437Z" fill="black"/>
<path d="M52.2897 219.787C50.2091 217.707 44.5619 218.191 41.8869 224.331C39.2119 230.47 44.8251 237.205 45.4536 239.098C48.0012 237.612 50.0393 238.496 54.5826 237.612C57.1076 237.007 59.3485 235.553 60.9312 233.495C62.5138 231.436 63.3423 228.897 63.2785 226.301C62.9813 220.679 60.6035 216.96 52.2897 219.787Z" fill="#F0F0F0"/>
<path d="M52.205 219.159C51.0742 219.878 50.131 220.856 49.4536 222.012C48.7132 223.077 48.1138 224.233 47.6702 225.452C46.6994 227.941 46.4264 230.648 46.8804 233.281C46.8804 233.383 46.9824 233.281 46.9824 233.23C46.7694 230.583 47.2188 227.924 48.2901 225.494C49.0677 223.807 50.1274 222.265 51.4237 220.934C51.8613 220.581 52.2599 220.183 52.6126 219.745C52.7655 219.516 52.5277 219.015 52.205 219.159Z" fill="#E0E0E0"/>
<path opacity="0.1" d="M52.205 219.159C51.0742 219.878 50.131 220.856 49.4536 222.012C48.7132 223.077 48.1138 224.233 47.6702 225.452C46.6994 227.941 46.4264 230.648 46.8804 233.281C46.8804 233.383 46.9824 233.281 46.9824 233.23C46.7694 230.583 47.2188 227.924 48.2901 225.494C49.0677 223.807 50.1274 222.265 51.4237 220.934C51.8613 220.581 52.2599 220.183 52.6126 219.745C52.7655 219.516 52.5277 219.015 52.205 219.159Z" fill="black"/>
<path d="M43.7043 236.305C42.5494 231.872 36.9106 229.383 29.5904 228.84C25.9753 228.512 22.3413 229.215 19.1097 230.869C15.8782 232.522 13.1815 235.058 11.3324 238.181C7.49396 244.746 5.90593 249.968 8.23277 250.826C10.5596 251.684 20.4274 253.051 26.7965 253.62C33.1656 254.189 41.1142 253.034 46.3284 248.202C51.5425 243.37 49.7847 237.315 43.7043 236.305Z" fill="#E0E0E0"/>
<path d="M43.9761 235.719C41.4879 234.912 38.626 235.056 36.0529 235.345C33.5049 235.639 30.9964 236.208 28.5714 237.043C26.0106 237.948 23.5306 239.068 21.1578 240.389C19.9179 241.08 18.6979 241.802 17.4977 242.555C16.3528 243.232 15.2574 243.99 14.2197 244.822C14.2197 244.822 14.2197 245.009 14.2197 244.983C15.4256 244.44 16.5551 243.676 17.7015 243.03C18.8479 242.385 20.1982 241.646 21.4635 241.009C23.8491 239.786 26.3247 238.747 28.8686 237.901C31.391 237.039 34.0038 236.469 36.6559 236.203C39.1312 236.077 41.6127 236.142 44.078 236.398C44.579 236.457 44.2903 235.812 43.9761 235.719Z" fill="#E0E0E0"/>
<path opacity="0.1" d="M43.9761 235.719C41.4879 234.912 38.626 235.056 36.0529 235.345C33.5049 235.639 30.9964 236.208 28.5714 237.043C26.0106 237.948 23.5306 239.068 21.1578 240.389C19.9179 241.08 18.6979 241.802 17.4977 242.555C16.3528 243.232 15.2574 243.99 14.2197 244.822C14.2197 244.822 14.2197 245.009 14.2197 244.983C15.4256 244.44 16.5551 243.676 17.7015 243.03C18.8479 242.385 20.1982 241.646 21.4635 241.009C23.8491 239.786 26.3247 238.747 28.8686 237.901C31.391 237.039 34.0038 236.469 36.6559 236.203C39.1312 236.077 41.6127 236.142 44.078 236.398C44.579 236.457 44.2903 235.812 43.9761 235.719Z" fill="black"/>
<path d="M57.054 225.426C52.0097 221.418 53.6571 211.839 71.3462 211.295C89.0353 210.752 101.595 215.38 101.069 221.061C103.913 223.906 102.47 231.863 88.1861 234.343C73.9023 236.823 53.4109 235.591 57.054 225.426Z" fill="#E0E0E0"/>
<path d="M92.7377 221.129C87.5275 220.274 82.2423 219.963 76.9678 220.204C72.1273 220.339 67.1 220.569 62.4124 221.902C61.192 222.237 60.004 222.68 58.8627 223.227C58.3321 223.481 57.8162 223.764 57.3171 224.076C56.918 224.322 56.4679 224.534 56.3235 225.002C56.3095 225.075 56.3132 225.151 56.3341 225.223C56.3551 225.295 56.3928 225.361 56.4441 225.416C56.4955 225.47 56.559 225.512 56.6295 225.538C56.7001 225.563 56.7756 225.571 56.85 225.562C57.92 225.316 58.9221 224.484 59.9327 224.033C60.9263 223.596 61.9476 223.225 62.9898 222.921C64.9962 222.346 67.0471 221.94 69.1211 221.707C74.0606 221.08 79.0376 220.796 84.0163 220.857C86.9206 220.857 89.8079 221.121 92.7037 221.35C92.7886 221.341 92.8226 221.146 92.7377 221.129Z" fill="#E0E0E0"/>
<path opacity="0.1" d="M92.7377 221.129C87.5275 220.274 82.2423 219.963 76.9678 220.204C72.1273 220.339 67.1 220.569 62.4124 221.902C61.192 222.237 60.004 222.68 58.8627 223.227C58.3321 223.481 57.8162 223.764 57.3171 224.076C56.918 224.322 56.4679 224.534 56.3235 225.002C56.3095 225.075 56.3132 225.151 56.3341 225.223C56.3551 225.295 56.3928 225.361 56.4441 225.416C56.4955 225.47 56.559 225.512 56.6295 225.538C56.7001 225.563 56.7756 225.571 56.85 225.562C57.92 225.316 58.9221 224.484 59.9327 224.033C60.9263 223.596 61.9476 223.225 62.9898 222.921C64.9962 222.346 67.0471 221.94 69.1211 221.707C74.0606 221.08 79.0376 220.796 84.0163 220.857C86.9206 220.857 89.8079 221.121 92.7037 221.35C92.7886 221.341 92.8226 221.146 92.7377 221.129Z" fill="black"/>
<path d="M338.576 263.726L341.803 279.725L344.936 281.534L348.044 279.742L351.297 263.726L344.936 260.048L338.576 263.726Z" fill="#E0E0E0"/>
<path opacity="0.05" d="M338.576 263.726L341.803 279.725L344.936 281.534L348.044 279.742L351.297 263.726L344.936 260.048L338.576 263.726Z" fill="black"/>
<path d="M344.936 281.534V267.394L338.576 263.726L341.803 279.725L344.936 281.534Z" fill="#EBEBEB"/>
<path opacity="0.05" d="M338.576 263.726L340.656 274.06L344.936 276.532L349.191 274.069L351.297 263.726L344.936 260.048L338.576 263.726Z" fill="black"/>
<path d="M366.549 247.574L369.776 263.573L372.909 265.39L376.017 263.59L379.27 247.574L372.909 243.896L366.549 247.574Z" fill="#E0E0E0"/>
<path opacity="0.05" d="M366.549 247.574L369.776 263.573L372.909 265.39L376.017 263.59L379.27 247.574L372.909 243.896L366.549 247.574Z" fill="black"/>
<path d="M372.909 265.39V251.242L366.549 247.574L369.776 263.573L372.909 265.39Z" fill="#EBEBEB"/>
<path opacity="0.05" d="M366.549 247.574L368.629 257.908L372.909 260.38L377.172 257.917L379.27 247.574L372.909 243.896L366.549 247.574Z" fill="black"/>
<path d="M270.121 224.22L273.348 240.228L276.482 242.037L279.59 240.245L282.842 224.22L276.482 220.543L270.121 224.22Z" fill="#EBEBEB"/>
<path opacity="0.05" d="M270.121 224.22L273.348 240.228L276.482 242.037L279.59 240.245L282.842 224.22L276.482 220.543L270.121 224.22Z" fill="black"/>
<path d="M276.482 242.037V227.897L270.121 224.22L273.348 240.228L276.482 242.037Z" fill="#EBEBEB"/>
<path opacity="0.05" d="M270.121 224.22L272.21 234.555L276.482 237.026L280.745 234.564L282.842 224.22L276.482 220.543L270.121 224.22Z" fill="black"/>
<path d="M344.936 273.95L379.601 253.926V178.889L344.936 198.905V273.95Z" fill="#E0E0E0"/>
<path d="M344.936 198.905L268.32 154.695V229.732L344.936 273.95V198.905Z" fill="#EBEBEB"/>
<path d="M268.32 154.695L344.936 198.905L379.601 178.889L302.994 134.68L268.32 154.695Z" fill="#F5F5F5"/>
<path d="M339.986 236.084L273.272 197.58V225.12L272.363 225.647L339.068 264.142L339.986 263.615V236.084Z" fill="#E0E0E0"/>
<path d="M339.068 236.61L272.363 198.107V225.647L339.068 264.142V236.61Z" fill="#F5F5F5"/>
<path d="M308.522 226.055L301.779 222.165C300.93 221.656 300.2 221.885 300.2 222.675C300.263 223.161 300.439 223.626 300.713 224.033C300.987 224.44 301.352 224.777 301.779 225.019L308.522 228.908C309.371 229.417 310.102 229.188 310.102 228.398C310.038 227.912 309.863 227.447 309.589 227.04C309.314 226.633 308.949 226.296 308.522 226.055Z" fill="#E0E0E0"/>
<path d="M339.986 202.829L273.272 164.334V191.874L272.363 192.4L339.077 230.895L339.986 230.369V202.829Z" fill="#E0E0E0"/>
<path d="M339.077 203.355L272.363 164.86V192.4L339.077 230.895V203.355Z" fill="#F5F5F5"/>
<path d="M308.522 192.833L301.779 188.944C300.93 188.443 300.2 188.672 300.2 189.462C300.264 189.948 300.441 190.413 300.715 190.819C300.989 191.226 301.353 191.564 301.779 191.806L308.522 195.695C309.371 196.196 310.102 195.967 310.102 195.177C310.037 194.691 309.861 194.227 309.587 193.82C309.313 193.413 308.948 193.076 308.522 192.833Z" fill="#E0E0E0"/>
<path d="M335.841 169.055C332.003 171.272 332.003 174.864 335.841 177.081C339.68 179.297 345.896 179.297 349.734 177.081C353.573 174.864 353.573 171.272 349.734 169.055C345.896 166.839 339.68 166.814 335.841 169.055Z" fill="#E0E0E0"/>
<path d="M348.894 173.539C352.239 170.142 354.201 161.65 350.94 158.907H334.355C331.103 161.616 333.064 170.125 336.402 173.531C336.428 173.566 336.46 173.598 336.495 173.624L336.605 173.743C336.699 173.828 336.801 173.921 336.911 174.006L336.988 174.074C337.073 174.134 337.149 174.202 337.242 174.261L337.675 174.541C339.217 175.325 340.922 175.733 342.652 175.733C344.381 175.733 346.086 175.325 347.628 174.541L348.061 174.261L348.299 174.083L348.393 174.006C348.494 173.921 348.596 173.837 348.69 173.743L348.817 173.616L348.894 173.539Z" fill="#EBEBEB"/>
<path d="M335.799 157.82C332.02 160.003 332.02 163.553 335.799 165.735C339.578 167.918 345.718 167.918 349.497 165.735C353.276 163.553 353.284 160.003 349.497 157.82C345.709 155.638 339.586 155.638 335.799 157.82Z" fill="#FAFAFA"/>
<path d="M338.482 159.375C336.181 160.699 336.181 162.856 338.482 164.181C339.774 164.838 341.203 165.181 342.652 165.181C344.101 165.181 345.53 164.838 346.821 164.181C349.123 162.856 349.123 160.699 346.821 159.375C345.53 158.717 344.101 158.375 342.652 158.375C341.203 158.375 339.774 158.717 338.482 159.375Z" fill="#F5F5F5"/>
<path d="M346.822 161.659C345.53 161.002 344.101 160.659 342.652 160.659C341.203 160.659 339.774 161.002 338.482 161.659C337.926 161.956 337.453 162.388 337.107 162.916C337.45 163.448 337.923 163.883 338.482 164.181C339.774 164.838 341.203 165.181 342.652 165.181C344.101 165.181 345.53 164.838 346.822 164.181C347.379 163.881 347.852 163.446 348.197 162.916C347.849 162.39 347.376 161.959 346.822 161.659Z" fill="#EBEBEB"/>
<path d="M338.992 162.916C337.814 161.719 336.8 160.371 335.977 158.907C334.585 156.453 334.33 153.15 335.043 152.742C335.756 152.335 338.695 155.629 338.695 155.629C338.425 154.245 338.323 152.834 338.389 151.426C338.508 149.235 339.043 147.239 339.671 146.84C340.3 146.441 341.701 149.201 342.304 151.205C342.907 153.209 343.272 154.857 343.272 154.857C343.512 153.294 343.872 151.752 344.35 150.245C345.081 148.165 345.743 147.698 346.261 147.902C346.779 148.105 347.11 149.074 347.263 151.85C347.315 153.174 347.273 154.499 347.136 155.816C347.136 155.816 348.172 154.678 349.318 153.574C350.465 152.47 351.119 152.199 351.475 152.428C351.832 152.657 351.934 154.542 349.981 158.075C349.014 159.87 347.774 161.503 346.304 162.916C346.304 162.916 343.603 164.657 338.992 162.916Z" fill="#E0E0E0"/>
<path d="M320.182 166.831L318.959 167.434L296.039 154.415L297.27 153.821L320.182 166.831Z" fill="#FAFAFA"/>
<path d="M297.27 153.821L319.07 166.194L321.999 133.694L300.2 121.321L297.27 153.821Z" fill="white"/>
<path d="M293.721 155.519L320.853 170.932L324.318 132.599L297.143 117.186L293.721 155.519ZM299.079 120.701L322.008 133.72L318.968 167.459L296.039 154.449L299.079 120.701Z" fill="#F0F0F0"/>
<path d="M296.039 154.415L297.27 153.821L300.2 121.321L299.079 120.676L296.039 154.415Z" fill="#E0E0E0"/>
<path d="M297.177 117.186L298.425 116.6L325.557 132.013L324.309 132.599L297.177 117.186Z" fill="#FAFAFA"/>
<path d="M325.557 132.013L324.309 132.599L320.853 170.932L322.101 170.346L325.557 132.013Z" fill="#E0E0E0"/>
<path d="M298.221 153.193L318.314 164.606L318.815 159.137L314.976 143.087L311.461 148.598L312.233 153.21L306.195 136.2L298.714 147.715L298.221 153.193Z" fill="#F0F0F0"/>
<path d="M315.231 136.318C315.651 136.575 315.996 136.938 316.232 137.37C316.468 137.802 316.585 138.289 316.573 138.781C316.496 139.673 315.723 140.021 314.942 139.554C314.522 139.297 314.177 138.935 313.941 138.502C313.706 138.07 313.588 137.583 313.6 137.091C313.685 136.2 314.416 135.851 315.231 136.318Z" fill="#F0F0F0"/>
<path d="M257.459 310.305L261.23 308.521L257.51 307.519L257.459 310.305Z" fill="#263238"/>
<path d="M294.875 317.056C294.875 317.056 250.36 297.635 249.808 300.522C249.679 301.095 249.679 301.69 249.808 302.263L249.68 302.101L250.53 307.494C252.528 309.065 254.931 310.039 257.459 310.305C257.459 310.042 257.459 308.437 257.51 307.519C258.878 308.065 260.192 308.739 261.433 309.532C264.287 311.358 266.121 314.542 269.153 318.245C271.361 320.937 275.293 322.202 281.118 323.009C287.394 323.858 292.922 322.729 294.476 321.107C295.725 319.816 295.096 317.43 294.875 317.056Z" fill="#263238"/>
<path d="M293.644 316.054C293.22 315.621 291.632 313.931 289.483 312.097C287.598 310.483 285.415 308.453 283.055 306.806C281.924 306.047 280.859 305.194 279.87 304.258C279.089 303.409 278.35 302.619 277.654 301.711C275.543 298.988 273.74 296.04 272.278 292.921C271.582 291.452 270.316 288.225 270.673 282.247C271.225 273.186 271.989 269.916 272.023 264.031L250.793 266.791C251.413 270.052 252.075 277.338 252.398 281.049C252.899 286.697 253.757 287.232 251.472 292.853C250.801 294.552 249.774 296.106 249.706 297.881C249.57 300.768 251.922 303.265 254.555 304.674C256.737 305.855 259.243 306.373 261.349 307.604C263.494 309.014 265.372 310.794 266.894 312.861C268.389 314.712 269.595 316.895 271.692 318.194C274.027 319.638 276.244 320.088 278.944 320.623C282.163 321.175 285.436 321.338 288.693 321.107C293.321 320.818 296.761 319.204 293.644 316.054Z" fill="#FFBDA7"/>
<path d="M291.088 312.895C289.177 311.341 286.46 309.107 283.173 306.602C282.044 306.221 280.847 306.077 279.659 306.179C278.471 306.281 277.317 306.628 276.269 307.197C269.654 310.534 268.524 315.281 268.524 315.281C269.663 317.446 271.6 319.082 273.925 319.841C281.568 323.068 295.241 322.066 295.376 318.678C295.461 316.512 293.423 314.789 291.088 312.895ZM251.897 291.665C251.897 291.665 251.447 292.777 250.283 294.959C249.12 297.142 248.899 299.316 250.351 301.498C252.27 304.386 254.597 305.277 257.052 305.889C259.166 299.477 254.546 293.04 251.897 291.682V291.665Z" fill="#37474F"/>
<path d="M224.501 306.755C224.654 308.955 224.425 315.51 224.892 320.419C225.325 324.877 226.591 331.798 225.546 337.08C224.451 342.498 219.551 348.375 212.332 343.764C207.857 340.91 205.963 337.318 205.139 330.915C204.57 326.465 206.396 320.198 207.95 314.644C209.776 308.156 210.43 304.7 210.43 304.7L224.501 306.755Z" fill="#263238"/>
<path d="M208.901 274.4C208.901 280.429 209.649 290.408 209.971 297.083C209.971 300.191 210.065 304.547 209.411 307.859C208.562 312.156 207.627 318.117 207.008 320.903C206.158 324.801 205.47 327.263 207.152 331.527C207.295 331.862 207.475 332.181 207.687 332.478C209.946 335.959 215.466 338.422 217.181 337.921C217.581 338.314 218.076 338.596 218.619 338.738C219.161 338.879 219.731 338.876 220.272 338.728C220.465 338.691 220.654 338.642 220.841 338.583C221.037 338.523 221.227 338.447 221.41 338.354C222.084 338.013 222.68 337.534 223.158 336.949C223.636 336.364 223.987 335.686 224.187 334.957C224.287 334.646 224.367 334.328 224.425 334.006C225.113 330.538 225.225 326.98 224.756 323.476C224.603 320.928 224.51 317.277 224.62 313.353C224.731 309.43 228.442 288.905 229.877 276.574L208.901 274.4Z" fill="#FFBDA7"/>
<path d="M206.091 325.964C210.337 324.147 223.075 323.612 225.266 328.801C225.495 333.751 225.266 336.911 221.809 341.369C217.241 347.313 210.77 341.471 208.282 337.717C205.793 333.964 205.607 328.656 206.091 325.964Z" fill="#37474F"/>
<path d="M223.134 126.119C217.283 135.367 211.916 145.193 211.245 166.364C210.396 194.252 213.317 219.015 213.054 222.411C212.791 225.808 211.313 231.311 208.749 247.981C206.184 264.651 209.105 296.998 209.105 296.998C209.105 296.998 210.999 300.828 217.657 301.685C223.805 302.475 226.735 299.758 226.735 299.758C226.735 299.758 237.231 255.208 240.016 245.221C242.802 235.235 247.005 199.491 247.005 199.491L248.05 218.454C248.05 218.454 245.757 227.617 246.971 242.376C248.186 257.136 252.593 285.686 252.593 285.686C252.593 285.686 255.336 288.556 261.892 288.421C267.879 288.293 270.953 285.168 270.953 285.168C270.953 285.168 277.628 229.12 278.375 212.501C279.123 195.882 279.326 154.262 274.978 129.389L223.134 126.119Z" fill="#37474F"/>
<path d="M251.031 164.809L247.005 199.483L248.05 218.446L248.568 198.854L254.334 167.501C258.58 166.712 269.535 159.859 270.571 153.107C264.567 161.829 251.031 164.809 251.031 164.809ZM224.773 266.078C223.392 274.796 222.126 283.535 220.977 292.293C222.834 283.648 224.575 274.986 226.2 266.307C227.847 257.62 229.384 248.958 230.904 240.228C232.424 231.498 233.783 211.754 234.429 202.956C235.074 194.158 235.499 185.343 235.804 176.529C234.785 185.301 233.885 194.073 232.985 202.854C232.085 211.635 230.505 231.303 229.079 239.982C227.652 248.661 226.123 257.373 224.773 266.078ZM270.503 202.854C270.503 206.676 270.58 210.497 270.342 214.301C270.104 218.106 269.679 221.944 269.306 225.732L268.185 237.188C267.432 244.831 266.769 252.474 266.198 260.116C267.477 252.536 268.609 244.935 269.594 237.315C270.597 229.672 271.548 222.097 272.142 214.386C272.465 206.625 272.142 198.973 271.751 191.288C271.361 183.603 270.732 175.943 269.841 168.308L270.308 191.33C270.41 195.186 270.495 199.024 270.503 202.854Z" fill="#263238"/>
<path d="M227.847 27.1524C221.003 29.4453 219.542 36.1626 219.355 47.6694C219.296 52.1362 219.466 56.0935 215.687 59.1337C213.674 60.7642 211.279 61.9616 209.564 63.9063C206.719 67.1248 206.473 72.6447 209.657 75.532C208.471 76.0156 207.439 76.8136 206.673 77.8402C205.907 78.8667 205.435 80.0828 205.309 81.3576C205.094 83.9282 205.838 86.4876 207.398 88.5419C210.472 92.8389 216.451 94.4864 221.529 93.5183C222.777 96.9151 226.412 99.0891 230.021 99.3184C233.63 99.5477 237.206 98.0955 240.212 96.0489C242.122 99.6665 246.912 100.838 250.674 100.244C252.606 99.9493 254.451 99.2443 256.088 98.1765C257.724 97.1086 259.112 95.7027 260.16 94.0533C260.283 93.8138 260.472 93.6138 260.703 93.4758C260.886 93.3997 261.083 93.3649 261.281 93.3739C263.871 93.3145 266.333 93.306 268.66 92.1001C270.777 91.146 272.594 89.6343 273.917 87.7266C274.779 86.37 275.276 84.8139 275.361 83.2088C275.505 81.8642 275.273 80.5058 274.69 79.2855C276.881 77.5871 277.084 72.4918 276.388 69.7573C275.692 67.0229 273.9 64.7555 271.964 62.7344C270.028 60.7133 267.888 58.862 266.24 56.5946C264.859 54.7115 264.183 52.4033 264.329 50.0726C264.329 48.7054 263.692 46.2002 264.644 45.0198C264.644 45.0198 268.805 39.8566 268.558 34.3453C268.434 30.5095 267.035 26.8245 264.582 23.8731C262.129 20.9217 258.762 18.8722 255.013 18.0489C246.572 15.9344 231.261 16.8091 227.847 27.1524Z" fill="#263238"/>
<path d="M261.213 72.8061C266.461 73.2561 274.681 73.961 279.607 84.6186C285.458 97.2718 290.485 109.186 294.731 126.077L282.146 126.875L270.962 108.948L261.213 72.8061Z" fill="#FFBDA7"/>
<path d="M284.702 111.224C282.635 109.125 280.832 106.781 279.335 104.244C282.112 97.4501 279.683 85.3828 269.094 79.2515L266.928 93.9853L270.962 108.948L282.146 126.875C282.146 126.875 293.967 135.367 294.392 129.491C294.392 129.202 294.392 128.93 294.392 128.642C294.281 127.359 294.111 126.094 293.916 124.795C292.634 118.239 287.301 113.738 284.702 111.224Z" fill="#F0997A"/>
<path d="M216.06 139.376C213.666 134.153 218.846 129.185 219.669 121.415C220.238 116.099 216.765 103.063 216.765 103.063C216.765 103.063 225.877 95.2507 222.71 74.8102L240.084 71.787C253.29 71.0227 261.213 72.806 261.213 72.806C264.771 75.5405 270.817 79.7526 274.894 86.2066C281.025 95.9046 278.486 103.76 272.856 110.324C272.805 111.581 272.66 118.23 276.193 131.69C276.694 133.601 277.985 136.972 276.414 138.764C267.582 148.802 231.72 152.479 216.06 139.376Z" fill="#BA68C8"/>
<path d="M225.707 46.472C227.176 44.7226 230.225 43.9244 231.779 46.2512C232.739 47.6864 233.036 50.1236 234.437 49.7245C235.286 49.4867 235.575 48.4592 235.21 46.5994C235.21 46.7013 236.322 46.0049 236.399 45.937C237.452 45.0029 237.188 43.6356 237.52 42.4128C237.885 41.054 238.946 40.0265 239.575 38.8036C240.568 36.8844 240.144 34.5576 239.719 32.5025C239.532 31.6533 239.405 30.5833 240.033 29.9548C240.547 29.5465 241.197 29.3518 241.851 29.4113C243.893 29.5672 245.915 29.9227 247.889 30.4729C249.875 31.0195 251.98 30.9514 253.926 30.2775C254.776 29.9294 255.447 29.4283 256.228 29.0122C256.994 28.5571 257.891 28.3718 258.775 28.4857C259.508 28.6858 260.174 29.0787 260.703 29.6237C263.378 32.0949 264.27 36.0267 264.949 39.483C265.34 42.0909 265.51 44.7271 265.459 47.3637C265.807 58.6157 263.854 61.4181 261.527 63.3968C259.531 65.0952 256.432 66.0293 252.712 66.0718L252.831 72.4663C252.831 72.4663 258.308 82.4531 255.803 88.3466C255.803 88.3466 247.201 84.8733 241.944 80.6272C235.49 75.4131 234.395 72.8655 234.395 72.8655L234.131 55.1339C234.131 55.1339 231.516 59.0828 227.584 56.1105C224.272 53.7073 223.525 49.0876 225.707 46.472Z" fill="#FFBDA7"/>
<path d="M252.772 66.0718C245.706 66.1907 238.802 63.2609 236.178 56.9258C236.178 56.9258 236.475 61.1718 239.176 63.7195C244.568 68.8147 252.814 68.3052 252.814 68.3052L252.772 66.0718Z" fill="#F0997A"/>
<path d="M244.713 43.3724C244.685 43.7038 244.756 44.0359 244.916 44.3275C245.076 44.6191 245.318 44.8574 245.612 45.0128C245.906 45.1682 246.239 45.2338 246.57 45.2016C246.901 45.1695 247.215 45.0408 247.473 44.8317C247.732 44.6226 247.923 44.3422 248.024 44.0252C248.125 43.7083 248.13 43.3688 248.04 43.0488C247.949 42.7289 247.767 42.4425 247.515 42.2253C247.263 42.008 246.953 41.8695 246.623 41.8268C246.395 41.7973 246.164 41.8144 245.943 41.8769C245.722 41.9395 245.516 42.0462 245.337 42.1907C245.159 42.3352 245.011 42.5144 244.904 42.7175C244.796 42.9206 244.731 43.1434 244.713 43.3724Z" fill="#263238"/>
<path d="M258.156 43.8225C258.257 44.1405 258.45 44.4216 258.711 44.6305C258.971 44.8394 259.288 44.9669 259.62 44.9971C259.953 45.0273 260.287 44.9588 260.581 44.8001C260.874 44.6415 261.115 44.3998 261.272 44.1052C261.429 43.8106 261.496 43.4762 261.464 43.1439C261.433 42.8115 261.303 42.4958 261.093 42.2364C260.883 41.977 260.601 41.7853 260.282 41.6852C259.964 41.5852 259.623 41.5813 259.302 41.674C259.084 41.737 258.881 41.8431 258.704 41.986C258.528 42.1289 258.382 42.3058 258.275 42.5061C258.168 42.7064 258.103 42.9261 258.082 43.1522C258.062 43.3783 258.087 43.6062 258.156 43.8225Z" fill="#263238"/>
<path d="M244.195 36.9184L248.211 34.9737C248.462 35.5238 248.49 36.1497 248.289 36.7199C248.088 37.2901 247.673 37.76 247.133 38.0309C246.868 38.1586 246.58 38.2312 246.286 38.2441C245.993 38.257 245.7 38.21 245.425 38.1059C245.15 38.0018 244.899 37.8428 244.687 37.6387C244.476 37.4345 244.308 37.1895 244.195 36.9184Z" fill="#263238"/>
<path d="M261.867 35.9503L257.68 34.4047C257.486 34.9763 257.519 35.6009 257.774 36.1482C258.029 36.6956 258.485 37.1236 259.047 37.343C259.323 37.4437 259.617 37.4873 259.911 37.4713C260.204 37.4553 260.491 37.3799 260.755 37.2497C261.018 37.1195 261.253 36.9372 261.444 36.7139C261.635 36.4906 261.779 36.2308 261.867 35.9503Z" fill="#263238"/>
<path d="M255.608 54.7264L249.375 53.028C249.167 53.8773 249.294 54.7742 249.731 55.5319C250.167 56.2896 250.879 56.8497 251.719 57.0957C252.13 57.2054 252.559 57.2306 252.98 57.1698C253.402 57.1091 253.806 56.9636 254.17 56.7422C254.533 56.5207 254.848 56.228 255.095 55.8815C255.342 55.5351 255.517 55.1421 255.608 54.7264Z" fill="#B16668"/>
<path d="M253.655 56.9598C253.432 56.1156 252.921 55.3756 252.211 54.8672C251.501 54.3588 250.636 54.1138 249.765 54.1744C249.608 54.1909 249.452 54.2164 249.298 54.2508C249.381 54.9045 249.653 55.5199 250.08 56.022C250.506 56.5241 251.07 56.8912 251.702 57.0787C252.348 57.2498 253.033 57.2081 253.655 56.9598Z" fill="#F0997A"/>
<path d="M241.443 39.8906L230.565 45.1472C231.212 45.4768 231.731 46.0113 232.042 46.6673L242.02 41.7419L241.443 39.8906Z" fill="#263238"/>
<path d="M266.087 38.1582L265.391 38.1073C263.132 37.9714 260.202 38.0478 258.444 38.6763C256.236 39.4745 255.463 40.2898 254.198 40.3747C252.933 40.4596 252.058 39.6868 249.663 39.1263C247.77 38.6763 244.611 38.9055 242.19 39.2707L241.435 39.3981C241.17 39.4937 240.943 39.6732 240.79 39.9093C240.637 40.1454 240.565 40.4251 240.585 40.7059C240.664 41.247 240.907 41.7508 241.282 42.1495C241.401 42.3263 241.482 42.5258 241.519 42.7355C241.766 43.7545 241.902 45.7417 242.369 46.8372C242.604 47.3768 242.931 47.8712 243.337 48.2978C243.489 48.45 243.654 48.5892 243.829 48.7139L244.118 48.9008C244.385 49.061 244.67 49.1892 244.967 49.2829H245.112L245.341 49.3424L245.579 49.3933C245.829 49.4365 246.081 49.4649 246.334 49.4782H247.116C248.225 49.5093 249.317 49.2005 250.246 48.5934C251.175 47.9863 251.896 47.1098 252.313 46.0814C253.069 44.4679 252.839 42.2769 254.258 42.209H254.393H254.521C255.582 42.4043 255.489 44.4339 256.219 45.8691C256.485 46.4426 256.84 46.9701 257.272 47.4316C257.35 47.5152 257.432 47.5945 257.519 47.6694L257.654 47.7883L257.79 47.8902L257.918 47.9836L258.054 48.0685L258.164 48.1365H258.24C258.634 48.3513 259.058 48.5059 259.497 48.595H259.616C260.12 48.686 260.634 48.7145 261.145 48.68C262.094 48.679 263.018 48.3743 263.782 47.8105C264.546 47.2467 265.11 46.4534 265.391 45.5464C265.733 44.1769 265.969 42.7828 266.096 41.3768C266.131 41.1795 266.213 40.9934 266.333 40.8333C266.669 40.3902 266.87 39.8593 266.911 39.3047C266.908 39.0522 266.827 38.8068 266.68 38.6017C266.532 38.3966 266.325 38.2418 266.087 38.1582ZM251.481 44.6717C251.324 45.5 250.959 46.2746 250.419 46.9221C249.988 47.39 249.462 47.7607 248.876 48.0097C248.291 48.2586 247.659 48.38 247.022 48.3658C246.392 48.4375 245.755 48.3409 245.175 48.0858C244.594 47.8307 244.092 47.4262 243.719 46.9136L243.634 46.7692C243.6 46.7202 243.569 46.6692 243.541 46.6164L243.464 46.472C243.438 46.4314 243.415 46.3888 243.396 46.3446L243.345 46.2427C243.333 46.2109 243.319 46.1797 243.303 46.1493L243.243 45.988C243.18 45.8417 243.126 45.6913 243.082 45.5379L243.006 45.2661C243.006 45.1133 242.929 44.9604 242.904 44.833C242.908 44.8049 242.908 44.7762 242.904 44.7481C242.904 44.7481 242.904 44.6887 242.904 44.6632C242.674 43.5847 242.42 41.4617 242.955 40.9522C243.49 40.4426 244.891 39.8821 247.201 40.001H247.447C247.798 40.0249 248.146 40.0702 248.491 40.1369C248.636 40.1369 248.763 40.1879 248.899 40.2133C249.244 40.2883 249.585 40.3847 249.918 40.5021L250.232 40.621L250.572 40.7653H250.64L250.767 40.8333C251.033 40.9553 251.268 41.1352 251.455 41.3598C251.854 42.0222 251.735 43.4403 251.481 44.6717ZM264.949 43.5253C264.805 44.3745 264.499 46.2597 262.903 47.1599C262.38 47.445 261.799 47.6076 261.204 47.6354C260.538 47.7351 259.858 47.6492 259.237 47.387C258.617 47.1248 258.081 46.6965 257.688 46.1493C257.663 46.1174 257.64 46.0833 257.62 46.0474L257.544 45.937C257.546 45.9172 257.546 45.8974 257.544 45.8776L257.451 45.7077C257.416 45.6414 257.385 45.5734 257.357 45.5039L257.306 45.4105C257.306 45.4105 257.306 45.4105 257.306 45.3511C257.303 45.3257 257.303 45.3 257.306 45.2746V45.2067C257.204 44.9304 257.125 44.6464 257.068 44.3575C256.805 43.1516 256.644 41.7504 257.068 41.071C257.493 40.3917 259.149 39.5764 260.763 39.2962C261.108 39.2333 261.457 39.1879 261.807 39.1603H262.733H263.021C263.198 39.173 263.374 39.1956 263.548 39.2283H263.675H263.76H263.888H264.041L264.295 39.3132H264.338C264.549 39.3909 264.745 39.5059 264.915 39.6529C265.28 40.2898 265.094 42.4213 264.949 43.5253Z" fill="#37474F"/>
<path d="M252.721 44.8415L254.835 51.6352L260.296 48.9007C260.083 48.5865 254.903 42.676 254.487 42.2684C254.289 42.2263 254.083 42.2433 253.894 42.3173C253.705 42.3912 253.542 42.5189 253.426 42.6845C253.059 43.3537 252.82 44.0851 252.721 44.8415Z" fill="#F0997A"/>
<path d="M266.036 110.919C264.542 108.632 262.318 106.917 259.726 106.053C256.813 104.909 253.977 103.578 251.234 102.07C250.079 101.538 248.992 100.868 247.999 100.074C247.485 99.6361 247.096 99.071 246.869 98.4352C246.728 97.8631 246.801 97.2592 247.073 96.7368C246.411 96.4242 245.848 95.9368 245.443 95.3271C245.116 94.7311 245.022 94.0351 245.179 93.3739C245.241 93.1651 245.344 92.971 245.483 92.8031C245.622 92.6353 245.793 92.4973 245.986 92.3973C245.613 91.7689 244.483 89.9601 245.681 88.6183C246.097 88.3041 246.725 88.4485 247.243 88.474C247.761 88.4994 248.941 88.7033 249.196 88.7542C249.316 88.5817 249.476 88.4416 249.663 88.3466C250.817 87.7666 252.127 87.573 253.4 87.7946C254.792 88.0782 256.152 88.5021 257.459 89.0599C258.886 89.5694 260.38 89.9091 261.832 90.3422C262.136 90.4378 262.449 90.5004 262.767 90.5291C263.488 90.5291 264.193 90.2403 264.915 90.3252C265.535 90.4219 266.138 90.6048 266.707 90.8687C267.957 91.443 268.994 92.3969 269.671 93.5947C271.573 96.8642 272.77 100.388 275.021 103.454C276.975 106.034 279.152 108.438 281.526 110.638C285.228 114.222 292.302 117.432 294.332 124.514C295.691 129.211 295.606 135.792 292.37 138.577C290.247 140.412 282.307 138.934 277.934 134.195C272.813 128.599 267.938 114.103 266.036 110.919Z" fill="#FFBDA7"/>
<path d="M249.392 88.7287C253.843 89.594 258.178 90.9763 262.308 92.8474C258.399 90.4506 253.967 89.0373 249.392 88.7287ZM253.892 93.2975C251.396 92.6606 248.746 92.0237 246.165 92.4483C251.328 92.4483 256.355 94.342 261.102 96.2188C258.837 94.9464 256.42 93.9649 253.909 93.2975H253.892ZM248.067 95.93C247.726 95.9901 247.419 96.1743 247.206 96.4471C246.993 96.72 246.888 97.0622 246.912 97.4077C247.022 95.7687 248.899 96.0659 250.029 96.3377C253.888 97.1785 257.646 98.4312 261.238 100.074C257.802 98.0428 254.018 96.6692 250.08 96.0234C249.418 95.8863 248.738 95.8548 248.067 95.93Z" fill="#F0997A"/>
<path d="M222.71 74.7932C216.442 76.6784 208.494 81.468 210.455 93.9769C212.298 105.747 219.984 131.758 222.608 138.246C225.58 145.617 228.629 148.207 232.577 149.074C235.974 149.812 239.77 147.605 242.607 145.592C250.725 139.843 256.016 128.302 261.756 116.226C264.437 110.53 266.408 104.527 267.624 98.3503C267.855 96.9217 267.92 95.4714 267.82 94.0278C267.702 92.6631 267.354 91.328 266.792 90.079C266.7 89.8999 266.617 89.7156 266.546 89.527C266.475 89.2037 266.447 88.8726 266.461 88.5419C266.48 87.7269 266.196 86.934 265.663 86.317C265.402 86.0692 265.117 85.8474 264.813 85.6546C264.718 85.5836 264.633 85.5009 264.559 85.4083C264.346 85.1026 264.457 84.7035 264.423 84.3383C264.348 83.9496 264.134 83.6013 263.822 83.3577C263.51 83.1142 263.12 82.9919 262.724 83.0135C262.283 83.0729 261.86 83.2323 261.489 83.4795C261.119 83.7267 260.809 84.0553 260.584 84.4402C260.547 84.5006 260.494 84.5503 260.432 84.5846C260.359 84.6016 260.283 84.6016 260.211 84.5846C259.852 84.5366 259.487 84.5655 259.141 84.6695C258.819 84.7681 258.527 84.9462 258.292 85.1875C257.791 85.8039 257.473 86.5482 257.374 87.336C257.103 88.6098 256.907 89.8837 256.627 91.1745C256.075 93.7221 255.854 96.2697 254.504 98.5371C254.385 98.7409 254.19 98.9702 253.952 98.9193C253.714 98.8683 253.655 98.6051 253.621 98.3843C253.273 96.0999 254.606 93.7051 252.823 91.7095C251.277 90.011 251.039 93.4079 250.793 94.2571L249.799 97.8238C249.153 99.7719 248.787 101.802 248.712 103.853C248.712 105.789 249.273 107.692 249.197 109.628C249.188 111.551 248.44 113.397 247.107 114.783C241.834 120.116 239.465 122.23 239.465 122.23L235.354 102.537C235.354 102.537 234.734 91.2339 230.259 82.3002C227.219 76.4916 222.71 74.7932 222.71 74.7932Z" fill="#FFBDA7"/>
<path d="M260.703 84.8393C261.264 85.799 261.051 87.0048 261.051 88.0748C260.889 91.3434 260.342 94.5815 259.421 97.7219C259.718 95.8621 260.083 93.1531 260.364 91.2594C260.593 89.6629 260.754 88.0239 260.882 86.4104C260.952 85.8757 260.897 85.3319 260.72 84.8224L260.703 84.8393Z" fill="#F0997A"/>
<path d="M264.44 85.5611C264.614 89.9961 264.039 94.4287 262.741 98.6729C263.658 94.4269 263.862 89.8751 264.44 85.5611Z" fill="#F0997A"/>
<path d="M266.546 89.6798C266.812 92.9959 266.449 96.3325 265.476 99.5137C265.807 96.6094 266.325 92.5586 266.546 89.6798Z" fill="#F0997A"/>
<path d="M242.607 145.609C251.71 138.662 256.066 127.555 261.009 117.585C263.475 112.51 265.413 107.194 266.792 101.722C267.606 99.0248 267.894 96.1966 267.641 93.3909C267.401 92.0008 266.982 90.6477 266.393 89.3657C266.393 87.9135 266.181 86.5718 264.813 85.799C264.646 85.6876 264.514 85.5313 264.431 85.3481C264.348 85.1649 264.319 84.9621 264.346 84.763C264.364 84.5208 264.322 84.278 264.225 84.0557C264.127 83.8333 263.977 83.6379 263.787 83.4866C263.598 83.3352 263.374 83.2324 263.135 83.187C262.897 83.1415 262.651 83.1549 262.419 83.2259C261.684 83.4767 261.061 83.979 260.661 84.6441C260.613 84.6874 260.556 84.7197 260.495 84.7388C260.433 84.7579 260.368 84.7632 260.304 84.7545C259.805 84.6713 259.293 84.7517 258.843 84.9837C257.604 85.7056 257.595 87.387 257.281 88.6523C256.737 91.1066 256.279 94.5968 255.438 96.9322C255.197 97.6114 254.869 98.2565 254.461 98.8514C253.519 99.6581 253.442 98.0022 253.476 97.4162C253.553 95.3866 254.258 92.9833 252.474 91.5227C251.217 90.6735 251.141 93.8835 250.835 94.5883L250.266 96.6264C249.528 99.3269 248.568 102.07 248.874 104.898C249.179 107.726 249.825 110.664 248.373 113.228C247.601 114.42 246.663 115.495 245.587 116.422C243.583 118.409 241.562 120.387 239.464 122.273C241.545 120.37 243.549 118.375 245.536 116.371C246.599 115.446 247.521 114.37 248.271 113.178C248.898 111.92 249.19 110.522 249.12 109.118C249.12 107.717 248.806 106.324 248.678 104.915C248.381 102.061 249.315 99.2929 250.054 96.5755L250.615 94.5374C250.929 93.5353 250.895 92.3889 251.464 91.4632C252.372 90.4187 253.476 92.3889 253.68 93.1617C254.054 94.5968 253.68 96.0235 253.629 97.4077C253.629 100.253 254.682 98.121 255.149 96.8387C255.999 94.5459 256.432 91.0047 256.958 88.5929C257.255 86.9369 257.553 84.4997 259.718 84.4403C259.913 84.3978 260.27 84.5252 260.397 84.4403C260.828 83.7334 261.496 83.2034 262.283 82.9456C262.558 82.863 262.849 82.8481 263.131 82.9021C263.413 82.9562 263.678 83.0776 263.903 83.2561C264.128 83.4345 264.307 83.6647 264.424 83.9271C264.541 84.1894 264.593 84.4762 264.576 84.763C264.547 84.9144 264.565 85.0708 264.628 85.2117C264.69 85.3526 264.793 85.4715 264.924 85.5527C265.559 85.9294 266.052 86.5057 266.325 87.1917C266.527 87.8779 266.621 88.5912 266.605 89.3062C267.2 90.5912 267.617 91.9511 267.845 93.3485C268.1 96.185 267.812 99.0441 266.996 101.773C265.594 107.255 263.633 112.579 261.145 117.661C256.194 127.623 251.744 138.739 242.564 145.6L242.607 145.609Z" fill="#F0997A"/>
<path d="M239.473 122.273C235.592 124.098 232.297 127.758 231.66 129.839C231.66 129.839 231.312 123.563 238.938 119.98L239.473 122.273Z" fill="#F0997A"/>
<path d="M119.607 278.324C120.312 287.121 120.77 293.652 120.643 295.155C120.176 300.632 117.331 304.021 115.131 306.271C110.529 310.984 107.268 312.861 101.544 316.92C102.3 319.103 114.07 319.315 117.45 317.769C122.367 315.441 127.127 312.794 131.7 309.846C136.396 306.534 137.525 304.488 137.737 299.274C137.737 298.62 138.238 294.382 138.196 294.093C138.264 292.871 138.994 286.264 139.954 278.128L119.607 278.324Z" fill="#C8856A"/>
<path d="M188.826 295.715L189.276 275.003L167.069 277.092L171.782 296.93C171.782 296.93 174.118 324.954 175.179 329.539C178.729 344.248 190.66 338.312 192.078 330.516C193.055 325.31 188.826 295.715 188.826 295.715Z" fill="#C8856A"/>
<path d="M92.1775 325.209C91.8717 325.209 91.634 328.605 93.3748 329.947C95.3875 331.476 101.162 333.82 108.499 332.376C115.836 330.932 119.692 328.368 122.494 325.684C125.297 323.001 129.212 319.23 132.506 318.262C135.572 317.37 140.515 315.281 141.449 314.254C142.383 313.226 141.967 308.938 141.967 308.938L92.1775 325.209Z" fill="#263238"/>
<path d="M138.204 294.085C138.504 294.209 138.774 294.396 138.995 294.634C139.216 294.871 139.384 295.153 139.487 295.461C139.792 296.633 139.903 298.144 140.514 300.055C141.364 302.704 142.213 308.199 141.924 310.424C141.635 312.649 135.028 314.967 131.869 316.419C128.71 317.871 124.991 320.759 121.815 323.756C118.639 326.754 111.395 330.227 106.58 330.618C99.2257 331.204 94.3257 329.514 92.6868 326.958C90.6487 323.79 91.3365 320.317 99.5399 315.825C101.085 314.976 106.495 311.264 108.338 309.931C110.287 308.525 112.116 306.96 113.807 305.252C114.662 304.385 115.47 303.472 116.227 302.518C117.023 301.66 117.684 300.686 118.189 299.63C118.273 299.401 118.324 299.129 118.392 298.891C118.588 298.23 118.73 297.554 118.817 296.87C118.902 296.149 118.919 295.113 119.564 294.645C120.21 294.178 130.85 295.571 131.666 296.701C132.202 297.623 132.494 298.666 132.515 299.732C132.566 300.225 132.591 300.726 132.625 301.218C132.625 301.431 132.625 301.821 132.871 301.711C133.118 301.6 133.406 300.862 133.5 300.59C133.695 300.021 133.814 299.41 134.035 298.849C134.21 298.167 134.529 297.53 134.969 296.981C136.302 295.707 137.678 295.843 138.052 295.41C138.094 295.41 138.187 294.51 138.204 294.085Z" fill="#37474F"/>
<path d="M99.09 316.079C109.79 316.079 113.323 324.461 114.045 328.529C111.679 329.606 109.161 330.311 106.58 330.618C99.2259 331.204 94.0287 329.539 92.3813 326.975C90.462 323.986 91.7104 319.451 99.09 316.079Z" fill="#FAFAFA"/>
<path d="M114.817 317.099C114.937 317.091 115.051 317.043 115.14 316.963C115.238 316.863 115.292 316.729 115.292 316.589C115.292 316.449 115.238 316.315 115.14 316.215C113.535 314.517 108.482 310.891 104.635 311.562C104.504 311.592 104.39 311.671 104.316 311.783C104.241 311.895 104.213 312.031 104.236 312.164C104.258 312.296 104.331 312.415 104.438 312.496C104.546 312.576 104.68 312.613 104.814 312.598C108.406 311.978 113.102 315.561 114.376 316.937C114.431 316.997 114.501 317.043 114.577 317.071C114.654 317.099 114.736 317.108 114.817 317.099Z" fill="#F5F5F5"/>
<path d="M119.233 314.109C119.354 314.106 119.469 314.057 119.556 313.973C119.653 313.875 119.707 313.742 119.707 313.604C119.707 313.466 119.653 313.333 119.556 313.235C117.951 311.536 112.89 307.893 109.051 308.581C108.984 308.592 108.919 308.617 108.861 308.653C108.803 308.69 108.752 308.738 108.713 308.794C108.673 308.85 108.645 308.913 108.631 308.98C108.616 309.047 108.614 309.116 108.627 309.184C108.637 309.252 108.661 309.317 108.697 309.376C108.733 309.435 108.781 309.486 108.837 309.525C108.894 309.565 108.957 309.593 109.025 309.607C109.092 309.621 109.162 309.622 109.23 309.608C112.822 308.989 117.518 312.581 118.792 313.948C118.846 314.01 118.915 314.057 118.992 314.085C119.069 314.113 119.152 314.121 119.233 314.109Z" fill="#F5F5F5"/>
<path d="M123.284 310.772C123.405 310.762 123.518 310.711 123.606 310.628C123.703 310.529 123.758 310.396 123.758 310.258C123.758 310.12 123.703 309.987 123.606 309.889C122.001 308.19 116.932 304.556 113.102 305.235C112.966 305.26 112.846 305.337 112.766 305.45C112.687 305.562 112.655 305.702 112.677 305.838C112.688 305.906 112.713 305.97 112.749 306.028C112.786 306.087 112.834 306.137 112.89 306.176C112.946 306.216 113.009 306.244 113.076 306.259C113.143 306.273 113.213 306.275 113.28 306.263C116.864 305.643 121.577 309.235 122.842 310.602C122.897 310.663 122.966 310.71 123.043 310.739C123.119 310.769 123.202 310.78 123.284 310.772Z" fill="#F5F5F5"/>
<path d="M127.25 307.426C127.367 307.42 127.479 307.372 127.564 307.29C127.667 307.197 127.729 307.068 127.737 306.929C127.745 306.791 127.698 306.655 127.606 306.551C125.398 304.097 120.048 301.227 116.21 301.906C116.142 301.918 116.078 301.943 116.02 301.979C115.962 302.016 115.912 302.064 115.873 302.12C115.793 302.233 115.762 302.373 115.785 302.509C115.809 302.645 115.886 302.767 115.999 302.846C116.112 302.926 116.252 302.957 116.388 302.934C119.844 302.331 124.88 305.082 126.833 307.256C126.885 307.315 126.949 307.361 127.021 307.39C127.094 307.42 127.172 307.432 127.25 307.426Z" fill="#F5F5F5"/>
<path d="M173.515 331.017C173.846 335.892 174.636 339.119 176.385 341.963C178.134 344.808 181.404 345.666 184.69 344.791C187.977 343.917 192.172 341.624 193.064 337.412C193.955 333.2 194.49 330.295 193.692 325.786L173.515 331.017Z" fill="#263238"/>
<path d="M188.826 295.715C190.185 295.563 189.896 302.28 190.745 308.827C191.654 315.85 192.698 318.627 193.505 324.385C194.431 330.958 193.378 333.913 191.119 337.921C188.86 341.929 180.776 345.921 176.682 340.265C173.362 335.654 173.175 330.499 173.404 323.918C173.634 317.124 172.929 312.564 172.326 307.435C171.697 302.127 170.585 297.49 171.757 296.93C172.067 298.649 172.469 300.35 172.963 302.025C173.107 302.39 173.642 303.299 173.812 301.923C173.871 301.515 173.736 300.573 173.761 300.165C173.77 299.806 173.892 299.459 174.11 299.174C174.328 298.888 174.631 298.679 174.975 298.577C176.771 297.692 178.748 297.232 180.75 297.235C183.4 297.235 185.692 297.083 187.179 297.821C188.07 298.272 188.028 299.121 188.164 299.953C188.291 300.938 188.308 301.549 188.546 301.354C189.081 300.964 188.826 295.715 188.826 295.715Z" fill="#37474F"/>
<path d="M193.921 328.189C194.21 331.709 193.359 335.228 191.493 338.227C189.234 342.235 180.453 346.252 176.419 340.596C174.398 337.785 173.82 334.431 173.515 331.017C175.867 326.593 190.091 324.461 193.921 328.189Z" fill="#FAFAFA"/>
<path d="M176.402 323.816C176.458 323.814 176.513 323.799 176.563 323.773C176.623 323.773 182.873 321.064 188.996 322.423C189.127 322.449 189.264 322.422 189.376 322.349C189.488 322.276 189.568 322.163 189.599 322.032C189.627 321.901 189.601 321.763 189.528 321.65C189.455 321.537 189.34 321.458 189.208 321.43C182.729 320.003 176.36 322.746 176.122 322.865C176.062 322.894 176.008 322.934 175.964 322.984C175.919 323.034 175.885 323.093 175.864 323.156C175.843 323.219 175.834 323.286 175.839 323.353C175.844 323.42 175.862 323.485 175.893 323.544C175.938 323.637 176.012 323.714 176.103 323.762C176.195 323.811 176.299 323.83 176.402 323.816Z" fill="#F5F5F5"/>
<path d="M188.639 317.515C188.752 317.499 188.857 317.446 188.937 317.364C189.016 317.282 189.066 317.176 189.078 317.062C189.089 316.948 189.063 316.834 189.002 316.738C188.941 316.641 188.849 316.568 188.741 316.53C182.635 314.534 175.918 317.71 175.663 317.846C175.545 317.91 175.458 318.019 175.42 318.148C175.382 318.277 175.396 318.415 175.459 318.534C175.524 318.649 175.631 318.735 175.758 318.773C175.885 318.811 176.021 318.798 176.139 318.737C176.198 318.737 182.746 315.621 188.427 317.489C188.495 317.514 188.567 317.523 188.639 317.515Z" fill="#F5F5F5"/>
<path d="M188.376 312.886C188.471 312.876 188.56 312.84 188.636 312.781C188.711 312.723 188.768 312.645 188.801 312.555C188.844 312.428 188.835 312.289 188.776 312.168C188.717 312.047 188.613 311.954 188.486 311.91C181.769 309.574 175.4 313.039 175.162 313.192C175.093 313.22 175.032 313.263 174.981 313.318C174.931 313.372 174.893 313.437 174.87 313.508C174.847 313.579 174.84 313.654 174.85 313.728C174.859 313.802 174.884 313.872 174.924 313.935C174.964 313.998 175.017 314.052 175.079 314.092C175.142 314.132 175.212 314.158 175.286 314.169C175.36 314.179 175.435 314.172 175.506 314.15C175.577 314.129 175.642 314.091 175.697 314.041C175.748 314.041 181.905 310.687 188.155 312.852C188.225 312.88 188.301 312.892 188.376 312.886Z" fill="#F5F5F5"/>
<path d="M187.994 308.326C188.11 308.318 188.219 308.27 188.304 308.19C188.388 308.109 188.442 308.002 188.456 307.887C188.47 307.771 188.444 307.655 188.381 307.557C188.318 307.459 188.223 307.385 188.113 307.35C181.82 305.065 174.958 308.623 174.704 308.776C174.637 308.804 174.577 308.845 174.527 308.898C174.478 308.95 174.44 309.013 174.418 309.082C174.395 309.15 174.387 309.223 174.395 309.295C174.403 309.367 174.426 309.436 174.463 309.498C174.5 309.56 174.551 309.613 174.61 309.654C174.67 309.695 174.738 309.722 174.809 309.734C174.88 309.746 174.953 309.743 175.023 309.724C175.093 309.705 175.158 309.672 175.213 309.625C175.273 309.625 181.922 306.161 187.773 308.284C187.843 308.314 187.918 308.329 187.994 308.326Z" fill="#EBEBEB"/>
<path d="M180.308 129.236C181.693 143.01 182.168 146.399 183.128 176.996C184.07 206.718 184.079 211.024 184.24 214.599C184.622 222.802 189.336 226.08 189.684 245.425C190.023 263.148 189.412 284.854 189.412 284.854C189.412 284.854 186.176 287.843 179.442 288.208C175.79 288.428 172.143 287.703 168.853 286.102C168.853 286.102 159.842 246.376 157.015 234.165C153.686 219.796 148.276 194.77 148.276 194.77C148.276 194.77 145.559 217.095 144.54 224.288C143.572 231.15 145.924 233.825 144.446 249.187C143.266 261.441 139.776 281.916 139.776 281.916C136.672 283.54 133.215 284.372 129.712 284.336C122.01 283.979 119.581 281.338 119.581 281.338C119.581 281.338 115.267 235.481 115.233 218.004C115.233 199.457 116.32 154.313 118.308 127.054L180.308 129.236Z" fill="#455A64"/>
<path d="M148.276 194.77L144.361 163.96C144.361 163.96 134.358 160.92 128.116 153.889C128.413 158.984 137.169 165.778 141.338 166.967L145.992 194.32L144.54 224.254L148.276 194.77Z" fill="#37474F"/>
<path d="M162.195 133.389C163.649 135.982 164.822 138.724 165.693 141.567C166.6 144.392 167.343 147.267 167.918 150.178C168.479 153.082 168.929 156.012 169.209 158.958C169.525 161.908 169.616 164.878 169.481 167.841C168.878 164.937 168.326 162.058 167.783 159.171C167.239 156.283 166.696 153.405 166.084 150.543C165.473 147.681 164.921 144.811 164.292 141.949C163.664 139.087 162.959 136.208 162.195 133.389Z" fill="#37474F"/>
<path d="M165.991 134.552C167.412 135.973 168.694 137.525 169.821 139.189C170.962 140.841 171.989 142.569 172.895 144.361C173.793 146.164 174.548 148.035 175.154 149.957C175.791 151.881 176.176 153.879 176.3 155.901L173.804 150.5C172.954 148.734 172.105 146.959 171.256 145.218C170.407 143.477 169.49 141.719 168.606 139.953C167.723 138.187 166.798 136.403 165.991 134.552Z" fill="#37474F"/>
<path d="M159.842 168.606C160.793 177.836 161.609 187.067 162.441 196.298C163.273 205.529 165.141 215.737 166.5 224.866C167.859 233.995 174.406 269.874 175.485 279.13C173.693 270.027 166.143 234.334 164.666 225.138C163.188 215.941 161.558 205.665 160.997 196.409C160.437 187.152 160.072 177.879 159.842 168.606Z" fill="#37474F"/>
<path d="M125.331 168.206L124.371 192.409C124.244 196.443 124.074 200.476 123.98 204.502C123.887 208.527 123.743 212.569 123.904 216.544C124.065 220.518 125.195 259.123 124.838 267.207C123.692 258.231 122.494 224.747 122.044 216.62C121.883 208.451 122.392 200.408 122.893 192.333C123.394 184.257 124.269 176.223 125.331 168.206Z" fill="#37474F"/>
<path d="M140.684 277.203L139.538 285.695C139.538 285.695 135.292 287.775 128.269 287.325C121.246 286.875 119.581 284.455 119.581 284.455L118.885 276.421C118.885 276.421 121.543 278.502 127.997 278.782C136.345 279.13 140.684 277.203 140.684 277.203Z" fill="#37474F"/>
<path d="M189.786 278.893L189.522 287.385C189.522 287.385 186.185 290.094 179.154 290.781C172.122 291.469 168.989 288.922 168.989 288.922L167.536 281.44C167.536 281.44 171.061 282.943 177.506 282.374C181.763 281.9 185.913 280.723 189.786 278.893Z" fill="#37474F"/>
<path d="M132.039 63.2184C126.783 63.0995 118.452 65.8255 113.408 76.5935C107.463 89.1703 105 93.5777 98.9711 109.866L110.741 114.324L121.628 99.7599L132.039 63.2184Z" fill="#C8856A"/>
<path d="M121.62 99.76L124.685 88.474C121.399 90.7329 114.979 95.1488 112.626 96.8217C109.408 99.1146 104.406 101.11 102.13 105.849L115.828 107.547L121.62 99.76Z" fill="#AF6152"/>
<path d="M133.373 62.4032C121.119 63.7704 117.798 65.8595 112.185 77.2134C108.482 84.712 103.871 96.9746 103.871 96.9746C103.871 96.9746 106.266 99.2165 111.616 100.669C118.41 102.503 122.443 100.779 122.443 100.779L133.373 62.4032Z" fill="#263238"/>
<path d="M180.325 65.9784C180.325 65.9784 184.894 73.1457 184.571 91.8283C184.418 100.592 181.574 108.235 181.336 118.451C181.107 128.209 182.644 143.257 182.644 143.257C172.351 151.417 127.335 153.447 117.526 140.301C117.526 140.301 117.942 124.846 118.503 108.312C118.919 95.981 120.201 86.4698 121.645 80.6527C123.98 71.2604 130.646 64.3054 133.389 62.4032C140.824 60.6383 148.491 60.065 156.106 60.7048C165.727 61.7238 175.425 64.6026 180.325 65.9784Z" fill="#F5F5F5"/>
<path d="M150.246 60.433V61.2823C152.166 61.2807 154.085 61.3771 155.995 61.571C164.657 62.4711 173.379 64.9169 178.584 66.3775L179.731 66.6917C180.521 68.1863 183.977 75.6424 183.663 91.7689C183.495 95.8848 182.992 99.9803 182.16 104.015C181.215 108.755 180.647 113.562 180.461 118.392C180.257 127.088 181.455 140.098 181.718 142.806C176.75 146.365 164.207 148.827 150.858 148.827C134.935 148.827 122.834 145.515 118.443 139.962C118.503 137.669 118.902 123.351 119.411 108.303C119.777 97.3143 120.915 87.3021 122.528 80.8311C124.728 71.9993 130.952 65.2311 133.772 63.193C139.189 61.9604 144.724 61.3197 150.28 61.2823V60.433M150.28 60.433C144.601 60.4727 138.942 61.1334 133.406 62.4032C130.664 64.3054 123.997 71.2605 121.662 80.6527C120.218 86.4698 118.936 95.9385 118.52 108.312C117.959 124.846 117.543 140.301 117.543 140.301C122.554 147.01 136.778 149.762 150.858 149.762C164.309 149.762 177.633 147.214 182.661 143.257C182.661 143.257 181.124 128.209 181.353 118.451C181.591 108.261 184.436 100.618 184.588 91.8284C184.928 73.1457 180.342 65.9784 180.342 65.9784C175.442 64.6197 165.744 61.7323 156.106 60.7218C154.165 60.526 152.214 60.4296 150.263 60.433H150.28Z" fill="#E0E0E0"/>
<path d="M165.846 18.0744C165.846 18.0744 169.031 18.2103 171.247 22.0572C172.368 23.9849 173.243 27.5516 170.755 37.912C169.799 41.9572 168.236 45.8341 166.118 49.4103C165.488 50.5702 164.441 51.4475 163.188 51.8645L163.12 43.9668L163.222 38.4555C163.222 38.4555 158.551 34.5916 158.016 30.6512C157.329 25.5559 159.256 22.6347 159.256 22.6347L165.846 18.0744Z" fill="#37474F"/>
<path d="M166.95 18.3037C166.008 13.8963 160.072 8.80101 148.973 8.5887C145.201 8.47039 141.467 9.35927 138.153 11.1638C134.84 12.9684 132.067 15.6234 130.12 18.8557C127.148 24.1462 131.819 28.4348 131.819 28.4348L159.554 26.0994L166.95 18.3037Z" fill="#37474F"/>
<path d="M170.568 46.0304C166.458 48.1534 164.437 44.9859 164.437 44.9859L163.834 63.7959C156.191 74.5639 134.765 69.7404 143.249 61.5964L143.351 57.1126C142.214 57.1104 141.079 57.0309 139.954 56.8748C138.068 56.7 136.273 55.9809 134.788 54.8049C133.303 53.629 132.192 52.0468 131.589 50.251C130.87 48.1296 130.436 45.9222 130.298 43.6866C130.057 39.7754 130.233 35.8497 130.825 31.976C131.283 28.9018 131.173 27.3138 131.674 24.8001C132.031 22.8809 132.795 20.7664 134.553 19.8407C138.918 17.5479 143.13 20.5031 149.389 22.6601C151.987 23.5093 158.212 23.7726 159.817 22.9658C157.745 25.3691 158.025 32.7318 161.312 35.6106C161.746 36.3724 162.323 37.044 163.01 37.5892C164.403 38.6932 165.405 35.687 166.5 34.4811C167.596 33.2752 171.825 32.1033 173.803 35.8738C174.283 36.7477 174.581 37.7101 174.677 38.7024C174.774 39.6947 174.667 40.6963 174.365 41.6462C174.062 42.5962 173.569 43.4747 172.917 44.2284C172.264 44.9821 171.465 45.5951 170.568 46.0304Z" fill="#C8856A"/>
<path d="M143.351 57.1126C148.2 56.9258 152.743 56.1785 155.562 54.8962C158.382 53.6138 160.777 49.7499 161.507 45.9625C161.617 48.9857 160.454 54.3951 156.199 56.7729C151.945 59.1507 146.501 59.4055 143.334 59.5753L143.351 57.1126Z" fill="#AF6152"/>
<path d="M153.227 28.3668L149.185 26.5325C148.948 27.0751 148.932 27.6889 149.142 28.2427C149.351 28.7965 149.769 29.2465 150.306 29.4963C150.571 29.6184 150.858 29.686 151.15 29.6951C151.442 29.7042 151.733 29.6547 152.005 29.5493C152.278 29.444 152.526 29.2851 152.736 29.082C152.946 28.8788 153.113 28.6357 153.227 28.3668Z" fill="#37474F"/>
<path d="M138.145 25.7428L133.992 27.3902C134.094 27.6627 134.249 27.912 134.448 28.1235C134.648 28.335 134.888 28.5043 135.154 28.6215C135.42 28.7387 135.706 28.8013 135.997 28.8057C136.288 28.8101 136.576 28.7562 136.846 28.6471C137.399 28.4287 137.844 28.0025 138.087 27.4597C138.33 26.9169 138.351 26.3007 138.145 25.7428Z" fill="#37474F"/>
<path d="M151.639 33.2753C151.648 33.6552 151.543 34.0291 151.337 34.349C151.132 34.6689 150.836 34.9204 150.488 35.0714C150.139 35.2223 149.753 35.2657 149.379 35.1962C149.006 35.1266 148.661 34.9472 148.39 34.6809C148.119 34.4146 147.933 34.0735 147.857 33.7012C147.781 33.3288 147.817 32.9422 147.962 32.5908C148.107 32.2393 148.353 31.9389 148.669 31.728C148.985 31.5172 149.357 31.4054 149.737 31.407C149.985 31.4048 150.23 31.4513 150.46 31.544C150.689 31.6367 150.898 31.7737 151.075 31.9471C151.252 32.1206 151.392 32.3272 151.489 32.5551C151.586 32.783 151.637 33.0277 151.639 33.2753Z" fill="#263238"/>
<path d="M138.289 32.7148C138.298 33.0947 138.193 33.4686 137.988 33.7885C137.783 34.1085 137.487 34.36 137.138 34.5109C136.789 34.6618 136.403 34.7052 136.03 34.6357C135.656 34.5661 135.312 34.3867 135.04 34.1204C134.769 33.8541 134.584 33.513 134.507 33.1407C134.431 32.7684 134.468 32.3817 134.612 32.0303C134.757 31.6788 135.003 31.3784 135.319 31.1676C135.635 30.9567 136.007 30.8449 136.387 30.8465C136.635 30.8443 136.88 30.8908 137.11 30.9835C137.34 31.0762 137.549 31.2132 137.725 31.3867C137.902 31.5601 138.043 31.7667 138.139 31.9946C138.236 32.2225 138.287 32.4672 138.289 32.7148Z" fill="#263238"/>
<path d="M144.701 30.252L143.606 41.5975L137.432 39.6019C139.118 35.9765 141.603 32.78 144.701 30.252Z" fill="#AF6152"/>
<path d="M148.608 41.9797C148.608 41.9032 148.506 41.8183 148.421 41.8523C148.177 41.9565 147.972 42.1347 147.835 42.3618C147.7 42.542 147.555 42.7149 147.402 42.8798C147.079 43.2247 146.7 43.5119 146.281 43.729C145.829 43.9641 145.341 44.122 144.837 44.1961C144.548 44.1961 144.251 44.2895 143.988 44.3065C143.737 44.295 143.485 44.3179 143.24 44.3744C143.062 44.4424 143.24 44.7226 143.325 44.7736C143.616 44.8947 143.928 44.9582 144.243 44.9604C144.558 44.9987 144.878 44.9987 145.194 44.9604C145.805 44.8563 146.395 44.6556 146.943 44.3659C147.391 44.1201 147.794 43.7983 148.132 43.4148C148.308 43.2224 148.46 43.0084 148.582 42.7779C148.651 42.6572 148.69 42.5212 148.694 42.382C148.699 42.2428 148.669 42.1046 148.608 41.9797Z" fill="#AF6152"/>
<path d="M133.237 103.004C135.296 101.095 137.806 99.7394 140.531 99.0636C143.631 98.2144 145.363 97.0935 148.37 96.3886C149.624 96.1682 150.846 95.7887 152.004 95.2592C152.611 94.9733 153.128 94.5269 153.499 93.9684C153.787 93.4518 153.875 92.8471 153.745 92.27C154.461 92.1334 155.125 91.8012 155.664 91.3103C156.131 90.8195 156.395 90.1703 156.403 89.493C156.398 89.2754 156.347 89.0612 156.255 88.8639C156.163 88.6666 156.032 88.4905 155.868 88.3466C156.386 87.8286 157.923 86.3679 157.099 84.7714C156.785 84.3638 156.14 84.3468 155.639 84.2449C155.138 84.143 153.94 84.0411 153.677 84.0241C153.598 83.8275 153.476 83.6506 153.321 83.5061C152.349 82.6617 151.131 82.1525 149.847 82.0539C148.428 81.9751 147.005 82.0462 145.601 82.2663C144.098 82.3936 142.561 82.3851 141.058 82.4106C140.74 82.428 140.421 82.411 140.107 82.3597C139.402 82.2153 138.791 81.7312 138.077 81.6293C137.454 81.5699 136.825 81.5956 136.209 81.7058C134.858 81.9477 133.619 82.6106 132.668 83.5995C130.01 86.2915 127.98 89.3741 125.025 91.8029C122.49 93.8094 119.785 95.591 116.94 97.1274C112.473 99.6751 103.854 101.008 100.134 107.318C97.6547 111.522 97.0688 117.942 99.4975 121.44C101.103 123.733 109.136 124.294 114.546 120.795C120.915 116.668 130.613 105.611 133.237 103.004Z" fill="#C8856A"/>
<path d="M139.979 84.712C144.435 83.936 148.967 83.6795 153.482 83.9477C148.985 83.1124 144.353 83.3746 139.979 84.712ZM140.285 88.3126C145.38 87.6842 150.679 87.0983 155.664 88.3806C153.286 87.2936 150.569 87.2596 148.021 87.2511C145.408 87.2742 142.808 87.6309 140.285 88.3126ZM151.002 90.8603C147.033 90.5115 143.033 90.9032 139.207 92.0152C143.088 91.3128 147.034 91.0281 150.977 91.166C152.14 91.166 154.025 91.3613 153.72 92.9748C153.824 92.6493 153.805 92.297 153.667 91.9842C153.53 91.6714 153.283 91.4197 152.972 91.2764C152.342 91.0261 151.678 90.8715 151.002 90.8178V90.8603Z" fill="#AF6152"/>
<path d="M180.419 66.4454C186.695 68.2542 194.057 72.9419 192.248 85.4592C190.55 97.2293 183.807 123.283 181.268 129.788C178.381 137.176 175.324 139.8 171.434 140.709C168.037 141.49 164.241 139.333 161.38 137.363C153.21 131.707 147.792 120.251 141.924 108.261C139.186 102.606 137.152 96.6367 135.869 90.4866C135.625 89.0625 135.545 87.6149 135.631 86.1726C135.734 84.8082 136.064 83.4706 136.608 82.2153C136.705 82.0392 136.784 81.8543 136.846 81.6633C136.914 81.3425 136.939 81.0141 136.922 80.6867C136.895 79.8697 137.17 79.0715 137.695 78.4448C137.958 78.1993 138.242 77.9777 138.544 77.7824C138.641 77.7107 138.727 77.6248 138.799 77.5276C139.003 77.2304 138.884 76.8228 138.918 76.4661C138.988 76.0734 139.199 75.72 139.512 75.4727C139.825 75.2255 140.218 75.1015 140.616 75.1243C141.057 75.1769 141.48 75.3297 141.852 75.5712C142.225 75.8126 142.537 76.1362 142.765 76.517C142.802 76.5777 142.855 76.6275 142.918 76.6614C142.993 76.6783 143.071 76.6783 143.147 76.6614C143.502 76.6073 143.864 76.6305 144.208 76.7293C144.528 76.829 144.819 77.0037 145.058 77.2389C145.562 77.8485 145.885 78.5868 145.992 79.3704C146.281 80.6442 146.493 81.918 146.79 83.2003C147.368 85.6885 147.639 88.2956 148.99 90.5205C149.117 90.7243 149.312 90.9536 149.55 90.8942C149.788 90.8347 149.839 90.58 149.873 90.3592C150.195 88.0748 148.837 85.697 150.586 83.6844C152.115 81.935 152.395 85.3319 152.65 86.232C152.998 87.4209 153.338 88.6098 153.686 89.7902C154.348 91.7277 154.734 93.7489 154.832 95.7941C154.832 97.7218 154.323 99.6326 154.416 101.56C154.463 103.471 155.234 105.292 156.573 106.656C161.889 111.921 164.309 114.001 164.309 114.001L168.139 94.325C168.139 94.325 168.632 83.0305 173.031 74.0628C175.935 68.1608 180.419 66.4454 180.419 66.4454Z" fill="#C8856A"/>
<path d="M142.595 76.8992C142.052 77.8673 142.272 79.0731 142.281 80.1347C142.487 83.4025 143.077 86.6348 144.039 89.7647C143.724 87.9049 143.325 85.2129 143.02 83.3277C142.773 81.7312 142.595 80.1007 142.451 78.4872C142.375 77.9538 142.424 77.4102 142.595 76.8992Z" fill="#AF6152"/>
<path d="M138.892 77.6635C138.764 82.095 139.384 86.5163 140.727 90.7414C139.759 86.4953 139.504 81.969 138.892 77.6635Z" fill="#AF6152"/>
<path d="M136.837 81.8076C136.609 85.1189 137.006 88.4435 138.009 91.6075C137.653 88.7117 137.118 84.6695 136.837 81.8076Z" fill="#AF6152"/>
<path d="M161.346 137.363C152.183 130.527 147.699 119.487 142.663 109.594C140.148 104.554 138.156 99.27 136.718 93.824C135.89 91.1386 135.581 88.3197 135.81 85.5187C136.035 84.1284 136.437 82.7727 137.007 81.4849C137.007 80.0413 137.186 78.6995 138.544 77.9097C138.711 77.7966 138.843 77.6385 138.924 77.4537C139.006 77.2689 139.033 77.0648 139.003 76.8652C138.982 76.624 139.02 76.3813 139.114 76.1582C139.208 75.9352 139.356 75.7385 139.543 75.5853C139.731 75.4321 139.953 75.3271 140.19 75.2793C140.427 75.2315 140.673 75.2424 140.905 75.3112C141.638 75.5564 142.262 76.0487 142.671 76.7039C142.719 76.7482 142.775 76.7812 142.837 76.8004C142.899 76.8195 142.964 76.8243 143.028 76.8143C143.525 76.7253 144.038 76.7998 144.489 77.0266C145.737 77.7314 145.771 79.4128 146.094 80.6697C146.671 83.1154 147.164 86.6142 148.03 88.9155C148.281 89.5902 148.617 90.2296 149.032 90.8177C149.983 91.6075 150.034 89.9685 150 89.3656C149.898 87.3445 149.151 84.9582 150.934 83.4806C152.174 82.6314 152.285 85.8244 152.633 86.5207L153.227 88.5504C154 91.2339 154.968 93.9598 154.713 96.7877C154.459 99.6156 153.864 102.554 155.316 105.101C156.096 106.282 157.043 107.343 158.127 108.252C160.157 110.214 162.186 112.167 164.309 114.027C162.203 112.15 160.182 110.18 158.178 108.201C157.11 107.288 156.178 106.227 155.41 105.051C154.761 103.801 154.442 102.407 154.484 101C154.484 99.5986 154.764 98.2144 154.875 96.8047C155.138 93.9513 154.17 91.1914 153.405 88.4994L152.82 86.4698C152.497 85.4677 152.514 84.3213 151.902 83.4126C150.985 82.3681 149.907 84.3552 149.711 85.111C149.355 86.5462 149.788 87.9644 149.813 89.3571C149.864 92.1935 148.76 90.0789 148.285 88.8136C147.436 86.5292 146.943 82.9965 146.383 80.5933C146.068 78.9543 145.737 76.517 143.58 76.4916C143.385 76.4491 143.037 76.5765 142.901 76.4916C142.462 75.7911 141.787 75.2702 140.999 75.0224C140.723 74.9435 140.433 74.9323 140.152 74.9899C139.872 75.0475 139.609 75.1722 139.387 75.3532C139.165 75.5343 138.99 75.7664 138.878 76.0297C138.765 76.293 138.718 76.5796 138.74 76.8652C138.77 77.0158 138.754 77.172 138.693 77.3131C138.632 77.4542 138.53 77.5734 138.4 77.655C137.764 78.0527 137.277 78.6499 137.016 79.3534C136.822 80.0408 136.736 80.7542 136.761 81.4679C136.184 82.7555 135.784 84.1153 135.572 85.5102C135.348 88.347 135.668 91.2006 136.515 93.9174C137.978 99.374 139.995 104.667 142.536 109.713C147.631 119.597 152.166 130.637 161.405 137.388L161.346 137.363Z" fill="#AF6152"/>
<path d="M164.284 114.027C168.182 115.802 171.511 119.411 172.173 121.491C172.173 121.491 172.445 115.216 164.785 111.734L164.284 114.027Z" fill="#AF6152"/>
<path d="M180.223 65.8085C189.93 68.3562 192.961 73.1457 192.911 80.6018C192.911 90.9282 188.129 108.957 186.38 115.19C176.24 118.952 164.742 109.984 164.742 109.984L167.443 94.325C167.443 94.325 168.793 70.2329 180.223 65.8085Z" fill="#263238"/>
</svg>
