<svg width="44" height="305" viewBox="0 0 44 305" fill="none" xmlns="http://www.w3.org/2000/svg">
<path d="M43.84 281.86C43.84 285.18 43.32 288.26 42.28 291.1C41.2 293.9 39.68 296.34 37.72 298.42C35.76 300.46 33.46 302.06 30.82 303.22C28.14 304.38 25.2 304.96 22 304.96C18.8 304.96 15.88 304.38 13.24 303.22C10.56 302.06 8.24 300.46 6.28 298.42C4.32 296.34 2.82 293.9 1.78 291.1C0.699997 288.26 0.159997 285.18 0.159997 281.86C0.159997 277.98 0.839998 274.52 2.2 271.48C3.56 268.4 5.52 265.84 8.08 263.8L14.92 271.36C13.32 272.72 12.1 274.22 11.26 275.86C10.42 277.46 10 279.26 10 281.26C10 282.98 10.28 284.56 10.84 286C11.4 287.44 12.22 288.68 13.3 289.72C14.34 290.72 15.6 291.52 17.08 292.12C18.56 292.68 20.2 292.96 22 292.96C23.8 292.96 25.44 292.68 26.92 292.12C28.4 291.52 29.68 290.72 30.76 289.72C31.8 288.68 32.6 287.44 33.16 286C33.72 284.56 34 282.98 34 281.26C34 279.26 33.58 277.46 32.74 275.86C31.9 274.22 30.68 272.72 29.08 271.36L35.92 263.8C38.44 265.84 40.4 268.4 41.8 271.48C43.16 274.52 43.84 277.98 43.84 281.86ZM43.84 238.202C43.84 241.562 43.3 244.662 42.22 247.502C41.14 250.342 39.62 252.822 37.66 254.942C35.66 257.022 33.34 258.642 30.7 259.802C28.06 260.962 25.16 261.542 22 261.542C18.84 261.542 15.94 260.962 13.3 259.802C10.66 258.642 8.36 257.022 6.4 254.942C4.4 252.822 2.86 250.342 1.78 247.502C0.699997 244.662 0.159997 241.562 0.159997 238.202C0.159997 234.802 0.699997 231.702 1.78 228.902C2.86 226.062 4.4 223.602 6.4 221.522C8.36 219.442 10.66 217.822 13.3 216.662C15.94 215.462 18.84 214.862 22 214.862C25.16 214.862 28.08 215.462 30.76 216.662C33.4 217.822 35.7 219.442 37.66 221.522C39.62 223.602 41.14 226.062 42.22 228.902C43.3 231.702 43.84 234.802 43.84 238.202ZM34 238.202C34 236.602 33.72 235.122 33.16 233.762C32.6 232.362 31.8 231.162 30.76 230.162C29.68 229.122 28.4 228.322 26.92 227.762C25.44 227.162 23.8 226.862 22 226.862C20.16 226.862 18.52 227.162 17.08 227.762C15.6 228.322 14.34 229.122 13.3 230.162C12.22 231.162 11.4 232.362 10.84 233.762C10.28 235.122 10 236.602 10 238.202C10 239.802 10.28 241.302 10.84 242.702C11.4 244.062 12.22 245.262 13.3 246.302C14.34 247.302 15.6 248.102 17.08 248.702C18.52 249.262 20.16 249.542 22 249.542C23.8 249.542 25.44 249.262 26.92 248.702C28.4 248.102 29.68 247.302 30.76 246.302C31.8 245.262 32.6 244.062 33.16 242.702C33.72 241.302 34 239.802 34 238.202ZM43 208.64H0.999997V198.86L28.96 175.7V180.32H0.999997L0.999997 168.68H43V178.46L15.04 201.62V197H43V208.64ZM43 151.36H10.42V164.26H0.999997L0.999997 126.64H10.42V139.48H43V151.36ZM43 129.363L0.999997 110.823V99.1234L43 80.5234V92.8834L6.82 107.403V102.723L43 117.243V129.363ZM34.84 119.223L26.08 116.163L26.08 95.6434L34.84 92.5834L34.84 119.223ZM43.84 56.8014C43.84 60.1214 43.32 63.2014 42.28 66.0414C41.2 68.8414 39.68 71.2814 37.72 73.3614C35.76 75.4014 33.46 77.0014 30.82 78.1614C28.14 79.3214 25.2 79.9014 22 79.9014C18.8 79.9014 15.88 79.3214 13.24 78.1614C10.56 77.0014 8.24 75.4014 6.28 73.3614C4.32 71.2814 2.82 68.8414 1.78 66.0414C0.699997 63.2014 0.159997 60.1214 0.159997 56.8014C0.159997 52.9214 0.839998 49.4614 2.2 46.4214C3.56 43.3414 5.52 40.7814 8.08 38.7414L14.92 46.3014C13.32 47.6614 12.1 49.1614 11.26 50.8014C10.42 52.4014 10 54.2014 10 56.2014C10 57.9214 10.28 59.5014 10.84 60.9414C11.4 62.3814 12.22 63.6214 13.3 64.6614C14.34 65.6614 15.6 66.4614 17.08 67.0614C18.56 67.6214 20.2 67.9014 22 67.9014C23.8 67.9014 25.44 67.6214 26.92 67.0614C28.4 66.4614 29.68 65.6614 30.76 64.6614C31.8 63.6214 32.6 62.3814 33.16 60.9414C33.72 59.5014 34 57.9214 34 56.2014C34 54.2014 33.58 52.4014 32.74 50.8014C31.9 49.1614 30.68 47.6614 29.08 46.3014L35.92 38.7414C38.44 40.7814 40.4 43.3414 41.8 46.4214C43.16 49.4614 43.84 52.9214 43.84 56.8014ZM43 24.8561H10.42L10.42 37.7561H0.999997L0.999997 0.136091H10.42L10.42 12.9761H43V24.8561Z" fill="black"/>
</svg>
