<svg width="200" height="200" viewBox="0 0 200 200" fill="none" xmlns="http://www.w3.org/2000/svg">
<path d="M169.419 35.2317C156.473 29.1744 142.63 24.7723 128.157 22.2656C126.38 25.479 124.304 29.8012 122.872 33.2394C107.487 30.9258 92.2445 30.9258 77.143 33.2394C75.7116 29.8012 73.588 25.479 71.7947 22.2656C57.3067 24.7723 43.448 29.1906 30.5016 35.2638C4.38869 74.7238 -2.69009 113.204 0.849305 151.137C18.1688 164.071 34.9534 171.928 51.4548 177.069C55.5291 171.462 59.1628 165.501 62.2931 159.219C56.3313 156.954 50.6211 154.158 45.2256 150.912C46.657 149.852 48.0571 148.743 49.4098 147.603C82.3183 162.995 118.074 162.995 150.589 147.603C151.958 148.743 153.358 149.852 154.774 150.912C149.362 154.174 143.637 156.969 137.675 159.235C140.805 165.501 144.423 171.478 148.513 177.085C165.03 171.944 181.83 164.087 199.15 151.137C203.303 107.163 192.056 69.0361 169.419 35.2317ZM66.7765 127.809C56.8977 127.809 48.7963 118.586 48.7963 107.355C48.7963 96.1247 56.7247 86.8864 66.7765 86.8864C76.8285 86.8864 84.9297 96.1085 84.7567 107.355C84.7723 118.586 76.8285 127.809 66.7765 127.809ZM133.223 127.809C123.344 127.809 115.243 118.586 115.243 107.355C115.243 96.1247 123.171 86.8864 133.223 86.8864C143.275 86.8864 151.376 96.1085 151.203 107.355C151.203 118.586 143.275 127.809 133.223 127.809Z" fill="#5865F2"/>
</svg>
