<svg width="164" height="42" viewBox="0 0 164 42" fill="none" xmlns="http://www.w3.org/2000/svg">
<path d="M28.28 -2.86102e-06L40.16 -2.86102e-06V42H28.28V-2.86102e-06ZM12.08 42H0.2L0.2 -2.86102e-06L12.08 -2.86102e-06L12.08 42ZM29.12 25.62H11.24V15.78L29.12 15.78V25.62ZM59.4598 16.26H78.9598V25.14H59.4598V16.26ZM60.2998 32.82H82.2598V42L48.5398 42V-2.86102e-06L81.4798 -2.86102e-06V9.18H60.2998V32.82ZM88.8523 42V-2.86102e-06L100.732 -2.86102e-06V32.58H120.772V42H88.8523ZM125.473 42V-2.86102e-06L144.673 -2.86102e-06C148.513 -2.86102e-06 151.813 0.619998 154.573 1.86C157.373 3.1 159.533 4.9 161.053 7.26C162.573 9.58 163.333 12.34 163.333 15.54C163.333 18.7 162.573 21.44 161.053 23.76C159.533 26.08 157.373 27.88 154.573 29.16C151.813 30.4 148.513 31.02 144.673 31.02H132.073L137.353 25.86V42H125.473ZM137.353 27.12L132.073 21.66H143.953C146.433 21.66 148.273 21.12 149.473 20.04C150.713 18.96 151.333 17.46 151.333 15.54C151.333 13.58 150.713 12.06 149.473 10.98C148.273 9.9 146.433 9.36 143.953 9.36L132.073 9.36L137.353 3.9V27.12Z" fill="black"/>
</svg>
