<svg width="258" height="44" viewBox="0 0 258 44" fill="none" xmlns="http://www.w3.org/2000/svg">
<path d="M15.38 43.84C12.3 43.84 9.5 43.32 6.98 42.28C4.5 41.2 2.44 39.66 0.8 37.66L7.28 29.98C8.4 31.42 9.56 32.52 10.76 33.28C11.96 34 13.22 34.36 14.54 34.36C18.06 34.36 19.82 32.32 19.82 28.24L19.82 10.18H5.3L5.3 0.999997L31.58 0.999997L31.58 27.52C31.58 33 30.2 37.1 27.44 39.82C24.68 42.5 20.66 43.84 15.38 43.84ZM60.7784 43.84C57.4184 43.84 54.3184 43.3 51.4784 42.22C48.6384 41.14 46.1584 39.62 44.0384 37.66C41.9584 35.66 40.3384 33.34 39.1784 30.7C38.0184 28.06 37.4384 25.16 37.4384 22C37.4384 18.84 38.0184 15.94 39.1784 13.3C40.3384 10.66 41.9584 8.36 44.0384 6.4C46.1584 4.4 48.6384 2.86 51.4784 1.78C54.3184 0.699997 57.4184 0.159997 60.7784 0.159997C64.1784 0.159997 67.2784 0.699997 70.0784 1.78C72.9184 2.86 75.3784 4.4 77.4584 6.4C79.5384 8.36 81.1584 10.66 82.3184 13.3C83.5184 15.94 84.1184 18.84 84.1184 22C84.1184 25.16 83.5184 28.08 82.3184 30.76C81.1584 33.4 79.5384 35.7 77.4584 37.66C75.3784 39.62 72.9184 41.14 70.0784 42.22C67.2784 43.3 64.1784 43.84 60.7784 43.84ZM60.7784 34C62.3784 34 63.8584 33.72 65.2184 33.16C66.6184 32.6 67.8184 31.8 68.8184 30.76C69.8584 29.68 70.6584 28.4 71.2184 26.92C71.8184 25.44 72.1184 23.8 72.1184 22C72.1184 20.16 71.8184 18.52 71.2184 17.08C70.6584 15.6 69.8584 14.34 68.8184 13.3C67.8184 12.22 66.6184 11.4 65.2184 10.84C63.8584 10.28 62.3784 10 60.7784 10C59.1784 10 57.6784 10.28 56.2784 10.84C54.9184 11.4 53.7184 12.22 52.6784 13.3C51.6784 14.34 50.8784 15.6 50.2784 17.08C49.7184 18.52 49.4384 20.16 49.4384 22C49.4384 23.8 49.7184 25.44 50.2784 26.92C50.8784 28.4 51.6784 29.68 52.6784 30.76C53.7184 31.8 54.9184 32.6 56.2784 33.16C57.6784 33.72 59.1784 34 60.7784 34ZM90.3406 43V0.999997H102.221V43H90.3406ZM110.673 43V0.999997H120.453L143.613 28.96H138.993V0.999997H150.633V43H140.853L117.693 15.04H122.313V43H110.673ZM195.853 43.84C189.653 43.84 184.813 42.14 181.333 38.74C177.853 35.34 176.113 30.52 176.113 24.28V0.999997H187.993V23.92C187.993 27.52 188.693 30.1 190.093 31.66C191.533 33.22 193.493 34 195.973 34C198.453 34 200.393 33.22 201.793 31.66C203.193 30.1 203.893 27.52 203.893 23.92V0.999997H215.593V24.28C215.593 30.52 213.853 35.34 210.373 38.74C206.893 42.14 202.053 43.84 195.853 43.84ZM238.401 43.84C234.961 43.84 231.641 43.42 228.441 42.58C225.281 41.7 222.701 40.58 220.701 39.22L224.601 30.46C226.481 31.66 228.641 32.66 231.081 33.46C233.561 34.22 236.021 34.6 238.461 34.6C240.101 34.6 241.421 34.46 242.421 34.18C243.421 33.86 244.141 33.46 244.581 32.98C245.061 32.46 245.301 31.86 245.301 31.18C245.301 30.22 244.861 29.46 243.981 28.9C243.101 28.34 241.961 27.88 240.561 27.52C239.161 27.16 237.601 26.8 235.881 26.44C234.201 26.08 232.501 25.62 230.781 25.06C229.101 24.5 227.561 23.78 226.161 22.9C224.761 21.98 223.621 20.8 222.741 19.36C221.861 17.88 221.421 16.02 221.421 13.78C221.421 11.26 222.101 8.98 223.461 6.94C224.861 4.9 226.941 3.26 229.701 2.02C232.461 0.779998 235.901 0.159997 240.021 0.159997C242.781 0.159997 245.481 0.479998 248.121 1.12C250.801 1.72 253.181 2.62 255.261 3.82L251.601 12.64C249.601 11.56 247.621 10.76 245.661 10.24C243.701 9.68 241.801 9.4 239.961 9.4C238.321 9.4 237.001 9.58 236.001 9.94C235.001 10.26 234.281 10.7 233.841 11.26C233.401 11.82 233.181 12.46 233.181 13.18C233.181 14.1 233.601 14.84 234.441 15.4C235.321 15.92 236.461 16.36 237.861 16.72C239.301 17.04 240.861 17.38 242.541 17.74C244.261 18.1 245.961 18.56 247.641 19.12C249.361 19.64 250.921 20.36 252.321 21.28C253.721 22.16 254.841 23.34 255.681 24.82C256.561 26.26 257.001 28.08 257.001 30.28C257.001 32.72 256.301 34.98 254.901 37.06C253.541 39.1 251.481 40.74 248.721 41.98C246.001 43.22 242.561 43.84 238.401 43.84Z" fill="black"/>
</svg>
