<svg width="172" height="44" viewBox="0 0 172 44" fill="none" xmlns="http://www.w3.org/2000/svg">
<path d="M0.5 5C0.5 2.51472 2.51472 0.5 5 0.5H167C169.485 0.5 171.5 2.51472 171.5 5V39C171.5 41.4853 169.485 43.5 167 43.5H5C2.51472 43.5 0.5 41.4853 0.5 39V5Z" fill="black" stroke="black"/>
<path d="M73.5839 16.06V26.36C73.5839 27.5067 73.2305 28.4267 72.5239 29.12C71.8172 29.8 70.8838 30.14 69.7238 30.14C68.5505 30.14 67.6105 29.7933 66.9038 29.1C66.1972 28.3933 65.8438 27.4333 65.8438 26.22H67.6638C67.6772 26.9 67.8505 27.4533 68.1838 27.88C68.5305 28.3067 69.0438 28.52 69.7238 28.52C70.4038 28.52 70.9105 28.32 71.2438 27.92C71.5772 27.5067 71.7438 26.9867 71.7438 26.36V16.06H73.5839ZM81.9493 30.18C80.9227 30.18 79.9893 29.9467 79.1493 29.48C78.3227 29.0133 77.6693 28.3533 77.1893 27.5C76.7227 26.6333 76.4893 25.6333 76.4893 24.5C76.4893 23.38 76.7293 22.3933 77.2093 21.54C77.7027 20.6733 78.3693 20.0133 79.2093 19.56C80.0493 19.0933 80.9893 18.86 82.0293 18.86C83.0693 18.86 84.0093 19.0933 84.8493 19.56C85.6893 20.0133 86.3493 20.6667 86.8293 21.52C87.3227 22.3733 87.5693 23.3667 87.5693 24.5C87.5693 25.6333 87.316 26.6333 86.8093 27.5C86.316 28.3533 85.6427 29.0133 84.7893 29.48C83.936 29.9467 82.9893 30.18 81.9493 30.18ZM81.9493 28.58C82.6027 28.58 83.216 28.4267 83.7893 28.12C84.3627 27.8133 84.8227 27.3533 85.1693 26.74C85.5293 26.1267 85.7093 25.38 85.7093 24.5C85.7093 23.62 85.536 22.8733 85.1893 22.26C84.8427 21.6467 84.3893 21.1933 83.8293 20.9C83.2693 20.5933 82.6627 20.44 82.0093 20.44C81.3427 20.44 80.7293 20.5933 80.1693 20.9C79.6227 21.1933 79.1827 21.6467 78.8493 22.26C78.516 22.8733 78.3493 23.62 78.3493 24.5C78.3493 25.3933 78.5093 26.1467 78.8293 26.76C79.1627 27.3733 79.6027 27.8333 80.1493 28.14C80.696 28.4333 81.296 28.58 81.9493 28.58ZM90.9023 17.26C90.5556 17.26 90.2623 17.14 90.0223 16.9C89.7823 16.66 89.6623 16.3667 89.6623 16.02C89.6623 15.6733 89.7823 15.38 90.0223 15.14C90.2623 14.9 90.5556 14.78 90.9023 14.78C91.2356 14.78 91.5156 14.9 91.7423 15.14C91.9823 15.38 92.1023 15.6733 92.1023 16.02C92.1023 16.3667 91.9823 16.66 91.7423 16.9C91.5156 17.14 91.2356 17.26 90.9023 17.26ZM91.7823 19.04V30H89.9623V19.04H91.7823ZM100.224 18.84C101.557 18.84 102.637 19.2467 103.464 20.06C104.291 20.86 104.704 22.02 104.704 23.54V30H102.904V23.8C102.904 22.7067 102.631 21.8733 102.084 21.3C101.537 20.7133 100.791 20.42 99.8442 20.42C98.8842 20.42 98.1175 20.72 97.5442 21.32C96.9842 21.92 96.7042 22.7933 96.7042 23.94V30H94.8842V19.04H96.7042V20.6C97.0642 20.04 97.5508 19.6067 98.1642 19.3C98.7908 18.9933 99.4775 18.84 100.224 18.84Z" fill="#F0F0F0"/>
</svg>
