<svg width="176" height="315" viewBox="0 0 176 315" fill="none" xmlns="http://www.w3.org/2000/svg">
<path d="M0.99 22.44C0.99 20.36 1.44 18.51 2.34 16.89C3.24 15.25 4.49 13.98 6.09 13.08C7.71 12.16 9.54 11.7 11.58 11.7C14.08 11.7 16.22 12.36 18 13.68C19.78 15 20.97 16.8 21.57 19.08H15.93C15.51 18.2 14.91 17.53 14.13 17.07C13.37 16.61 12.5 16.38 11.52 16.38C9.94 16.38 8.66 16.93 7.68 18.03C6.7 19.13 6.21 20.6 6.21 22.44C6.21 24.28 6.7 25.75 7.68 26.85C8.66 27.95 9.94 28.5 11.52 28.5C12.5 28.5 13.37 28.27 14.13 27.81C14.91 27.35 15.51 26.68 15.93 25.8H21.57C20.97 28.08 19.78 29.88 18 31.2C16.22 32.5 14.08 33.15 11.58 33.15C9.54 33.15 7.71 32.7 6.09 31.8C4.49 30.88 3.24 29.61 2.34 27.99C1.44 26.37 0.99 24.52 0.99 22.44ZM32.3316 33.24C30.6916 33.24 29.2116 32.89 27.8916 32.19C26.5916 31.49 25.5616 30.49 24.8016 29.19C24.0616 27.89 23.6916 26.37 23.6916 24.63C23.6916 22.91 24.0716 21.4 24.8316 20.1C25.5916 18.78 26.6316 17.77 27.9516 17.07C29.2716 16.37 30.7516 16.02 32.3916 16.02C34.0316 16.02 35.5116 16.37 36.8316 17.07C38.1516 17.77 39.1916 18.78 39.9516 20.1C40.7116 21.4 41.0916 22.91 41.0916 24.63C41.0916 26.35 40.7016 27.87 39.9216 29.19C39.1616 30.49 38.1116 31.49 36.7716 32.19C35.4516 32.89 33.9716 33.24 32.3316 33.24ZM32.3316 28.8C33.3116 28.8 34.1416 28.44 34.8216 27.72C35.5216 27 35.8716 25.97 35.8716 24.63C35.8716 23.29 35.5316 22.26 34.8516 21.54C34.1916 20.82 33.3716 20.46 32.3916 20.46C31.3916 20.46 30.5616 20.82 29.9016 21.54C29.2416 22.24 28.9116 23.27 28.9116 24.63C28.9116 25.97 29.2316 27 29.8716 27.72C30.5316 28.44 31.3516 28.8 32.3316 28.8ZM60.3431 16.26V33L55.2131 33V30.72C54.6931 31.46 53.9831 32.06 53.0831 32.52C52.2031 32.96 51.2231 33.18 50.1431 33.18C48.8631 33.18 47.7331 32.9 46.7531 32.34C45.7731 31.76 45.0131 30.93 44.4731 29.85C43.9331 28.77 43.6631 27.5 43.6631 26.04V16.26H48.7631V25.35C48.7631 26.47 49.0531 27.34 49.6331 27.96C50.2131 28.58 50.9931 28.89 51.9731 28.89C52.9731 28.89 53.7631 28.58 54.3431 27.96C54.9231 27.34 55.2131 26.47 55.2131 25.35V16.26H60.3431ZM74.228 16.08C76.188 16.08 77.748 16.72 78.908 18C80.088 19.26 80.678 21 80.678 23.22V33H75.578V23.91C75.578 22.79 75.288 21.92 74.708 21.3C74.128 20.68 73.348 20.37 72.368 20.37C71.388 20.37 70.608 20.68 70.028 21.3C69.448 21.92 69.158 22.79 69.158 23.91V33H64.028V16.26H69.158V18.48C69.678 17.74 70.378 17.16 71.258 16.74C72.138 16.3 73.128 16.08 74.228 16.08ZM91.0528 33.24C89.5928 33.24 88.2928 32.99 87.1528 32.49C86.0128 31.99 85.1128 31.31 84.4528 30.45C83.7928 29.57 83.4228 28.59 83.3428 27.51L88.4128 27.51C88.4728 28.09 88.7428 28.56 89.2228 28.92C89.7028 29.28 90.2928 29.46 90.9928 29.46C91.6328 29.46 92.1228 29.34 92.4628 29.1C92.8228 28.84 93.0028 28.51 93.0028 28.11C93.0028 27.63 92.7528 27.28 92.2528 27.06C91.7528 26.82 90.9428 26.56 89.8228 26.28C88.6228 26 87.6228 25.71 86.8228 25.41C86.0228 25.09 85.3328 24.6 84.7528 23.94C84.1728 23.26 83.8828 22.35 83.8828 21.21C83.8828 20.25 84.1428 19.38 84.6628 18.6C85.2028 17.8 85.9828 17.17 87.0028 16.71C88.0428 16.25 89.2728 16.02 90.6928 16.02C92.7928 16.02 94.4428 16.54 95.6428 17.58C96.8628 18.62 97.5628 20 97.7428 21.72H93.0028C92.9228 21.14 92.6628 20.68 92.2228 20.34C91.8028 20 91.2428 19.83 90.5428 19.83C89.9428 19.83 89.4828 19.95 89.1628 20.19C88.8428 20.41 88.6828 20.72 88.6828 21.12C88.6828 21.6 88.9328 21.96 89.4328 22.2C89.9528 22.44 90.7528 22.68 91.8328 22.92C93.0728 23.24 94.0828 23.56 94.8628 23.88C95.6428 24.18 96.3228 24.68 96.9028 25.38C97.5028 26.06 97.8128 26.98 97.8328 28.14C97.8328 29.12 97.5528 30 96.9928 30.78C96.4528 31.54 95.6628 32.14 94.6228 32.58C93.6028 33.02 92.4128 33.24 91.0528 33.24ZM116.751 24.36C116.751 24.84 116.721 25.34 116.661 25.86H105.051C105.131 26.9 105.461 27.7 106.041 28.26C106.641 28.8 107.371 29.07 108.231 29.07C109.511 29.07 110.401 28.53 110.901 27.45H116.361C116.081 28.55 115.571 29.54 114.831 30.42C114.111 31.3 113.201 31.99 112.101 32.49C111.001 32.99 109.771 33.24 108.411 33.24C106.771 33.24 105.311 32.89 104.031 32.19C102.751 31.49 101.751 30.49 101.031 29.19C100.311 27.89 99.9513 26.37 99.9513 24.63C99.9513 22.89 100.301 21.37 101.001 20.07C101.721 18.77 102.721 17.77 104.001 17.07C105.281 16.37 106.751 16.02 108.411 16.02C110.031 16.02 111.471 16.36 112.731 17.04C113.991 17.72 114.971 18.69 115.671 19.95C116.391 21.21 116.751 22.68 116.751 24.36ZM111.501 23.01C111.501 22.13 111.201 21.43 110.601 20.91C110.001 20.39 109.251 20.13 108.351 20.13C107.491 20.13 106.761 20.38 106.161 20.88C105.581 21.38 105.221 22.09 105.081 23.01H111.501ZM124.588 10.8V33H119.458V10.8H124.588ZM130.885 14.52C129.985 14.52 129.245 14.26 128.665 13.74C128.105 13.2 127.825 12.54 127.825 11.76C127.825 10.96 128.105 10.3 128.665 9.78C129.245 9.24 129.985 8.97 130.885 8.97C131.765 8.97 132.485 9.24 133.045 9.78C133.625 10.3 133.915 10.96 133.915 11.76C133.915 12.54 133.625 13.2 133.045 13.74C132.485 14.26 131.765 14.52 130.885 14.52ZM133.435 16.26V33H128.305V16.26H133.435ZM147.353 16.08C149.313 16.08 150.873 16.72 152.033 18C153.213 19.26 153.803 21 153.803 23.22V33H148.703V23.91C148.703 22.79 148.413 21.92 147.833 21.3C147.253 20.68 146.473 20.37 145.493 20.37C144.513 20.37 143.733 20.68 143.153 21.3C142.573 21.92 142.283 22.79 142.283 23.91V33H137.153V16.26H142.283V18.48C142.803 17.74 143.503 17.16 144.383 16.74C145.263 16.3 146.253 16.08 147.353 16.08ZM163.728 16.02C164.908 16.02 165.938 16.26 166.818 16.74C167.718 17.22 168.408 17.85 168.888 18.63V16.26H174.018V32.97C174.018 34.51 173.708 35.9 173.088 37.14C172.488 38.4 171.558 39.4 170.298 40.14C169.058 40.88 167.508 41.25 165.648 41.25C163.168 41.25 161.158 40.66 159.618 39.48C158.078 38.32 157.198 36.74 156.978 34.74H162.048C162.208 35.38 162.588 35.88 163.188 36.24C163.788 36.62 164.528 36.81 165.408 36.81C166.468 36.81 167.308 36.5 167.928 35.88C168.568 35.28 168.888 34.31 168.888 32.97V30.6C168.388 31.38 167.698 32.02 166.818 32.52C165.938 33 164.908 33.24 163.728 33.24C162.348 33.24 161.098 32.89 159.978 32.19C158.858 31.47 157.968 30.46 157.308 29.16C156.668 27.84 156.348 26.32 156.348 24.6C156.348 22.88 156.668 21.37 157.308 20.07C157.968 18.77 158.858 17.77 159.978 17.07C161.098 16.37 162.348 16.02 163.728 16.02ZM168.888 24.63C168.888 23.35 168.528 22.34 167.808 21.6C167.108 20.86 166.248 20.49 165.228 20.49C164.208 20.49 163.338 20.86 162.618 21.6C161.918 22.32 161.568 23.32 161.568 24.6C161.568 25.88 161.918 26.9 162.618 27.66C163.338 28.4 164.208 28.77 165.228 28.77C166.248 28.77 167.108 28.4 167.808 27.66C168.528 26.92 168.888 25.91 168.888 24.63Z" fill="black"/>
<path d="M46.0173 79.71V90.732C46.0173 92.096 45.5993 93.174 44.7633 93.966C43.942 94.758 42.8566 95.154 41.5073 95.154C40.158 95.154 39.0653 94.758 38.2293 93.966C37.408 93.174 36.9973 92.096 36.9973 90.732H39.5273C39.542 91.4067 39.7106 91.942 40.0333 92.338C40.3706 92.734 40.862 92.932 41.5073 92.932C42.1526 92.932 42.644 92.734 42.9813 92.338C43.3186 91.9273 43.4873 91.392 43.4873 90.732V79.71H46.0173ZM55.3553 95.198C54.2113 95.198 53.1773 94.9413 52.2533 94.428C51.3293 93.9 50.6033 93.1667 50.0753 92.228C49.5473 91.2747 49.2833 90.1747 49.2833 88.928C49.2833 87.696 49.5546 86.6033 50.0973 85.65C50.6399 84.6967 51.3806 83.9633 52.3193 83.45C53.2579 82.9367 54.3066 82.68 55.4653 82.68C56.6239 82.68 57.6726 82.9367 58.6113 83.45C59.5499 83.9633 60.2906 84.6967 60.8333 85.65C61.3759 86.6033 61.6473 87.696 61.6473 88.928C61.6473 90.16 61.3686 91.2527 60.8113 92.206C60.2539 93.1593 59.4913 93.9 58.5233 94.428C57.5699 94.9413 56.5139 95.198 55.3553 95.198ZM55.3553 93.02C56.0006 93.02 56.6019 92.866 57.1593 92.558C57.7313 92.25 58.1933 91.788 58.5453 91.172C58.8973 90.556 59.0733 89.808 59.0733 88.928C59.0733 88.048 58.9046 87.3073 58.5673 86.706C58.2299 86.09 57.7826 85.628 57.2253 85.32C56.6679 85.012 56.0666 84.858 55.4213 84.858C54.7759 84.858 54.1746 85.012 53.6173 85.32C53.0746 85.628 52.6419 86.09 52.3193 86.706C51.9966 87.3073 51.8353 88.048 51.8353 88.928C51.8353 90.2333 52.1653 91.2453 52.8253 91.964C53.4999 92.668 54.3433 93.02 55.3553 93.02ZM70.3966 82.68C71.3206 82.68 72.1419 82.878 72.8606 83.274C73.5939 83.67 74.1659 84.2567 74.5766 85.034C75.0019 85.8113 75.2146 86.75 75.2146 87.85V95H72.7286V88.224C72.7286 87.1387 72.4572 86.31 71.9146 85.738C71.3719 85.1513 70.6312 84.858 69.6926 84.858C68.7539 84.858 68.0059 85.1513 67.4486 85.738C66.9059 86.31 66.6346 87.1387 66.6346 88.224V95H64.1266V78.72H66.6346V84.286C67.0599 83.7727 67.5952 83.3767 68.2406 83.098C68.9006 82.8193 69.6192 82.68 70.3966 82.68ZM84.5297 82.68C85.483 82.68 86.3337 82.878 87.0817 83.274C87.8443 83.67 88.4383 84.2567 88.8637 85.034C89.289 85.8113 89.5017 86.75 89.5017 87.85V95H87.0157V88.224C87.0157 87.1387 86.7443 86.31 86.2017 85.738C85.659 85.1513 84.9183 84.858 83.9797 84.858C83.041 84.858 82.293 85.1513 81.7357 85.738C81.193 86.31 80.9217 87.1387 80.9217 88.224V95H78.4137V82.878H80.9217V84.264C81.3323 83.7653 81.853 83.3767 82.4837 83.098C83.129 82.8193 83.811 82.68 84.5297 82.68ZM103.41 79.71C105.038 79.71 106.46 80.0253 107.678 80.656C108.91 81.272 109.856 82.1667 110.516 83.34C111.19 84.4987 111.528 85.8553 111.528 87.41C111.528 88.9647 111.19 90.314 110.516 91.458C109.856 92.602 108.91 93.482 107.678 94.098C106.46 94.6993 105.038 95 103.41 95H98.4156V79.71H103.41ZM103.41 92.954C105.199 92.954 106.57 92.47 107.524 91.502C108.477 90.534 108.954 89.17 108.954 87.41C108.954 85.6353 108.477 84.2493 107.524 83.252C106.57 82.2547 105.199 81.756 103.41 81.756H100.924V92.954H103.41ZM119.271 95.198C118.127 95.198 117.093 94.9413 116.169 94.428C115.245 93.9 114.519 93.1667 113.991 92.228C113.463 91.2747 113.199 90.1747 113.199 88.928C113.199 87.696 113.471 86.6033 114.013 85.65C114.556 84.6967 115.297 83.9633 116.235 83.45C117.174 82.9367 118.223 82.68 119.381 82.68C120.54 82.68 121.589 82.9367 122.527 83.45C123.466 83.9633 124.207 84.6967 124.749 85.65C125.292 86.6033 125.563 87.696 125.563 88.928C125.563 90.16 125.285 91.2527 124.727 92.206C124.17 93.1593 123.407 93.9 122.439 94.428C121.486 94.9413 120.43 95.198 119.271 95.198ZM119.271 93.02C119.917 93.02 120.518 92.866 121.075 92.558C121.647 92.25 122.109 91.788 122.461 91.172C122.813 90.556 122.989 89.808 122.989 88.928C122.989 88.048 122.821 87.3073 122.483 86.706C122.146 86.09 121.699 85.628 121.141 85.32C120.584 85.012 119.983 84.858 119.337 84.858C118.692 84.858 118.091 85.012 117.533 85.32C116.991 85.628 116.558 86.09 116.235 86.706C115.913 87.3073 115.751 88.048 115.751 88.928C115.751 90.2333 116.081 91.2453 116.741 91.964C117.416 92.668 118.259 93.02 119.271 93.02ZM139.153 88.642C139.153 89.0967 139.123 89.5073 139.065 89.874H129.803C129.876 90.842 130.235 91.6193 130.881 92.206C131.526 92.7927 132.318 93.086 133.257 93.086C134.606 93.086 135.559 92.5213 136.117 91.392H138.823C138.456 92.5067 137.789 93.4233 136.821 94.142C135.867 94.846 134.679 95.198 133.257 95.198C132.098 95.198 131.057 94.9413 130.133 94.428C129.223 93.9 128.505 93.1667 127.977 92.228C127.463 91.2747 127.207 90.1747 127.207 88.928C127.207 87.6813 127.456 86.5887 127.955 85.65C128.468 84.6967 129.179 83.9633 130.089 83.45C131.013 82.9367 132.069 82.68 133.257 82.68C134.401 82.68 135.42 82.9293 136.315 83.428C137.209 83.9267 137.906 84.6307 138.405 85.54C138.903 86.4347 139.153 87.4687 139.153 88.642ZM136.535 87.85C136.52 86.926 136.19 86.1853 135.545 85.628C134.899 85.0707 134.1 84.792 133.147 84.792C132.281 84.792 131.541 85.0707 130.925 85.628C130.309 86.1707 129.942 86.9113 129.825 87.85H136.535ZM56.2234 117.416C56.4154 116.328 56.8314 115.352 57.4714 114.488C58.122 113.613 58.9114 112.931 59.8394 112.44C60.778 111.949 61.7594 111.704 62.7834 111.704C63.9994 111.704 65.0074 111.997 65.8074 112.584C66.618 113.171 67.1407 114.003 67.3754 115.08H65.6314C65.4394 114.429 65.082 113.928 64.5594 113.576C64.0367 113.213 63.37 113.032 62.5594 113.032C61.7807 113.032 61.05 113.213 60.3674 113.576C59.6954 113.928 59.1247 114.44 58.6554 115.112C58.186 115.773 57.8714 116.541 57.7114 117.416C57.658 117.693 57.6314 118.013 57.6314 118.376C57.6314 119.421 57.9354 120.253 58.5434 120.872C59.162 121.48 59.9834 121.784 61.0074 121.784C61.818 121.784 62.5487 121.608 63.1994 121.256C63.85 120.904 64.3834 120.403 64.7994 119.752H66.5434C65.9354 120.819 65.1247 121.645 64.1114 122.232C63.1087 122.808 61.9994 123.096 60.7834 123.096C59.8767 123.096 59.0714 122.909 58.3674 122.536C57.6634 122.152 57.114 121.619 56.7194 120.936C56.3247 120.243 56.1274 119.448 56.1274 118.552C56.1274 118.179 56.1594 117.8 56.2234 117.416ZM71.9908 123.144C71.2548 123.144 70.6041 122.995 70.0388 122.696C69.4841 122.387 69.0521 121.96 68.7428 121.416C68.4334 120.861 68.2788 120.221 68.2788 119.496C68.2788 118.504 68.5081 117.597 68.9668 116.776C69.4254 115.944 70.0548 115.288 70.8548 114.808C71.6654 114.328 72.5668 114.088 73.5588 114.088C74.2948 114.088 74.9454 114.243 75.5108 114.552C76.0868 114.851 76.5294 115.277 76.8388 115.832C77.1588 116.376 77.3188 117.016 77.3188 117.752C77.3188 118.744 77.0841 119.651 76.6148 120.472C76.1454 121.293 75.5054 121.944 74.6948 122.424C73.8841 122.904 72.9828 123.144 71.9908 123.144ZM72.1668 121.912C72.8601 121.912 73.4841 121.725 74.0388 121.352C74.5934 120.968 75.0254 120.467 75.3348 119.848C75.6548 119.219 75.8148 118.547 75.8148 117.832C75.8148 117.021 75.5801 116.403 75.1108 115.976C74.6414 115.539 74.0548 115.32 73.3508 115.32C72.6574 115.32 72.0388 115.512 71.4948 115.896C70.9508 116.269 70.5294 116.771 70.2308 117.4C69.9321 118.029 69.7828 118.707 69.7828 119.432C69.7828 120.221 70.0068 120.835 70.4548 121.272C70.9028 121.699 71.4734 121.912 72.1668 121.912ZM87.6971 114.232L86.1451 123H84.6891L84.9131 121.72C84.5611 122.168 84.1131 122.515 83.5691 122.76C83.0251 123.005 82.4598 123.128 81.8731 123.128C80.9558 123.128 80.2198 122.883 79.6651 122.392C79.1211 121.891 78.8491 121.176 78.8491 120.248C78.8491 120.013 78.8758 119.72 78.9291 119.368L79.8411 114.232H81.2811L80.4171 119.176C80.3745 119.4 80.3531 119.635 80.3531 119.88C80.3531 120.531 80.5291 121.027 80.8811 121.368C81.2438 121.699 81.7451 121.864 82.3851 121.864C83.1531 121.864 83.8038 121.624 84.3371 121.144C84.8811 120.664 85.2278 119.965 85.3771 119.048V119.096L86.2411 114.232H87.6971ZM94.4595 114.072C95.3662 114.072 96.0915 114.317 96.6355 114.808C97.1795 115.288 97.4515 115.992 97.4515 116.92C97.4515 117.261 97.4248 117.565 97.3715 117.832L96.4595 123H95.0195L95.8995 118.04C95.9422 117.816 95.9635 117.581 95.9635 117.336C95.9635 116.685 95.7822 116.189 95.4195 115.848C95.0675 115.507 94.5715 115.336 93.9315 115.336C93.1635 115.336 92.5075 115.576 91.9635 116.056C91.4302 116.536 91.0835 117.235 90.9235 118.152V118.12L90.0595 123H88.6035L90.1555 114.232H91.6115L91.3875 115.496C91.7502 115.037 92.2035 114.685 92.7475 114.44C93.2915 114.195 93.8622 114.072 94.4595 114.072ZM101.926 123.144C101.009 123.144 100.257 122.925 99.6699 122.488C99.0832 122.051 98.7899 121.464 98.7899 120.728C98.7899 120.589 98.7952 120.488 98.8059 120.424H100.23C100.187 120.883 100.321 121.256 100.63 121.544C100.95 121.832 101.409 121.976 102.006 121.976C102.603 121.976 103.083 121.864 103.446 121.64C103.819 121.405 104.006 121.08 104.006 120.664C104.006 120.312 103.857 120.035 103.558 119.832C103.259 119.629 102.801 119.411 102.182 119.176C101.638 118.973 101.19 118.781 100.838 118.6C100.486 118.419 100.187 118.168 99.9419 117.848C99.6965 117.517 99.5739 117.101 99.5739 116.6C99.5739 116.109 99.7125 115.672 99.9899 115.288C100.278 114.904 100.673 114.611 101.174 114.408C101.686 114.195 102.267 114.088 102.918 114.088C103.814 114.088 104.55 114.312 105.126 114.76C105.702 115.208 105.99 115.795 105.99 116.52C105.99 116.659 105.985 116.765 105.974 116.84H104.582L104.598 116.648C104.598 116.221 104.433 115.885 104.102 115.64C103.782 115.384 103.355 115.256 102.822 115.256C102.299 115.256 101.867 115.373 101.526 115.608C101.195 115.843 101.03 116.157 101.03 116.552C101.03 116.925 101.185 117.219 101.494 117.432C101.803 117.645 102.283 117.88 102.934 118.136C103.478 118.349 103.915 118.547 104.246 118.728C104.577 118.899 104.859 119.139 105.094 119.448C105.329 119.757 105.446 120.147 105.446 120.616C105.446 121.128 105.291 121.576 104.982 121.96C104.683 122.344 104.267 122.637 103.734 122.84C103.201 123.043 102.598 123.144 101.926 123.144ZM112.557 114.088C113.293 114.088 113.928 114.232 114.461 114.52C115.005 114.797 115.416 115.192 115.693 115.704C115.981 116.205 116.125 116.781 116.125 117.432C116.125 117.656 116.099 117.928 116.045 118.248C116.003 118.525 115.933 118.813 115.837 119.112H108.829C108.808 119.325 108.797 119.48 108.797 119.576C108.797 120.312 109.016 120.888 109.453 121.304C109.901 121.709 110.483 121.912 111.197 121.912C111.827 121.912 112.376 121.768 112.845 121.48C113.325 121.181 113.688 120.787 113.933 120.296H115.501C115.117 121.139 114.525 121.827 113.725 122.36C112.936 122.883 112.019 123.144 110.973 123.144C109.875 123.144 108.989 122.829 108.317 122.2C107.656 121.56 107.325 120.691 107.325 119.592C107.325 119.283 107.357 118.952 107.421 118.6C107.581 117.693 107.907 116.899 108.397 116.216C108.888 115.533 109.491 115.011 110.205 114.648C110.931 114.275 111.715 114.088 112.557 114.088ZM114.573 118.056C114.605 117.843 114.621 117.645 114.621 117.464C114.621 116.781 114.403 116.253 113.965 115.88C113.539 115.507 112.979 115.32 112.285 115.32C111.539 115.32 110.861 115.565 110.253 116.056C109.645 116.536 109.235 117.203 109.021 118.056H114.573ZM120.671 111.16L118.575 123H117.119L119.215 111.16H120.671ZM18.101 153.976C17.077 152.973 16.277 151.699 15.701 150.152C15.1357 148.605 14.853 146.936 14.853 145.144C14.853 143.309 15.1517 141.597 15.749 140.008C16.357 138.408 17.221 137.091 18.341 136.056H19.861V136.2C18.6663 137.32 17.765 138.669 17.157 140.248C16.5597 141.816 16.261 143.448 16.261 145.144C16.261 146.797 16.5437 148.376 17.109 149.88C17.685 151.384 18.5223 152.701 19.621 153.832V153.976H18.101ZM21.3506 142.344C21.4253 141.363 21.804 140.595 22.4866 140.04C23.1693 139.485 24.0546 139.208 25.1426 139.208C25.868 139.208 26.492 139.341 27.0146 139.608C27.548 139.864 27.948 140.216 28.2146 140.664C28.492 141.112 28.6306 141.619 28.6306 142.184C28.6306 142.845 28.4386 143.416 28.0546 143.896C27.6813 144.376 27.1906 144.685 26.5826 144.824V144.904C27.276 145.075 27.8253 145.411 28.2306 145.912C28.636 146.413 28.8386 147.069 28.8386 147.88C28.8386 148.488 28.7 149.037 28.4226 149.528C28.1453 150.008 27.7293 150.387 27.1746 150.664C26.62 150.941 25.9533 151.08 25.1746 151.08C24.044 151.08 23.116 150.787 22.3906 150.2C21.6653 149.603 21.26 148.76 21.1746 147.672H22.5826C22.6573 148.312 22.9186 148.835 23.3666 149.24C23.8146 149.645 24.412 149.848 25.1586 149.848C25.9053 149.848 26.4706 149.656 26.8546 149.272C27.2493 148.877 27.4466 148.371 27.4466 147.752C27.4466 146.952 27.18 146.376 26.6466 146.024C26.1133 145.672 25.308 145.496 24.2306 145.496H23.8626V144.28H24.2466C25.228 144.269 25.9693 144.109 26.4706 143.8C26.972 143.48 27.2226 142.989 27.2226 142.328C27.2226 141.763 27.036 141.309 26.6626 140.968C26.3 140.627 25.7773 140.456 25.0946 140.456C24.4333 140.456 23.9 140.627 23.4946 140.968C23.0893 141.309 22.8493 141.768 22.7746 142.344H21.3506ZM30.8045 145.096C30.8045 143.261 31.1032 141.832 31.7005 140.808C32.2978 139.773 33.3432 139.256 34.8365 139.256C36.3192 139.256 37.3592 139.773 37.9565 140.808C38.5538 141.832 38.8525 143.261 38.8525 145.096C38.8525 146.963 38.5538 148.413 37.9565 149.448C37.3592 150.483 36.3192 151 34.8365 151C33.3432 151 32.2978 150.483 31.7005 149.448C31.1032 148.413 30.8045 146.963 30.8045 145.096ZM37.4125 145.096C37.4125 144.168 37.3485 143.384 37.2205 142.744C37.1032 142.093 36.8525 141.571 36.4685 141.176C36.0952 140.781 35.5512 140.584 34.8365 140.584C34.1112 140.584 33.5565 140.781 33.1725 141.176C32.7992 141.571 32.5485 142.093 32.4205 142.744C32.3032 143.384 32.2445 144.168 32.2445 145.096C32.2445 146.056 32.3032 146.861 32.4205 147.512C32.5485 148.163 32.7992 148.685 33.1725 149.08C33.5565 149.475 34.1112 149.672 34.8365 149.672C35.5512 149.672 36.0952 149.475 36.4685 149.08C36.8525 148.685 37.1032 148.163 37.2205 147.512C37.3485 146.861 37.4125 146.056 37.4125 145.096ZM48.2274 140.696H42.6114V144.344C42.8567 144.003 43.2194 143.725 43.6994 143.512C44.1794 143.288 44.6967 143.176 45.2514 143.176C46.1367 143.176 46.8567 143.363 47.4114 143.736C47.966 144.099 48.3607 144.573 48.5954 145.16C48.8407 145.736 48.9634 146.349 48.9634 147C48.9634 147.768 48.8194 148.456 48.5314 149.064C48.2434 149.672 47.8007 150.152 47.2034 150.504C46.6167 150.856 45.886 151.032 45.0114 151.032C43.8914 151.032 42.9847 150.744 42.2914 150.168C41.598 149.592 41.1767 148.824 41.0274 147.864H42.4514C42.59 148.472 42.8834 148.947 43.3314 149.288C43.7794 149.629 44.3447 149.8 45.0274 149.8C45.87 149.8 46.5047 149.549 46.9314 149.048C47.358 148.536 47.5714 147.864 47.5714 147.032C47.5714 146.2 47.358 145.56 46.9314 145.112C46.5047 144.653 45.8754 144.424 45.0434 144.424C44.478 144.424 43.982 144.563 43.5554 144.84C43.1394 145.107 42.8354 145.475 42.6434 145.944H41.2674V139.416H48.2274V140.696ZM50.6743 153.976V153.832C51.7729 152.701 52.6049 151.384 53.1703 149.88C53.7463 148.376 54.0343 146.797 54.0343 145.144C54.0343 143.448 53.7303 141.816 53.1223 140.248C52.5249 138.669 51.6289 137.32 50.4342 136.2V136.056H51.9543C53.0743 137.091 53.9329 138.408 54.5303 140.008C55.1383 141.597 55.4423 143.309 55.4423 145.144C55.4423 146.936 55.1543 148.605 54.5783 150.152C54.0129 151.699 53.2183 152.973 52.1943 153.976H50.6743ZM69.8055 140.696H64.1895V144.344C64.4348 144.003 64.7975 143.725 65.2775 143.512C65.7575 143.288 66.2748 143.176 66.8295 143.176C67.7148 143.176 68.4348 143.363 68.9895 143.736C69.5442 144.099 69.9388 144.573 70.1735 145.16C70.4188 145.736 70.5415 146.349 70.5415 147C70.5415 147.768 70.3975 148.456 70.1095 149.064C69.8215 149.672 69.3788 150.152 68.7815 150.504C68.1948 150.856 67.4642 151.032 66.5895 151.032C65.4695 151.032 64.5628 150.744 63.8695 150.168C63.1762 149.592 62.7548 148.824 62.6055 147.864H64.0295C64.1682 148.472 64.4615 148.947 64.9095 149.288C65.3575 149.629 65.9228 149.8 66.6055 149.8C67.4482 149.8 68.0828 149.549 68.5095 149.048C68.9362 148.536 69.1495 147.864 69.1495 147.032C69.1495 146.2 68.9362 145.56 68.5095 145.112C68.0828 144.653 67.4535 144.424 66.6215 144.424C66.0562 144.424 65.5602 144.563 65.1335 144.84C64.7175 145.107 64.4135 145.475 64.2215 145.944H62.8455V139.416H69.8055V140.696ZM74.5884 144.984C73.991 144.749 73.5324 144.408 73.2124 143.96C72.8924 143.512 72.7324 142.968 72.7324 142.328C72.7324 141.752 72.8764 141.235 73.1644 140.776C73.4524 140.307 73.879 139.939 74.4444 139.672C75.0204 139.395 75.7137 139.256 76.5244 139.256C77.335 139.256 78.023 139.395 78.5884 139.672C79.1644 139.939 79.5964 140.307 79.8844 140.776C80.183 141.235 80.3324 141.752 80.3324 142.328C80.3324 142.947 80.167 143.491 79.8364 143.96C79.5057 144.419 79.0524 144.76 78.4764 144.984C79.1377 145.187 79.6604 145.544 80.0444 146.056C80.439 146.557 80.6364 147.165 80.6364 147.88C80.6364 148.573 80.4657 149.181 80.1244 149.704C79.783 150.216 79.2977 150.616 78.6684 150.904C78.0497 151.181 77.335 151.32 76.5244 151.32C75.7137 151.32 74.999 151.181 74.3804 150.904C73.7724 150.616 73.2977 150.216 72.9564 149.704C72.615 149.181 72.4444 148.573 72.4444 147.88C72.4444 147.165 72.6364 146.552 73.0204 146.04C73.4044 145.528 73.927 145.176 74.5884 144.984ZM78.9244 142.504C78.9244 141.853 78.711 141.352 78.2844 141C77.8577 140.648 77.271 140.472 76.5244 140.472C75.7884 140.472 75.207 140.648 74.7804 141C74.3537 141.352 74.1404 141.859 74.1404 142.52C74.1404 143.117 74.359 143.597 74.7964 143.96C75.2444 144.323 75.8204 144.504 76.5244 144.504C77.239 144.504 77.815 144.323 78.2524 143.96C78.7004 143.587 78.9244 143.101 78.9244 142.504ZM76.5244 145.624C75.735 145.624 75.0897 145.811 74.5884 146.184C74.087 146.547 73.8364 147.096 73.8364 147.832C73.8364 148.515 74.0764 149.064 74.5564 149.48C75.047 149.896 75.703 150.104 76.5244 150.104C77.3457 150.104 77.9964 149.896 78.4764 149.48C78.9564 149.064 79.1964 148.515 79.1964 147.832C79.1964 147.117 78.951 146.573 78.4604 146.2C77.9697 145.816 77.3244 145.624 76.5244 145.624ZM82.2181 148.424V147.32L87.8341 139.544H89.5781V147.16H91.1781V148.424H89.5781V151H88.1381V148.424H82.2181ZM88.2021 141.064L83.8981 147.16H88.2021V141.064ZM104.018 140.568L99.5703 151H98.0983L102.61 140.712H96.4342V139.464H104.018V140.568ZM107.745 144.984C107.147 144.749 106.689 144.408 106.369 143.96C106.049 143.512 105.889 142.968 105.889 142.328C105.889 141.752 106.033 141.235 106.321 140.776C106.609 140.307 107.035 139.939 107.601 139.672C108.177 139.395 108.87 139.256 109.681 139.256C110.491 139.256 111.179 139.395 111.745 139.672C112.321 139.939 112.753 140.307 113.041 140.776C113.339 141.235 113.489 141.752 113.489 142.328C113.489 142.947 113.323 143.491 112.993 143.96C112.662 144.419 112.209 144.76 111.633 144.984C112.294 145.187 112.817 145.544 113.201 146.056C113.595 146.557 113.793 147.165 113.793 147.88C113.793 148.573 113.622 149.181 113.281 149.704C112.939 150.216 112.454 150.616 111.825 150.904C111.206 151.181 110.491 151.32 109.681 151.32C108.87 151.32 108.155 151.181 107.537 150.904C106.929 150.616 106.454 150.216 106.113 149.704C105.771 149.181 105.601 148.573 105.601 147.88C105.601 147.165 105.793 146.552 106.177 146.04C106.561 145.528 107.083 145.176 107.745 144.984ZM112.081 142.504C112.081 141.853 111.867 141.352 111.441 141C111.014 140.648 110.427 140.472 109.681 140.472C108.945 140.472 108.363 140.648 107.937 141C107.51 141.352 107.297 141.859 107.297 142.52C107.297 143.117 107.515 143.597 107.953 143.96C108.401 144.323 108.977 144.504 109.681 144.504C110.395 144.504 110.971 144.323 111.409 143.96C111.857 143.587 112.081 143.101 112.081 142.504ZM109.681 145.624C108.891 145.624 108.246 145.811 107.745 146.184C107.243 146.547 106.993 147.096 106.993 147.832C106.993 148.515 107.233 149.064 107.713 149.48C108.203 149.896 108.859 150.104 109.681 150.104C110.502 150.104 111.153 149.896 111.633 149.48C112.113 149.064 112.353 148.515 112.353 147.832C112.353 147.117 112.107 146.573 111.617 146.2C111.126 145.816 110.481 145.624 109.681 145.624ZM117.598 147.896C117.705 148.504 117.95 148.973 118.334 149.304C118.729 149.635 119.257 149.8 119.918 149.8C120.804 149.8 121.454 149.453 121.87 148.76C122.297 148.067 122.5 146.899 122.478 145.256C122.254 145.736 121.881 146.115 121.358 146.392C120.836 146.659 120.254 146.792 119.614 146.792C118.9 146.792 118.26 146.648 117.694 146.36C117.14 146.061 116.702 145.629 116.382 145.064C116.062 144.499 115.902 143.816 115.902 143.016C115.902 141.875 116.233 140.957 116.894 140.264C117.556 139.56 118.494 139.208 119.71 139.208C121.204 139.208 122.249 139.693 122.846 140.664C123.454 141.635 123.758 143.08 123.758 145C123.758 146.344 123.636 147.453 123.39 148.328C123.156 149.203 122.75 149.869 122.174 150.328C121.609 150.787 120.83 151.016 119.838 151.016C118.75 151.016 117.902 150.723 117.294 150.136C116.686 149.549 116.34 148.803 116.254 147.896H117.598ZM119.854 145.56C120.569 145.56 121.156 145.341 121.614 144.904C122.073 144.456 122.302 143.853 122.302 143.096C122.302 142.296 122.078 141.651 121.63 141.16C121.182 140.669 120.553 140.424 119.742 140.424C118.996 140.424 118.398 140.659 117.95 141.128C117.513 141.597 117.294 142.216 117.294 142.984C117.294 143.763 117.513 144.387 117.95 144.856C118.388 145.325 119.022 145.56 119.854 145.56ZM130.038 142.344C130.113 141.363 130.491 140.595 131.174 140.04C131.857 139.485 132.742 139.208 133.83 139.208C134.555 139.208 135.179 139.341 135.702 139.608C136.235 139.864 136.635 140.216 136.902 140.664C137.179 141.112 137.318 141.619 137.318 142.184C137.318 142.845 137.126 143.416 136.742 143.896C136.369 144.376 135.878 144.685 135.27 144.824V144.904C135.963 145.075 136.513 145.411 136.918 145.912C137.323 146.413 137.526 147.069 137.526 147.88C137.526 148.488 137.387 149.037 137.11 149.528C136.833 150.008 136.417 150.387 135.862 150.664C135.307 150.941 134.641 151.08 133.862 151.08C132.731 151.08 131.803 150.787 131.078 150.2C130.353 149.603 129.947 148.76 129.862 147.672H131.27C131.345 148.312 131.606 148.835 132.054 149.24C132.502 149.645 133.099 149.848 133.846 149.848C134.593 149.848 135.158 149.656 135.542 149.272C135.937 148.877 136.134 148.371 136.134 147.752C136.134 146.952 135.867 146.376 135.334 146.024C134.801 145.672 133.995 145.496 132.918 145.496H132.55V144.28H132.934C133.915 144.269 134.657 144.109 135.158 143.8C135.659 143.48 135.91 142.989 135.91 142.328C135.91 141.763 135.723 141.309 135.35 140.968C134.987 140.627 134.465 140.456 133.782 140.456C133.121 140.456 132.587 140.627 132.182 140.968C131.777 141.309 131.537 141.768 131.462 142.344H130.038ZM146.868 140.696H141.252V144.344C141.497 144.003 141.86 143.725 142.34 143.512C142.82 143.288 143.337 143.176 143.892 143.176C144.777 143.176 145.497 143.363 146.052 143.736C146.607 144.099 147.001 144.573 147.236 145.16C147.481 145.736 147.604 146.349 147.604 147C147.604 147.768 147.46 148.456 147.172 149.064C146.884 149.672 146.441 150.152 145.844 150.504C145.257 150.856 144.527 151.032 143.652 151.032C142.532 151.032 141.625 150.744 140.932 150.168C140.239 149.592 139.817 148.824 139.668 147.864H141.092C141.231 148.472 141.524 148.947 141.972 149.288C142.42 149.629 142.985 149.8 143.668 149.8C144.511 149.8 145.145 149.549 145.572 149.048C145.999 148.536 146.212 147.864 146.212 147.032C146.212 146.2 145.999 145.56 145.572 145.112C145.145 144.653 144.516 144.424 143.684 144.424C143.119 144.424 142.623 144.563 142.196 144.84C141.78 145.107 141.476 145.475 141.284 145.944H139.908V139.416H146.868V140.696ZM149.363 149.832C150.718 148.744 151.779 147.853 152.547 147.16C153.315 146.456 153.96 145.725 154.483 144.968C155.016 144.2 155.283 143.448 155.283 142.712C155.283 142.019 155.112 141.475 154.771 141.08C154.44 140.675 153.902 140.472 153.155 140.472C152.43 140.472 151.864 140.701 151.459 141.16C151.064 141.608 150.851 142.211 150.819 142.968H149.411C149.454 141.773 149.816 140.851 150.499 140.2C151.182 139.549 152.062 139.224 153.139 139.224C154.238 139.224 155.107 139.528 155.747 140.136C156.398 140.744 156.723 141.581 156.723 142.648C156.723 143.533 156.456 144.397 155.923 145.24C155.4 146.072 154.803 146.808 154.131 147.448C153.459 148.077 152.6 148.813 151.555 149.656H157.059V150.872H149.363V149.832ZM158.358 140.76V139.432H161.366V151H159.894V140.76H158.358ZM20.6098 168.808C20.3324 168.808 20.0978 168.712 19.9058 168.52C19.7244 168.328 19.6338 168.093 19.6338 167.816C19.6338 167.539 19.7244 167.304 19.9058 167.112C20.0978 166.92 20.3324 166.824 20.6098 166.824C20.8871 166.824 21.1164 166.92 21.2978 167.112C21.4898 167.304 21.5858 167.539 21.5858 167.816C21.5858 168.093 21.4898 168.328 21.2978 168.52C21.1164 168.712 20.8871 168.808 20.6098 168.808ZM21.3298 180.904C21.3298 181.683 21.1324 182.253 20.7378 182.616C20.3431 182.979 19.7671 183.16 19.0098 183.16H18.1617V181.928H18.7698C19.1751 181.928 19.4578 181.848 19.6178 181.688C19.7884 181.528 19.8738 181.256 19.8738 180.872V170.232H21.3298V180.904ZM27.6185 179.144C26.7972 179.144 26.0505 178.957 25.3785 178.584C24.7172 178.211 24.1945 177.683 23.8105 177C23.4372 176.307 23.2505 175.507 23.2505 174.6C23.2505 173.704 23.4425 172.915 23.8265 172.232C24.2212 171.539 24.7545 171.011 25.4265 170.648C26.0985 170.275 26.8505 170.088 27.6825 170.088C28.5145 170.088 29.2665 170.275 29.9385 170.648C30.6105 171.011 31.1385 171.533 31.5225 172.216C31.9172 172.899 32.1145 173.693 32.1145 174.6C32.1145 175.507 31.9118 176.307 31.5065 177C31.1118 177.683 30.5732 178.211 29.8905 178.584C29.2078 178.957 28.4505 179.144 27.6185 179.144ZM27.6185 177.864C28.1412 177.864 28.6318 177.741 29.0905 177.496C29.5492 177.251 29.9172 176.883 30.1945 176.392C30.4825 175.901 30.6265 175.304 30.6265 174.6C30.6265 173.896 30.4878 173.299 30.2105 172.808C29.9332 172.317 29.5705 171.955 29.1225 171.72C28.6745 171.475 28.1892 171.352 27.6665 171.352C27.1332 171.352 26.6425 171.475 26.1945 171.72C25.7572 171.955 25.4052 172.317 25.1385 172.808C24.8718 173.299 24.7385 173.896 24.7385 174.6C24.7385 175.315 24.8665 175.917 25.1225 176.408C25.3892 176.899 25.7412 177.267 26.1785 177.512C26.6158 177.747 27.0958 177.864 27.6185 177.864ZM38.3809 170.072C39.0422 170.072 39.6395 170.216 40.1729 170.504C40.7062 170.781 41.1222 171.203 41.4209 171.768C41.7302 172.333 41.8849 173.021 41.8849 173.832V179H40.4449V174.04C40.4449 173.165 40.2262 172.499 39.7889 172.04C39.3515 171.571 38.7542 171.336 37.9969 171.336C37.2289 171.336 36.6155 171.576 36.1569 172.056C35.7089 172.536 35.4849 173.235 35.4849 174.152V179H34.0289V167.16H35.4849V171.48C35.7729 171.032 36.1675 170.685 36.6689 170.44C37.1809 170.195 37.7515 170.072 38.3809 170.072ZM48.5353 170.072C49.6019 170.072 50.4659 170.397 51.1273 171.048C51.7886 171.688 52.1193 172.616 52.1193 173.832V179H50.6793V174.04C50.6793 173.165 50.4606 172.499 50.0233 172.04C49.5859 171.571 48.9886 171.336 48.2313 171.336C47.4633 171.336 46.8499 171.576 46.3913 172.056C45.9433 172.536 45.7193 173.235 45.7193 174.152V179H44.2633V170.232H45.7193V171.48C46.0073 171.032 46.3966 170.685 46.8873 170.44C47.3886 170.195 47.9379 170.072 48.5353 170.072ZM62.4976 168.744C63.6816 168.744 64.711 168.968 65.5856 169.416C66.4603 169.864 67.1323 170.493 67.6016 171.304C68.071 172.104 68.3056 173.032 68.3056 174.088C68.3056 174.931 68.167 175.741 67.8896 176.52C67.6123 177.288 67.207 177.912 66.6736 178.392C66.151 178.872 65.5376 179.112 64.8336 179.112C64.3003 179.112 63.8896 178.979 63.6016 178.712C63.3136 178.445 63.1483 178.083 63.1056 177.624C62.775 178.083 62.3536 178.445 61.8416 178.712C61.3403 178.979 60.807 179.112 60.2416 179.112C59.431 179.112 58.791 178.867 58.3216 178.376C57.863 177.875 57.6336 177.203 57.6336 176.36C57.6336 175.56 57.799 174.813 58.1296 174.12C58.471 173.427 58.9403 172.872 59.5376 172.456C60.135 172.029 60.8123 171.816 61.5696 171.816C62.583 171.816 63.2656 172.2 63.6176 172.968L63.7936 171.976H65.0576L64.2576 176.6C64.2256 176.803 64.2096 176.989 64.2096 177.16C64.2096 177.8 64.4923 178.12 65.0576 178.12C65.4843 178.12 65.8523 177.917 66.1616 177.512C66.4816 177.107 66.7216 176.6 66.8816 175.992C67.0416 175.373 67.1216 174.765 67.1216 174.168C67.1216 172.771 66.7003 171.688 65.8576 170.92C65.0256 170.152 63.847 169.768 62.3216 169.768C61.0523 169.768 59.9056 170.077 58.8816 170.696C57.8683 171.304 57.0736 172.141 56.4976 173.208C55.9216 174.275 55.6336 175.453 55.6336 176.744C55.623 178.152 56.0443 179.235 56.8976 179.992C57.751 180.76 58.935 181.144 60.4496 181.144C61.4523 181.144 62.3376 180.963 63.1056 180.6L63.2976 181.592C62.3483 181.987 61.303 182.184 60.1616 182.184C59.0203 182.184 58.0123 181.965 57.1376 181.528C56.2736 181.101 55.6016 180.483 55.1216 179.672C54.6523 178.872 54.4176 177.939 54.4176 176.872C54.4176 175.368 54.7643 173.997 55.4576 172.76C56.151 171.512 57.111 170.531 58.3376 169.816C59.575 169.101 60.9616 168.744 62.4976 168.744ZM60.6736 177.976C61.1536 177.976 61.5963 177.837 62.0016 177.56C62.407 177.272 62.727 176.888 62.9616 176.408C63.1963 175.917 63.3136 175.384 63.3136 174.808C63.3136 174.253 63.159 173.805 62.8496 173.464C62.551 173.112 62.1243 172.936 61.5696 172.936C61.0576 172.936 60.6043 173.091 60.2096 173.4C59.8256 173.699 59.527 174.099 59.3136 174.6C59.1003 175.091 58.9936 175.603 58.9936 176.136C58.9936 176.701 59.1376 177.149 59.4256 177.48C59.7136 177.811 60.1296 177.976 60.6736 177.976ZM72.1568 171.848C72.4448 171.347 72.8714 170.931 73.4368 170.6C74.0128 170.259 74.6794 170.088 75.4368 170.088C76.2154 170.088 76.9194 170.275 77.5487 170.648C78.1887 171.021 78.6901 171.549 79.0528 172.232C79.4154 172.904 79.5968 173.688 79.5968 174.584C79.5968 175.469 79.4154 176.259 79.0528 176.952C78.6901 177.645 78.1887 178.184 77.5487 178.568C76.9194 178.952 76.2154 179.144 75.4368 179.144C74.6901 179.144 74.0288 178.979 73.4528 178.648C72.8874 178.307 72.4554 177.885 72.1568 177.384V183.16H70.7008V170.232H72.1568V171.848ZM78.1088 174.584C78.1088 173.923 77.9754 173.347 77.7088 172.856C77.4421 172.365 77.0794 171.992 76.6208 171.736C76.1728 171.48 75.6768 171.352 75.1328 171.352C74.5994 171.352 74.1034 171.485 73.6448 171.752C73.1968 172.008 72.8341 172.387 72.5568 172.888C72.2901 173.379 72.1568 173.949 72.1568 174.6C72.1568 175.261 72.2901 175.843 72.5568 176.344C72.8341 176.835 73.1968 177.213 73.6448 177.48C74.1034 177.736 74.5994 177.864 75.1328 177.864C75.6768 177.864 76.1728 177.736 76.6208 177.48C77.0794 177.213 77.4421 176.835 77.7088 176.344C77.9754 175.843 78.1088 175.256 78.1088 174.584ZM84.6173 179.144C83.9453 179.144 83.3426 179.032 82.8093 178.808C82.2759 178.573 81.8546 178.253 81.5453 177.848C81.2359 177.432 81.0653 176.957 81.0333 176.424H82.5373C82.5799 176.861 82.7826 177.219 83.1453 177.496C83.5186 177.773 84.0039 177.912 84.6013 177.912C85.1559 177.912 85.5933 177.789 85.9133 177.544C86.2333 177.299 86.3933 176.989 86.3933 176.616C86.3933 176.232 86.2226 175.949 85.8813 175.768C85.5399 175.576 85.0119 175.389 84.2973 175.208C83.6466 175.037 83.1133 174.867 82.6973 174.696C82.2919 174.515 81.9399 174.253 81.6413 173.912C81.3533 173.56 81.2093 173.101 81.2093 172.536C81.2093 172.088 81.3426 171.677 81.6093 171.304C81.8759 170.931 82.2546 170.637 82.7453 170.424C83.2359 170.2 83.7959 170.088 84.4253 170.088C85.3959 170.088 86.1799 170.333 86.7773 170.824C87.3746 171.315 87.6946 171.987 87.7373 172.84H86.2813C86.2493 172.381 86.0626 172.013 85.7213 171.736C85.3906 171.459 84.9426 171.32 84.3773 171.32C83.8546 171.32 83.4386 171.432 83.1293 171.656C82.8199 171.88 82.6653 172.173 82.6653 172.536C82.6653 172.824 82.7559 173.064 82.9373 173.256C83.1293 173.437 83.3639 173.587 83.6413 173.704C83.9293 173.811 84.3239 173.933 84.8253 174.072C85.4546 174.243 85.9666 174.413 86.3613 174.584C86.7559 174.744 87.0919 174.989 87.3693 175.32C87.6573 175.651 87.8066 176.083 87.8173 176.616C87.8173 177.096 87.6839 177.528 87.4173 177.912C87.1506 178.296 86.7719 178.6 86.2813 178.824C85.8013 179.037 85.2466 179.144 84.6173 179.144ZM97.4246 170.232L92.1446 183.128H90.6406L92.3686 178.904L88.8326 170.232H90.4486L93.2006 177.336L95.9206 170.232H97.4246ZM98.3443 174.6C98.3443 173.693 98.5256 172.904 98.8883 172.232C99.2509 171.549 99.7523 171.021 100.392 170.648C101.043 170.275 101.784 170.088 102.616 170.088C103.694 170.088 104.579 170.349 105.272 170.872C105.976 171.395 106.44 172.12 106.664 173.048H105.096C104.947 172.515 104.654 172.093 104.216 171.784C103.79 171.475 103.256 171.32 102.616 171.32C101.784 171.32 101.112 171.608 100.6 172.184C100.088 172.749 99.8323 173.555 99.8323 174.6C99.8323 175.656 100.088 176.472 100.6 177.048C101.112 177.624 101.784 177.912 102.616 177.912C103.256 177.912 103.79 177.763 104.216 177.464C104.643 177.165 104.936 176.739 105.096 176.184H106.664C106.43 177.08 105.96 177.8 105.256 178.344C104.552 178.877 103.672 179.144 102.616 179.144C101.784 179.144 101.043 178.957 100.392 178.584C99.7523 178.211 99.2509 177.683 98.8883 177C98.5256 176.317 98.3443 175.517 98.3443 174.6ZM112.959 170.072C113.62 170.072 114.218 170.216 114.751 170.504C115.284 170.781 115.7 171.203 115.999 171.768C116.308 172.333 116.463 173.021 116.463 173.832V179H115.023V174.04C115.023 173.165 114.804 172.499 114.367 172.04C113.93 171.571 113.332 171.336 112.575 171.336C111.807 171.336 111.194 171.576 110.735 172.056C110.287 172.536 110.063 173.235 110.063 174.152V179H108.607V167.16H110.063V171.48C110.351 171.032 110.746 170.685 111.247 170.44C111.759 170.195 112.33 170.072 112.959 170.072ZM119.305 179.096C119.028 179.096 118.793 179 118.601 178.808C118.409 178.616 118.313 178.381 118.313 178.104C118.313 177.827 118.409 177.592 118.601 177.4C118.793 177.208 119.028 177.112 119.305 177.112C119.572 177.112 119.796 177.208 119.977 177.4C120.169 177.592 120.265 177.827 120.265 178.104C120.265 178.381 120.169 178.616 119.977 178.808C119.796 179 119.572 179.096 119.305 179.096ZM121.657 174.6C121.657 173.693 121.838 172.904 122.201 172.232C122.563 171.549 123.065 171.021 123.705 170.648C124.355 170.275 125.097 170.088 125.929 170.088C127.006 170.088 127.891 170.349 128.585 170.872C129.289 171.395 129.753 172.12 129.977 173.048H128.409C128.259 172.515 127.966 172.093 127.529 171.784C127.102 171.475 126.569 171.32 125.929 171.32C125.097 171.32 124.425 171.608 123.913 172.184C123.401 172.749 123.145 173.555 123.145 174.6C123.145 175.656 123.401 176.472 123.913 177.048C124.425 177.624 125.097 177.912 125.929 177.912C126.569 177.912 127.102 177.763 127.529 177.464C127.955 177.165 128.249 176.739 128.409 176.184H129.977C129.742 177.08 129.273 177.8 128.569 178.344C127.865 178.877 126.985 179.144 125.929 179.144C125.097 179.144 124.355 178.957 123.705 178.584C123.065 178.211 122.563 177.683 122.201 177C121.838 176.317 121.657 175.517 121.657 174.6ZM135.744 179.144C134.922 179.144 134.176 178.957 133.504 178.584C132.842 178.211 132.32 177.683 131.936 177C131.562 176.307 131.376 175.507 131.376 174.6C131.376 173.704 131.568 172.915 131.952 172.232C132.346 171.539 132.88 171.011 133.552 170.648C134.224 170.275 134.976 170.088 135.808 170.088C136.64 170.088 137.392 170.275 138.064 170.648C138.736 171.011 139.264 171.533 139.648 172.216C140.042 172.899 140.24 173.693 140.24 174.6C140.24 175.507 140.037 176.307 139.632 177C139.237 177.683 138.698 178.211 138.016 178.584C137.333 178.957 136.576 179.144 135.744 179.144ZM135.744 177.864C136.266 177.864 136.757 177.741 137.216 177.496C137.674 177.251 138.042 176.883 138.32 176.392C138.608 175.901 138.752 175.304 138.752 174.6C138.752 173.896 138.613 173.299 138.336 172.808C138.058 172.317 137.696 171.955 137.248 171.72C136.8 171.475 136.314 171.352 135.792 171.352C135.258 171.352 134.768 171.475 134.32 171.72C133.882 171.955 133.53 172.317 133.264 172.808C132.997 173.299 132.864 173.896 132.864 174.6C132.864 175.315 132.992 175.917 133.248 176.408C133.514 176.899 133.866 177.267 134.304 177.512C134.741 177.747 135.221 177.864 135.744 177.864ZM152.698 170.072C153.381 170.072 153.989 170.216 154.522 170.504C155.055 170.781 155.477 171.203 155.786 171.768C156.095 172.333 156.25 173.021 156.25 173.832V179H154.81V174.04C154.81 173.165 154.591 172.499 154.154 172.04C153.727 171.571 153.146 171.336 152.41 171.336C151.653 171.336 151.05 171.581 150.602 172.072C150.154 172.552 149.93 173.251 149.93 174.168V179H148.49V174.04C148.49 173.165 148.271 172.499 147.834 172.04C147.407 171.571 146.826 171.336 146.09 171.336C145.333 171.336 144.73 171.581 144.282 172.072C143.834 172.552 143.61 173.251 143.61 174.168V179H142.154V170.232H143.61V171.496C143.898 171.037 144.282 170.685 144.762 170.44C145.253 170.195 145.791 170.072 146.378 170.072C147.114 170.072 147.765 170.237 148.33 170.568C148.895 170.899 149.317 171.384 149.594 172.024C149.839 171.405 150.245 170.925 150.81 170.584C151.375 170.243 152.005 170.072 152.698 170.072Z" fill="black"/>
<path d="M45.4314 210.71V221.732C45.4314 223.096 45.0134 224.174 44.1774 224.966C43.356 225.758 42.2707 226.154 40.9214 226.154C39.572 226.154 38.4794 225.758 37.6434 224.966C36.822 224.174 36.4114 223.096 36.4114 221.732H38.9414C38.956 222.407 39.1247 222.942 39.4474 223.338C39.7847 223.734 40.276 223.932 40.9214 223.932C41.5667 223.932 42.058 223.734 42.3954 223.338C42.7327 222.927 42.9014 222.392 42.9014 221.732V210.71H45.4314ZM48.6753 219.884C48.6753 218.667 48.9247 217.589 49.4233 216.65C49.9367 215.711 50.626 214.985 51.4913 214.472C52.3713 213.944 53.3393 213.68 54.3953 213.68C55.3487 213.68 56.1773 213.871 56.8813 214.252C57.6 214.619 58.172 215.081 58.5973 215.638V213.878H61.1273V226H58.5973V224.196C58.172 224.768 57.5927 225.245 56.8593 225.626C56.126 226.007 55.29 226.198 54.3513 226.198C53.31 226.198 52.3567 225.934 51.4913 225.406C50.626 224.863 49.9367 224.115 49.4233 223.162C48.9247 222.194 48.6753 221.101 48.6753 219.884ZM58.5973 219.928C58.5973 219.092 58.4213 218.366 58.0693 217.75C57.732 217.134 57.2847 216.665 56.7273 216.342C56.17 216.019 55.5687 215.858 54.9233 215.858C54.278 215.858 53.6767 216.019 53.1193 216.342C52.562 216.65 52.1073 217.112 51.7553 217.728C51.418 218.329 51.2493 219.048 51.2493 219.884C51.2493 220.72 51.418 221.453 51.7553 222.084C52.1073 222.715 52.562 223.199 53.1193 223.536C53.6913 223.859 54.2927 224.02 54.9233 224.02C55.5687 224.02 56.17 223.859 56.7273 223.536C57.2847 223.213 57.732 222.744 58.0693 222.128C58.4213 221.497 58.5973 220.764 58.5973 219.928ZM70.5375 213.68C71.4908 213.68 72.3415 213.878 73.0895 214.274C73.8522 214.67 74.4462 215.257 74.8715 216.034C75.2968 216.811 75.5095 217.75 75.5095 218.85V226H73.0235V219.224C73.0235 218.139 72.7522 217.31 72.2095 216.738C71.6668 216.151 70.9262 215.858 69.9875 215.858C69.0488 215.858 68.3008 216.151 67.7435 216.738C67.2008 217.31 66.9295 218.139 66.9295 219.224V226H64.4215V213.878H66.9295V215.264C67.3402 214.765 67.8608 214.377 68.4915 214.098C69.1368 213.819 69.8188 213.68 70.5375 213.68ZM89.8186 219.642C89.8186 220.097 89.7893 220.507 89.7306 220.874H80.4686C80.5419 221.842 80.9013 222.619 81.5466 223.206C82.1919 223.793 82.9839 224.086 83.9226 224.086C85.2719 224.086 86.2253 223.521 86.7826 222.392H89.4886C89.1219 223.507 88.4546 224.423 87.4866 225.142C86.5333 225.846 85.3453 226.198 83.9226 226.198C82.7639 226.198 81.7226 225.941 80.7986 225.428C79.8893 224.9 79.1706 224.167 78.6426 223.228C78.1293 222.275 77.8726 221.175 77.8726 219.928C77.8726 218.681 78.1219 217.589 78.6206 216.65C79.1339 215.697 79.8453 214.963 80.7546 214.45C81.6786 213.937 82.7346 213.68 83.9226 213.68C85.0666 213.68 86.0859 213.929 86.9806 214.428C87.8753 214.927 88.5719 215.631 89.0706 216.54C89.5693 217.435 89.8186 218.469 89.8186 219.642ZM87.2006 218.85C87.1859 217.926 86.8559 217.185 86.2106 216.628C85.5653 216.071 84.7659 215.792 83.8126 215.792C82.9473 215.792 82.2066 216.071 81.5906 216.628C80.9746 217.171 80.6079 217.911 80.4906 218.85H87.2006ZM102.996 210.71C104.624 210.71 106.046 211.025 107.264 211.656C108.496 212.272 109.442 213.167 110.102 214.34C110.776 215.499 111.114 216.855 111.114 218.41C111.114 219.965 110.776 221.314 110.102 222.458C109.442 223.602 108.496 224.482 107.264 225.098C106.046 225.699 104.624 226 102.996 226H98.0016V210.71H102.996ZM102.996 223.954C104.785 223.954 106.156 223.47 107.11 222.502C108.063 221.534 108.54 220.17 108.54 218.41C108.54 216.635 108.063 215.249 107.11 214.252C106.156 213.255 104.785 212.756 102.996 212.756H100.51V223.954H102.996ZM118.857 226.198C117.713 226.198 116.679 225.941 115.755 225.428C114.831 224.9 114.105 224.167 113.577 223.228C113.049 222.275 112.785 221.175 112.785 219.928C112.785 218.696 113.057 217.603 113.599 216.65C114.142 215.697 114.883 214.963 115.821 214.45C116.76 213.937 117.809 213.68 118.967 213.68C120.126 213.68 121.175 213.937 122.113 214.45C123.052 214.963 123.793 215.697 124.335 216.65C124.878 217.603 125.149 218.696 125.149 219.928C125.149 221.16 124.871 222.253 124.313 223.206C123.756 224.159 122.993 224.9 122.025 225.428C121.072 225.941 120.016 226.198 118.857 226.198ZM118.857 224.02C119.503 224.02 120.104 223.866 120.661 223.558C121.233 223.25 121.695 222.788 122.047 222.172C122.399 221.556 122.575 220.808 122.575 219.928C122.575 219.048 122.407 218.307 122.069 217.706C121.732 217.09 121.285 216.628 120.727 216.32C120.17 216.012 119.569 215.858 118.923 215.858C118.278 215.858 117.677 216.012 117.119 216.32C116.577 216.628 116.144 217.09 115.821 217.706C115.499 218.307 115.337 219.048 115.337 219.928C115.337 221.233 115.667 222.245 116.327 222.964C117.002 223.668 117.845 224.02 118.857 224.02ZM138.739 219.642C138.739 220.097 138.709 220.507 138.651 220.874H129.389C129.462 221.842 129.821 222.619 130.467 223.206C131.112 223.793 131.904 224.086 132.843 224.086C134.192 224.086 135.145 223.521 135.703 222.392H138.409C138.042 223.507 137.375 224.423 136.407 225.142C135.453 225.846 134.265 226.198 132.843 226.198C131.684 226.198 130.643 225.941 129.719 225.428C128.809 224.9 128.091 224.167 127.563 223.228C127.049 222.275 126.793 221.175 126.793 219.928C126.793 218.681 127.042 217.589 127.541 216.65C128.054 215.697 128.765 214.963 129.675 214.45C130.599 213.937 131.655 213.68 132.843 213.68C133.987 213.68 135.006 213.929 135.901 214.428C136.795 214.927 137.492 215.631 137.991 216.54C138.489 217.435 138.739 218.469 138.739 219.642ZM136.121 218.85C136.106 217.926 135.776 217.185 135.131 216.628C134.485 216.071 133.686 215.792 132.733 215.792C131.867 215.792 131.127 216.071 130.511 216.628C129.895 217.171 129.528 217.911 129.411 218.85H136.121ZM30.4828 246.112C30.3228 247.04 29.8694 247.813 29.1228 248.432C28.3761 249.04 27.3574 249.344 26.0668 249.344H23.9228L23.0908 254H21.6348L23.6188 242.848H27.2188C28.3281 242.848 29.1601 243.088 29.7148 243.568C30.2694 244.037 30.5468 244.667 30.5468 245.456C30.5468 245.595 30.5254 245.813 30.4828 246.112ZM26.2748 248.192C27.0748 248.192 27.6988 248.011 28.1468 247.648C28.5948 247.275 28.8774 246.763 28.9948 246.112C29.0268 245.92 29.0428 245.744 29.0428 245.584C29.0428 244.528 28.3654 244 27.0108 244H24.8668L24.1308 248.192H26.2748ZM36.2604 245.088C36.9964 245.088 37.631 245.232 38.1644 245.52C38.7084 245.797 39.119 246.192 39.3964 246.704C39.6844 247.205 39.8284 247.781 39.8284 248.432C39.8284 248.656 39.8017 248.928 39.7484 249.248C39.7057 249.525 39.6364 249.813 39.5404 250.112H32.5324C32.511 250.325 32.5004 250.48 32.5004 250.576C32.5004 251.312 32.719 251.888 33.1564 252.304C33.6044 252.709 34.1857 252.912 34.9004 252.912C35.5297 252.912 36.079 252.768 36.5484 252.48C37.0284 252.181 37.391 251.787 37.6364 251.296H39.2044C38.8204 252.139 38.2284 252.827 37.4284 253.36C36.639 253.883 35.7217 254.144 34.6764 254.144C33.5777 254.144 32.6924 253.829 32.0204 253.2C31.359 252.56 31.0284 251.691 31.0284 250.592C31.0284 250.283 31.0604 249.952 31.1244 249.6C31.2844 248.693 31.6097 247.899 32.1004 247.216C32.591 246.533 33.1937 246.011 33.9084 245.648C34.6337 245.275 35.4177 245.088 36.2604 245.088ZM38.2764 249.056C38.3084 248.843 38.3244 248.645 38.3244 248.464C38.3244 247.781 38.1057 247.253 37.6684 246.88C37.2417 246.507 36.6817 246.32 35.9884 246.32C35.2417 246.32 34.5644 246.565 33.9564 247.056C33.3484 247.536 32.9377 248.203 32.7244 249.056H38.2764ZM43.5423 246.896C43.8943 246.32 44.3369 245.872 44.8703 245.552C45.4036 245.232 46.0116 245.072 46.6943 245.072L46.4223 246.576H46.0383C45.2809 246.576 44.6463 246.779 44.1343 247.184C43.6329 247.589 43.2969 248.272 43.1263 249.232L42.2783 254H40.8223L42.3743 245.232H43.8303L43.5423 246.896ZM49.879 254.144C48.9617 254.144 48.2097 253.925 47.623 253.488C47.0363 253.051 46.743 252.464 46.743 251.728C46.743 251.589 46.7483 251.488 46.759 251.424H48.183C48.1403 251.883 48.2737 252.256 48.583 252.544C48.903 252.832 49.3617 252.976 49.959 252.976C50.5563 252.976 51.0363 252.864 51.399 252.64C51.7723 252.405 51.959 252.08 51.959 251.664C51.959 251.312 51.8097 251.035 51.511 250.832C51.2123 250.629 50.7537 250.411 50.135 250.176C49.591 249.973 49.143 249.781 48.791 249.6C48.439 249.419 48.1403 249.168 47.895 248.848C47.6497 248.517 47.527 248.101 47.527 247.6C47.527 247.109 47.6657 246.672 47.943 246.288C48.231 245.904 48.6257 245.611 49.127 245.408C49.639 245.195 50.2203 245.088 50.871 245.088C51.767 245.088 52.503 245.312 53.079 245.76C53.655 246.208 53.943 246.795 53.943 247.52C53.943 247.659 53.9377 247.765 53.927 247.84H52.535L52.551 247.648C52.551 247.221 52.3857 246.885 52.055 246.64C51.735 246.384 51.3083 246.256 50.775 246.256C50.2523 246.256 49.8203 246.373 49.479 246.608C49.1483 246.843 48.983 247.157 48.983 247.552C48.983 247.925 49.1377 248.219 49.447 248.432C49.7563 248.645 50.2363 248.88 50.887 249.136C51.431 249.349 51.8683 249.547 52.199 249.728C52.5297 249.899 52.8123 250.139 53.047 250.448C53.2817 250.757 53.399 251.147 53.399 251.616C53.399 252.128 53.2443 252.576 52.935 252.96C52.6363 253.344 52.2203 253.637 51.687 253.84C51.1537 254.043 50.551 254.144 49.879 254.144ZM59.0064 254.144C58.2704 254.144 57.6197 253.995 57.0544 253.696C56.4997 253.387 56.0677 252.96 55.7584 252.416C55.449 251.861 55.2944 251.221 55.2944 250.496C55.2944 249.504 55.5237 248.597 55.9824 247.776C56.441 246.944 57.0704 246.288 57.8704 245.808C58.681 245.328 59.5824 245.088 60.5744 245.088C61.3104 245.088 61.961 245.243 62.5264 245.552C63.1024 245.851 63.545 246.277 63.8544 246.832C64.1744 247.376 64.3344 248.016 64.3344 248.752C64.3344 249.744 64.0997 250.651 63.6304 251.472C63.161 252.293 62.521 252.944 61.7104 253.424C60.8997 253.904 59.9984 254.144 59.0064 254.144ZM59.1824 252.912C59.8757 252.912 60.4997 252.725 61.0544 252.352C61.609 251.968 62.041 251.467 62.3504 250.848C62.6704 250.219 62.8304 249.547 62.8304 248.832C62.8304 248.021 62.5957 247.403 62.1264 246.976C61.657 246.539 61.0704 246.32 60.3664 246.32C59.673 246.32 59.0544 246.512 58.5104 246.896C57.9664 247.269 57.545 247.771 57.2464 248.4C56.9477 249.029 56.7984 249.707 56.7984 250.432C56.7984 251.221 57.0224 251.835 57.4704 252.272C57.9184 252.699 58.489 252.912 59.1824 252.912ZM71.2408 245.072C72.1474 245.072 72.8728 245.317 73.4167 245.808C73.9608 246.288 74.2328 246.992 74.2328 247.92C74.2328 248.261 74.2061 248.565 74.1528 248.832L73.2408 254H71.8008L72.6808 249.04C72.7234 248.816 72.7448 248.581 72.7448 248.336C72.7448 247.685 72.5634 247.189 72.2008 246.848C71.8488 246.507 71.3528 246.336 70.7128 246.336C69.9448 246.336 69.2888 246.576 68.7448 247.056C68.2114 247.536 67.8648 248.235 67.7048 249.152V249.12L66.8408 254H65.3848L66.9368 245.232H68.3928L68.1688 246.496C68.5314 246.037 68.9848 245.685 69.5288 245.44C70.0728 245.195 70.6434 245.072 71.2408 245.072ZM75.8431 249.584C76.0031 248.688 76.3231 247.904 76.8031 247.232C77.2938 246.549 77.8858 246.021 78.5791 245.648C79.2831 245.275 80.0298 245.088 80.8191 245.088C81.5871 245.088 82.2218 245.253 82.7231 245.584C83.2245 245.915 83.5711 246.331 83.7631 246.832L84.0511 245.232H85.5231L83.9711 254H82.4991L82.8031 252.368C82.4191 252.88 81.9125 253.307 81.2831 253.648C80.6538 253.979 79.9605 254.144 79.2031 254.144C78.5205 254.144 77.9178 254 77.3951 253.712C76.8725 253.413 76.4671 252.992 76.1791 252.448C75.8911 251.904 75.7471 251.275 75.7471 250.56C75.7471 250.24 75.7791 249.915 75.8431 249.584ZM83.2831 249.6C83.3258 249.376 83.3471 249.136 83.3471 248.88C83.3471 248.101 83.1125 247.488 82.6431 247.04C82.1845 246.581 81.5978 246.352 80.8831 246.352C80.3391 246.352 79.8165 246.48 79.3151 246.736C78.8245 246.992 78.4031 247.365 78.0511 247.856C77.6991 248.347 77.4645 248.923 77.3471 249.584C77.3045 249.808 77.2831 250.053 77.2831 250.32C77.2831 251.109 77.5125 251.733 77.9711 252.192C78.4298 252.64 79.0165 252.864 79.7311 252.864C80.2751 252.864 80.7925 252.736 81.2831 252.48C81.7845 252.213 82.2111 251.835 82.5631 251.344C82.9258 250.843 83.1658 250.261 83.2831 249.6ZM89.9836 242.16L87.8876 254H86.4316L88.5276 242.16H89.9836ZM102.175 251.52H97.2948L95.9668 254H94.4307L100.415 242.912H102.095L104.159 254H102.623L102.175 251.52ZM101.967 250.384L100.943 244.688L97.9028 250.384H101.967ZM106.14 249.584C106.3 248.688 106.62 247.904 107.1 247.232C107.591 246.549 108.188 246.021 108.892 245.648C109.596 245.275 110.343 245.088 111.132 245.088C111.804 245.088 112.407 245.248 112.94 245.568C113.473 245.877 113.852 246.288 114.076 246.8L114.892 242.16H116.364L114.268 254H112.796L113.1 252.352C112.727 252.875 112.225 253.307 111.596 253.648C110.967 253.979 110.273 254.144 109.516 254.144C108.833 254.144 108.231 254 107.708 253.712C107.185 253.413 106.775 252.992 106.476 252.448C106.188 251.904 106.044 251.275 106.044 250.56C106.044 250.24 106.076 249.915 106.14 249.584ZM113.58 249.6C113.623 249.376 113.644 249.136 113.644 248.88C113.644 248.101 113.409 247.488 112.94 247.04C112.481 246.581 111.895 246.352 111.18 246.352C110.636 246.352 110.113 246.48 109.612 246.736C109.121 246.992 108.7 247.365 108.348 247.856C107.996 248.347 107.761 248.923 107.644 249.584C107.601 249.808 107.58 250.053 107.58 250.32C107.58 251.109 107.809 251.733 108.268 252.192C108.727 252.64 109.313 252.864 110.028 252.864C110.572 252.864 111.089 252.736 111.58 252.48C112.081 252.213 112.508 251.835 112.86 251.344C113.223 250.843 113.463 250.261 113.58 249.6ZM120.233 252.624L124.265 245.232H125.833L120.841 254H119.129L117.241 245.232H118.809L120.233 252.624ZM128.241 243.808C128.007 243.808 127.809 243.733 127.649 243.584C127.5 243.424 127.425 243.227 127.425 242.992C127.425 242.672 127.543 242.4 127.777 242.176C128.012 241.941 128.284 241.824 128.593 241.824C128.839 241.824 129.036 241.899 129.185 242.048C129.335 242.197 129.409 242.395 129.409 242.64C129.409 242.96 129.292 243.237 129.057 243.472C128.823 243.696 128.551 243.808 128.241 243.808ZM128.705 245.232L127.153 254H125.697L127.249 245.232H128.705ZM132.723 254.144C131.805 254.144 131.053 253.925 130.467 253.488C129.88 253.051 129.587 252.464 129.587 251.728C129.587 251.589 129.592 251.488 129.603 251.424H131.027C130.984 251.883 131.117 252.256 131.427 252.544C131.747 252.832 132.205 252.976 132.803 252.976C133.4 252.976 133.88 252.864 134.243 252.64C134.616 252.405 134.803 252.08 134.803 251.664C134.803 251.312 134.653 251.035 134.355 250.832C134.056 250.629 133.597 250.411 132.979 250.176C132.435 249.973 131.987 249.781 131.635 249.6C131.283 249.419 130.984 249.168 130.739 248.848C130.493 248.517 130.371 248.101 130.371 247.6C130.371 247.109 130.509 246.672 130.787 246.288C131.075 245.904 131.469 245.611 131.971 245.408C132.483 245.195 133.064 245.088 133.715 245.088C134.611 245.088 135.347 245.312 135.923 245.76C136.499 246.208 136.787 246.795 136.787 247.52C136.787 247.659 136.781 247.765 136.771 247.84H135.379L135.395 247.648C135.395 247.221 135.229 246.885 134.899 246.64C134.579 246.384 134.152 246.256 133.619 246.256C133.096 246.256 132.664 246.373 132.323 246.608C131.992 246.843 131.827 247.157 131.827 247.552C131.827 247.925 131.981 248.219 132.291 248.432C132.6 248.645 133.08 248.88 133.731 249.136C134.275 249.349 134.712 249.547 135.043 249.728C135.373 249.899 135.656 250.139 135.891 250.448C136.125 250.757 136.243 251.147 136.243 251.616C136.243 252.128 136.088 252.576 135.779 252.96C135.48 253.344 135.064 253.637 134.531 253.84C133.997 254.043 133.395 254.144 132.723 254.144ZM141.85 254.144C141.114 254.144 140.463 253.995 139.898 253.696C139.343 253.387 138.911 252.96 138.602 252.416C138.293 251.861 138.138 251.221 138.138 250.496C138.138 249.504 138.367 248.597 138.826 247.776C139.285 246.944 139.914 246.288 140.714 245.808C141.525 245.328 142.426 245.088 143.418 245.088C144.154 245.088 144.805 245.243 145.37 245.552C145.946 245.851 146.389 246.277 146.698 246.832C147.018 247.376 147.178 248.016 147.178 248.752C147.178 249.744 146.943 250.651 146.474 251.472C146.005 252.293 145.365 252.944 144.554 253.424C143.743 253.904 142.842 254.144 141.85 254.144ZM142.026 252.912C142.719 252.912 143.343 252.725 143.898 252.352C144.453 251.968 144.885 251.467 145.194 250.848C145.514 250.219 145.674 249.547 145.674 248.832C145.674 248.021 145.439 247.403 144.97 246.976C144.501 246.539 143.914 246.32 143.21 246.32C142.517 246.32 141.898 246.512 141.354 246.896C140.81 247.269 140.389 247.771 140.09 248.4C139.791 249.029 139.642 249.707 139.642 250.432C139.642 251.221 139.866 251.835 140.314 252.272C140.762 252.699 141.333 252.912 142.026 252.912ZM150.949 246.896C151.301 246.32 151.743 245.872 152.277 245.552C152.81 245.232 153.418 245.072 154.101 245.072L153.829 246.576H153.445C152.687 246.576 152.053 246.779 151.541 247.184C151.039 247.589 150.703 248.272 150.533 249.232L149.685 254H148.229L149.781 245.232H151.237L150.949 246.896ZM15.7182 284.976C14.6942 283.973 13.8942 282.699 13.3182 281.152C12.7529 279.605 12.4702 277.936 12.4702 276.144C12.4702 274.309 12.7689 272.597 13.3662 271.008C13.9742 269.408 14.8382 268.091 15.9582 267.056H17.4782V267.2C16.2835 268.32 15.3822 269.669 14.7742 271.248C14.1769 272.816 13.8782 274.448 13.8782 276.144C13.8782 277.797 14.1609 279.376 14.7262 280.88C15.3022 282.384 16.1395 283.701 17.2382 284.832V284.976H15.7182ZM18.9678 273.344C19.0425 272.363 19.4211 271.595 20.1038 271.04C20.7865 270.485 21.6718 270.208 22.7598 270.208C23.4851 270.208 24.1091 270.341 24.6318 270.608C25.1651 270.864 25.5651 271.216 25.8318 271.664C26.1091 272.112 26.2478 272.619 26.2478 273.184C26.2478 273.845 26.0558 274.416 25.6718 274.896C25.2985 275.376 24.8078 275.685 24.1998 275.824V275.904C24.8931 276.075 25.4425 276.411 25.8478 276.912C26.2531 277.413 26.4558 278.069 26.4558 278.88C26.4558 279.488 26.3171 280.037 26.0398 280.528C25.7625 281.008 25.3465 281.387 24.7918 281.664C24.2371 281.941 23.5705 282.08 22.7918 282.08C21.6611 282.08 20.7331 281.787 20.0078 281.2C19.2825 280.603 18.8771 279.76 18.7918 278.672H20.1998C20.2745 279.312 20.5358 279.835 20.9838 280.24C21.4318 280.645 22.0291 280.848 22.7758 280.848C23.5225 280.848 24.0878 280.656 24.4718 280.272C24.8665 279.877 25.0638 279.371 25.0638 278.752C25.0638 277.952 24.7971 277.376 24.2638 277.024C23.7305 276.672 22.9251 276.496 21.8478 276.496H21.4798V275.28H21.8638C22.8451 275.269 23.5865 275.109 24.0878 274.8C24.5891 274.48 24.8398 273.989 24.8398 273.328C24.8398 272.763 24.6531 272.309 24.2798 271.968C23.9171 271.627 23.3945 271.456 22.7118 271.456C22.0505 271.456 21.5171 271.627 21.1118 271.968C20.7065 272.309 20.4665 272.768 20.3918 273.344H18.9678ZM28.4217 276.096C28.4217 274.261 28.7204 272.832 29.3177 271.808C29.915 270.773 30.9604 270.256 32.4537 270.256C33.9364 270.256 34.9764 270.773 35.5737 271.808C36.171 272.832 36.4697 274.261 36.4697 276.096C36.4697 277.963 36.171 279.413 35.5737 280.448C34.9764 281.483 33.9364 282 32.4537 282C30.9604 282 29.915 281.483 29.3177 280.448C28.7204 279.413 28.4217 277.963 28.4217 276.096ZM35.0297 276.096C35.0297 275.168 34.9657 274.384 34.8377 273.744C34.7204 273.093 34.4697 272.571 34.0857 272.176C33.7124 271.781 33.1684 271.584 32.4537 271.584C31.7284 271.584 31.1737 271.781 30.7897 272.176C30.4164 272.571 30.1657 273.093 30.0377 273.744C29.9204 274.384 29.8617 275.168 29.8617 276.096C29.8617 277.056 29.9204 277.861 30.0377 278.512C30.1657 279.163 30.4164 279.685 30.7897 280.08C31.1737 280.475 31.7284 280.672 32.4537 280.672C33.1684 280.672 33.7124 280.475 34.0857 280.08C34.4697 279.685 34.7204 279.163 34.8377 278.512C34.9657 277.861 35.0297 277.056 35.0297 276.096ZM45.8446 271.696H40.2286V275.344C40.4739 275.003 40.8366 274.725 41.3166 274.512C41.7966 274.288 42.3139 274.176 42.8686 274.176C43.7539 274.176 44.4739 274.363 45.0286 274.736C45.5832 275.099 45.9779 275.573 46.2126 276.16C46.4579 276.736 46.5806 277.349 46.5806 278C46.5806 278.768 46.4366 279.456 46.1486 280.064C45.8606 280.672 45.4179 281.152 44.8206 281.504C44.2339 281.856 43.5032 282.032 42.6286 282.032C41.5086 282.032 40.6019 281.744 39.9086 281.168C39.2152 280.592 38.7939 279.824 38.6446 278.864H40.0686C40.2072 279.472 40.5006 279.947 40.9486 280.288C41.3966 280.629 41.9619 280.8 42.6446 280.8C43.4872 280.8 44.1219 280.549 44.5486 280.048C44.9752 279.536 45.1886 278.864 45.1886 278.032C45.1886 277.2 44.9752 276.56 44.5486 276.112C44.1219 275.653 43.4926 275.424 42.6606 275.424C42.0952 275.424 41.5992 275.563 41.1726 275.84C40.7566 276.107 40.4526 276.475 40.2606 276.944H38.8846V270.416H45.8446V271.696ZM48.2914 284.976V284.832C49.3901 283.701 50.2221 282.384 50.7874 280.88C51.3634 279.376 51.6514 277.797 51.6514 276.144C51.6514 274.448 51.3474 272.816 50.7394 271.248C50.1421 269.669 49.2461 268.32 48.0514 267.2V267.056H49.5714C50.6914 268.091 51.5501 269.408 52.1474 271.008C52.7554 272.597 53.0594 274.309 53.0594 276.144C53.0594 277.936 52.7714 279.605 52.1954 281.152C51.6301 282.699 50.8354 283.973 49.8114 284.976H48.2914ZM67.4227 271.696H61.8067V275.344C62.052 275.003 62.4147 274.725 62.8947 274.512C63.3747 274.288 63.892 274.176 64.4467 274.176C65.332 274.176 66.052 274.363 66.6067 274.736C67.1614 275.099 67.556 275.573 67.7907 276.16C68.036 276.736 68.1587 277.349 68.1587 278C68.1587 278.768 68.0147 279.456 67.7267 280.064C67.4387 280.672 66.996 281.152 66.3987 281.504C65.812 281.856 65.0814 282.032 64.2067 282.032C63.0867 282.032 62.18 281.744 61.4867 281.168C60.7934 280.592 60.372 279.824 60.2227 278.864H61.6467C61.7854 279.472 62.0787 279.947 62.5267 280.288C62.9747 280.629 63.54 280.8 64.2227 280.8C65.0654 280.8 65.7 280.549 66.1267 280.048C66.5534 279.536 66.7667 278.864 66.7667 278.032C66.7667 277.2 66.5534 276.56 66.1267 276.112C65.7 275.653 65.0707 275.424 64.2387 275.424C63.6734 275.424 63.1774 275.563 62.7507 275.84C62.3347 276.107 62.0307 276.475 61.8387 276.944H60.4627V270.416H67.4227V271.696ZM72.2056 275.984C71.6082 275.749 71.1496 275.408 70.8296 274.96C70.5096 274.512 70.3496 273.968 70.3496 273.328C70.3496 272.752 70.4936 272.235 70.7816 271.776C71.0696 271.307 71.4962 270.939 72.0616 270.672C72.6376 270.395 73.3309 270.256 74.1416 270.256C74.9522 270.256 75.6402 270.395 76.2056 270.672C76.7816 270.939 77.2136 271.307 77.5016 271.776C77.8002 272.235 77.9496 272.752 77.9496 273.328C77.9496 273.947 77.7842 274.491 77.4536 274.96C77.1229 275.419 76.6696 275.76 76.0936 275.984C76.7549 276.187 77.2776 276.544 77.6616 277.056C78.0562 277.557 78.2536 278.165 78.2536 278.88C78.2536 279.573 78.0829 280.181 77.7416 280.704C77.4002 281.216 76.9149 281.616 76.2856 281.904C75.6669 282.181 74.9522 282.32 74.1416 282.32C73.3309 282.32 72.6162 282.181 71.9976 281.904C71.3896 281.616 70.9149 281.216 70.5736 280.704C70.2322 280.181 70.0616 279.573 70.0616 278.88C70.0616 278.165 70.2536 277.552 70.6376 277.04C71.0216 276.528 71.5442 276.176 72.2056 275.984ZM76.5416 273.504C76.5416 272.853 76.3282 272.352 75.9016 272C75.4749 271.648 74.8882 271.472 74.1416 271.472C73.4056 271.472 72.8242 271.648 72.3976 272C71.9709 272.352 71.7576 272.859 71.7576 273.52C71.7576 274.117 71.9762 274.597 72.4136 274.96C72.8616 275.323 73.4376 275.504 74.1416 275.504C74.8562 275.504 75.4322 275.323 75.8696 274.96C76.3176 274.587 76.5416 274.101 76.5416 273.504ZM74.1416 276.624C73.3522 276.624 72.7069 276.811 72.2056 277.184C71.7042 277.547 71.4536 278.096 71.4536 278.832C71.4536 279.515 71.6936 280.064 72.1736 280.48C72.6642 280.896 73.3202 281.104 74.1416 281.104C74.9629 281.104 75.6136 280.896 76.0936 280.48C76.5736 280.064 76.8136 279.515 76.8136 278.832C76.8136 278.117 76.5682 277.573 76.0776 277.2C75.5869 276.816 74.9416 276.624 74.1416 276.624ZM87.5633 271.696H81.9473V275.344C82.1926 275.003 82.5553 274.725 83.0353 274.512C83.5153 274.288 84.0326 274.176 84.5873 274.176C85.4726 274.176 86.1926 274.363 86.7473 274.736C87.302 275.099 87.6966 275.573 87.9313 276.16C88.1766 276.736 88.2993 277.349 88.2993 278C88.2993 278.768 88.1553 279.456 87.8673 280.064C87.5793 280.672 87.1366 281.152 86.5393 281.504C85.9526 281.856 85.222 282.032 84.3473 282.032C83.2273 282.032 82.3206 281.744 81.6273 281.168C80.934 280.592 80.5126 279.824 80.3633 278.864H81.7873C81.926 279.472 82.2193 279.947 82.6673 280.288C83.1153 280.629 83.6806 280.8 84.3633 280.8C85.206 280.8 85.8406 280.549 86.2673 280.048C86.694 279.536 86.9073 278.864 86.9073 278.032C86.9073 277.2 86.694 276.56 86.2673 276.112C85.8406 275.653 85.2113 275.424 84.3793 275.424C83.814 275.424 83.318 275.563 82.8913 275.84C82.4753 276.107 82.1713 276.475 81.9793 276.944H80.6033V270.416H87.5633V271.696ZM101.62 271.568L97.1718 282H95.6998L100.212 271.712H94.0358V270.464H101.62V271.568ZM110.354 271.568L105.906 282H104.434L108.946 271.712H102.77V270.464H110.354V271.568ZM113.841 278.896C113.947 279.504 114.193 279.973 114.577 280.304C114.971 280.635 115.499 280.8 116.161 280.8C117.046 280.8 117.697 280.453 118.113 279.76C118.539 279.067 118.742 277.899 118.721 276.256C118.497 276.736 118.123 277.115 117.601 277.392C117.078 277.659 116.497 277.792 115.857 277.792C115.142 277.792 114.502 277.648 113.937 277.36C113.382 277.061 112.945 276.629 112.625 276.064C112.305 275.499 112.145 274.816 112.145 274.016C112.145 272.875 112.475 271.957 113.137 271.264C113.798 270.56 114.737 270.208 115.953 270.208C117.446 270.208 118.491 270.693 119.089 271.664C119.697 272.635 120.001 274.08 120.001 276C120.001 277.344 119.878 278.453 119.633 279.328C119.398 280.203 118.993 280.869 118.417 281.328C117.851 281.787 117.073 282.016 116.081 282.016C114.993 282.016 114.145 281.723 113.537 281.136C112.929 280.549 112.582 279.803 112.497 278.896H113.841ZM116.097 276.56C116.811 276.56 117.398 276.341 117.857 275.904C118.315 275.456 118.545 274.853 118.545 274.096C118.545 273.296 118.321 272.651 117.873 272.16C117.425 271.669 116.795 271.424 115.985 271.424C115.238 271.424 114.641 271.659 114.193 272.128C113.755 272.597 113.537 273.216 113.537 273.984C113.537 274.763 113.755 275.387 114.193 275.856C114.63 276.325 115.265 276.56 116.097 276.56ZM125.96 279.424V278.32L131.576 270.544H133.32V278.16H134.92V279.424H133.32V282H131.88V279.424H125.96ZM131.944 272.064L127.64 278.16H131.944V272.064ZM143.751 271.696H138.135V275.344C138.38 275.003 138.743 274.725 139.223 274.512C139.703 274.288 140.22 274.176 140.775 274.176C141.66 274.176 142.38 274.363 142.935 274.736C143.489 275.099 143.884 275.573 144.119 276.16C144.364 276.736 144.487 277.349 144.487 278C144.487 278.768 144.343 279.456 144.055 280.064C143.767 280.672 143.324 281.152 142.727 281.504C142.14 281.856 141.409 282.032 140.535 282.032C139.415 282.032 138.508 281.744 137.815 281.168C137.121 280.592 136.7 279.824 136.551 278.864H137.975C138.113 279.472 138.407 279.947 138.855 280.288C139.303 280.629 139.868 280.8 140.551 280.8C141.393 280.8 142.028 280.549 142.455 280.048C142.881 279.536 143.095 278.864 143.095 278.032C143.095 277.2 142.881 276.56 142.455 276.112C142.028 275.653 141.399 275.424 140.567 275.424C140.001 275.424 139.505 275.563 139.079 275.84C138.663 276.107 138.359 276.475 138.167 276.944H136.791V270.416H143.751V271.696ZM153.542 271.568L149.094 282H147.622L152.134 271.712H145.958V270.464H153.542V271.568ZM157.268 275.984C156.671 275.749 156.212 275.408 155.892 274.96C155.572 274.512 155.412 273.968 155.412 273.328C155.412 272.752 155.556 272.235 155.844 271.776C156.132 271.307 156.559 270.939 157.124 270.672C157.7 270.395 158.393 270.256 159.204 270.256C160.015 270.256 160.703 270.395 161.268 270.672C161.844 270.939 162.276 271.307 162.564 271.776C162.863 272.235 163.012 272.752 163.012 273.328C163.012 273.947 162.847 274.491 162.516 274.96C162.185 275.419 161.732 275.76 161.156 275.984C161.817 276.187 162.34 276.544 162.724 277.056C163.119 277.557 163.316 278.165 163.316 278.88C163.316 279.573 163.145 280.181 162.804 280.704C162.463 281.216 161.977 281.616 161.348 281.904C160.729 282.181 160.015 282.32 159.204 282.32C158.393 282.32 157.679 282.181 157.06 281.904C156.452 281.616 155.977 281.216 155.636 280.704C155.295 280.181 155.124 279.573 155.124 278.88C155.124 278.165 155.316 277.552 155.7 277.04C156.084 276.528 156.607 276.176 157.268 275.984ZM161.604 273.504C161.604 272.853 161.391 272.352 160.964 272C160.537 271.648 159.951 271.472 159.204 271.472C158.468 271.472 157.887 271.648 157.46 272C157.033 272.352 156.82 272.859 156.82 273.52C156.82 274.117 157.039 274.597 157.476 274.96C157.924 275.323 158.5 275.504 159.204 275.504C159.919 275.504 160.495 275.323 160.932 274.96C161.38 274.587 161.604 274.101 161.604 273.504ZM159.204 276.624C158.415 276.624 157.769 276.811 157.268 277.184C156.767 277.547 156.516 278.096 156.516 278.832C156.516 279.515 156.756 280.064 157.236 280.48C157.727 280.896 158.383 281.104 159.204 281.104C160.025 281.104 160.676 280.896 161.156 280.48C161.636 280.064 161.876 279.515 161.876 278.832C161.876 278.117 161.631 277.573 161.14 277.2C160.649 276.816 160.004 276.624 159.204 276.624ZM19.9769 299.808C19.6996 299.808 19.4649 299.712 19.2729 299.52C19.0916 299.328 19.0009 299.093 19.0009 298.816C19.0009 298.539 19.0916 298.304 19.2729 298.112C19.4649 297.92 19.6996 297.824 19.9769 297.824C20.2543 297.824 20.4836 297.92 20.6649 298.112C20.8569 298.304 20.9529 298.539 20.9529 298.816C20.9529 299.093 20.8569 299.328 20.6649 299.52C20.4836 299.712 20.2543 299.808 19.9769 299.808ZM20.6969 311.904C20.6969 312.683 20.4996 313.253 20.1049 313.616C19.7103 313.979 19.1343 314.16 18.3769 314.16H17.5289V312.928H18.1369C18.5423 312.928 18.8249 312.848 18.9849 312.688C19.1556 312.528 19.2409 312.256 19.2409 311.872V301.232H20.6969V311.904ZM22.6177 305.584C22.6177 304.688 22.799 303.904 23.1617 303.232C23.5244 302.549 24.0204 302.021 24.6497 301.648C25.2897 301.275 25.999 301.088 26.7777 301.088C27.5457 301.088 28.2124 301.253 28.7777 301.584C29.343 301.915 29.7644 302.331 30.0417 302.832V301.232H31.5137V310H30.0417V308.368C29.7537 308.88 29.3217 309.307 28.7457 309.648C28.1804 309.979 27.519 310.144 26.7617 310.144C25.983 310.144 25.279 309.952 24.6497 309.568C24.0204 309.184 23.5244 308.645 23.1617 307.952C22.799 307.259 22.6177 306.469 22.6177 305.584ZM30.0417 305.6C30.0417 304.939 29.9084 304.363 29.6417 303.872C29.375 303.381 29.0124 303.008 28.5537 302.752C28.1057 302.485 27.6097 302.352 27.0657 302.352C26.5217 302.352 26.0257 302.48 25.5777 302.736C25.1297 302.992 24.7724 303.365 24.5057 303.856C24.239 304.347 24.1057 304.923 24.1057 305.584C24.1057 306.256 24.239 306.843 24.5057 307.344C24.7724 307.835 25.1297 308.213 25.5777 308.48C26.0257 308.736 26.5217 308.864 27.0657 308.864C27.6097 308.864 28.1057 308.736 28.5537 308.48C29.0124 308.213 29.375 307.835 29.6417 307.344C29.9084 306.843 30.0417 306.261 30.0417 305.6ZM38.2462 301.072C39.3129 301.072 40.1769 301.397 40.8382 302.048C41.4995 302.688 41.8302 303.616 41.8302 304.832V310H40.3902V305.04C40.3902 304.165 40.1715 303.499 39.7342 303.04C39.2969 302.571 38.6995 302.336 37.9422 302.336C37.1742 302.336 36.5609 302.576 36.1022 303.056C35.6542 303.536 35.4302 304.235 35.4302 305.152V310H33.9742V301.232H35.4302V302.48C35.7182 302.032 36.1075 301.685 36.5982 301.44C37.0995 301.195 37.6489 301.072 38.2462 301.072ZM52.2086 305.28C52.2086 305.557 52.1926 305.851 52.1606 306.16H45.1526C45.2059 307.024 45.4992 307.701 46.0326 308.192C46.5766 308.672 47.2326 308.912 48.0006 308.912C48.6299 308.912 49.1526 308.768 49.5686 308.48C49.9952 308.181 50.2939 307.787 50.4646 307.296H52.0326C51.7979 308.139 51.3286 308.827 50.6246 309.36C49.9206 309.883 49.0459 310.144 48.0006 310.144C47.1686 310.144 46.4219 309.957 45.7606 309.584C45.1099 309.211 44.5979 308.683 44.2246 308C43.8512 307.307 43.6646 306.507 43.6646 305.6C43.6646 304.693 43.8459 303.899 44.2086 303.216C44.5712 302.533 45.0779 302.011 45.7286 301.648C46.3899 301.275 47.1472 301.088 48.0006 301.088C48.8326 301.088 49.5686 301.269 50.2086 301.632C50.8486 301.995 51.3392 302.496 51.6806 303.136C52.0326 303.765 52.2086 304.48 52.2086 305.28ZM50.7046 304.976C50.7046 304.421 50.5819 303.947 50.3366 303.552C50.0912 303.147 49.7552 302.843 49.3286 302.64C48.9126 302.427 48.4486 302.32 47.9366 302.32C47.2006 302.32 46.5712 302.555 46.0486 303.024C45.5366 303.493 45.2432 304.144 45.1686 304.976H50.7046ZM62.1304 299.744C63.3144 299.744 64.3438 299.968 65.2184 300.416C66.0931 300.864 66.7651 301.493 67.2344 302.304C67.7038 303.104 67.9384 304.032 67.9384 305.088C67.9384 305.931 67.7998 306.741 67.5224 307.52C67.2451 308.288 66.8398 308.912 66.3064 309.392C65.7838 309.872 65.1704 310.112 64.4664 310.112C63.9331 310.112 63.5224 309.979 63.2344 309.712C62.9464 309.445 62.7811 309.083 62.7384 308.624C62.4078 309.083 61.9864 309.445 61.4744 309.712C60.9731 309.979 60.4398 310.112 59.8744 310.112C59.0638 310.112 58.4238 309.867 57.9544 309.376C57.4958 308.875 57.2664 308.203 57.2664 307.36C57.2664 306.56 57.4318 305.813 57.7624 305.12C58.1038 304.427 58.5731 303.872 59.1704 303.456C59.7678 303.029 60.4451 302.816 61.2024 302.816C62.2158 302.816 62.8984 303.2 63.2504 303.968L63.4264 302.976H64.6904L63.8904 307.6C63.8584 307.803 63.8424 307.989 63.8424 308.16C63.8424 308.8 64.1251 309.12 64.6904 309.12C65.1171 309.12 65.4851 308.917 65.7944 308.512C66.1144 308.107 66.3544 307.6 66.5144 306.992C66.6744 306.373 66.7544 305.765 66.7544 305.168C66.7544 303.771 66.3331 302.688 65.4904 301.92C64.6584 301.152 63.4798 300.768 61.9544 300.768C60.6851 300.768 59.5384 301.077 58.5144 301.696C57.5011 302.304 56.7064 303.141 56.1304 304.208C55.5544 305.275 55.2664 306.453 55.2664 307.744C55.2558 309.152 55.6771 310.235 56.5304 310.992C57.3838 311.76 58.5678 312.144 60.0824 312.144C61.0851 312.144 61.9704 311.963 62.7384 311.6L62.9304 312.592C61.9811 312.987 60.9358 313.184 59.7944 313.184C58.6531 313.184 57.6451 312.965 56.7704 312.528C55.9064 312.101 55.2344 311.483 54.7544 310.672C54.2851 309.872 54.0504 308.939 54.0504 307.872C54.0504 306.368 54.3971 304.997 55.0904 303.76C55.7838 302.512 56.7438 301.531 57.9704 300.816C59.2078 300.101 60.5944 299.744 62.1304 299.744ZM60.3064 308.976C60.7864 308.976 61.2291 308.837 61.6344 308.56C62.0398 308.272 62.3598 307.888 62.5944 307.408C62.8291 306.917 62.9464 306.384 62.9464 305.808C62.9464 305.253 62.7918 304.805 62.4824 304.464C62.1838 304.112 61.7571 303.936 61.2024 303.936C60.6904 303.936 60.2371 304.091 59.8424 304.4C59.4584 304.699 59.1598 305.099 58.9464 305.6C58.7331 306.091 58.6264 306.603 58.6264 307.136C58.6264 307.701 58.7704 308.149 59.0584 308.48C59.3464 308.811 59.7624 308.976 60.3064 308.976ZM71.7896 302.848C72.0776 302.347 72.5042 301.931 73.0696 301.6C73.6456 301.259 74.3122 301.088 75.0696 301.088C75.8482 301.088 76.5522 301.275 77.1816 301.648C77.8216 302.021 78.3229 302.549 78.6856 303.232C79.0482 303.904 79.2296 304.688 79.2296 305.584C79.2296 306.469 79.0482 307.259 78.6856 307.952C78.3229 308.645 77.8216 309.184 77.1816 309.568C76.5522 309.952 75.8482 310.144 75.0696 310.144C74.3229 310.144 73.6616 309.979 73.0856 309.648C72.5202 309.307 72.0882 308.885 71.7896 308.384V314.16H70.3336V301.232H71.7896V302.848ZM77.7416 305.584C77.7416 304.923 77.6082 304.347 77.3416 303.856C77.0749 303.365 76.7122 302.992 76.2536 302.736C75.8056 302.48 75.3096 302.352 74.7656 302.352C74.2322 302.352 73.7362 302.485 73.2776 302.752C72.8296 303.008 72.4669 303.387 72.1896 303.888C71.9229 304.379 71.7896 304.949 71.7896 305.6C71.7896 306.261 71.9229 306.843 72.1896 307.344C72.4669 307.835 72.8296 308.213 73.2776 308.48C73.7362 308.736 74.2322 308.864 74.7656 308.864C75.3096 308.864 75.8056 308.736 76.2536 308.48C76.7122 308.213 77.0749 307.835 77.3416 307.344C77.6082 306.843 77.7416 306.256 77.7416 305.584ZM84.2501 310.144C83.5781 310.144 82.9754 310.032 82.4421 309.808C81.9087 309.573 81.4874 309.253 81.1781 308.848C80.8687 308.432 80.6981 307.957 80.6661 307.424H82.1701C82.2127 307.861 82.4154 308.219 82.7781 308.496C83.1514 308.773 83.6367 308.912 84.2341 308.912C84.7887 308.912 85.2261 308.789 85.5461 308.544C85.8661 308.299 86.0261 307.989 86.0261 307.616C86.0261 307.232 85.8554 306.949 85.5141 306.768C85.1727 306.576 84.6447 306.389 83.9301 306.208C83.2794 306.037 82.7461 305.867 82.3301 305.696C81.9247 305.515 81.5727 305.253 81.2741 304.912C80.9861 304.56 80.8421 304.101 80.8421 303.536C80.8421 303.088 80.9754 302.677 81.2421 302.304C81.5087 301.931 81.8874 301.637 82.3781 301.424C82.8687 301.2 83.4287 301.088 84.0581 301.088C85.0287 301.088 85.8127 301.333 86.4101 301.824C87.0074 302.315 87.3274 302.987 87.3701 303.84H85.9141C85.8821 303.381 85.6954 303.013 85.3541 302.736C85.0234 302.459 84.5754 302.32 84.0101 302.32C83.4874 302.32 83.0714 302.432 82.7621 302.656C82.4527 302.88 82.2981 303.173 82.2981 303.536C82.2981 303.824 82.3887 304.064 82.5701 304.256C82.7621 304.437 82.9967 304.587 83.2741 304.704C83.5621 304.811 83.9567 304.933 84.4581 305.072C85.0874 305.243 85.5994 305.413 85.9941 305.584C86.3887 305.744 86.7247 305.989 87.0021 306.32C87.2901 306.651 87.4394 307.083 87.4501 307.616C87.4501 308.096 87.3167 308.528 87.0501 308.912C86.7834 309.296 86.4047 309.6 85.9141 309.824C85.4341 310.037 84.8794 310.144 84.2501 310.144ZM97.0574 301.232L91.7774 314.128H90.2734L92.0014 309.904L88.4654 301.232H90.0814L92.8334 308.336L95.5534 301.232H97.0574ZM97.9771 305.6C97.9771 304.693 98.1584 303.904 98.5211 303.232C98.8837 302.549 99.3851 302.021 100.025 301.648C100.676 301.275 101.417 301.088 102.249 301.088C103.326 301.088 104.212 301.349 104.905 301.872C105.609 302.395 106.073 303.12 106.297 304.048H104.729C104.58 303.515 104.286 303.093 103.849 302.784C103.422 302.475 102.889 302.32 102.249 302.32C101.417 302.32 100.745 302.608 100.233 303.184C99.7211 303.749 99.4651 304.555 99.4651 305.6C99.4651 306.656 99.7211 307.472 100.233 308.048C100.745 308.624 101.417 308.912 102.249 308.912C102.889 308.912 103.422 308.763 103.849 308.464C104.276 308.165 104.569 307.739 104.729 307.184H106.297C106.062 308.08 105.593 308.8 104.889 309.344C104.185 309.877 103.305 310.144 102.249 310.144C101.417 310.144 100.676 309.957 100.025 309.584C99.3851 309.211 98.8837 308.683 98.5211 308C98.1584 307.317 97.9771 306.517 97.9771 305.6ZM112.592 301.072C113.253 301.072 113.85 301.216 114.384 301.504C114.917 301.781 115.333 302.203 115.632 302.768C115.941 303.333 116.096 304.021 116.096 304.832V310H114.656V305.04C114.656 304.165 114.437 303.499 114 303.04C113.562 302.571 112.965 302.336 112.208 302.336C111.44 302.336 110.826 302.576 110.368 303.056C109.92 303.536 109.696 304.235 109.696 305.152V310H108.24V298.16H109.696V302.48C109.984 302.032 110.378 301.685 110.88 301.44C111.392 301.195 111.962 301.072 112.592 301.072ZM118.938 310.096C118.661 310.096 118.426 310 118.234 309.808C118.042 309.616 117.946 309.381 117.946 309.104C117.946 308.827 118.042 308.592 118.234 308.4C118.426 308.208 118.661 308.112 118.938 308.112C119.205 308.112 119.429 308.208 119.61 308.4C119.802 308.592 119.898 308.827 119.898 309.104C119.898 309.381 119.802 309.616 119.61 309.808C119.429 310 119.205 310.096 118.938 310.096ZM121.29 305.6C121.29 304.693 121.471 303.904 121.834 303.232C122.196 302.549 122.698 302.021 123.338 301.648C123.988 301.275 124.73 301.088 125.562 301.088C126.639 301.088 127.524 301.349 128.218 301.872C128.922 302.395 129.386 303.12 129.61 304.048H128.042C127.892 303.515 127.599 303.093 127.162 302.784C126.735 302.475 126.202 302.32 125.562 302.32C124.73 302.32 124.058 302.608 123.546 303.184C123.034 303.749 122.778 304.555 122.778 305.6C122.778 306.656 123.034 307.472 123.546 308.048C124.058 308.624 124.73 308.912 125.562 308.912C126.202 308.912 126.735 308.763 127.162 308.464C127.588 308.165 127.882 307.739 128.042 307.184H129.61C129.375 308.08 128.906 308.8 128.202 309.344C127.498 309.877 126.618 310.144 125.562 310.144C124.73 310.144 123.988 309.957 123.338 309.584C122.698 309.211 122.196 308.683 121.834 308C121.471 307.317 121.29 306.517 121.29 305.6ZM135.376 310.144C134.555 310.144 133.808 309.957 133.136 309.584C132.475 309.211 131.952 308.683 131.568 308C131.195 307.307 131.008 306.507 131.008 305.6C131.008 304.704 131.2 303.915 131.584 303.232C131.979 302.539 132.512 302.011 133.184 301.648C133.856 301.275 134.608 301.088 135.44 301.088C136.272 301.088 137.024 301.275 137.696 301.648C138.368 302.011 138.896 302.533 139.28 303.216C139.675 303.899 139.872 304.693 139.872 305.6C139.872 306.507 139.67 307.307 139.264 308C138.87 308.683 138.331 309.211 137.648 309.584C136.966 309.957 136.208 310.144 135.376 310.144ZM135.376 308.864C135.899 308.864 136.39 308.741 136.848 308.496C137.307 308.251 137.675 307.883 137.952 307.392C138.24 306.901 138.384 306.304 138.384 305.6C138.384 304.896 138.246 304.299 137.968 303.808C137.691 303.317 137.328 302.955 136.88 302.72C136.432 302.475 135.947 302.352 135.424 302.352C134.891 302.352 134.4 302.475 133.952 302.72C133.515 302.955 133.163 303.317 132.896 303.808C132.63 304.299 132.496 304.896 132.496 305.6C132.496 306.315 132.624 306.917 132.88 307.408C133.147 307.899 133.499 308.267 133.936 308.512C134.374 308.747 134.854 308.864 135.376 308.864ZM152.331 301.072C153.013 301.072 153.621 301.216 154.155 301.504C154.688 301.781 155.109 302.203 155.419 302.768C155.728 303.333 155.883 304.021 155.883 304.832V310H154.443V305.04C154.443 304.165 154.224 303.499 153.787 303.04C153.36 302.571 152.779 302.336 152.043 302.336C151.285 302.336 150.683 302.581 150.235 303.072C149.787 303.552 149.563 304.251 149.563 305.168V310H148.123V305.04C148.123 304.165 147.904 303.499 147.467 303.04C147.04 302.571 146.459 302.336 145.723 302.336C144.965 302.336 144.363 302.581 143.915 303.072C143.467 303.552 143.243 304.251 143.243 305.168V310H141.787V301.232H143.243V302.496C143.531 302.037 143.915 301.685 144.395 301.44C144.885 301.195 145.424 301.072 146.011 301.072C146.747 301.072 147.397 301.237 147.963 301.568C148.528 301.899 148.949 302.384 149.227 303.024C149.472 302.405 149.877 301.925 150.443 301.584C151.008 301.243 151.637 301.072 152.331 301.072Z" fill="black"/>
</svg>
