<svg width="165" height="315" viewBox="0 0 165 315" fill="none" xmlns="http://www.w3.org/2000/svg">
<path d="M73.71 11.94V33H68.58V20.37L63.87 33H59.73L54.99 20.34V33H49.86V11.94H55.92L61.83 26.52L67.68 11.94H73.71ZM85.0191 33.24C83.3791 33.24 81.8991 32.89 80.5791 32.19C79.2791 31.49 78.2491 30.49 77.4891 29.19C76.7491 27.89 76.3791 26.37 76.3791 24.63C76.3791 22.91 76.7591 21.4 77.5191 20.1C78.2791 18.78 79.3191 17.77 80.6391 17.07C81.9591 16.37 83.4391 16.02 85.0791 16.02C86.7191 16.02 88.1991 16.37 89.5191 17.07C90.8391 17.77 91.8791 18.78 92.6391 20.1C93.3991 21.4 93.7791 22.91 93.7791 24.63C93.7791 26.35 93.3891 27.87 92.6091 29.19C91.8491 30.49 90.7991 31.49 89.4591 32.19C88.1391 32.89 86.6591 33.24 85.0191 33.24ZM85.0191 28.8C85.9991 28.8 86.8291 28.44 87.5091 27.72C88.2091 27 88.5591 25.97 88.5591 24.63C88.5591 23.29 88.2191 22.26 87.5391 21.54C86.8791 20.82 86.0591 20.46 85.0791 20.46C84.0791 20.46 83.2491 20.82 82.5891 21.54C81.9291 22.24 81.5991 23.27 81.5991 24.63C81.5991 25.97 81.9191 27 82.5591 27.72C83.2191 28.44 84.0391 28.8 85.0191 28.8ZM101.631 19.05C102.231 18.13 102.981 17.41 103.881 16.89C104.781 16.35 105.781 16.08 106.881 16.08V21.51H105.471C104.191 21.51 103.231 21.79 102.591 22.35C101.951 22.89 101.631 23.85 101.631 25.23V33H96.5006V16.26H101.631V19.05ZM125.113 24.36C125.113 24.84 125.083 25.34 125.023 25.86H113.413C113.493 26.9 113.823 27.7 114.403 28.26C115.003 28.8 115.733 29.07 116.593 29.07C117.873 29.07 118.763 28.53 119.263 27.45H124.723C124.443 28.55 123.933 29.54 123.193 30.42C122.473 31.3 121.563 31.99 120.463 32.49C119.363 32.99 118.133 33.24 116.773 33.24C115.133 33.24 113.673 32.89 112.393 32.19C111.113 31.49 110.113 30.49 109.393 29.19C108.673 27.89 108.313 26.37 108.313 24.63C108.313 22.89 108.663 21.37 109.363 20.07C110.083 18.77 111.083 17.77 112.363 17.07C113.643 16.37 115.113 16.02 116.773 16.02C118.393 16.02 119.833 16.36 121.093 17.04C122.353 17.72 123.333 18.69 124.033 19.95C124.753 21.21 125.113 22.68 125.113 24.36ZM119.863 23.01C119.863 22.13 119.563 21.43 118.963 20.91C118.363 20.39 117.613 20.13 116.713 20.13C115.853 20.13 115.123 20.38 114.523 20.88C113.943 21.38 113.583 22.09 113.443 23.01H119.863Z" fill="black"/>
<path d="M41.0173 79.71V90.732C41.0173 92.096 40.5993 93.174 39.7633 93.966C38.942 94.758 37.8566 95.154 36.5073 95.154C35.158 95.154 34.0653 94.758 33.2293 93.966C32.408 93.174 31.9973 92.096 31.9973 90.732H34.5273C34.542 91.4067 34.7106 91.942 35.0333 92.338C35.3706 92.734 35.862 92.932 36.5073 92.932C37.1526 92.932 37.644 92.734 37.9813 92.338C38.3186 91.9273 38.4873 91.392 38.4873 90.732V79.71H41.0173ZM50.3553 95.198C49.2113 95.198 48.1773 94.9413 47.2533 94.428C46.3293 93.9 45.6033 93.1667 45.0753 92.228C44.5473 91.2747 44.2833 90.1747 44.2833 88.928C44.2833 87.696 44.5546 86.6033 45.0973 85.65C45.6399 84.6967 46.3806 83.9633 47.3193 83.45C48.2579 82.9367 49.3066 82.68 50.4653 82.68C51.6239 82.68 52.6726 82.9367 53.6113 83.45C54.5499 83.9633 55.2906 84.6967 55.8333 85.65C56.3759 86.6033 56.6473 87.696 56.6473 88.928C56.6473 90.16 56.3686 91.2527 55.8113 92.206C55.2539 93.1593 54.4913 93.9 53.5233 94.428C52.5699 94.9413 51.5139 95.198 50.3553 95.198ZM50.3553 93.02C51.0006 93.02 51.6019 92.866 52.1593 92.558C52.7313 92.25 53.1933 91.788 53.5453 91.172C53.8973 90.556 54.0733 89.808 54.0733 88.928C54.0733 88.048 53.9046 87.3073 53.5673 86.706C53.2299 86.09 52.7826 85.628 52.2253 85.32C51.6679 85.012 51.0666 84.858 50.4213 84.858C49.7759 84.858 49.1746 85.012 48.6173 85.32C48.0746 85.628 47.6419 86.09 47.3193 86.706C46.9966 87.3073 46.8353 88.048 46.8353 88.928C46.8353 90.2333 47.1653 91.2453 47.8253 91.964C48.4999 92.668 49.3433 93.02 50.3553 93.02ZM65.3966 82.68C66.3206 82.68 67.1419 82.878 67.8606 83.274C68.5939 83.67 69.1659 84.2567 69.5766 85.034C70.0019 85.8113 70.2146 86.75 70.2146 87.85V95H67.7286V88.224C67.7286 87.1387 67.4572 86.31 66.9146 85.738C66.3719 85.1513 65.6312 84.858 64.6926 84.858C63.7539 84.858 63.0059 85.1513 62.4486 85.738C61.9059 86.31 61.6346 87.1387 61.6346 88.224V95H59.1266V78.72H61.6346V84.286C62.0599 83.7727 62.5952 83.3767 63.2406 83.098C63.9006 82.8193 64.6192 82.68 65.3966 82.68ZM79.5297 82.68C80.483 82.68 81.3337 82.878 82.0817 83.274C82.8443 83.67 83.4383 84.2567 83.8637 85.034C84.289 85.8113 84.5017 86.75 84.5017 87.85V95H82.0157V88.224C82.0157 87.1387 81.7443 86.31 81.2017 85.738C80.659 85.1513 79.9183 84.858 78.9797 84.858C78.041 84.858 77.293 85.1513 76.7357 85.738C76.193 86.31 75.9217 87.1387 75.9217 88.224V95H73.4137V82.878H75.9217V84.264C76.3323 83.7653 76.853 83.3767 77.4837 83.098C78.129 82.8193 78.811 82.68 79.5297 82.68ZM98.4096 79.71C100.038 79.71 101.46 80.0253 102.678 80.656C103.91 81.272 104.856 82.1667 105.516 83.34C106.19 84.4987 106.528 85.8553 106.528 87.41C106.528 88.9647 106.19 90.314 105.516 91.458C104.856 92.602 103.91 93.482 102.678 94.098C101.46 94.6993 100.038 95 98.4096 95H93.4156V79.71H98.4096ZM98.4096 92.954C100.199 92.954 101.57 92.47 102.524 91.502C103.477 90.534 103.954 89.17 103.954 87.41C103.954 85.6353 103.477 84.2493 102.524 83.252C101.57 82.2547 100.199 81.756 98.4096 81.756H95.9236V92.954H98.4096ZM114.271 95.198C113.127 95.198 112.093 94.9413 111.169 94.428C110.245 93.9 109.519 93.1667 108.991 92.228C108.463 91.2747 108.199 90.1747 108.199 88.928C108.199 87.696 108.471 86.6033 109.013 85.65C109.556 84.6967 110.297 83.9633 111.235 83.45C112.174 82.9367 113.223 82.68 114.381 82.68C115.54 82.68 116.589 82.9367 117.527 83.45C118.466 83.9633 119.207 84.6967 119.749 85.65C120.292 86.6033 120.563 87.696 120.563 88.928C120.563 90.16 120.285 91.2527 119.727 92.206C119.17 93.1593 118.407 93.9 117.439 94.428C116.486 94.9413 115.43 95.198 114.271 95.198ZM114.271 93.02C114.917 93.02 115.518 92.866 116.075 92.558C116.647 92.25 117.109 91.788 117.461 91.172C117.813 90.556 117.989 89.808 117.989 88.928C117.989 88.048 117.821 87.3073 117.483 86.706C117.146 86.09 116.699 85.628 116.141 85.32C115.584 85.012 114.983 84.858 114.337 84.858C113.692 84.858 113.091 85.012 112.533 85.32C111.991 85.628 111.558 86.09 111.235 86.706C110.913 87.3073 110.751 88.048 110.751 88.928C110.751 90.2333 111.081 91.2453 111.741 91.964C112.416 92.668 113.259 93.02 114.271 93.02ZM134.153 88.642C134.153 89.0967 134.123 89.5073 134.065 89.874H124.803C124.876 90.842 125.235 91.6193 125.881 92.206C126.526 92.7927 127.318 93.086 128.257 93.086C129.606 93.086 130.559 92.5213 131.117 91.392H133.823C133.456 92.5067 132.789 93.4233 131.821 94.142C130.867 94.846 129.679 95.198 128.257 95.198C127.098 95.198 126.057 94.9413 125.133 94.428C124.223 93.9 123.505 93.1667 122.977 92.228C122.463 91.2747 122.207 90.1747 122.207 88.928C122.207 87.6813 122.456 86.5887 122.955 85.65C123.468 84.6967 124.179 83.9633 125.089 83.45C126.013 82.9367 127.069 82.68 128.257 82.68C129.401 82.68 130.42 82.9293 131.315 83.428C132.209 83.9267 132.906 84.6307 133.405 85.54C133.903 86.4347 134.153 87.4687 134.153 88.642ZM131.535 87.85C131.52 86.926 131.19 86.1853 130.545 85.628C129.899 85.0707 129.1 84.792 128.147 84.792C127.281 84.792 126.541 85.0707 125.925 85.628C125.309 86.1707 124.942 86.9113 124.825 87.85H131.535ZM18.3441 111.928L16.3921 123H14.9361L16.3921 114.744L11.2561 123H10.2321L7.99206 114.776L6.53606 123H5.08006L7.04806 111.928H8.61606L11.0961 121.08L16.7921 111.928H18.3441ZM22.7173 123.144C21.9813 123.144 21.3306 122.995 20.7653 122.696C20.2106 122.387 19.7786 121.96 19.4693 121.416C19.16 120.861 19.0053 120.221 19.0053 119.496C19.0053 118.504 19.2346 117.597 19.6933 116.776C20.152 115.944 20.7813 115.288 21.5813 114.808C22.392 114.328 23.2933 114.088 24.2853 114.088C25.0213 114.088 25.672 114.243 26.2373 114.552C26.8133 114.851 27.256 115.277 27.5653 115.832C27.8853 116.376 28.0453 117.016 28.0453 117.752C28.0453 118.744 27.8106 119.651 27.3413 120.472C26.872 121.293 26.232 121.944 25.4213 122.424C24.6106 122.904 23.7093 123.144 22.7173 123.144ZM22.8933 121.912C23.5866 121.912 24.2106 121.725 24.7653 121.352C25.32 120.968 25.752 120.467 26.0613 119.848C26.3813 119.219 26.5413 118.547 26.5413 117.832C26.5413 117.021 26.3066 116.403 25.8373 115.976C25.368 115.539 24.7813 115.32 24.0773 115.32C23.384 115.32 22.7653 115.512 22.2213 115.896C21.6773 116.269 21.256 116.771 20.9573 117.4C20.6586 118.029 20.5093 118.707 20.5093 119.432C20.5093 120.221 20.7333 120.835 21.1813 121.272C21.6293 121.699 22.2 121.912 22.8933 121.912ZM31.3037 120.6C31.2717 120.76 31.2557 120.899 31.2557 121.016C31.2557 121.283 31.3357 121.475 31.4957 121.592C31.6664 121.709 31.9384 121.768 32.3117 121.768H33.3837L33.1597 123H31.8477C31.1544 123 30.6317 122.867 30.2797 122.6C29.9384 122.333 29.7677 121.896 29.7677 121.288C29.7677 121.053 29.789 120.824 29.8317 120.6L30.7437 115.432H29.6237L29.8317 114.232H30.9677L31.3517 112.024H32.8237L32.4397 114.232H34.7117L34.5037 115.432H32.2157L31.3037 120.6ZM37.4678 112.808C37.2331 112.808 37.0358 112.733 36.8758 112.584C36.7265 112.424 36.6518 112.227 36.6518 111.992C36.6518 111.672 36.7691 111.4 37.0038 111.176C37.2385 110.941 37.5105 110.824 37.8198 110.824C38.0651 110.824 38.2625 110.899 38.4118 111.048C38.5611 111.197 38.6358 111.395 38.6358 111.64C38.6358 111.96 38.5185 112.237 38.2838 112.472C38.0491 112.696 37.7771 112.808 37.4678 112.808ZM37.9318 114.232L36.3798 123H34.9238L36.4758 114.232H37.9318ZM42.3653 121.624L46.3973 114.232H47.9653L42.9733 123H41.2613L39.3733 114.232H40.9413L42.3653 121.624ZM48.0541 118.584C48.2141 117.688 48.5341 116.904 49.0141 116.232C49.5047 115.549 50.0967 115.021 50.7901 114.648C51.4941 114.275 52.2407 114.088 53.0301 114.088C53.7981 114.088 54.4327 114.253 54.9341 114.584C55.4354 114.915 55.7821 115.331 55.9741 115.832L56.2621 114.232H57.7341L56.1821 123H54.7101L55.0141 121.368C54.6301 121.88 54.1234 122.307 53.4941 122.648C52.8647 122.979 52.1714 123.144 51.4141 123.144C50.7314 123.144 50.1287 123 49.6061 122.712C49.0834 122.413 48.6781 121.992 48.3901 121.448C48.1021 120.904 47.9581 120.275 47.9581 119.56C47.9581 119.24 47.9901 118.915 48.0541 118.584ZM55.4941 118.6C55.5367 118.376 55.5581 118.136 55.5581 117.88C55.5581 117.101 55.3234 116.488 54.8541 116.04C54.3954 115.581 53.8087 115.352 53.0941 115.352C52.5501 115.352 52.0274 115.48 51.5261 115.736C51.0354 115.992 50.6141 116.365 50.2621 116.856C49.9101 117.347 49.6754 117.923 49.5581 118.584C49.5154 118.808 49.4941 119.053 49.4941 119.32C49.4941 120.109 49.7234 120.733 50.1821 121.192C50.6407 121.64 51.2274 121.864 51.9421 121.864C52.4861 121.864 53.0034 121.736 53.4941 121.48C53.9954 121.213 54.4221 120.835 54.7741 120.344C55.1367 119.843 55.3767 119.261 55.4941 118.6ZM60.8506 120.6C60.8186 120.76 60.8026 120.899 60.8026 121.016C60.8026 121.283 60.8826 121.475 61.0426 121.592C61.2132 121.709 61.4852 121.768 61.8586 121.768H62.9306L62.7066 123H61.3946C60.7012 123 60.1786 122.867 59.8266 122.6C59.4852 122.333 59.3146 121.896 59.3146 121.288C59.3146 121.053 59.3359 120.824 59.3786 120.6L60.2906 115.432H59.1706L59.3786 114.232H60.5146L60.8986 112.024H62.3706L61.9866 114.232H64.2586L64.0506 115.432H61.7626L60.8506 120.6ZM67.0147 112.808C66.78 112.808 66.5827 112.733 66.4227 112.584C66.2734 112.424 66.1987 112.227 66.1987 111.992C66.1987 111.672 66.316 111.4 66.5507 111.176C66.7854 110.941 67.0574 110.824 67.3667 110.824C67.612 110.824 67.8094 110.899 67.9587 111.048C68.108 111.197 68.1827 111.395 68.1827 111.64C68.1827 111.96 68.0654 112.237 67.8307 112.472C67.596 112.696 67.324 112.808 67.0147 112.808ZM67.4787 114.232L65.9267 123H64.4707L66.0227 114.232H67.4787ZM72.2642 123.144C71.5282 123.144 70.8775 122.995 70.3122 122.696C69.7575 122.387 69.3255 121.96 69.0162 121.416C68.7069 120.861 68.5522 120.221 68.5522 119.496C68.5522 118.504 68.7815 117.597 69.2402 116.776C69.6989 115.944 70.3282 115.288 71.1282 114.808C71.9389 114.328 72.8402 114.088 73.8322 114.088C74.5682 114.088 75.2189 114.243 75.7842 114.552C76.3602 114.851 76.8029 115.277 77.1122 115.832C77.4322 116.376 77.5922 117.016 77.5922 117.752C77.5922 118.744 77.3575 119.651 76.8882 120.472C76.4189 121.293 75.7789 121.944 74.9682 122.424C74.1575 122.904 73.2562 123.144 72.2642 123.144ZM72.4402 121.912C73.1335 121.912 73.7575 121.725 74.3122 121.352C74.8669 120.968 75.2989 120.467 75.6082 119.848C75.9282 119.219 76.0882 118.547 76.0882 117.832C76.0882 117.021 75.8535 116.403 75.3842 115.976C74.9149 115.539 74.3282 115.32 73.6242 115.32C72.9309 115.32 72.3122 115.512 71.7682 115.896C71.2242 116.269 70.8029 116.771 70.5042 117.4C70.2055 118.029 70.0562 118.707 70.0562 119.432C70.0562 120.221 70.2802 120.835 70.7282 121.272C71.1762 121.699 71.7469 121.912 72.4402 121.912ZM84.4986 114.072C85.4052 114.072 86.1306 114.317 86.6746 114.808C87.2186 115.288 87.4906 115.992 87.4906 116.92C87.4906 117.261 87.4639 117.565 87.4106 117.832L86.4986 123H85.0586L85.9386 118.04C85.9812 117.816 86.0026 117.581 86.0026 117.336C86.0026 116.685 85.8212 116.189 85.4586 115.848C85.1066 115.507 84.6106 115.336 83.9706 115.336C83.2026 115.336 82.5466 115.576 82.0026 116.056C81.4692 116.536 81.1226 117.235 80.9626 118.152V118.12L80.0986 123H78.6426L80.1946 114.232H81.6506L81.4266 115.496C81.7892 115.037 82.2426 114.685 82.7866 114.44C83.3306 114.195 83.9012 114.072 84.4986 114.072ZM89.1009 118.584C89.2609 117.688 89.5809 116.904 90.0609 116.232C90.5516 115.549 91.1436 115.021 91.8369 114.648C92.5409 114.275 93.2876 114.088 94.0769 114.088C94.8449 114.088 95.4796 114.253 95.9809 114.584C96.4823 114.915 96.8289 115.331 97.0209 115.832L97.3089 114.232H98.7809L97.2289 123H95.7569L96.0609 121.368C95.6769 121.88 95.1703 122.307 94.5409 122.648C93.9116 122.979 93.2183 123.144 92.4609 123.144C91.7783 123.144 91.1756 123 90.6529 122.712C90.1303 122.413 89.7249 121.992 89.4369 121.448C89.1489 120.904 89.0049 120.275 89.0049 119.56C89.0049 119.24 89.0369 118.915 89.1009 118.584ZM96.5409 118.6C96.5836 118.376 96.6049 118.136 96.6049 117.88C96.6049 117.101 96.3703 116.488 95.9009 116.04C95.4423 115.581 94.8556 115.352 94.1409 115.352C93.5969 115.352 93.0743 115.48 92.5729 115.736C92.0823 115.992 91.6609 116.365 91.3089 116.856C90.9569 117.347 90.7223 117.923 90.6049 118.584C90.5623 118.808 90.5409 119.053 90.5409 119.32C90.5409 120.109 90.7703 120.733 91.2289 121.192C91.6876 121.64 92.2743 121.864 92.9889 121.864C93.5329 121.864 94.0503 121.736 94.5409 121.48C95.0423 121.213 95.4689 120.835 95.8209 120.344C96.1836 119.843 96.4236 119.261 96.5409 118.6ZM103.241 111.16L101.145 123H99.6894L101.785 111.16H103.241ZM108.841 117.416C109.033 116.328 109.449 115.352 110.089 114.488C110.739 113.613 111.529 112.931 112.457 112.44C113.395 111.949 114.377 111.704 115.401 111.704C116.617 111.704 117.625 111.997 118.425 112.584C119.235 113.171 119.758 114.003 119.993 115.08H118.249C118.057 114.429 117.699 113.928 117.177 113.576C116.654 113.213 115.987 113.032 115.177 113.032C114.398 113.032 113.667 113.213 112.985 113.576C112.313 113.928 111.742 114.44 111.273 115.112C110.803 115.773 110.489 116.541 110.329 117.416C110.275 117.693 110.249 118.013 110.249 118.376C110.249 119.421 110.553 120.253 111.161 120.872C111.779 121.48 112.601 121.784 113.625 121.784C114.435 121.784 115.166 121.608 115.817 121.256C116.467 120.904 117.001 120.403 117.417 119.752H119.161C118.553 120.819 117.742 121.645 116.729 122.232C115.726 122.808 114.617 123.096 113.401 123.096C112.494 123.096 111.689 122.909 110.985 122.536C110.281 122.152 109.731 121.619 109.337 120.936C108.942 120.243 108.745 119.448 108.745 118.552C108.745 118.179 108.777 117.8 108.841 117.416ZM124.608 123.144C123.872 123.144 123.221 122.995 122.656 122.696C122.101 122.387 121.669 121.96 121.36 121.416C121.051 120.861 120.896 120.221 120.896 119.496C120.896 118.504 121.125 117.597 121.584 116.776C122.043 115.944 122.672 115.288 123.472 114.808C124.283 114.328 125.184 114.088 126.176 114.088C126.912 114.088 127.563 114.243 128.128 114.552C128.704 114.851 129.147 115.277 129.456 115.832C129.776 116.376 129.936 117.016 129.936 117.752C129.936 118.744 129.701 119.651 129.232 120.472C128.763 121.293 128.123 121.944 127.312 122.424C126.501 122.904 125.6 123.144 124.608 123.144ZM124.784 121.912C125.477 121.912 126.101 121.725 126.656 121.352C127.211 120.968 127.643 120.467 127.952 119.848C128.272 119.219 128.432 118.547 128.432 117.832C128.432 117.021 128.197 116.403 127.728 115.976C127.259 115.539 126.672 115.32 125.968 115.32C125.275 115.32 124.656 115.512 124.112 115.896C123.568 116.269 123.147 116.771 122.848 117.4C122.549 118.029 122.4 118.707 122.4 119.432C122.4 120.221 122.624 120.835 123.072 121.272C123.52 121.699 124.091 121.912 124.784 121.912ZM131.21 118.584C131.37 117.688 131.69 116.904 132.17 116.232C132.661 115.549 133.253 115.021 133.946 114.648C134.65 114.275 135.397 114.088 136.186 114.088C136.954 114.088 137.589 114.253 138.09 114.584C138.592 114.915 138.938 115.331 139.13 115.832L139.418 114.232H140.89L139.338 123H137.866L138.17 121.368C137.786 121.88 137.28 122.307 136.65 122.648C136.021 122.979 135.328 123.144 134.57 123.144C133.888 123.144 133.285 123 132.762 122.712C132.24 122.413 131.834 121.992 131.546 121.448C131.258 120.904 131.114 120.275 131.114 119.56C131.114 119.24 131.146 118.915 131.21 118.584ZM138.65 118.6C138.693 118.376 138.714 118.136 138.714 117.88C138.714 117.101 138.48 116.488 138.01 116.04C137.552 115.581 136.965 115.352 136.25 115.352C135.706 115.352 135.184 115.48 134.682 115.736C134.192 115.992 133.77 116.365 133.418 116.856C133.066 117.347 132.832 117.923 132.714 118.584C132.672 118.808 132.65 119.053 132.65 119.32C132.65 120.109 132.88 120.733 133.338 121.192C133.797 121.64 134.384 121.864 135.098 121.864C135.642 121.864 136.16 121.736 136.65 121.48C137.152 121.213 137.578 120.835 137.93 120.344C138.293 119.843 138.533 119.261 138.65 118.6ZM142.023 118.6C142.183 117.693 142.503 116.904 142.983 116.232C143.473 115.549 144.076 115.021 144.791 114.648C145.505 114.275 146.279 114.088 147.111 114.088C148.188 114.088 149.025 114.349 149.623 114.872C150.231 115.395 150.567 116.12 150.631 117.048H149.063C149.009 116.515 148.791 116.093 148.407 115.784C148.033 115.475 147.527 115.32 146.887 115.32C146.055 115.32 145.329 115.608 144.711 116.184C144.103 116.749 143.708 117.555 143.527 118.6C143.473 118.952 143.447 119.245 143.447 119.48C143.447 120.259 143.655 120.861 144.071 121.288C144.487 121.704 145.041 121.912 145.735 121.912C146.375 121.912 146.929 121.763 147.399 121.464C147.879 121.165 148.247 120.739 148.503 120.184H150.071C149.687 121.08 149.095 121.8 148.295 122.344C147.495 122.877 146.567 123.144 145.511 123.144C144.412 123.144 143.537 122.829 142.887 122.2C142.247 121.571 141.927 120.712 141.927 119.624C141.927 119.293 141.959 118.952 142.023 118.6ZM157.454 114.072C158.328 114.072 159.032 114.317 159.566 114.808C160.099 115.288 160.366 115.987 160.366 116.904C160.366 117.245 160.339 117.555 160.286 117.832L159.374 123H157.934L158.814 118.04C158.856 117.816 158.878 117.581 158.878 117.336C158.878 116.685 158.696 116.189 158.334 115.848C157.982 115.507 157.486 115.336 156.846 115.336C156.078 115.336 155.422 115.576 154.878 116.056C154.344 116.536 153.998 117.235 153.838 118.152V118.12L152.974 123H151.518L153.614 111.16H155.07L154.302 115.496C154.664 115.048 155.123 114.701 155.678 114.456C156.243 114.2 156.835 114.072 157.454 114.072ZM13.101 153.976C12.077 152.973 11.277 151.699 10.701 150.152C10.1357 148.605 9.853 146.936 9.853 145.144C9.853 143.309 10.1517 141.597 10.749 140.008C11.357 138.408 12.221 137.091 13.341 136.056H14.861V136.2C13.6663 137.32 12.765 138.669 12.157 140.248C11.5597 141.816 11.261 143.448 11.261 145.144C11.261 146.797 11.5437 148.376 12.109 149.88C12.685 151.384 13.5223 152.701 14.621 153.832V153.976H13.101ZM16.3506 142.344C16.4253 141.363 16.804 140.595 17.4866 140.04C18.1693 139.485 19.0546 139.208 20.1426 139.208C20.868 139.208 21.492 139.341 22.0146 139.608C22.548 139.864 22.948 140.216 23.2146 140.664C23.492 141.112 23.6306 141.619 23.6306 142.184C23.6306 142.845 23.4386 143.416 23.0546 143.896C22.6813 144.376 22.1906 144.685 21.5826 144.824V144.904C22.276 145.075 22.8253 145.411 23.2306 145.912C23.636 146.413 23.8386 147.069 23.8386 147.88C23.8386 148.488 23.7 149.037 23.4226 149.528C23.1453 150.008 22.7293 150.387 22.1746 150.664C21.62 150.941 20.9533 151.08 20.1746 151.08C19.044 151.08 18.116 150.787 17.3906 150.2C16.6653 149.603 16.26 148.76 16.1746 147.672H17.5826C17.6573 148.312 17.9186 148.835 18.3666 149.24C18.8146 149.645 19.412 149.848 20.1586 149.848C20.9053 149.848 21.4706 149.656 21.8546 149.272C22.2493 148.877 22.4466 148.371 22.4466 147.752C22.4466 146.952 22.18 146.376 21.6466 146.024C21.1133 145.672 20.308 145.496 19.2306 145.496H18.8626V144.28H19.2466C20.228 144.269 20.9693 144.109 21.4706 143.8C21.972 143.48 22.2226 142.989 22.2226 142.328C22.2226 141.763 22.036 141.309 21.6626 140.968C21.3 140.627 20.7773 140.456 20.0946 140.456C19.4333 140.456 18.9 140.627 18.4946 140.968C18.0893 141.309 17.8493 141.768 17.7746 142.344H16.3506ZM25.8045 145.096C25.8045 143.261 26.1032 141.832 26.7005 140.808C27.2978 139.773 28.3432 139.256 29.8365 139.256C31.3192 139.256 32.3592 139.773 32.9565 140.808C33.5538 141.832 33.8525 143.261 33.8525 145.096C33.8525 146.963 33.5538 148.413 32.9565 149.448C32.3592 150.483 31.3192 151 29.8365 151C28.3432 151 27.2978 150.483 26.7005 149.448C26.1032 148.413 25.8045 146.963 25.8045 145.096ZM32.4125 145.096C32.4125 144.168 32.3485 143.384 32.2205 142.744C32.1032 142.093 31.8525 141.571 31.4685 141.176C31.0952 140.781 30.5512 140.584 29.8365 140.584C29.1112 140.584 28.5565 140.781 28.1725 141.176C27.7992 141.571 27.5485 142.093 27.4205 142.744C27.3032 143.384 27.2445 144.168 27.2445 145.096C27.2445 146.056 27.3032 146.861 27.4205 147.512C27.5485 148.163 27.7992 148.685 28.1725 149.08C28.5565 149.475 29.1112 149.672 29.8365 149.672C30.5512 149.672 31.0952 149.475 31.4685 149.08C31.8525 148.685 32.1032 148.163 32.2205 147.512C32.3485 146.861 32.4125 146.056 32.4125 145.096ZM43.2274 140.696H37.6114V144.344C37.8567 144.003 38.2194 143.725 38.6994 143.512C39.1794 143.288 39.6967 143.176 40.2514 143.176C41.1367 143.176 41.8567 143.363 42.4114 143.736C42.966 144.099 43.3607 144.573 43.5954 145.16C43.8407 145.736 43.9634 146.349 43.9634 147C43.9634 147.768 43.8194 148.456 43.5314 149.064C43.2434 149.672 42.8007 150.152 42.2034 150.504C41.6167 150.856 40.886 151.032 40.0114 151.032C38.8914 151.032 37.9847 150.744 37.2914 150.168C36.598 149.592 36.1767 148.824 36.0274 147.864H37.4514C37.59 148.472 37.8834 148.947 38.3314 149.288C38.7794 149.629 39.3447 149.8 40.0274 149.8C40.87 149.8 41.5047 149.549 41.9314 149.048C42.358 148.536 42.5714 147.864 42.5714 147.032C42.5714 146.2 42.358 145.56 41.9314 145.112C41.5047 144.653 40.8754 144.424 40.0434 144.424C39.478 144.424 38.982 144.563 38.5554 144.84C38.1394 145.107 37.8354 145.475 37.6434 145.944H36.2674V139.416H43.2274V140.696ZM45.6743 153.976V153.832C46.7729 152.701 47.6049 151.384 48.1703 149.88C48.7463 148.376 49.0343 146.797 49.0343 145.144C49.0343 143.448 48.7303 141.816 48.1223 140.248C47.5249 138.669 46.6289 137.32 45.4342 136.2V136.056H46.9543C48.0743 137.091 48.9329 138.408 49.5303 140.008C50.1383 141.597 50.4423 143.309 50.4423 145.144C50.4423 146.936 50.1543 148.605 49.5783 150.152C49.0129 151.699 48.2183 152.973 47.1943 153.976H45.6743ZM64.8055 140.696H59.1895V144.344C59.4348 144.003 59.7975 143.725 60.2775 143.512C60.7575 143.288 61.2748 143.176 61.8295 143.176C62.7148 143.176 63.4348 143.363 63.9895 143.736C64.5442 144.099 64.9388 144.573 65.1735 145.16C65.4188 145.736 65.5415 146.349 65.5415 147C65.5415 147.768 65.3975 148.456 65.1095 149.064C64.8215 149.672 64.3788 150.152 63.7815 150.504C63.1948 150.856 62.4642 151.032 61.5895 151.032C60.4695 151.032 59.5628 150.744 58.8695 150.168C58.1762 149.592 57.7548 148.824 57.6055 147.864H59.0295C59.1682 148.472 59.4615 148.947 59.9095 149.288C60.3575 149.629 60.9228 149.8 61.6055 149.8C62.4482 149.8 63.0828 149.549 63.5095 149.048C63.9362 148.536 64.1495 147.864 64.1495 147.032C64.1495 146.2 63.9362 145.56 63.5095 145.112C63.0828 144.653 62.4535 144.424 61.6215 144.424C61.0562 144.424 60.5602 144.563 60.1335 144.84C59.7175 145.107 59.4135 145.475 59.2215 145.944H57.8455V139.416H64.8055V140.696ZM69.5884 144.984C68.991 144.749 68.5324 144.408 68.2124 143.96C67.8924 143.512 67.7324 142.968 67.7324 142.328C67.7324 141.752 67.8764 141.235 68.1644 140.776C68.4524 140.307 68.879 139.939 69.4444 139.672C70.0204 139.395 70.7137 139.256 71.5244 139.256C72.335 139.256 73.023 139.395 73.5884 139.672C74.1644 139.939 74.5964 140.307 74.8844 140.776C75.183 141.235 75.3324 141.752 75.3324 142.328C75.3324 142.947 75.167 143.491 74.8364 143.96C74.5057 144.419 74.0524 144.76 73.4764 144.984C74.1377 145.187 74.6604 145.544 75.0444 146.056C75.439 146.557 75.6364 147.165 75.6364 147.88C75.6364 148.573 75.4657 149.181 75.1244 149.704C74.783 150.216 74.2977 150.616 73.6684 150.904C73.0497 151.181 72.335 151.32 71.5244 151.32C70.7137 151.32 69.999 151.181 69.3804 150.904C68.7724 150.616 68.2977 150.216 67.9564 149.704C67.615 149.181 67.4444 148.573 67.4444 147.88C67.4444 147.165 67.6364 146.552 68.0204 146.04C68.4044 145.528 68.927 145.176 69.5884 144.984ZM73.9244 142.504C73.9244 141.853 73.711 141.352 73.2844 141C72.8577 140.648 72.271 140.472 71.5244 140.472C70.7884 140.472 70.207 140.648 69.7804 141C69.3537 141.352 69.1404 141.859 69.1404 142.52C69.1404 143.117 69.359 143.597 69.7964 143.96C70.2444 144.323 70.8204 144.504 71.5244 144.504C72.239 144.504 72.815 144.323 73.2524 143.96C73.7004 143.587 73.9244 143.101 73.9244 142.504ZM71.5244 145.624C70.735 145.624 70.0897 145.811 69.5884 146.184C69.087 146.547 68.8364 147.096 68.8364 147.832C68.8364 148.515 69.0764 149.064 69.5564 149.48C70.047 149.896 70.703 150.104 71.5244 150.104C72.3457 150.104 72.9964 149.896 73.4764 149.48C73.9564 149.064 74.1964 148.515 74.1964 147.832C74.1964 147.117 73.951 146.573 73.4604 146.2C72.9697 145.816 72.3244 145.624 71.5244 145.624ZM77.2181 148.424V147.32L82.8341 139.544H84.5781V147.16H86.1781V148.424H84.5781V151H83.1381V148.424H77.2181ZM83.2021 141.064L78.8981 147.16H83.2021V141.064ZM99.0183 140.568L94.5703 151H93.0983L97.6103 140.712H91.4342V139.464H99.0183V140.568ZM102.745 144.984C102.147 144.749 101.689 144.408 101.369 143.96C101.049 143.512 100.889 142.968 100.889 142.328C100.889 141.752 101.033 141.235 101.321 140.776C101.609 140.307 102.035 139.939 102.601 139.672C103.177 139.395 103.87 139.256 104.681 139.256C105.491 139.256 106.179 139.395 106.745 139.672C107.321 139.939 107.753 140.307 108.041 140.776C108.339 141.235 108.489 141.752 108.489 142.328C108.489 142.947 108.323 143.491 107.993 143.96C107.662 144.419 107.209 144.76 106.633 144.984C107.294 145.187 107.817 145.544 108.201 146.056C108.595 146.557 108.793 147.165 108.793 147.88C108.793 148.573 108.622 149.181 108.281 149.704C107.939 150.216 107.454 150.616 106.825 150.904C106.206 151.181 105.491 151.32 104.681 151.32C103.87 151.32 103.155 151.181 102.537 150.904C101.929 150.616 101.454 150.216 101.113 149.704C100.771 149.181 100.601 148.573 100.601 147.88C100.601 147.165 100.793 146.552 101.177 146.04C101.561 145.528 102.083 145.176 102.745 144.984ZM107.081 142.504C107.081 141.853 106.867 141.352 106.441 141C106.014 140.648 105.427 140.472 104.681 140.472C103.945 140.472 103.363 140.648 102.937 141C102.51 141.352 102.297 141.859 102.297 142.52C102.297 143.117 102.515 143.597 102.953 143.96C103.401 144.323 103.977 144.504 104.681 144.504C105.395 144.504 105.971 144.323 106.409 143.96C106.857 143.587 107.081 143.101 107.081 142.504ZM104.681 145.624C103.891 145.624 103.246 145.811 102.745 146.184C102.243 146.547 101.993 147.096 101.993 147.832C101.993 148.515 102.233 149.064 102.713 149.48C103.203 149.896 103.859 150.104 104.681 150.104C105.502 150.104 106.153 149.896 106.633 149.48C107.113 149.064 107.353 148.515 107.353 147.832C107.353 147.117 107.107 146.573 106.617 146.2C106.126 145.816 105.481 145.624 104.681 145.624ZM112.598 147.896C112.705 148.504 112.95 148.973 113.334 149.304C113.729 149.635 114.257 149.8 114.918 149.8C115.804 149.8 116.454 149.453 116.87 148.76C117.297 148.067 117.5 146.899 117.478 145.256C117.254 145.736 116.881 146.115 116.358 146.392C115.836 146.659 115.254 146.792 114.614 146.792C113.9 146.792 113.26 146.648 112.694 146.36C112.14 146.061 111.702 145.629 111.382 145.064C111.062 144.499 110.902 143.816 110.902 143.016C110.902 141.875 111.233 140.957 111.894 140.264C112.556 139.56 113.494 139.208 114.71 139.208C116.204 139.208 117.249 139.693 117.846 140.664C118.454 141.635 118.758 143.08 118.758 145C118.758 146.344 118.636 147.453 118.39 148.328C118.156 149.203 117.75 149.869 117.174 150.328C116.609 150.787 115.83 151.016 114.838 151.016C113.75 151.016 112.902 150.723 112.294 150.136C111.686 149.549 111.34 148.803 111.254 147.896H112.598ZM114.854 145.56C115.569 145.56 116.156 145.341 116.614 144.904C117.073 144.456 117.302 143.853 117.302 143.096C117.302 142.296 117.078 141.651 116.63 141.16C116.182 140.669 115.553 140.424 114.742 140.424C113.996 140.424 113.398 140.659 112.95 141.128C112.513 141.597 112.294 142.216 112.294 142.984C112.294 143.763 112.513 144.387 112.95 144.856C113.388 145.325 114.022 145.56 114.854 145.56ZM125.038 142.344C125.113 141.363 125.491 140.595 126.174 140.04C126.857 139.485 127.742 139.208 128.83 139.208C129.555 139.208 130.179 139.341 130.702 139.608C131.235 139.864 131.635 140.216 131.902 140.664C132.179 141.112 132.318 141.619 132.318 142.184C132.318 142.845 132.126 143.416 131.742 143.896C131.369 144.376 130.878 144.685 130.27 144.824V144.904C130.963 145.075 131.513 145.411 131.918 145.912C132.323 146.413 132.526 147.069 132.526 147.88C132.526 148.488 132.387 149.037 132.11 149.528C131.833 150.008 131.417 150.387 130.862 150.664C130.307 150.941 129.641 151.08 128.862 151.08C127.731 151.08 126.803 150.787 126.078 150.2C125.353 149.603 124.947 148.76 124.862 147.672H126.27C126.345 148.312 126.606 148.835 127.054 149.24C127.502 149.645 128.099 149.848 128.846 149.848C129.593 149.848 130.158 149.656 130.542 149.272C130.937 148.877 131.134 148.371 131.134 147.752C131.134 146.952 130.867 146.376 130.334 146.024C129.801 145.672 128.995 145.496 127.918 145.496H127.55V144.28H127.934C128.915 144.269 129.657 144.109 130.158 143.8C130.659 143.48 130.91 142.989 130.91 142.328C130.91 141.763 130.723 141.309 130.35 140.968C129.987 140.627 129.465 140.456 128.782 140.456C128.121 140.456 127.587 140.627 127.182 140.968C126.777 141.309 126.537 141.768 126.462 142.344H125.038ZM141.868 140.696H136.252V144.344C136.497 144.003 136.86 143.725 137.34 143.512C137.82 143.288 138.337 143.176 138.892 143.176C139.777 143.176 140.497 143.363 141.052 143.736C141.607 144.099 142.001 144.573 142.236 145.16C142.481 145.736 142.604 146.349 142.604 147C142.604 147.768 142.46 148.456 142.172 149.064C141.884 149.672 141.441 150.152 140.844 150.504C140.257 150.856 139.527 151.032 138.652 151.032C137.532 151.032 136.625 150.744 135.932 150.168C135.239 149.592 134.817 148.824 134.668 147.864H136.092C136.231 148.472 136.524 148.947 136.972 149.288C137.42 149.629 137.985 149.8 138.668 149.8C139.511 149.8 140.145 149.549 140.572 149.048C140.999 148.536 141.212 147.864 141.212 147.032C141.212 146.2 140.999 145.56 140.572 145.112C140.145 144.653 139.516 144.424 138.684 144.424C138.119 144.424 137.623 144.563 137.196 144.84C136.78 145.107 136.476 145.475 136.284 145.944H134.908V139.416H141.868V140.696ZM144.363 149.832C145.718 148.744 146.779 147.853 147.547 147.16C148.315 146.456 148.96 145.725 149.483 144.968C150.016 144.2 150.283 143.448 150.283 142.712C150.283 142.019 150.112 141.475 149.771 141.08C149.44 140.675 148.902 140.472 148.155 140.472C147.43 140.472 146.864 140.701 146.459 141.16C146.064 141.608 145.851 142.211 145.819 142.968H144.411C144.454 141.773 144.816 140.851 145.499 140.2C146.182 139.549 147.062 139.224 148.139 139.224C149.238 139.224 150.107 139.528 150.747 140.136C151.398 140.744 151.723 141.581 151.723 142.648C151.723 143.533 151.456 144.397 150.923 145.24C150.4 146.072 149.803 146.808 149.131 147.448C148.459 148.077 147.6 148.813 146.555 149.656H152.059V150.872H144.363V149.832ZM153.358 140.76V139.432H156.366V151H154.894V140.76H153.358ZM15.6098 168.808C15.3324 168.808 15.0978 168.712 14.9058 168.52C14.7244 168.328 14.6338 168.093 14.6338 167.816C14.6338 167.539 14.7244 167.304 14.9058 167.112C15.0978 166.92 15.3324 166.824 15.6098 166.824C15.8871 166.824 16.1164 166.92 16.2978 167.112C16.4898 167.304 16.5858 167.539 16.5858 167.816C16.5858 168.093 16.4898 168.328 16.2978 168.52C16.1164 168.712 15.8871 168.808 15.6098 168.808ZM16.3298 180.904C16.3298 181.683 16.1324 182.253 15.7378 182.616C15.3431 182.979 14.7671 183.16 14.0098 183.16H13.1617V181.928H13.7698C14.1751 181.928 14.4578 181.848 14.6178 181.688C14.7884 181.528 14.8738 181.256 14.8738 180.872V170.232H16.3298V180.904ZM22.6185 179.144C21.7972 179.144 21.0505 178.957 20.3785 178.584C19.7172 178.211 19.1945 177.683 18.8105 177C18.4372 176.307 18.2505 175.507 18.2505 174.6C18.2505 173.704 18.4425 172.915 18.8265 172.232C19.2212 171.539 19.7545 171.011 20.4265 170.648C21.0985 170.275 21.8505 170.088 22.6825 170.088C23.5145 170.088 24.2665 170.275 24.9385 170.648C25.6105 171.011 26.1385 171.533 26.5225 172.216C26.9172 172.899 27.1145 173.693 27.1145 174.6C27.1145 175.507 26.9118 176.307 26.5065 177C26.1118 177.683 25.5732 178.211 24.8905 178.584C24.2078 178.957 23.4505 179.144 22.6185 179.144ZM22.6185 177.864C23.1412 177.864 23.6318 177.741 24.0905 177.496C24.5492 177.251 24.9172 176.883 25.1945 176.392C25.4825 175.901 25.6265 175.304 25.6265 174.6C25.6265 173.896 25.4878 173.299 25.2105 172.808C24.9332 172.317 24.5705 171.955 24.1225 171.72C23.6745 171.475 23.1892 171.352 22.6665 171.352C22.1332 171.352 21.6425 171.475 21.1945 171.72C20.7572 171.955 20.4052 172.317 20.1385 172.808C19.8718 173.299 19.7385 173.896 19.7385 174.6C19.7385 175.315 19.8665 175.917 20.1225 176.408C20.3892 176.899 20.7412 177.267 21.1785 177.512C21.6158 177.747 22.0958 177.864 22.6185 177.864ZM33.3809 170.072C34.0422 170.072 34.6395 170.216 35.1729 170.504C35.7062 170.781 36.1222 171.203 36.4209 171.768C36.7302 172.333 36.8849 173.021 36.8849 173.832V179H35.4449V174.04C35.4449 173.165 35.2262 172.499 34.7889 172.04C34.3515 171.571 33.7542 171.336 32.9969 171.336C32.2289 171.336 31.6155 171.576 31.1569 172.056C30.7089 172.536 30.4849 173.235 30.4849 174.152V179H29.0289V167.16H30.4849V171.48C30.7729 171.032 31.1675 170.685 31.6689 170.44C32.1809 170.195 32.7515 170.072 33.3809 170.072ZM43.5353 170.072C44.6019 170.072 45.4659 170.397 46.1273 171.048C46.7886 171.688 47.1193 172.616 47.1193 173.832V179H45.6793V174.04C45.6793 173.165 45.4606 172.499 45.0233 172.04C44.5859 171.571 43.9886 171.336 43.2313 171.336C42.4633 171.336 41.8499 171.576 41.3913 172.056C40.9433 172.536 40.7193 173.235 40.7193 174.152V179H39.2633V170.232H40.7193V171.48C41.0073 171.032 41.3966 170.685 41.8873 170.44C42.3886 170.195 42.9379 170.072 43.5353 170.072ZM57.4976 168.744C58.6816 168.744 59.711 168.968 60.5856 169.416C61.4603 169.864 62.1323 170.493 62.6016 171.304C63.071 172.104 63.3056 173.032 63.3056 174.088C63.3056 174.931 63.167 175.741 62.8896 176.52C62.6123 177.288 62.207 177.912 61.6736 178.392C61.151 178.872 60.5376 179.112 59.8336 179.112C59.3003 179.112 58.8896 178.979 58.6016 178.712C58.3136 178.445 58.1483 178.083 58.1056 177.624C57.775 178.083 57.3536 178.445 56.8416 178.712C56.3403 178.979 55.807 179.112 55.2416 179.112C54.431 179.112 53.791 178.867 53.3216 178.376C52.863 177.875 52.6336 177.203 52.6336 176.36C52.6336 175.56 52.799 174.813 53.1296 174.12C53.471 173.427 53.9403 172.872 54.5376 172.456C55.135 172.029 55.8123 171.816 56.5696 171.816C57.583 171.816 58.2656 172.2 58.6176 172.968L58.7936 171.976H60.0576L59.2576 176.6C59.2256 176.803 59.2096 176.989 59.2096 177.16C59.2096 177.8 59.4923 178.12 60.0576 178.12C60.4843 178.12 60.8523 177.917 61.1616 177.512C61.4816 177.107 61.7216 176.6 61.8816 175.992C62.0416 175.373 62.1216 174.765 62.1216 174.168C62.1216 172.771 61.7003 171.688 60.8576 170.92C60.0256 170.152 58.847 169.768 57.3216 169.768C56.0523 169.768 54.9056 170.077 53.8816 170.696C52.8683 171.304 52.0736 172.141 51.4976 173.208C50.9216 174.275 50.6336 175.453 50.6336 176.744C50.623 178.152 51.0443 179.235 51.8976 179.992C52.751 180.76 53.935 181.144 55.4496 181.144C56.4523 181.144 57.3376 180.963 58.1056 180.6L58.2976 181.592C57.3483 181.987 56.303 182.184 55.1616 182.184C54.0203 182.184 53.0123 181.965 52.1376 181.528C51.2736 181.101 50.6016 180.483 50.1216 179.672C49.6523 178.872 49.4176 177.939 49.4176 176.872C49.4176 175.368 49.7643 173.997 50.4576 172.76C51.151 171.512 52.111 170.531 53.3376 169.816C54.575 169.101 55.9616 168.744 57.4976 168.744ZM55.6736 177.976C56.1536 177.976 56.5963 177.837 57.0016 177.56C57.407 177.272 57.727 176.888 57.9616 176.408C58.1963 175.917 58.3136 175.384 58.3136 174.808C58.3136 174.253 58.159 173.805 57.8496 173.464C57.551 173.112 57.1243 172.936 56.5696 172.936C56.0576 172.936 55.6043 173.091 55.2096 173.4C54.8256 173.699 54.527 174.099 54.3136 174.6C54.1003 175.091 53.9936 175.603 53.9936 176.136C53.9936 176.701 54.1376 177.149 54.4256 177.48C54.7136 177.811 55.1296 177.976 55.6736 177.976ZM67.1568 171.848C67.4448 171.347 67.8714 170.931 68.4368 170.6C69.0128 170.259 69.6794 170.088 70.4368 170.088C71.2154 170.088 71.9194 170.275 72.5487 170.648C73.1887 171.021 73.6901 171.549 74.0528 172.232C74.4154 172.904 74.5968 173.688 74.5968 174.584C74.5968 175.469 74.4154 176.259 74.0528 176.952C73.6901 177.645 73.1887 178.184 72.5487 178.568C71.9194 178.952 71.2154 179.144 70.4368 179.144C69.6901 179.144 69.0288 178.979 68.4528 178.648C67.8874 178.307 67.4554 177.885 67.1568 177.384V183.16H65.7008V170.232H67.1568V171.848ZM73.1088 174.584C73.1088 173.923 72.9754 173.347 72.7088 172.856C72.4421 172.365 72.0794 171.992 71.6208 171.736C71.1728 171.48 70.6768 171.352 70.1328 171.352C69.5994 171.352 69.1034 171.485 68.6448 171.752C68.1968 172.008 67.8341 172.387 67.5568 172.888C67.2901 173.379 67.1568 173.949 67.1568 174.6C67.1568 175.261 67.2901 175.843 67.5568 176.344C67.8341 176.835 68.1968 177.213 68.6448 177.48C69.1034 177.736 69.5994 177.864 70.1328 177.864C70.6768 177.864 71.1728 177.736 71.6208 177.48C72.0794 177.213 72.4421 176.835 72.7088 176.344C72.9754 175.843 73.1088 175.256 73.1088 174.584ZM79.6173 179.144C78.9453 179.144 78.3426 179.032 77.8093 178.808C77.2759 178.573 76.8546 178.253 76.5453 177.848C76.2359 177.432 76.0653 176.957 76.0333 176.424H77.5373C77.5799 176.861 77.7826 177.219 78.1453 177.496C78.5186 177.773 79.0039 177.912 79.6013 177.912C80.1559 177.912 80.5933 177.789 80.9133 177.544C81.2333 177.299 81.3933 176.989 81.3933 176.616C81.3933 176.232 81.2226 175.949 80.8813 175.768C80.5399 175.576 80.0119 175.389 79.2973 175.208C78.6466 175.037 78.1133 174.867 77.6973 174.696C77.2919 174.515 76.9399 174.253 76.6413 173.912C76.3533 173.56 76.2093 173.101 76.2093 172.536C76.2093 172.088 76.3426 171.677 76.6093 171.304C76.8759 170.931 77.2546 170.637 77.7453 170.424C78.2359 170.2 78.7959 170.088 79.4253 170.088C80.3959 170.088 81.1799 170.333 81.7773 170.824C82.3746 171.315 82.6946 171.987 82.7373 172.84H81.2813C81.2493 172.381 81.0626 172.013 80.7213 171.736C80.3906 171.459 79.9426 171.32 79.3773 171.32C78.8546 171.32 78.4386 171.432 78.1293 171.656C77.8199 171.88 77.6653 172.173 77.6653 172.536C77.6653 172.824 77.7559 173.064 77.9373 173.256C78.1293 173.437 78.3639 173.587 78.6413 173.704C78.9293 173.811 79.3239 173.933 79.8253 174.072C80.4546 174.243 80.9666 174.413 81.3613 174.584C81.7559 174.744 82.0919 174.989 82.3693 175.32C82.6573 175.651 82.8066 176.083 82.8173 176.616C82.8173 177.096 82.6839 177.528 82.4173 177.912C82.1506 178.296 81.7719 178.6 81.2813 178.824C80.8013 179.037 80.2466 179.144 79.6173 179.144ZM92.4246 170.232L87.1446 183.128H85.6406L87.3686 178.904L83.8326 170.232H85.4486L88.2006 177.336L90.9206 170.232H92.4246ZM93.3443 174.6C93.3443 173.693 93.5256 172.904 93.8883 172.232C94.2509 171.549 94.7523 171.021 95.3923 170.648C96.0429 170.275 96.7843 170.088 97.6163 170.088C98.6936 170.088 99.5789 170.349 100.272 170.872C100.976 171.395 101.44 172.12 101.664 173.048H100.096C99.9469 172.515 99.6536 172.093 99.2163 171.784C98.7896 171.475 98.2563 171.32 97.6163 171.32C96.7843 171.32 96.1123 171.608 95.6003 172.184C95.0883 172.749 94.8323 173.555 94.8323 174.6C94.8323 175.656 95.0883 176.472 95.6003 177.048C96.1123 177.624 96.7843 177.912 97.6163 177.912C98.2563 177.912 98.7896 177.763 99.2163 177.464C99.6429 177.165 99.9363 176.739 100.096 176.184H101.664C101.43 177.08 100.96 177.8 100.256 178.344C99.5523 178.877 98.6723 179.144 97.6163 179.144C96.7843 179.144 96.0429 178.957 95.3923 178.584C94.7523 178.211 94.2509 177.683 93.8883 177C93.5256 176.317 93.3443 175.517 93.3443 174.6ZM107.959 170.072C108.62 170.072 109.218 170.216 109.751 170.504C110.284 170.781 110.7 171.203 110.999 171.768C111.308 172.333 111.463 173.021 111.463 173.832V179H110.023V174.04C110.023 173.165 109.804 172.499 109.367 172.04C108.93 171.571 108.332 171.336 107.575 171.336C106.807 171.336 106.194 171.576 105.735 172.056C105.287 172.536 105.063 173.235 105.063 174.152V179H103.607V167.16H105.063V171.48C105.351 171.032 105.746 170.685 106.247 170.44C106.759 170.195 107.33 170.072 107.959 170.072ZM114.305 179.096C114.028 179.096 113.793 179 113.601 178.808C113.409 178.616 113.313 178.381 113.313 178.104C113.313 177.827 113.409 177.592 113.601 177.4C113.793 177.208 114.028 177.112 114.305 177.112C114.572 177.112 114.796 177.208 114.977 177.4C115.169 177.592 115.265 177.827 115.265 178.104C115.265 178.381 115.169 178.616 114.977 178.808C114.796 179 114.572 179.096 114.305 179.096ZM116.657 174.6C116.657 173.693 116.838 172.904 117.201 172.232C117.563 171.549 118.065 171.021 118.705 170.648C119.355 170.275 120.097 170.088 120.929 170.088C122.006 170.088 122.891 170.349 123.585 170.872C124.289 171.395 124.753 172.12 124.977 173.048H123.409C123.259 172.515 122.966 172.093 122.529 171.784C122.102 171.475 121.569 171.32 120.929 171.32C120.097 171.32 119.425 171.608 118.913 172.184C118.401 172.749 118.145 173.555 118.145 174.6C118.145 175.656 118.401 176.472 118.913 177.048C119.425 177.624 120.097 177.912 120.929 177.912C121.569 177.912 122.102 177.763 122.529 177.464C122.955 177.165 123.249 176.739 123.409 176.184H124.977C124.742 177.08 124.273 177.8 123.569 178.344C122.865 178.877 121.985 179.144 120.929 179.144C120.097 179.144 119.355 178.957 118.705 178.584C118.065 178.211 117.563 177.683 117.201 177C116.838 176.317 116.657 175.517 116.657 174.6ZM130.744 179.144C129.922 179.144 129.176 178.957 128.504 178.584C127.842 178.211 127.32 177.683 126.936 177C126.562 176.307 126.376 175.507 126.376 174.6C126.376 173.704 126.568 172.915 126.952 172.232C127.346 171.539 127.88 171.011 128.552 170.648C129.224 170.275 129.976 170.088 130.808 170.088C131.64 170.088 132.392 170.275 133.064 170.648C133.736 171.011 134.264 171.533 134.648 172.216C135.042 172.899 135.24 173.693 135.24 174.6C135.24 175.507 135.037 176.307 134.632 177C134.237 177.683 133.698 178.211 133.016 178.584C132.333 178.957 131.576 179.144 130.744 179.144ZM130.744 177.864C131.266 177.864 131.757 177.741 132.216 177.496C132.674 177.251 133.042 176.883 133.32 176.392C133.608 175.901 133.752 175.304 133.752 174.6C133.752 173.896 133.613 173.299 133.336 172.808C133.058 172.317 132.696 171.955 132.248 171.72C131.8 171.475 131.314 171.352 130.792 171.352C130.258 171.352 129.768 171.475 129.32 171.72C128.882 171.955 128.53 172.317 128.264 172.808C127.997 173.299 127.864 173.896 127.864 174.6C127.864 175.315 127.992 175.917 128.248 176.408C128.514 176.899 128.866 177.267 129.304 177.512C129.741 177.747 130.221 177.864 130.744 177.864ZM147.698 170.072C148.381 170.072 148.989 170.216 149.522 170.504C150.055 170.781 150.477 171.203 150.786 171.768C151.095 172.333 151.25 173.021 151.25 173.832V179H149.81V174.04C149.81 173.165 149.591 172.499 149.154 172.04C148.727 171.571 148.146 171.336 147.41 171.336C146.653 171.336 146.05 171.581 145.602 172.072C145.154 172.552 144.93 173.251 144.93 174.168V179H143.49V174.04C143.49 173.165 143.271 172.499 142.834 172.04C142.407 171.571 141.826 171.336 141.09 171.336C140.333 171.336 139.73 171.581 139.282 172.072C138.834 172.552 138.61 173.251 138.61 174.168V179H137.154V170.232H138.61V171.496C138.898 171.037 139.282 170.685 139.762 170.44C140.253 170.195 140.791 170.072 141.378 170.072C142.114 170.072 142.765 170.237 143.33 170.568C143.895 170.899 144.317 171.384 144.594 172.024C144.839 171.405 145.245 170.925 145.81 170.584C146.375 170.243 147.005 170.072 147.698 170.072Z" fill="black"/>
<path d="M40.4314 210.71V221.732C40.4314 223.096 40.0134 224.174 39.1774 224.966C38.356 225.758 37.2707 226.154 35.9214 226.154C34.572 226.154 33.4794 225.758 32.6434 224.966C31.822 224.174 31.4114 223.096 31.4114 221.732H33.9414C33.956 222.407 34.1247 222.942 34.4474 223.338C34.7847 223.734 35.276 223.932 35.9214 223.932C36.5667 223.932 37.058 223.734 37.3954 223.338C37.7327 222.927 37.9014 222.392 37.9014 221.732V210.71H40.4314ZM43.6753 219.884C43.6753 218.667 43.9247 217.589 44.4233 216.65C44.9367 215.711 45.626 214.985 46.4913 214.472C47.3713 213.944 48.3393 213.68 49.3953 213.68C50.3487 213.68 51.1773 213.871 51.8813 214.252C52.6 214.619 53.172 215.081 53.5973 215.638V213.878H56.1273V226H53.5973V224.196C53.172 224.768 52.5927 225.245 51.8593 225.626C51.126 226.007 50.29 226.198 49.3513 226.198C48.31 226.198 47.3567 225.934 46.4913 225.406C45.626 224.863 44.9367 224.115 44.4233 223.162C43.9247 222.194 43.6753 221.101 43.6753 219.884ZM53.5973 219.928C53.5973 219.092 53.4213 218.366 53.0693 217.75C52.732 217.134 52.2847 216.665 51.7273 216.342C51.17 216.019 50.5687 215.858 49.9233 215.858C49.278 215.858 48.6767 216.019 48.1193 216.342C47.562 216.65 47.1073 217.112 46.7553 217.728C46.418 218.329 46.2493 219.048 46.2493 219.884C46.2493 220.72 46.418 221.453 46.7553 222.084C47.1073 222.715 47.562 223.199 48.1193 223.536C48.6913 223.859 49.2927 224.02 49.9233 224.02C50.5687 224.02 51.17 223.859 51.7273 223.536C52.2847 223.213 52.732 222.744 53.0693 222.128C53.4213 221.497 53.5973 220.764 53.5973 219.928ZM65.5375 213.68C66.4908 213.68 67.3415 213.878 68.0895 214.274C68.8522 214.67 69.4462 215.257 69.8715 216.034C70.2968 216.811 70.5095 217.75 70.5095 218.85V226H68.0235V219.224C68.0235 218.139 67.7522 217.31 67.2095 216.738C66.6668 216.151 65.9262 215.858 64.9875 215.858C64.0488 215.858 63.3008 216.151 62.7435 216.738C62.2008 217.31 61.9295 218.139 61.9295 219.224V226H59.4215V213.878H61.9295V215.264C62.3402 214.765 62.8608 214.377 63.4915 214.098C64.1368 213.819 64.8188 213.68 65.5375 213.68ZM84.8186 219.642C84.8186 220.097 84.7893 220.507 84.7306 220.874H75.4686C75.5419 221.842 75.9013 222.619 76.5466 223.206C77.1919 223.793 77.9839 224.086 78.9226 224.086C80.2719 224.086 81.2253 223.521 81.7826 222.392H84.4886C84.1219 223.507 83.4546 224.423 82.4866 225.142C81.5333 225.846 80.3453 226.198 78.9226 226.198C77.7639 226.198 76.7226 225.941 75.7986 225.428C74.8893 224.9 74.1706 224.167 73.6426 223.228C73.1293 222.275 72.8726 221.175 72.8726 219.928C72.8726 218.681 73.1219 217.589 73.6206 216.65C74.1339 215.697 74.8453 214.963 75.7546 214.45C76.6786 213.937 77.7346 213.68 78.9226 213.68C80.0666 213.68 81.0859 213.929 81.9806 214.428C82.8753 214.927 83.5719 215.631 84.0706 216.54C84.5693 217.435 84.8186 218.469 84.8186 219.642ZM82.2006 218.85C82.1859 217.926 81.8559 217.185 81.2106 216.628C80.5653 216.071 79.7659 215.792 78.8126 215.792C77.9473 215.792 77.2066 216.071 76.5906 216.628C75.9746 217.171 75.6079 217.911 75.4906 218.85H82.2006ZM97.9956 210.71C99.6236 210.71 101.046 211.025 102.264 211.656C103.496 212.272 104.442 213.167 105.102 214.34C105.776 215.499 106.114 216.855 106.114 218.41C106.114 219.965 105.776 221.314 105.102 222.458C104.442 223.602 103.496 224.482 102.264 225.098C101.046 225.699 99.6236 226 97.9956 226H93.0016V210.71H97.9956ZM97.9956 223.954C99.7849 223.954 101.156 223.47 102.11 222.502C103.063 221.534 103.54 220.17 103.54 218.41C103.54 216.635 103.063 215.249 102.11 214.252C101.156 213.255 99.7849 212.756 97.9956 212.756H95.5096V223.954H97.9956ZM113.857 226.198C112.713 226.198 111.679 225.941 110.755 225.428C109.831 224.9 109.105 224.167 108.577 223.228C108.049 222.275 107.785 221.175 107.785 219.928C107.785 218.696 108.057 217.603 108.599 216.65C109.142 215.697 109.883 214.963 110.821 214.45C111.76 213.937 112.809 213.68 113.967 213.68C115.126 213.68 116.175 213.937 117.113 214.45C118.052 214.963 118.793 215.697 119.335 216.65C119.878 217.603 120.149 218.696 120.149 219.928C120.149 221.16 119.871 222.253 119.313 223.206C118.756 224.159 117.993 224.9 117.025 225.428C116.072 225.941 115.016 226.198 113.857 226.198ZM113.857 224.02C114.503 224.02 115.104 223.866 115.661 223.558C116.233 223.25 116.695 222.788 117.047 222.172C117.399 221.556 117.575 220.808 117.575 219.928C117.575 219.048 117.407 218.307 117.069 217.706C116.732 217.09 116.285 216.628 115.727 216.32C115.17 216.012 114.569 215.858 113.923 215.858C113.278 215.858 112.677 216.012 112.119 216.32C111.577 216.628 111.144 217.09 110.821 217.706C110.499 218.307 110.337 219.048 110.337 219.928C110.337 221.233 110.667 222.245 111.327 222.964C112.002 223.668 112.845 224.02 113.857 224.02ZM133.739 219.642C133.739 220.097 133.709 220.507 133.651 220.874H124.389C124.462 221.842 124.821 222.619 125.467 223.206C126.112 223.793 126.904 224.086 127.843 224.086C129.192 224.086 130.145 223.521 130.703 222.392H133.409C133.042 223.507 132.375 224.423 131.407 225.142C130.453 225.846 129.265 226.198 127.843 226.198C126.684 226.198 125.643 225.941 124.719 225.428C123.809 224.9 123.091 224.167 122.563 223.228C122.049 222.275 121.793 221.175 121.793 219.928C121.793 218.681 122.042 217.589 122.541 216.65C123.054 215.697 123.765 214.963 124.675 214.45C125.599 213.937 126.655 213.68 127.843 213.68C128.987 213.68 130.006 213.929 130.901 214.428C131.795 214.927 132.492 215.631 132.991 216.54C133.489 217.435 133.739 218.469 133.739 219.642ZM131.121 218.85C131.106 217.926 130.776 217.185 130.131 216.628C129.485 216.071 128.686 215.792 127.733 215.792C126.867 215.792 126.127 216.071 125.511 216.628C124.895 217.171 124.528 217.911 124.411 218.85H131.121ZM32.4732 242.848L30.4892 254H29.0332L31.0172 242.848H32.4732ZM38.8267 245.072C39.7334 245.072 40.4587 245.317 41.0027 245.808C41.5467 246.288 41.8187 246.992 41.8187 247.92C41.8187 248.261 41.792 248.565 41.7387 248.832L40.8267 254H39.3867L40.2667 249.04C40.3094 248.816 40.3307 248.581 40.3307 248.336C40.3307 247.685 40.1494 247.189 39.7867 246.848C39.4347 246.507 38.9387 246.336 38.2987 246.336C37.5307 246.336 36.8747 246.576 36.3307 247.056C35.7974 247.536 35.4507 248.235 35.2907 249.152V249.12L34.4267 254H32.9707L34.5227 245.232H35.9787L35.7547 246.496C36.1174 246.037 36.5707 245.685 37.1147 245.44C37.6587 245.195 38.2294 245.072 38.8267 245.072ZM49.0611 245.072C49.9677 245.072 50.6931 245.317 51.2371 245.808C51.7811 246.288 52.0531 246.992 52.0531 247.92C52.0531 248.261 52.0264 248.565 51.9731 248.832L51.0611 254H49.6211L50.5011 249.04C50.5437 248.816 50.5651 248.581 50.5651 248.336C50.5651 247.685 50.3837 247.189 50.0211 246.848C49.6691 246.507 49.1731 246.336 48.5331 246.336C47.7651 246.336 47.1091 246.576 46.5651 247.056C46.0317 247.536 45.6851 248.235 45.5251 249.152V249.12L44.6611 254H43.2051L44.7571 245.232H46.2131L45.9891 246.496C46.3517 246.037 46.8051 245.685 47.3491 245.44C47.8931 245.195 48.4637 245.072 49.0611 245.072ZM58.7994 245.088C59.5354 245.088 60.1701 245.232 60.7034 245.52C61.2474 245.797 61.6581 246.192 61.9354 246.704C62.2234 247.205 62.3674 247.781 62.3674 248.432C62.3674 248.656 62.3408 248.928 62.2874 249.248C62.2448 249.525 62.1754 249.813 62.0794 250.112H55.0714C55.0501 250.325 55.0394 250.48 55.0394 250.576C55.0394 251.312 55.2581 251.888 55.6954 252.304C56.1434 252.709 56.7248 252.912 57.4394 252.912C58.0688 252.912 58.6181 252.768 59.0874 252.48C59.5674 252.181 59.9301 251.787 60.1754 251.296H61.7434C61.3594 252.139 60.7674 252.827 59.9674 253.36C59.1781 253.883 58.2608 254.144 57.2154 254.144C56.1168 254.144 55.2314 253.829 54.5594 253.2C53.8981 252.56 53.5674 251.691 53.5674 250.592C53.5674 250.283 53.5994 249.952 53.6634 249.6C53.8234 248.693 54.1488 247.899 54.6394 247.216C55.1301 246.533 55.7328 246.011 56.4474 245.648C57.1728 245.275 57.9568 245.088 58.7994 245.088ZM60.8154 249.056C60.8474 248.843 60.8634 248.645 60.8634 248.464C60.8634 247.781 60.6448 247.253 60.2074 246.88C59.7808 246.507 59.2208 246.32 58.5274 246.32C57.7808 246.32 57.1034 246.565 56.4954 247.056C55.8874 247.536 55.4768 248.203 55.2634 249.056H60.8154ZM66.0813 246.896C66.4333 246.32 66.876 245.872 67.4093 245.552C67.9426 245.232 68.5506 245.072 69.2333 245.072L68.9613 246.576H68.5773C67.82 246.576 67.1853 246.779 66.6733 247.184C66.172 247.589 65.836 248.272 65.6653 249.232L64.8173 254H63.3613L64.9133 245.232H66.3693L66.0813 246.896ZM77.3277 243.984L76.6557 247.808H80.7037L80.5117 248.928H76.4637L75.7597 252.848H80.3037L80.0957 254H74.0957L76.0797 242.832H82.0637L81.8557 243.984H77.3277ZM86.4748 249.568L88.5228 254H86.8748L85.3708 250.736L82.7948 254H81.2588L84.8748 249.648L82.8268 245.232H84.4748L85.9628 248.464L88.5228 245.232H90.0588L86.4748 249.568ZM92.6751 246.848C93.0591 246.347 93.5657 245.931 94.1951 245.6C94.8244 245.259 95.5124 245.088 96.2591 245.088C96.9417 245.088 97.5444 245.232 98.0671 245.52C98.6004 245.797 99.0111 246.203 99.2991 246.736C99.5871 247.259 99.7311 247.877 99.7311 248.592C99.7311 248.901 99.6991 249.232 99.6351 249.584C99.4751 250.469 99.1497 251.259 98.6591 251.952C98.1791 252.645 97.5871 253.184 96.8831 253.568C96.1897 253.952 95.4537 254.144 94.6751 254.144C93.9284 254.144 93.2991 253.979 92.7871 253.648C92.2857 253.307 91.9231 252.885 91.6991 252.384L90.6911 258.16H89.2351L91.5071 245.232H92.9631L92.6751 246.848ZM98.1471 249.584C98.1897 249.36 98.2111 249.115 98.2111 248.848C98.2111 248.069 97.9817 247.461 97.5231 247.024C97.0644 246.576 96.4724 246.352 95.7471 246.352C95.2137 246.352 94.6964 246.485 94.1951 246.752C93.6937 247.008 93.2617 247.387 92.8991 247.888C92.5471 248.379 92.3124 248.949 92.1951 249.6C92.1524 249.824 92.1311 250.069 92.1311 250.336C92.1311 251.115 92.3604 251.733 92.8191 252.192C93.2884 252.64 93.8804 252.864 94.5951 252.864C95.1391 252.864 95.6564 252.736 96.1471 252.48C96.6484 252.213 97.0751 251.835 97.4271 251.344C97.7897 250.843 98.0297 250.256 98.1471 249.584ZM104.32 242.16L102.224 254H100.768L102.864 242.16H104.32ZM108.561 254.144C107.825 254.144 107.174 253.995 106.609 253.696C106.054 253.387 105.622 252.96 105.313 252.416C105.004 251.861 104.849 251.221 104.849 250.496C104.849 249.504 105.078 248.597 105.537 247.776C105.996 246.944 106.625 246.288 107.425 245.808C108.236 245.328 109.137 245.088 110.129 245.088C110.865 245.088 111.516 245.243 112.081 245.552C112.657 245.851 113.1 246.277 113.409 246.832C113.729 247.376 113.889 248.016 113.889 248.752C113.889 249.744 113.654 250.651 113.185 251.472C112.716 252.293 112.076 252.944 111.265 253.424C110.454 253.904 109.553 254.144 108.561 254.144ZM108.737 252.912C109.43 252.912 110.054 252.725 110.609 252.352C111.164 251.968 111.596 251.467 111.905 250.848C112.225 250.219 112.385 249.547 112.385 248.832C112.385 248.021 112.15 247.403 111.681 246.976C111.212 246.539 110.625 246.32 109.921 246.32C109.228 246.32 108.609 246.512 108.065 246.896C107.521 247.269 107.1 247.771 106.801 248.4C106.502 249.029 106.353 249.707 106.353 250.432C106.353 251.221 106.577 251.835 107.025 252.272C107.473 252.699 108.044 252.912 108.737 252.912ZM117.659 246.896C118.011 246.32 118.454 245.872 118.987 245.552C119.521 245.232 120.129 245.072 120.811 245.072L120.539 246.576H120.155C119.398 246.576 118.763 246.779 118.251 247.184C117.75 247.589 117.414 248.272 117.243 249.232L116.395 254H114.939L116.491 245.232H117.947L117.659 246.896ZM126.268 245.088C127.004 245.088 127.639 245.232 128.172 245.52C128.716 245.797 129.127 246.192 129.404 246.704C129.692 247.205 129.836 247.781 129.836 248.432C129.836 248.656 129.81 248.928 129.756 249.248C129.714 249.525 129.644 249.813 129.548 250.112H122.54C122.519 250.325 122.508 250.48 122.508 250.576C122.508 251.312 122.727 251.888 123.164 252.304C123.612 252.709 124.194 252.912 124.908 252.912C125.538 252.912 126.087 252.768 126.556 252.48C127.036 252.181 127.399 251.787 127.644 251.296H129.212C128.828 252.139 128.236 252.827 127.436 253.36C126.647 253.883 125.73 254.144 124.684 254.144C123.586 254.144 122.7 253.829 122.028 253.2C121.367 252.56 121.036 251.691 121.036 250.592C121.036 250.283 121.068 249.952 121.132 249.6C121.292 248.693 121.618 247.899 122.108 247.216C122.599 246.533 123.202 246.011 123.916 245.648C124.642 245.275 125.426 245.088 126.268 245.088ZM128.284 249.056C128.316 248.843 128.332 248.645 128.332 248.464C128.332 247.781 128.114 247.253 127.676 246.88C127.25 246.507 126.69 246.32 125.996 246.32C125.25 246.32 124.572 246.565 123.964 247.056C123.356 247.536 122.946 248.203 122.732 249.056H128.284ZM133.55 246.896C133.902 246.32 134.345 245.872 134.878 245.552C135.411 245.232 136.019 245.072 136.702 245.072L136.43 246.576H136.046C135.289 246.576 134.654 246.779 134.142 247.184C133.641 247.589 133.305 248.272 133.134 249.232L132.286 254H130.83L132.382 245.232H133.838L133.55 246.896ZM10.7182 284.976C9.69419 283.973 8.89419 282.699 8.31819 281.152C7.75285 279.605 7.47019 277.936 7.47019 276.144C7.47019 274.309 7.76885 272.597 8.36619 271.008C8.97419 269.408 9.83819 268.091 10.9582 267.056H12.4782V267.2C11.2835 268.32 10.3822 269.669 9.77419 271.248C9.17685 272.816 8.87819 274.448 8.87819 276.144C8.87819 277.797 9.16085 279.376 9.72619 280.88C10.3022 282.384 11.1395 283.701 12.2382 284.832V284.976H10.7182ZM13.9678 273.344C14.0425 272.363 14.4211 271.595 15.1038 271.04C15.7865 270.485 16.6718 270.208 17.7598 270.208C18.4851 270.208 19.1091 270.341 19.6318 270.608C20.1651 270.864 20.5651 271.216 20.8318 271.664C21.1091 272.112 21.2478 272.619 21.2478 273.184C21.2478 273.845 21.0558 274.416 20.6718 274.896C20.2985 275.376 19.8078 275.685 19.1998 275.824V275.904C19.8931 276.075 20.4425 276.411 20.8478 276.912C21.2531 277.413 21.4558 278.069 21.4558 278.88C21.4558 279.488 21.3171 280.037 21.0398 280.528C20.7625 281.008 20.3465 281.387 19.7918 281.664C19.2371 281.941 18.5705 282.08 17.7918 282.08C16.6611 282.08 15.7331 281.787 15.0078 281.2C14.2825 280.603 13.8771 279.76 13.7918 278.672H15.1998C15.2745 279.312 15.5358 279.835 15.9838 280.24C16.4318 280.645 17.0291 280.848 17.7758 280.848C18.5225 280.848 19.0878 280.656 19.4718 280.272C19.8665 279.877 20.0638 279.371 20.0638 278.752C20.0638 277.952 19.7971 277.376 19.2638 277.024C18.7305 276.672 17.9251 276.496 16.8478 276.496H16.4798V275.28H16.8638C17.8451 275.269 18.5865 275.109 19.0878 274.8C19.5891 274.48 19.8398 273.989 19.8398 273.328C19.8398 272.763 19.6531 272.309 19.2798 271.968C18.9171 271.627 18.3945 271.456 17.7118 271.456C17.0505 271.456 16.5171 271.627 16.1118 271.968C15.7065 272.309 15.4665 272.768 15.3918 273.344H13.9678ZM23.4217 276.096C23.4217 274.261 23.7204 272.832 24.3177 271.808C24.915 270.773 25.9604 270.256 27.4537 270.256C28.9364 270.256 29.9764 270.773 30.5737 271.808C31.171 272.832 31.4697 274.261 31.4697 276.096C31.4697 277.963 31.171 279.413 30.5737 280.448C29.9764 281.483 28.9364 282 27.4537 282C25.9604 282 24.915 281.483 24.3177 280.448C23.7204 279.413 23.4217 277.963 23.4217 276.096ZM30.0297 276.096C30.0297 275.168 29.9657 274.384 29.8377 273.744C29.7204 273.093 29.4697 272.571 29.0857 272.176C28.7124 271.781 28.1684 271.584 27.4537 271.584C26.7284 271.584 26.1737 271.781 25.7897 272.176C25.4164 272.571 25.1657 273.093 25.0377 273.744C24.9204 274.384 24.8617 275.168 24.8617 276.096C24.8617 277.056 24.9204 277.861 25.0377 278.512C25.1657 279.163 25.4164 279.685 25.7897 280.08C26.1737 280.475 26.7284 280.672 27.4537 280.672C28.1684 280.672 28.7124 280.475 29.0857 280.08C29.4697 279.685 29.7204 279.163 29.8377 278.512C29.9657 277.861 30.0297 277.056 30.0297 276.096ZM40.8446 271.696H35.2286V275.344C35.4739 275.003 35.8366 274.725 36.3166 274.512C36.7966 274.288 37.3139 274.176 37.8686 274.176C38.7539 274.176 39.4739 274.363 40.0286 274.736C40.5832 275.099 40.9779 275.573 41.2126 276.16C41.4579 276.736 41.5806 277.349 41.5806 278C41.5806 278.768 41.4366 279.456 41.1486 280.064C40.8606 280.672 40.4179 281.152 39.8206 281.504C39.2339 281.856 38.5032 282.032 37.6286 282.032C36.5086 282.032 35.6019 281.744 34.9086 281.168C34.2152 280.592 33.7939 279.824 33.6446 278.864H35.0686C35.2072 279.472 35.5006 279.947 35.9486 280.288C36.3966 280.629 36.9619 280.8 37.6446 280.8C38.4872 280.8 39.1219 280.549 39.5486 280.048C39.9752 279.536 40.1886 278.864 40.1886 278.032C40.1886 277.2 39.9752 276.56 39.5486 276.112C39.1219 275.653 38.4926 275.424 37.6606 275.424C37.0952 275.424 36.5992 275.563 36.1726 275.84C35.7566 276.107 35.4526 276.475 35.2606 276.944H33.8846V270.416H40.8446V271.696ZM43.2914 284.976V284.832C44.3901 283.701 45.2221 282.384 45.7874 280.88C46.3634 279.376 46.6514 277.797 46.6514 276.144C46.6514 274.448 46.3474 272.816 45.7394 271.248C45.1421 269.669 44.2461 268.32 43.0514 267.2V267.056H44.5714C45.6914 268.091 46.5501 269.408 47.1474 271.008C47.7554 272.597 48.0594 274.309 48.0594 276.144C48.0594 277.936 47.7714 279.605 47.1954 281.152C46.6301 282.699 45.8354 283.973 44.8114 284.976H43.2914ZM62.4227 271.696H56.8067V275.344C57.052 275.003 57.4147 274.725 57.8947 274.512C58.3747 274.288 58.892 274.176 59.4467 274.176C60.332 274.176 61.052 274.363 61.6067 274.736C62.1614 275.099 62.556 275.573 62.7907 276.16C63.036 276.736 63.1587 277.349 63.1587 278C63.1587 278.768 63.0147 279.456 62.7267 280.064C62.4387 280.672 61.996 281.152 61.3987 281.504C60.812 281.856 60.0814 282.032 59.2067 282.032C58.0867 282.032 57.18 281.744 56.4867 281.168C55.7934 280.592 55.372 279.824 55.2227 278.864H56.6467C56.7854 279.472 57.0787 279.947 57.5267 280.288C57.9747 280.629 58.54 280.8 59.2227 280.8C60.0654 280.8 60.7 280.549 61.1267 280.048C61.5534 279.536 61.7667 278.864 61.7667 278.032C61.7667 277.2 61.5534 276.56 61.1267 276.112C60.7 275.653 60.0707 275.424 59.2387 275.424C58.6734 275.424 58.1774 275.563 57.7507 275.84C57.3347 276.107 57.0307 276.475 56.8387 276.944H55.4627V270.416H62.4227V271.696ZM67.2056 275.984C66.6082 275.749 66.1496 275.408 65.8296 274.96C65.5096 274.512 65.3496 273.968 65.3496 273.328C65.3496 272.752 65.4936 272.235 65.7816 271.776C66.0696 271.307 66.4962 270.939 67.0616 270.672C67.6376 270.395 68.3309 270.256 69.1416 270.256C69.9522 270.256 70.6402 270.395 71.2056 270.672C71.7816 270.939 72.2136 271.307 72.5016 271.776C72.8002 272.235 72.9496 272.752 72.9496 273.328C72.9496 273.947 72.7842 274.491 72.4536 274.96C72.1229 275.419 71.6696 275.76 71.0936 275.984C71.7549 276.187 72.2776 276.544 72.6616 277.056C73.0562 277.557 73.2536 278.165 73.2536 278.88C73.2536 279.573 73.0829 280.181 72.7416 280.704C72.4002 281.216 71.9149 281.616 71.2856 281.904C70.6669 282.181 69.9522 282.32 69.1416 282.32C68.3309 282.32 67.6162 282.181 66.9976 281.904C66.3896 281.616 65.9149 281.216 65.5736 280.704C65.2322 280.181 65.0616 279.573 65.0616 278.88C65.0616 278.165 65.2536 277.552 65.6376 277.04C66.0216 276.528 66.5442 276.176 67.2056 275.984ZM71.5416 273.504C71.5416 272.853 71.3282 272.352 70.9016 272C70.4749 271.648 69.8882 271.472 69.1416 271.472C68.4056 271.472 67.8242 271.648 67.3976 272C66.9709 272.352 66.7576 272.859 66.7576 273.52C66.7576 274.117 66.9762 274.597 67.4136 274.96C67.8616 275.323 68.4376 275.504 69.1416 275.504C69.8562 275.504 70.4322 275.323 70.8696 274.96C71.3176 274.587 71.5416 274.101 71.5416 273.504ZM69.1416 276.624C68.3522 276.624 67.7069 276.811 67.2056 277.184C66.7042 277.547 66.4536 278.096 66.4536 278.832C66.4536 279.515 66.6936 280.064 67.1736 280.48C67.6642 280.896 68.3202 281.104 69.1416 281.104C69.9629 281.104 70.6136 280.896 71.0936 280.48C71.5736 280.064 71.8136 279.515 71.8136 278.832C71.8136 278.117 71.5682 277.573 71.0776 277.2C70.5869 276.816 69.9416 276.624 69.1416 276.624ZM82.5633 271.696H76.9473V275.344C77.1926 275.003 77.5553 274.725 78.0353 274.512C78.5153 274.288 79.0326 274.176 79.5873 274.176C80.4726 274.176 81.1926 274.363 81.7473 274.736C82.302 275.099 82.6966 275.573 82.9313 276.16C83.1766 276.736 83.2993 277.349 83.2993 278C83.2993 278.768 83.1553 279.456 82.8673 280.064C82.5793 280.672 82.1366 281.152 81.5393 281.504C80.9526 281.856 80.222 282.032 79.3473 282.032C78.2273 282.032 77.3206 281.744 76.6273 281.168C75.934 280.592 75.5126 279.824 75.3633 278.864H76.7873C76.926 279.472 77.2193 279.947 77.6673 280.288C78.1153 280.629 78.6806 280.8 79.3633 280.8C80.206 280.8 80.8406 280.549 81.2673 280.048C81.694 279.536 81.9073 278.864 81.9073 278.032C81.9073 277.2 81.694 276.56 81.2673 276.112C80.8406 275.653 80.2113 275.424 79.3793 275.424C78.814 275.424 78.318 275.563 77.8913 275.84C77.4753 276.107 77.1713 276.475 76.9793 276.944H75.6033V270.416H82.5633V271.696ZM96.6198 271.568L92.1718 282H90.6998L95.2118 271.712H89.0358V270.464H96.6198V271.568ZM105.354 271.568L100.906 282H99.4342L103.946 271.712H97.7702V270.464H105.354V271.568ZM108.841 278.896C108.947 279.504 109.193 279.973 109.577 280.304C109.971 280.635 110.499 280.8 111.161 280.8C112.046 280.8 112.697 280.453 113.113 279.76C113.539 279.067 113.742 277.899 113.721 276.256C113.497 276.736 113.123 277.115 112.601 277.392C112.078 277.659 111.497 277.792 110.857 277.792C110.142 277.792 109.502 277.648 108.937 277.36C108.382 277.061 107.945 276.629 107.625 276.064C107.305 275.499 107.145 274.816 107.145 274.016C107.145 272.875 107.475 271.957 108.137 271.264C108.798 270.56 109.737 270.208 110.953 270.208C112.446 270.208 113.491 270.693 114.089 271.664C114.697 272.635 115.001 274.08 115.001 276C115.001 277.344 114.878 278.453 114.633 279.328C114.398 280.203 113.993 280.869 113.417 281.328C112.851 281.787 112.073 282.016 111.081 282.016C109.993 282.016 109.145 281.723 108.537 281.136C107.929 280.549 107.582 279.803 107.497 278.896H108.841ZM111.097 276.56C111.811 276.56 112.398 276.341 112.857 275.904C113.315 275.456 113.545 274.853 113.545 274.096C113.545 273.296 113.321 272.651 112.873 272.16C112.425 271.669 111.795 271.424 110.985 271.424C110.238 271.424 109.641 271.659 109.193 272.128C108.755 272.597 108.537 273.216 108.537 273.984C108.537 274.763 108.755 275.387 109.193 275.856C109.63 276.325 110.265 276.56 111.097 276.56ZM120.96 279.424V278.32L126.576 270.544H128.32V278.16H129.92V279.424H128.32V282H126.88V279.424H120.96ZM126.944 272.064L122.64 278.16H126.944V272.064ZM138.751 271.696H133.135V275.344C133.38 275.003 133.743 274.725 134.223 274.512C134.703 274.288 135.22 274.176 135.775 274.176C136.66 274.176 137.38 274.363 137.935 274.736C138.489 275.099 138.884 275.573 139.119 276.16C139.364 276.736 139.487 277.349 139.487 278C139.487 278.768 139.343 279.456 139.055 280.064C138.767 280.672 138.324 281.152 137.727 281.504C137.14 281.856 136.409 282.032 135.535 282.032C134.415 282.032 133.508 281.744 132.815 281.168C132.121 280.592 131.7 279.824 131.551 278.864H132.975C133.113 279.472 133.407 279.947 133.855 280.288C134.303 280.629 134.868 280.8 135.551 280.8C136.393 280.8 137.028 280.549 137.455 280.048C137.881 279.536 138.095 278.864 138.095 278.032C138.095 277.2 137.881 276.56 137.455 276.112C137.028 275.653 136.399 275.424 135.567 275.424C135.001 275.424 134.505 275.563 134.079 275.84C133.663 276.107 133.359 276.475 133.167 276.944H131.791V270.416H138.751V271.696ZM148.542 271.568L144.094 282H142.622L147.134 271.712H140.958V270.464H148.542V271.568ZM152.268 275.984C151.671 275.749 151.212 275.408 150.892 274.96C150.572 274.512 150.412 273.968 150.412 273.328C150.412 272.752 150.556 272.235 150.844 271.776C151.132 271.307 151.559 270.939 152.124 270.672C152.7 270.395 153.393 270.256 154.204 270.256C155.015 270.256 155.703 270.395 156.268 270.672C156.844 270.939 157.276 271.307 157.564 271.776C157.863 272.235 158.012 272.752 158.012 273.328C158.012 273.947 157.847 274.491 157.516 274.96C157.185 275.419 156.732 275.76 156.156 275.984C156.817 276.187 157.34 276.544 157.724 277.056C158.119 277.557 158.316 278.165 158.316 278.88C158.316 279.573 158.145 280.181 157.804 280.704C157.463 281.216 156.977 281.616 156.348 281.904C155.729 282.181 155.015 282.32 154.204 282.32C153.393 282.32 152.679 282.181 152.06 281.904C151.452 281.616 150.977 281.216 150.636 280.704C150.295 280.181 150.124 279.573 150.124 278.88C150.124 278.165 150.316 277.552 150.7 277.04C151.084 276.528 151.607 276.176 152.268 275.984ZM156.604 273.504C156.604 272.853 156.391 272.352 155.964 272C155.537 271.648 154.951 271.472 154.204 271.472C153.468 271.472 152.887 271.648 152.46 272C152.033 272.352 151.82 272.859 151.82 273.52C151.82 274.117 152.039 274.597 152.476 274.96C152.924 275.323 153.5 275.504 154.204 275.504C154.919 275.504 155.495 275.323 155.932 274.96C156.38 274.587 156.604 274.101 156.604 273.504ZM154.204 276.624C153.415 276.624 152.769 276.811 152.268 277.184C151.767 277.547 151.516 278.096 151.516 278.832C151.516 279.515 151.756 280.064 152.236 280.48C152.727 280.896 153.383 281.104 154.204 281.104C155.025 281.104 155.676 280.896 156.156 280.48C156.636 280.064 156.876 279.515 156.876 278.832C156.876 278.117 156.631 277.573 156.14 277.2C155.649 276.816 155.004 276.624 154.204 276.624ZM14.9769 299.808C14.6996 299.808 14.4649 299.712 14.2729 299.52C14.0916 299.328 14.0009 299.093 14.0009 298.816C14.0009 298.539 14.0916 298.304 14.2729 298.112C14.4649 297.92 14.6996 297.824 14.9769 297.824C15.2543 297.824 15.4836 297.92 15.6649 298.112C15.8569 298.304 15.9529 298.539 15.9529 298.816C15.9529 299.093 15.8569 299.328 15.6649 299.52C15.4836 299.712 15.2543 299.808 14.9769 299.808ZM15.6969 311.904C15.6969 312.683 15.4996 313.253 15.1049 313.616C14.7103 313.979 14.1343 314.16 13.3769 314.16H12.5289V312.928H13.1369C13.5423 312.928 13.8249 312.848 13.9849 312.688C14.1556 312.528 14.2409 312.256 14.2409 311.872V301.232H15.6969V311.904ZM17.6177 305.584C17.6177 304.688 17.799 303.904 18.1617 303.232C18.5244 302.549 19.0204 302.021 19.6497 301.648C20.2897 301.275 20.999 301.088 21.7777 301.088C22.5457 301.088 23.2124 301.253 23.7777 301.584C24.343 301.915 24.7644 302.331 25.0417 302.832V301.232H26.5137V310H25.0417V308.368C24.7537 308.88 24.3217 309.307 23.7457 309.648C23.1804 309.979 22.519 310.144 21.7617 310.144C20.983 310.144 20.279 309.952 19.6497 309.568C19.0204 309.184 18.5244 308.645 18.1617 307.952C17.799 307.259 17.6177 306.469 17.6177 305.584ZM25.0417 305.6C25.0417 304.939 24.9084 304.363 24.6417 303.872C24.375 303.381 24.0124 303.008 23.5537 302.752C23.1057 302.485 22.6097 302.352 22.0657 302.352C21.5217 302.352 21.0257 302.48 20.5777 302.736C20.1297 302.992 19.7724 303.365 19.5057 303.856C19.239 304.347 19.1057 304.923 19.1057 305.584C19.1057 306.256 19.239 306.843 19.5057 307.344C19.7724 307.835 20.1297 308.213 20.5777 308.48C21.0257 308.736 21.5217 308.864 22.0657 308.864C22.6097 308.864 23.1057 308.736 23.5537 308.48C24.0124 308.213 24.375 307.835 24.6417 307.344C24.9084 306.843 25.0417 306.261 25.0417 305.6ZM33.2462 301.072C34.3129 301.072 35.1769 301.397 35.8382 302.048C36.4995 302.688 36.8302 303.616 36.8302 304.832V310H35.3902V305.04C35.3902 304.165 35.1715 303.499 34.7342 303.04C34.2969 302.571 33.6995 302.336 32.9422 302.336C32.1742 302.336 31.5609 302.576 31.1022 303.056C30.6542 303.536 30.4302 304.235 30.4302 305.152V310H28.9742V301.232H30.4302V302.48C30.7182 302.032 31.1075 301.685 31.5982 301.44C32.0995 301.195 32.6489 301.072 33.2462 301.072ZM47.2086 305.28C47.2086 305.557 47.1926 305.851 47.1606 306.16H40.1526C40.2059 307.024 40.4992 307.701 41.0326 308.192C41.5766 308.672 42.2326 308.912 43.0006 308.912C43.6299 308.912 44.1526 308.768 44.5686 308.48C44.9952 308.181 45.2939 307.787 45.4646 307.296H47.0326C46.7979 308.139 46.3286 308.827 45.6246 309.36C44.9206 309.883 44.0459 310.144 43.0006 310.144C42.1686 310.144 41.4219 309.957 40.7606 309.584C40.1099 309.211 39.5979 308.683 39.2246 308C38.8512 307.307 38.6646 306.507 38.6646 305.6C38.6646 304.693 38.8459 303.899 39.2086 303.216C39.5712 302.533 40.0779 302.011 40.7286 301.648C41.3899 301.275 42.1472 301.088 43.0006 301.088C43.8326 301.088 44.5686 301.269 45.2086 301.632C45.8486 301.995 46.3392 302.496 46.6806 303.136C47.0326 303.765 47.2086 304.48 47.2086 305.28ZM45.7046 304.976C45.7046 304.421 45.5819 303.947 45.3366 303.552C45.0912 303.147 44.7552 302.843 44.3286 302.64C43.9126 302.427 43.4486 302.32 42.9366 302.32C42.2006 302.32 41.5712 302.555 41.0486 303.024C40.5366 303.493 40.2432 304.144 40.1686 304.976H45.7046ZM57.1304 299.744C58.3144 299.744 59.3438 299.968 60.2184 300.416C61.0931 300.864 61.7651 301.493 62.2344 302.304C62.7038 303.104 62.9384 304.032 62.9384 305.088C62.9384 305.931 62.7998 306.741 62.5224 307.52C62.2451 308.288 61.8398 308.912 61.3064 309.392C60.7838 309.872 60.1704 310.112 59.4664 310.112C58.9331 310.112 58.5224 309.979 58.2344 309.712C57.9464 309.445 57.7811 309.083 57.7384 308.624C57.4078 309.083 56.9864 309.445 56.4744 309.712C55.9731 309.979 55.4398 310.112 54.8744 310.112C54.0638 310.112 53.4238 309.867 52.9544 309.376C52.4958 308.875 52.2664 308.203 52.2664 307.36C52.2664 306.56 52.4318 305.813 52.7624 305.12C53.1038 304.427 53.5731 303.872 54.1704 303.456C54.7678 303.029 55.4451 302.816 56.2024 302.816C57.2158 302.816 57.8984 303.2 58.2504 303.968L58.4264 302.976H59.6904L58.8904 307.6C58.8584 307.803 58.8424 307.989 58.8424 308.16C58.8424 308.8 59.1251 309.12 59.6904 309.12C60.1171 309.12 60.4851 308.917 60.7944 308.512C61.1144 308.107 61.3544 307.6 61.5144 306.992C61.6744 306.373 61.7544 305.765 61.7544 305.168C61.7544 303.771 61.3331 302.688 60.4904 301.92C59.6584 301.152 58.4798 300.768 56.9544 300.768C55.6851 300.768 54.5384 301.077 53.5144 301.696C52.5011 302.304 51.7064 303.141 51.1304 304.208C50.5544 305.275 50.2664 306.453 50.2664 307.744C50.2558 309.152 50.6771 310.235 51.5304 310.992C52.3838 311.76 53.5678 312.144 55.0824 312.144C56.0851 312.144 56.9704 311.963 57.7384 311.6L57.9304 312.592C56.9811 312.987 55.9358 313.184 54.7944 313.184C53.6531 313.184 52.6451 312.965 51.7704 312.528C50.9064 312.101 50.2344 311.483 49.7544 310.672C49.2851 309.872 49.0504 308.939 49.0504 307.872C49.0504 306.368 49.3971 304.997 50.0904 303.76C50.7838 302.512 51.7438 301.531 52.9704 300.816C54.2078 300.101 55.5944 299.744 57.1304 299.744ZM55.3064 308.976C55.7864 308.976 56.2291 308.837 56.6344 308.56C57.0398 308.272 57.3598 307.888 57.5944 307.408C57.8291 306.917 57.9464 306.384 57.9464 305.808C57.9464 305.253 57.7918 304.805 57.4824 304.464C57.1838 304.112 56.7571 303.936 56.2024 303.936C55.6904 303.936 55.2371 304.091 54.8424 304.4C54.4584 304.699 54.1598 305.099 53.9464 305.6C53.7331 306.091 53.6264 306.603 53.6264 307.136C53.6264 307.701 53.7704 308.149 54.0584 308.48C54.3464 308.811 54.7624 308.976 55.3064 308.976ZM66.7896 302.848C67.0776 302.347 67.5042 301.931 68.0696 301.6C68.6456 301.259 69.3122 301.088 70.0696 301.088C70.8482 301.088 71.5522 301.275 72.1816 301.648C72.8216 302.021 73.3229 302.549 73.6856 303.232C74.0482 303.904 74.2296 304.688 74.2296 305.584C74.2296 306.469 74.0482 307.259 73.6856 307.952C73.3229 308.645 72.8216 309.184 72.1816 309.568C71.5522 309.952 70.8482 310.144 70.0696 310.144C69.3229 310.144 68.6616 309.979 68.0856 309.648C67.5202 309.307 67.0882 308.885 66.7896 308.384V314.16H65.3336V301.232H66.7896V302.848ZM72.7416 305.584C72.7416 304.923 72.6082 304.347 72.3416 303.856C72.0749 303.365 71.7122 302.992 71.2536 302.736C70.8056 302.48 70.3096 302.352 69.7656 302.352C69.2322 302.352 68.7362 302.485 68.2776 302.752C67.8296 303.008 67.4669 303.387 67.1896 303.888C66.9229 304.379 66.7896 304.949 66.7896 305.6C66.7896 306.261 66.9229 306.843 67.1896 307.344C67.4669 307.835 67.8296 308.213 68.2776 308.48C68.7362 308.736 69.2322 308.864 69.7656 308.864C70.3096 308.864 70.8056 308.736 71.2536 308.48C71.7122 308.213 72.0749 307.835 72.3416 307.344C72.6082 306.843 72.7416 306.256 72.7416 305.584ZM79.2501 310.144C78.5781 310.144 77.9754 310.032 77.4421 309.808C76.9087 309.573 76.4874 309.253 76.1781 308.848C75.8687 308.432 75.6981 307.957 75.6661 307.424H77.1701C77.2127 307.861 77.4154 308.219 77.7781 308.496C78.1514 308.773 78.6367 308.912 79.2341 308.912C79.7887 308.912 80.2261 308.789 80.5461 308.544C80.8661 308.299 81.0261 307.989 81.0261 307.616C81.0261 307.232 80.8554 306.949 80.5141 306.768C80.1727 306.576 79.6447 306.389 78.9301 306.208C78.2794 306.037 77.7461 305.867 77.3301 305.696C76.9247 305.515 76.5727 305.253 76.2741 304.912C75.9861 304.56 75.8421 304.101 75.8421 303.536C75.8421 303.088 75.9754 302.677 76.2421 302.304C76.5087 301.931 76.8874 301.637 77.3781 301.424C77.8687 301.2 78.4287 301.088 79.0581 301.088C80.0287 301.088 80.8127 301.333 81.4101 301.824C82.0074 302.315 82.3274 302.987 82.3701 303.84H80.9141C80.8821 303.381 80.6954 303.013 80.3541 302.736C80.0234 302.459 79.5754 302.32 79.0101 302.32C78.4874 302.32 78.0714 302.432 77.7621 302.656C77.4527 302.88 77.2981 303.173 77.2981 303.536C77.2981 303.824 77.3887 304.064 77.5701 304.256C77.7621 304.437 77.9967 304.587 78.2741 304.704C78.5621 304.811 78.9567 304.933 79.4581 305.072C80.0874 305.243 80.5994 305.413 80.9941 305.584C81.3887 305.744 81.7247 305.989 82.0021 306.32C82.2901 306.651 82.4394 307.083 82.4501 307.616C82.4501 308.096 82.3167 308.528 82.0501 308.912C81.7834 309.296 81.4047 309.6 80.9141 309.824C80.4341 310.037 79.8794 310.144 79.2501 310.144ZM92.0574 301.232L86.7774 314.128H85.2734L87.0014 309.904L83.4654 301.232H85.0814L87.8334 308.336L90.5534 301.232H92.0574ZM92.9771 305.6C92.9771 304.693 93.1584 303.904 93.5211 303.232C93.8837 302.549 94.3851 302.021 95.0251 301.648C95.6757 301.275 96.4171 301.088 97.2491 301.088C98.3264 301.088 99.2117 301.349 99.9051 301.872C100.609 302.395 101.073 303.12 101.297 304.048H99.7291C99.5797 303.515 99.2864 303.093 98.8491 302.784C98.4224 302.475 97.8891 302.32 97.2491 302.32C96.4171 302.32 95.7451 302.608 95.2331 303.184C94.7211 303.749 94.4651 304.555 94.4651 305.6C94.4651 306.656 94.7211 307.472 95.2331 308.048C95.7451 308.624 96.4171 308.912 97.2491 308.912C97.8891 308.912 98.4224 308.763 98.8491 308.464C99.2757 308.165 99.5691 307.739 99.7291 307.184H101.297C101.062 308.08 100.593 308.8 99.8891 309.344C99.1851 309.877 98.3051 310.144 97.2491 310.144C96.4171 310.144 95.6757 309.957 95.0251 309.584C94.3851 309.211 93.8837 308.683 93.5211 308C93.1584 307.317 92.9771 306.517 92.9771 305.6ZM107.592 301.072C108.253 301.072 108.85 301.216 109.384 301.504C109.917 301.781 110.333 302.203 110.632 302.768C110.941 303.333 111.096 304.021 111.096 304.832V310H109.656V305.04C109.656 304.165 109.437 303.499 109 303.04C108.562 302.571 107.965 302.336 107.208 302.336C106.44 302.336 105.826 302.576 105.368 303.056C104.92 303.536 104.696 304.235 104.696 305.152V310H103.24V298.16H104.696V302.48C104.984 302.032 105.378 301.685 105.88 301.44C106.392 301.195 106.962 301.072 107.592 301.072ZM113.938 310.096C113.661 310.096 113.426 310 113.234 309.808C113.042 309.616 112.946 309.381 112.946 309.104C112.946 308.827 113.042 308.592 113.234 308.4C113.426 308.208 113.661 308.112 113.938 308.112C114.205 308.112 114.429 308.208 114.61 308.4C114.802 308.592 114.898 308.827 114.898 309.104C114.898 309.381 114.802 309.616 114.61 309.808C114.429 310 114.205 310.096 113.938 310.096ZM116.29 305.6C116.29 304.693 116.471 303.904 116.834 303.232C117.196 302.549 117.698 302.021 118.338 301.648C118.988 301.275 119.73 301.088 120.562 301.088C121.639 301.088 122.524 301.349 123.218 301.872C123.922 302.395 124.386 303.12 124.61 304.048H123.042C122.892 303.515 122.599 303.093 122.162 302.784C121.735 302.475 121.202 302.32 120.562 302.32C119.73 302.32 119.058 302.608 118.546 303.184C118.034 303.749 117.778 304.555 117.778 305.6C117.778 306.656 118.034 307.472 118.546 308.048C119.058 308.624 119.73 308.912 120.562 308.912C121.202 308.912 121.735 308.763 122.162 308.464C122.588 308.165 122.882 307.739 123.042 307.184H124.61C124.375 308.08 123.906 308.8 123.202 309.344C122.498 309.877 121.618 310.144 120.562 310.144C119.73 310.144 118.988 309.957 118.338 309.584C117.698 309.211 117.196 308.683 116.834 308C116.471 307.317 116.29 306.517 116.29 305.6ZM130.376 310.144C129.555 310.144 128.808 309.957 128.136 309.584C127.475 309.211 126.952 308.683 126.568 308C126.195 307.307 126.008 306.507 126.008 305.6C126.008 304.704 126.2 303.915 126.584 303.232C126.979 302.539 127.512 302.011 128.184 301.648C128.856 301.275 129.608 301.088 130.44 301.088C131.272 301.088 132.024 301.275 132.696 301.648C133.368 302.011 133.896 302.533 134.28 303.216C134.675 303.899 134.872 304.693 134.872 305.6C134.872 306.507 134.67 307.307 134.264 308C133.87 308.683 133.331 309.211 132.648 309.584C131.966 309.957 131.208 310.144 130.376 310.144ZM130.376 308.864C130.899 308.864 131.39 308.741 131.848 308.496C132.307 308.251 132.675 307.883 132.952 307.392C133.24 306.901 133.384 306.304 133.384 305.6C133.384 304.896 133.246 304.299 132.968 303.808C132.691 303.317 132.328 302.955 131.88 302.72C131.432 302.475 130.947 302.352 130.424 302.352C129.891 302.352 129.4 302.475 128.952 302.72C128.515 302.955 128.163 303.317 127.896 303.808C127.63 304.299 127.496 304.896 127.496 305.6C127.496 306.315 127.624 306.917 127.88 307.408C128.147 307.899 128.499 308.267 128.936 308.512C129.374 308.747 129.854 308.864 130.376 308.864ZM147.331 301.072C148.013 301.072 148.621 301.216 149.155 301.504C149.688 301.781 150.109 302.203 150.419 302.768C150.728 303.333 150.883 304.021 150.883 304.832V310H149.443V305.04C149.443 304.165 149.224 303.499 148.787 303.04C148.36 302.571 147.779 302.336 147.043 302.336C146.285 302.336 145.683 302.581 145.235 303.072C144.787 303.552 144.563 304.251 144.563 305.168V310H143.123V305.04C143.123 304.165 142.904 303.499 142.467 303.04C142.04 302.571 141.459 302.336 140.723 302.336C139.965 302.336 139.363 302.581 138.915 303.072C138.467 303.552 138.243 304.251 138.243 305.168V310H136.787V301.232H138.243V302.496C138.531 302.037 138.915 301.685 139.395 301.44C139.885 301.195 140.424 301.072 141.011 301.072C141.747 301.072 142.397 301.237 142.963 301.568C143.528 301.899 143.949 302.384 144.227 303.024C144.472 302.405 144.877 301.925 145.443 301.584C146.008 301.243 146.637 301.072 147.331 301.072Z" fill="black"/>
</svg>
