<svg width="198" height="315" viewBox="0 0 198 315" fill="none" xmlns="http://www.w3.org/2000/svg">
<path d="M17.91 18.72C17.91 19.94 17.63 21.06 17.07 22.08C16.51 23.08 15.65 23.89 14.49 24.51C13.33 25.13 11.89 25.44 10.17 25.44H6.99V33H1.86L1.86 11.94H10.17C11.85 11.94 13.27 12.23 14.43 12.81C15.59 13.39 16.46 14.19 17.04 15.21C17.62 16.23 17.91 17.4 17.91 18.72ZM9.78 21.36C10.76 21.36 11.49 21.13 11.97 20.67C12.45 20.21 12.69 19.56 12.69 18.72C12.69 17.88 12.45 17.23 11.97 16.77C11.49 16.31 10.76 16.08 9.78 16.08H6.99V21.36H9.78ZM27.3907 33.24C25.9307 33.24 24.6307 32.99 23.4907 32.49C22.3507 31.99 21.4507 31.31 20.7907 30.45C20.1307 29.57 19.7607 28.59 19.6807 27.51H24.7507C24.8107 28.09 25.0807 28.56 25.5607 28.92C26.0407 29.28 26.6307 29.46 27.3307 29.46C27.9707 29.46 28.4607 29.34 28.8007 29.1C29.1607 28.84 29.3407 28.51 29.3407 28.11C29.3407 27.63 29.0907 27.28 28.5907 27.06C28.0907 26.82 27.2807 26.56 26.1607 26.28C24.9607 26 23.9607 25.71 23.1607 25.41C22.3607 25.09 21.6707 24.6 21.0907 23.94C20.5107 23.26 20.2207 22.35 20.2207 21.21C20.2207 20.25 20.4807 19.38 21.0007 18.6C21.5407 17.8 22.3207 17.17 23.3407 16.71C24.3807 16.25 25.6107 16.02 27.0307 16.02C29.1307 16.02 30.7807 16.54 31.9807 17.58C33.2007 18.62 33.9007 20 34.0807 21.72H29.3407C29.2607 21.14 29.0007 20.68 28.5607 20.34C28.1407 20 27.5807 19.83 26.8807 19.83C26.2807 19.83 25.8207 19.95 25.5007 20.19C25.1807 20.41 25.0207 20.72 25.0207 21.12C25.0207 21.6 25.2707 21.96 25.7707 22.2C26.2907 22.44 27.0907 22.68 28.1707 22.92C29.4107 23.24 30.4207 23.56 31.2007 23.88C31.9807 24.18 32.6607 24.68 33.2407 25.38C33.8407 26.06 34.1507 26.98 34.1707 28.14C34.1707 29.12 33.8907 30 33.3307 30.78C32.7907 31.54 32.0007 32.14 30.9607 32.58C29.9407 33.02 28.7507 33.24 27.3907 33.24ZM54.4092 16.26L43.9092 40.95H38.3892L42.2292 32.43L35.4192 16.26H41.1492L45.0192 26.73L48.8592 16.26H54.4092ZM55.2443 24.63C55.2443 22.89 55.5943 21.37 56.2943 20.07C57.0143 18.77 58.0043 17.77 59.2643 17.07C60.5443 16.37 62.0043 16.02 63.6443 16.02C65.7443 16.02 67.4943 16.57 68.8943 17.67C70.3143 18.77 71.2443 20.32 71.6843 22.32H66.2243C65.7643 21.04 64.8743 20.4 63.5543 20.4C62.6143 20.4 61.8643 20.77 61.3043 21.51C60.7443 22.23 60.4643 23.27 60.4643 24.63C60.4643 25.99 60.7443 27.04 61.3043 27.78C61.8643 28.5 62.6143 28.86 63.5543 28.86C64.8743 28.86 65.7643 28.22 66.2243 26.94H71.6843C71.2443 28.9 70.3143 30.44 68.8943 31.56C67.4743 32.68 65.7243 33.24 63.6443 33.24C62.0043 33.24 60.5443 32.89 59.2643 32.19C58.0043 31.49 57.0143 30.49 56.2943 29.19C55.5943 27.89 55.2443 26.37 55.2443 24.63ZM84.7184 16.08C86.6384 16.08 88.1784 16.72 89.3384 18C90.4984 19.26 91.0784 21 91.0784 23.22V33H85.9784V23.91C85.9784 22.79 85.6884 21.92 85.1084 21.3C84.5284 20.68 83.7484 20.37 82.7684 20.37C81.7884 20.37 81.0084 20.68 80.4284 21.3C79.8484 21.92 79.5584 22.79 79.5584 23.91V33H74.4284V10.8H79.5584V18.51C80.0784 17.77 80.7884 17.18 81.6884 16.74C82.5884 16.3 83.5984 16.08 84.7184 16.08ZM102.263 33.24C100.623 33.24 99.1432 32.89 97.8232 32.19C96.5232 31.49 95.4932 30.49 94.7332 29.19C93.9932 27.89 93.6232 26.37 93.6232 24.63C93.6232 22.91 94.0032 21.4 94.7632 20.1C95.5232 18.78 96.5632 17.77 97.8832 17.07C99.2032 16.37 100.683 16.02 102.323 16.02C103.963 16.02 105.443 16.37 106.763 17.07C108.083 17.77 109.123 18.78 109.883 20.1C110.643 21.4 111.023 22.91 111.023 24.63C111.023 26.35 110.633 27.87 109.853 29.19C109.093 30.49 108.043 31.49 106.703 32.19C105.383 32.89 103.903 33.24 102.263 33.24ZM102.263 28.8C103.243 28.8 104.073 28.44 104.753 27.72C105.453 27 105.803 25.97 105.803 24.63C105.803 23.29 105.463 22.26 104.783 21.54C104.123 20.82 103.303 20.46 102.323 20.46C101.323 20.46 100.493 20.82 99.8332 21.54C99.1732 22.24 98.8432 23.27 98.8432 24.63C98.8432 25.97 99.1632 27 99.8032 27.72C100.463 28.44 101.283 28.8 102.263 28.8ZM118.875 10.8V33H113.745V10.8H118.875ZM130.212 33.24C128.572 33.24 127.092 32.89 125.772 32.19C124.472 31.49 123.442 30.49 122.682 29.19C121.942 27.89 121.572 26.37 121.572 24.63C121.572 22.91 121.952 21.4 122.712 20.1C123.472 18.78 124.512 17.77 125.832 17.07C127.152 16.37 128.632 16.02 130.272 16.02C131.912 16.02 133.392 16.37 134.712 17.07C136.032 17.77 137.072 18.78 137.832 20.1C138.592 21.4 138.972 22.91 138.972 24.63C138.972 26.35 138.582 27.87 137.802 29.19C137.042 30.49 135.992 31.49 134.652 32.19C133.332 32.89 131.852 33.24 130.212 33.24ZM130.212 28.8C131.192 28.8 132.022 28.44 132.702 27.72C133.402 27 133.752 25.97 133.752 24.63C133.752 23.29 133.412 22.26 132.732 21.54C132.072 20.82 131.252 20.46 130.272 20.46C129.272 20.46 128.442 20.82 127.782 21.54C127.122 22.24 126.792 23.27 126.792 24.63C126.792 25.97 127.112 27 127.752 27.72C128.412 28.44 129.232 28.8 130.212 28.8ZM148.054 16.02C149.234 16.02 150.264 16.26 151.144 16.74C152.044 17.22 152.734 17.85 153.214 18.63V16.26H158.344V32.97C158.344 34.51 158.034 35.9 157.414 37.14C156.814 38.4 155.884 39.4 154.624 40.14C153.384 40.88 151.834 41.25 149.974 41.25C147.494 41.25 145.484 40.66 143.944 39.48C142.404 38.32 141.524 36.74 141.304 34.74H146.374C146.534 35.38 146.914 35.88 147.514 36.24C148.114 36.62 148.854 36.81 149.734 36.81C150.794 36.81 151.634 36.5 152.254 35.88C152.894 35.28 153.214 34.31 153.214 32.97V30.6C152.714 31.38 152.024 32.02 151.144 32.52C150.264 33 149.234 33.24 148.054 33.24C146.674 33.24 145.424 32.89 144.304 32.19C143.184 31.47 142.294 30.46 141.634 29.16C140.994 27.84 140.674 26.32 140.674 24.6C140.674 22.88 140.994 21.37 141.634 20.07C142.294 18.77 143.184 17.77 144.304 17.07C145.424 16.37 146.674 16.02 148.054 16.02ZM153.214 24.63C153.214 23.35 152.854 22.34 152.134 21.6C151.434 20.86 150.574 20.49 149.554 20.49C148.534 20.49 147.664 20.86 146.944 21.6C146.244 22.32 145.894 23.32 145.894 24.6C145.894 25.88 146.244 26.9 146.944 27.66C147.664 28.4 148.534 28.77 149.554 28.77C150.574 28.77 151.434 28.4 152.134 27.66C152.854 26.92 153.214 25.91 153.214 24.63ZM164.635 14.52C163.735 14.52 162.995 14.26 162.415 13.74C161.855 13.2 161.575 12.54 161.575 11.76C161.575 10.96 161.855 10.3 162.415 9.78C162.995 9.24 163.735 8.97 164.635 8.97C165.515 8.97 166.235 9.24 166.795 9.78C167.375 10.3 167.665 10.96 167.665 11.76C167.665 12.54 167.375 13.2 166.795 13.74C166.235 14.26 165.515 14.52 164.635 14.52ZM167.185 16.26V33H162.055V16.26H167.185ZM177.713 33.24C176.253 33.24 174.953 32.99 173.813 32.49C172.673 31.99 171.773 31.31 171.113 30.45C170.453 29.57 170.083 28.59 170.003 27.51H175.073C175.133 28.09 175.403 28.56 175.883 28.92C176.363 29.28 176.953 29.46 177.653 29.46C178.293 29.46 178.783 29.34 179.123 29.1C179.483 28.84 179.663 28.51 179.663 28.11C179.663 27.63 179.413 27.28 178.913 27.06C178.413 26.82 177.603 26.56 176.483 26.28C175.283 26 174.283 25.71 173.483 25.41C172.683 25.09 171.993 24.6 171.413 23.94C170.833 23.26 170.543 22.35 170.543 21.21C170.543 20.25 170.803 19.38 171.323 18.6C171.863 17.8 172.643 17.17 173.663 16.71C174.703 16.25 175.933 16.02 177.353 16.02C179.453 16.02 181.103 16.54 182.303 17.58C183.523 18.62 184.223 20 184.403 21.72H179.663C179.583 21.14 179.323 20.68 178.883 20.34C178.463 20 177.903 19.83 177.203 19.83C176.603 19.83 176.143 19.95 175.823 20.19C175.503 20.41 175.343 20.72 175.343 21.12C175.343 21.6 175.593 21.96 176.093 22.2C176.613 22.44 177.413 22.68 178.493 22.92C179.733 23.24 180.743 23.56 181.523 23.88C182.303 24.18 182.983 24.68 183.563 25.38C184.163 26.06 184.473 26.98 184.493 28.14C184.493 29.12 184.213 30 183.653 30.78C183.113 31.54 182.323 32.14 181.283 32.58C180.263 33.02 179.073 33.24 177.713 33.24ZM196.961 28.65V33H194.351C192.491 33 191.041 32.55 190.001 31.65C188.961 30.73 188.441 29.24 188.441 27.18V20.52H186.401V16.26H188.441V12.18L193.571 12.18V16.26H196.931V20.52H193.571V27.24C193.571 27.74 193.691 28.1 193.931 28.32C194.171 28.54 194.571 28.65 195.131 28.65H196.961Z" fill="black"/>
<path d="M57.0173 79.71V90.732C57.0173 92.096 56.5993 93.174 55.7633 93.966C54.942 94.758 53.8566 95.154 52.5073 95.154C51.158 95.154 50.0653 94.758 49.2293 93.966C48.408 93.174 47.9973 92.096 47.9973 90.732H50.5273C50.542 91.4067 50.7106 91.942 51.0333 92.338C51.3706 92.734 51.862 92.932 52.5073 92.932C53.1526 92.932 53.644 92.734 53.9813 92.338C54.3186 91.9273 54.4873 91.392 54.4873 90.732V79.71H57.0173ZM66.3553 95.198C65.2113 95.198 64.1773 94.9413 63.2533 94.428C62.3293 93.9 61.6033 93.1667 61.0753 92.228C60.5473 91.2747 60.2833 90.1747 60.2833 88.928C60.2833 87.696 60.5546 86.6033 61.0973 85.65C61.6399 84.6967 62.3806 83.9633 63.3193 83.45C64.2579 82.9367 65.3066 82.68 66.4653 82.68C67.6239 82.68 68.6726 82.9367 69.6113 83.45C70.5499 83.9633 71.2906 84.6967 71.8333 85.65C72.3759 86.6033 72.6473 87.696 72.6473 88.928C72.6473 90.16 72.3686 91.2527 71.8113 92.206C71.2539 93.1593 70.4913 93.9 69.5233 94.428C68.5699 94.9413 67.5139 95.198 66.3553 95.198ZM66.3553 93.02C67.0006 93.02 67.6019 92.866 68.1593 92.558C68.7313 92.25 69.1933 91.788 69.5453 91.172C69.8973 90.556 70.0733 89.808 70.0733 88.928C70.0733 88.048 69.9046 87.3073 69.5673 86.706C69.2299 86.09 68.7826 85.628 68.2253 85.32C67.6679 85.012 67.0666 84.858 66.4213 84.858C65.7759 84.858 65.1746 85.012 64.6173 85.32C64.0746 85.628 63.6419 86.09 63.3193 86.706C62.9966 87.3073 62.8353 88.048 62.8353 88.928C62.8353 90.2333 63.1653 91.2453 63.8253 91.964C64.4999 92.668 65.3433 93.02 66.3553 93.02ZM81.3966 82.68C82.3206 82.68 83.1419 82.878 83.8606 83.274C84.5939 83.67 85.1659 84.2567 85.5766 85.034C86.0019 85.8113 86.2146 86.75 86.2146 87.85V95H83.7286V88.224C83.7286 87.1387 83.4572 86.31 82.9146 85.738C82.3719 85.1513 81.6312 84.858 80.6926 84.858C79.7539 84.858 79.0059 85.1513 78.4486 85.738C77.9059 86.31 77.6346 87.1387 77.6346 88.224V95H75.1266V78.72H77.6346V84.286C78.0599 83.7727 78.5952 83.3767 79.2406 83.098C79.9006 82.8193 80.6192 82.68 81.3966 82.68ZM95.5297 82.68C96.483 82.68 97.3337 82.878 98.0817 83.274C98.8443 83.67 99.4383 84.2567 99.8637 85.034C100.289 85.8113 100.502 86.75 100.502 87.85V95H98.0157V88.224C98.0157 87.1387 97.7443 86.31 97.2017 85.738C96.659 85.1513 95.9183 84.858 94.9797 84.858C94.041 84.858 93.293 85.1513 92.7357 85.738C92.193 86.31 91.9217 87.1387 91.9217 88.224V95H89.4137V82.878H91.9217V84.264C92.3323 83.7653 92.853 83.3767 93.4837 83.098C94.129 82.8193 94.811 82.68 95.5297 82.68ZM114.41 79.71C116.038 79.71 117.46 80.0253 118.678 80.656C119.91 81.272 120.856 82.1667 121.516 83.34C122.19 84.4987 122.528 85.8553 122.528 87.41C122.528 88.9647 122.19 90.314 121.516 91.458C120.856 92.602 119.91 93.482 118.678 94.098C117.46 94.6993 116.038 95 114.41 95H109.416V79.71H114.41ZM114.41 92.954C116.199 92.954 117.57 92.47 118.524 91.502C119.477 90.534 119.954 89.17 119.954 87.41C119.954 85.6353 119.477 84.2493 118.524 83.252C117.57 82.2547 116.199 81.756 114.41 81.756H111.924V92.954H114.41ZM130.271 95.198C129.127 95.198 128.093 94.9413 127.169 94.428C126.245 93.9 125.519 93.1667 124.991 92.228C124.463 91.2747 124.199 90.1747 124.199 88.928C124.199 87.696 124.471 86.6033 125.013 85.65C125.556 84.6967 126.297 83.9633 127.235 83.45C128.174 82.9367 129.223 82.68 130.381 82.68C131.54 82.68 132.589 82.9367 133.527 83.45C134.466 83.9633 135.207 84.6967 135.749 85.65C136.292 86.6033 136.563 87.696 136.563 88.928C136.563 90.16 136.285 91.2527 135.727 92.206C135.17 93.1593 134.407 93.9 133.439 94.428C132.486 94.9413 131.43 95.198 130.271 95.198ZM130.271 93.02C130.917 93.02 131.518 92.866 132.075 92.558C132.647 92.25 133.109 91.788 133.461 91.172C133.813 90.556 133.989 89.808 133.989 88.928C133.989 88.048 133.821 87.3073 133.483 86.706C133.146 86.09 132.699 85.628 132.141 85.32C131.584 85.012 130.983 84.858 130.337 84.858C129.692 84.858 129.091 85.012 128.533 85.32C127.991 85.628 127.558 86.09 127.235 86.706C126.913 87.3073 126.751 88.048 126.751 88.928C126.751 90.2333 127.081 91.2453 127.741 91.964C128.416 92.668 129.259 93.02 130.271 93.02ZM150.153 88.642C150.153 89.0967 150.123 89.5073 150.065 89.874H140.803C140.876 90.842 141.235 91.6193 141.881 92.206C142.526 92.7927 143.318 93.086 144.257 93.086C145.606 93.086 146.559 92.5213 147.117 91.392H149.823C149.456 92.5067 148.789 93.4233 147.821 94.142C146.867 94.846 145.679 95.198 144.257 95.198C143.098 95.198 142.057 94.9413 141.133 94.428C140.223 93.9 139.505 93.1667 138.977 92.228C138.463 91.2747 138.207 90.1747 138.207 88.928C138.207 87.6813 138.456 86.5887 138.955 85.65C139.468 84.6967 140.179 83.9633 141.089 83.45C142.013 82.9367 143.069 82.68 144.257 82.68C145.401 82.68 146.42 82.9293 147.315 83.428C148.209 83.9267 148.906 84.6307 149.405 85.54C149.903 86.4347 150.153 87.4687 150.153 88.642ZM147.535 87.85C147.52 86.926 147.19 86.1853 146.545 85.628C145.899 85.0707 145.1 84.792 144.147 84.792C143.281 84.792 142.541 85.0707 141.925 85.628C141.309 86.1707 140.942 86.9113 140.825 87.85H147.535ZM58.2953 115.112C58.1353 116.04 57.6819 116.813 56.9353 117.432C56.1886 118.04 55.1699 118.344 53.8793 118.344H51.7353L50.9033 123H49.4473L51.4313 111.848H55.0313C56.1406 111.848 56.9726 112.088 57.5273 112.568C58.0819 113.037 58.3593 113.667 58.3593 114.456C58.3593 114.595 58.3379 114.813 58.2953 115.112ZM54.0873 117.192C54.8873 117.192 55.5113 117.011 55.9593 116.648C56.4073 116.275 56.6899 115.763 56.8073 115.112C56.8393 114.92 56.8553 114.744 56.8553 114.584C56.8553 113.528 56.1779 113 54.8233 113H52.6793L51.9433 117.192H54.0873ZM61.8009 123.144C60.8835 123.144 60.1315 122.925 59.5449 122.488C58.9582 122.051 58.6649 121.464 58.6649 120.728C58.6649 120.589 58.6702 120.488 58.6809 120.424H60.1049C60.0622 120.883 60.1955 121.256 60.5049 121.544C60.8249 121.832 61.2835 121.976 61.8809 121.976C62.4782 121.976 62.9582 121.864 63.3209 121.64C63.6942 121.405 63.8809 121.08 63.8809 120.664C63.8809 120.312 63.7315 120.035 63.4329 119.832C63.1342 119.629 62.6755 119.411 62.0569 119.176C61.5129 118.973 61.0649 118.781 60.7129 118.6C60.3609 118.419 60.0622 118.168 59.8169 117.848C59.5715 117.517 59.4489 117.101 59.4489 116.6C59.4489 116.109 59.5875 115.672 59.8649 115.288C60.1529 114.904 60.5475 114.611 61.0489 114.408C61.5609 114.195 62.1422 114.088 62.7929 114.088C63.6889 114.088 64.4249 114.312 65.0009 114.76C65.5769 115.208 65.8649 115.795 65.8649 116.52C65.8649 116.659 65.8595 116.765 65.8489 116.84H64.4569L64.4729 116.648C64.4729 116.221 64.3075 115.885 63.9769 115.64C63.6569 115.384 63.2302 115.256 62.6969 115.256C62.1742 115.256 61.7422 115.373 61.4009 115.608C61.0702 115.843 60.9049 116.157 60.9049 116.552C60.9049 116.925 61.0595 117.219 61.3689 117.432C61.6782 117.645 62.1582 117.88 62.8089 118.136C63.3529 118.349 63.7902 118.547 64.1209 118.728C64.4515 118.899 64.7342 119.139 64.9689 119.448C65.2035 119.757 65.3209 120.147 65.3209 120.616C65.3209 121.128 65.1662 121.576 64.8569 121.96C64.5582 122.344 64.1422 122.637 63.6089 122.84C63.0755 123.043 62.4729 123.144 61.8009 123.144ZM69.2003 114.232L70.6883 121.304L74.6723 114.232H76.1763L68.6243 127.128H67.1043L69.5843 122.904L67.5843 114.232H69.2003ZM76.3119 118.6C76.4719 117.693 76.7919 116.904 77.2719 116.232C77.7625 115.549 78.3652 115.021 79.0799 114.648C79.7945 114.275 80.5679 114.088 81.3999 114.088C82.4772 114.088 83.3145 114.349 83.9119 114.872C84.5199 115.395 84.8559 116.12 84.9199 117.048H83.3519C83.2985 116.515 83.0799 116.093 82.6959 115.784C82.3225 115.475 81.8159 115.32 81.1759 115.32C80.3439 115.32 79.6185 115.608 78.9999 116.184C78.3919 116.749 77.9972 117.555 77.8159 118.6C77.7625 118.952 77.7359 119.245 77.7359 119.48C77.7359 120.259 77.9439 120.861 78.3599 121.288C78.7759 121.704 79.3305 121.912 80.0239 121.912C80.6639 121.912 81.2185 121.763 81.6879 121.464C82.1679 121.165 82.5359 120.739 82.7919 120.184H84.3599C83.9759 121.08 83.3839 121.8 82.5839 122.344C81.7839 122.877 80.8559 123.144 79.7999 123.144C78.7012 123.144 77.8265 122.829 77.1759 122.2C76.5359 121.571 76.2159 120.712 76.2159 119.624C76.2159 119.293 76.2479 118.952 76.3119 118.6ZM91.7426 114.072C92.6173 114.072 93.3213 114.317 93.8546 114.808C94.388 115.288 94.6546 115.987 94.6546 116.904C94.6546 117.245 94.628 117.555 94.5746 117.832L93.6626 123H92.2226L93.1026 118.04C93.1453 117.816 93.1666 117.581 93.1666 117.336C93.1666 116.685 92.9853 116.189 92.6226 115.848C92.2706 115.507 91.7746 115.336 91.1346 115.336C90.3666 115.336 89.7106 115.576 89.1666 116.056C88.6333 116.536 88.2866 117.235 88.1266 118.152V118.12L87.2626 123H85.8066L87.9026 111.16H89.3586L88.5906 115.496C88.9533 115.048 89.412 114.701 89.9666 114.456C90.532 114.2 91.124 114.072 91.7426 114.072ZM99.897 123.144C99.161 123.144 98.5103 122.995 97.945 122.696C97.3903 122.387 96.9583 121.96 96.649 121.416C96.3397 120.861 96.185 120.221 96.185 119.496C96.185 118.504 96.4143 117.597 96.873 116.776C97.3317 115.944 97.961 115.288 98.761 114.808C99.5717 114.328 100.473 114.088 101.465 114.088C102.201 114.088 102.852 114.243 103.417 114.552C103.993 114.851 104.436 115.277 104.745 115.832C105.065 116.376 105.225 117.016 105.225 117.752C105.225 118.744 104.99 119.651 104.521 120.472C104.052 121.293 103.412 121.944 102.601 122.424C101.79 122.904 100.889 123.144 99.897 123.144ZM100.073 121.912C100.766 121.912 101.39 121.725 101.945 121.352C102.5 120.968 102.932 120.467 103.241 119.848C103.561 119.219 103.721 118.547 103.721 117.832C103.721 117.021 103.486 116.403 103.017 115.976C102.548 115.539 101.961 115.32 101.257 115.32C100.564 115.32 99.945 115.512 99.401 115.896C98.857 116.269 98.4357 116.771 98.137 117.4C97.8383 118.029 97.689 118.707 97.689 119.432C97.689 120.221 97.913 120.835 98.361 121.272C98.809 121.699 99.3797 121.912 100.073 121.912ZM109.827 111.16L107.731 123H106.275L108.371 111.16H109.827ZM114.069 123.144C113.333 123.144 112.682 122.995 112.117 122.696C111.562 122.387 111.13 121.96 110.821 121.416C110.512 120.861 110.357 120.221 110.357 119.496C110.357 118.504 110.586 117.597 111.045 116.776C111.504 115.944 112.133 115.288 112.933 114.808C113.744 114.328 114.645 114.088 115.637 114.088C116.373 114.088 117.024 114.243 117.589 114.552C118.165 114.851 118.608 115.277 118.917 115.832C119.237 116.376 119.397 117.016 119.397 117.752C119.397 118.744 119.162 119.651 118.693 120.472C118.224 121.293 117.584 121.944 116.773 122.424C115.962 122.904 115.061 123.144 114.069 123.144ZM114.245 121.912C114.938 121.912 115.562 121.725 116.117 121.352C116.672 120.968 117.104 120.467 117.413 119.848C117.733 119.219 117.893 118.547 117.893 117.832C117.893 117.021 117.658 116.403 117.189 115.976C116.72 115.539 116.133 115.32 115.429 115.32C114.736 115.32 114.117 115.512 113.573 115.896C113.029 116.269 112.608 116.771 112.309 117.4C112.01 118.029 111.861 118.707 111.861 119.432C111.861 120.221 112.085 120.835 112.533 121.272C112.981 121.699 113.552 121.912 114.245 121.912ZM125.647 114.088C126.405 114.088 127.039 114.253 127.551 114.584C128.063 114.915 128.41 115.331 128.591 115.832L128.879 114.232H130.351L128.767 123.192C128.629 123.992 128.33 124.701 127.871 125.32C127.423 125.949 126.853 126.44 126.159 126.792C125.466 127.144 124.698 127.32 123.855 127.32C122.703 127.32 121.791 127.043 121.119 126.488C120.447 125.944 120.122 125.208 120.143 124.28H121.599C121.663 124.813 121.914 125.24 122.351 125.56C122.799 125.891 123.375 126.056 124.079 126.056C124.879 126.056 125.578 125.805 126.175 125.304C126.773 124.803 127.151 124.099 127.311 123.192L127.631 121.352C127.247 121.864 126.741 122.291 126.111 122.632C125.493 122.973 124.805 123.144 124.047 123.144C123.365 123.144 122.762 123 122.239 122.712C121.717 122.413 121.306 121.992 121.007 121.448C120.719 120.904 120.575 120.275 120.575 119.56C120.575 119.24 120.607 118.915 120.671 118.584C120.831 117.688 121.151 116.904 121.631 116.232C122.122 115.549 122.714 115.021 123.407 114.648C124.111 114.275 124.858 114.088 125.647 114.088ZM128.111 118.6C128.154 118.376 128.175 118.136 128.175 117.88C128.175 117.101 127.941 116.488 127.471 116.04C127.013 115.581 126.426 115.352 125.711 115.352C125.167 115.352 124.645 115.48 124.143 115.736C123.653 115.992 123.231 116.365 122.879 116.856C122.527 117.347 122.293 117.923 122.175 118.584C122.133 118.808 122.111 119.053 122.111 119.32C122.111 120.109 122.341 120.733 122.799 121.192C123.258 121.64 123.845 121.864 124.559 121.864C125.103 121.864 125.621 121.736 126.111 121.48C126.613 121.213 127.039 120.835 127.391 120.344C127.754 119.843 127.994 119.261 128.111 118.6ZM133.804 112.808C133.569 112.808 133.372 112.733 133.212 112.584C133.062 112.424 132.988 112.227 132.988 111.992C132.988 111.672 133.105 111.4 133.34 111.176C133.574 110.941 133.846 110.824 134.156 110.824C134.401 110.824 134.598 110.899 134.748 111.048C134.897 111.197 134.972 111.395 134.972 111.64C134.972 111.96 134.854 112.237 134.62 112.472C134.385 112.696 134.113 112.808 133.804 112.808ZM134.268 114.232L132.716 123H131.26L132.812 114.232H134.268ZM138.285 123.144C137.368 123.144 136.616 122.925 136.029 122.488C135.443 122.051 135.149 121.464 135.149 120.728C135.149 120.589 135.155 120.488 135.165 120.424H136.589C136.547 120.883 136.68 121.256 136.989 121.544C137.309 121.832 137.768 121.976 138.365 121.976C138.963 121.976 139.443 121.864 139.805 121.64C140.179 121.405 140.365 121.08 140.365 120.664C140.365 120.312 140.216 120.035 139.917 119.832C139.619 119.629 139.16 119.411 138.541 119.176C137.997 118.973 137.549 118.781 137.197 118.6C136.845 118.419 136.547 118.168 136.301 117.848C136.056 117.517 135.933 117.101 135.933 116.6C135.933 116.109 136.072 115.672 136.349 115.288C136.637 114.904 137.032 114.611 137.533 114.408C138.045 114.195 138.627 114.088 139.277 114.088C140.173 114.088 140.909 114.312 141.485 114.76C142.061 115.208 142.349 115.795 142.349 116.52C142.349 116.659 142.344 116.765 142.333 116.84H140.941L140.957 116.648C140.957 116.221 140.792 115.885 140.461 115.64C140.141 115.384 139.715 115.256 139.181 115.256C138.659 115.256 138.227 115.373 137.885 115.608C137.555 115.843 137.389 116.157 137.389 116.552C137.389 116.925 137.544 117.219 137.853 117.432C138.163 117.645 138.643 117.88 139.293 118.136C139.837 118.349 140.275 118.547 140.605 118.728C140.936 118.899 141.219 119.139 141.453 119.448C141.688 119.757 141.805 120.147 141.805 120.616C141.805 121.128 141.651 121.576 141.341 121.96C141.043 122.344 140.627 122.637 140.093 122.84C139.56 123.043 138.957 123.144 138.285 123.144ZM145.765 120.6C145.733 120.76 145.717 120.899 145.717 121.016C145.717 121.283 145.797 121.475 145.957 121.592C146.127 121.709 146.399 121.768 146.773 121.768H147.845L147.621 123H146.309C145.615 123 145.093 122.867 144.741 122.6C144.399 122.333 144.229 121.896 144.229 121.288C144.229 121.053 144.25 120.824 144.293 120.6L145.205 115.432H144.085L144.293 114.232H145.429L145.813 112.024H147.285L146.901 114.232H149.173L148.965 115.432H146.677L145.765 120.6ZM29.101 153.976C28.077 152.973 27.277 151.699 26.701 150.152C26.1357 148.605 25.853 146.936 25.853 145.144C25.853 143.309 26.1517 141.597 26.749 140.008C27.357 138.408 28.221 137.091 29.341 136.056H30.861V136.2C29.6663 137.32 28.765 138.669 28.157 140.248C27.5597 141.816 27.261 143.448 27.261 145.144C27.261 146.797 27.5437 148.376 28.109 149.88C28.685 151.384 29.5223 152.701 30.621 153.832V153.976H29.101ZM32.3506 142.344C32.4253 141.363 32.804 140.595 33.4866 140.04C34.1693 139.485 35.0546 139.208 36.1426 139.208C36.868 139.208 37.492 139.341 38.0146 139.608C38.548 139.864 38.948 140.216 39.2146 140.664C39.492 141.112 39.6306 141.619 39.6306 142.184C39.6306 142.845 39.4386 143.416 39.0546 143.896C38.6813 144.376 38.1906 144.685 37.5826 144.824V144.904C38.276 145.075 38.8253 145.411 39.2306 145.912C39.636 146.413 39.8386 147.069 39.8386 147.88C39.8386 148.488 39.7 149.037 39.4226 149.528C39.1453 150.008 38.7293 150.387 38.1746 150.664C37.62 150.941 36.9533 151.08 36.1746 151.08C35.044 151.08 34.116 150.787 33.3906 150.2C32.6653 149.603 32.26 148.76 32.1746 147.672H33.5826C33.6573 148.312 33.9186 148.835 34.3666 149.24C34.8146 149.645 35.412 149.848 36.1586 149.848C36.9053 149.848 37.4706 149.656 37.8546 149.272C38.2493 148.877 38.4466 148.371 38.4466 147.752C38.4466 146.952 38.18 146.376 37.6466 146.024C37.1133 145.672 36.308 145.496 35.2306 145.496H34.8626V144.28H35.2466C36.228 144.269 36.9693 144.109 37.4706 143.8C37.972 143.48 38.2226 142.989 38.2226 142.328C38.2226 141.763 38.036 141.309 37.6626 140.968C37.3 140.627 36.7773 140.456 36.0946 140.456C35.4333 140.456 34.9 140.627 34.4946 140.968C34.0893 141.309 33.8493 141.768 33.7746 142.344H32.3506ZM41.8045 145.096C41.8045 143.261 42.1032 141.832 42.7005 140.808C43.2978 139.773 44.3432 139.256 45.8365 139.256C47.3192 139.256 48.3592 139.773 48.9565 140.808C49.5538 141.832 49.8525 143.261 49.8525 145.096C49.8525 146.963 49.5538 148.413 48.9565 149.448C48.3592 150.483 47.3192 151 45.8365 151C44.3432 151 43.2978 150.483 42.7005 149.448C42.1032 148.413 41.8045 146.963 41.8045 145.096ZM48.4125 145.096C48.4125 144.168 48.3485 143.384 48.2205 142.744C48.1032 142.093 47.8525 141.571 47.4685 141.176C47.0952 140.781 46.5512 140.584 45.8365 140.584C45.1112 140.584 44.5565 140.781 44.1725 141.176C43.7992 141.571 43.5485 142.093 43.4205 142.744C43.3032 143.384 43.2445 144.168 43.2445 145.096C43.2445 146.056 43.3032 146.861 43.4205 147.512C43.5485 148.163 43.7992 148.685 44.1725 149.08C44.5565 149.475 45.1112 149.672 45.8365 149.672C46.5512 149.672 47.0952 149.475 47.4685 149.08C47.8525 148.685 48.1032 148.163 48.2205 147.512C48.3485 146.861 48.4125 146.056 48.4125 145.096ZM59.2274 140.696H53.6114V144.344C53.8567 144.003 54.2194 143.725 54.6994 143.512C55.1794 143.288 55.6967 143.176 56.2514 143.176C57.1367 143.176 57.8567 143.363 58.4114 143.736C58.966 144.099 59.3607 144.573 59.5954 145.16C59.8407 145.736 59.9634 146.349 59.9634 147C59.9634 147.768 59.8194 148.456 59.5314 149.064C59.2434 149.672 58.8007 150.152 58.2034 150.504C57.6167 150.856 56.886 151.032 56.0114 151.032C54.8914 151.032 53.9847 150.744 53.2914 150.168C52.598 149.592 52.1767 148.824 52.0274 147.864H53.4514C53.59 148.472 53.8834 148.947 54.3314 149.288C54.7794 149.629 55.3447 149.8 56.0274 149.8C56.87 149.8 57.5047 149.549 57.9314 149.048C58.358 148.536 58.5714 147.864 58.5714 147.032C58.5714 146.2 58.358 145.56 57.9314 145.112C57.5047 144.653 56.8754 144.424 56.0434 144.424C55.478 144.424 54.982 144.563 54.5554 144.84C54.1394 145.107 53.8354 145.475 53.6434 145.944H52.2674V139.416H59.2274V140.696ZM61.6743 153.976V153.832C62.7729 152.701 63.6049 151.384 64.1703 149.88C64.7463 148.376 65.0343 146.797 65.0343 145.144C65.0343 143.448 64.7303 141.816 64.1223 140.248C63.5249 138.669 62.6289 137.32 61.4342 136.2V136.056H62.9543C64.0743 137.091 64.9329 138.408 65.5303 140.008C66.1383 141.597 66.4423 143.309 66.4423 145.144C66.4423 146.936 66.1543 148.605 65.5783 150.152C65.0129 151.699 64.2183 152.973 63.1943 153.976H61.6743ZM80.8055 140.696H75.1895V144.344C75.4348 144.003 75.7975 143.725 76.2775 143.512C76.7575 143.288 77.2748 143.176 77.8295 143.176C78.7148 143.176 79.4348 143.363 79.9895 143.736C80.5442 144.099 80.9388 144.573 81.1735 145.16C81.4188 145.736 81.5415 146.349 81.5415 147C81.5415 147.768 81.3975 148.456 81.1095 149.064C80.8215 149.672 80.3788 150.152 79.7815 150.504C79.1948 150.856 78.4642 151.032 77.5895 151.032C76.4695 151.032 75.5628 150.744 74.8695 150.168C74.1762 149.592 73.7548 148.824 73.6055 147.864H75.0295C75.1682 148.472 75.4615 148.947 75.9095 149.288C76.3575 149.629 76.9228 149.8 77.6055 149.8C78.4482 149.8 79.0828 149.549 79.5095 149.048C79.9362 148.536 80.1495 147.864 80.1495 147.032C80.1495 146.2 79.9362 145.56 79.5095 145.112C79.0828 144.653 78.4535 144.424 77.6215 144.424C77.0562 144.424 76.5602 144.563 76.1335 144.84C75.7175 145.107 75.4135 145.475 75.2215 145.944H73.8455V139.416H80.8055V140.696ZM85.5884 144.984C84.991 144.749 84.5324 144.408 84.2124 143.96C83.8924 143.512 83.7324 142.968 83.7324 142.328C83.7324 141.752 83.8764 141.235 84.1644 140.776C84.4524 140.307 84.879 139.939 85.4444 139.672C86.0204 139.395 86.7137 139.256 87.5244 139.256C88.335 139.256 89.023 139.395 89.5884 139.672C90.1644 139.939 90.5964 140.307 90.8844 140.776C91.183 141.235 91.3324 141.752 91.3324 142.328C91.3324 142.947 91.167 143.491 90.8364 143.96C90.5057 144.419 90.0524 144.76 89.4764 144.984C90.1377 145.187 90.6604 145.544 91.0444 146.056C91.439 146.557 91.6364 147.165 91.6364 147.88C91.6364 148.573 91.4657 149.181 91.1244 149.704C90.783 150.216 90.2977 150.616 89.6684 150.904C89.0497 151.181 88.335 151.32 87.5244 151.32C86.7137 151.32 85.999 151.181 85.3804 150.904C84.7724 150.616 84.2977 150.216 83.9564 149.704C83.615 149.181 83.4444 148.573 83.4444 147.88C83.4444 147.165 83.6364 146.552 84.0204 146.04C84.4044 145.528 84.927 145.176 85.5884 144.984ZM89.9244 142.504C89.9244 141.853 89.711 141.352 89.2844 141C88.8577 140.648 88.271 140.472 87.5244 140.472C86.7884 140.472 86.207 140.648 85.7804 141C85.3537 141.352 85.1404 141.859 85.1404 142.52C85.1404 143.117 85.359 143.597 85.7964 143.96C86.2444 144.323 86.8204 144.504 87.5244 144.504C88.239 144.504 88.815 144.323 89.2524 143.96C89.7004 143.587 89.9244 143.101 89.9244 142.504ZM87.5244 145.624C86.735 145.624 86.0897 145.811 85.5884 146.184C85.087 146.547 84.8364 147.096 84.8364 147.832C84.8364 148.515 85.0764 149.064 85.5564 149.48C86.047 149.896 86.703 150.104 87.5244 150.104C88.3457 150.104 88.9964 149.896 89.4764 149.48C89.9564 149.064 90.1964 148.515 90.1964 147.832C90.1964 147.117 89.951 146.573 89.4604 146.2C88.9697 145.816 88.3244 145.624 87.5244 145.624ZM93.2181 148.424V147.32L98.8341 139.544H100.578V147.16H102.178V148.424H100.578V151H99.1381V148.424H93.2181ZM99.2021 141.064L94.8981 147.16H99.2021V141.064ZM115.018 140.568L110.57 151H109.098L113.61 140.712H107.434V139.464H115.018V140.568ZM118.745 144.984C118.147 144.749 117.689 144.408 117.369 143.96C117.049 143.512 116.889 142.968 116.889 142.328C116.889 141.752 117.033 141.235 117.321 140.776C117.609 140.307 118.035 139.939 118.601 139.672C119.177 139.395 119.87 139.256 120.681 139.256C121.491 139.256 122.179 139.395 122.745 139.672C123.321 139.939 123.753 140.307 124.041 140.776C124.339 141.235 124.489 141.752 124.489 142.328C124.489 142.947 124.323 143.491 123.993 143.96C123.662 144.419 123.209 144.76 122.633 144.984C123.294 145.187 123.817 145.544 124.201 146.056C124.595 146.557 124.793 147.165 124.793 147.88C124.793 148.573 124.622 149.181 124.281 149.704C123.939 150.216 123.454 150.616 122.825 150.904C122.206 151.181 121.491 151.32 120.681 151.32C119.87 151.32 119.155 151.181 118.537 150.904C117.929 150.616 117.454 150.216 117.113 149.704C116.771 149.181 116.601 148.573 116.601 147.88C116.601 147.165 116.793 146.552 117.177 146.04C117.561 145.528 118.083 145.176 118.745 144.984ZM123.081 142.504C123.081 141.853 122.867 141.352 122.441 141C122.014 140.648 121.427 140.472 120.681 140.472C119.945 140.472 119.363 140.648 118.937 141C118.51 141.352 118.297 141.859 118.297 142.52C118.297 143.117 118.515 143.597 118.953 143.96C119.401 144.323 119.977 144.504 120.681 144.504C121.395 144.504 121.971 144.323 122.409 143.96C122.857 143.587 123.081 143.101 123.081 142.504ZM120.681 145.624C119.891 145.624 119.246 145.811 118.745 146.184C118.243 146.547 117.993 147.096 117.993 147.832C117.993 148.515 118.233 149.064 118.713 149.48C119.203 149.896 119.859 150.104 120.681 150.104C121.502 150.104 122.153 149.896 122.633 149.48C123.113 149.064 123.353 148.515 123.353 147.832C123.353 147.117 123.107 146.573 122.617 146.2C122.126 145.816 121.481 145.624 120.681 145.624ZM128.598 147.896C128.705 148.504 128.95 148.973 129.334 149.304C129.729 149.635 130.257 149.8 130.918 149.8C131.804 149.8 132.454 149.453 132.87 148.76C133.297 148.067 133.5 146.899 133.478 145.256C133.254 145.736 132.881 146.115 132.358 146.392C131.836 146.659 131.254 146.792 130.614 146.792C129.9 146.792 129.26 146.648 128.694 146.36C128.14 146.061 127.702 145.629 127.382 145.064C127.062 144.499 126.902 143.816 126.902 143.016C126.902 141.875 127.233 140.957 127.894 140.264C128.556 139.56 129.494 139.208 130.71 139.208C132.204 139.208 133.249 139.693 133.846 140.664C134.454 141.635 134.758 143.08 134.758 145C134.758 146.344 134.636 147.453 134.39 148.328C134.156 149.203 133.75 149.869 133.174 150.328C132.609 150.787 131.83 151.016 130.838 151.016C129.75 151.016 128.902 150.723 128.294 150.136C127.686 149.549 127.34 148.803 127.254 147.896H128.598ZM130.854 145.56C131.569 145.56 132.156 145.341 132.614 144.904C133.073 144.456 133.302 143.853 133.302 143.096C133.302 142.296 133.078 141.651 132.63 141.16C132.182 140.669 131.553 140.424 130.742 140.424C129.996 140.424 129.398 140.659 128.95 141.128C128.513 141.597 128.294 142.216 128.294 142.984C128.294 143.763 128.513 144.387 128.95 144.856C129.388 145.325 130.022 145.56 130.854 145.56ZM141.038 142.344C141.113 141.363 141.491 140.595 142.174 140.04C142.857 139.485 143.742 139.208 144.83 139.208C145.555 139.208 146.179 139.341 146.702 139.608C147.235 139.864 147.635 140.216 147.902 140.664C148.179 141.112 148.318 141.619 148.318 142.184C148.318 142.845 148.126 143.416 147.742 143.896C147.369 144.376 146.878 144.685 146.27 144.824V144.904C146.963 145.075 147.513 145.411 147.918 145.912C148.323 146.413 148.526 147.069 148.526 147.88C148.526 148.488 148.387 149.037 148.11 149.528C147.833 150.008 147.417 150.387 146.862 150.664C146.307 150.941 145.641 151.08 144.862 151.08C143.731 151.08 142.803 150.787 142.078 150.2C141.353 149.603 140.947 148.76 140.862 147.672H142.27C142.345 148.312 142.606 148.835 143.054 149.24C143.502 149.645 144.099 149.848 144.846 149.848C145.593 149.848 146.158 149.656 146.542 149.272C146.937 148.877 147.134 148.371 147.134 147.752C147.134 146.952 146.867 146.376 146.334 146.024C145.801 145.672 144.995 145.496 143.918 145.496H143.55V144.28H143.934C144.915 144.269 145.657 144.109 146.158 143.8C146.659 143.48 146.91 142.989 146.91 142.328C146.91 141.763 146.723 141.309 146.35 140.968C145.987 140.627 145.465 140.456 144.782 140.456C144.121 140.456 143.587 140.627 143.182 140.968C142.777 141.309 142.537 141.768 142.462 142.344H141.038ZM157.868 140.696H152.252V144.344C152.497 144.003 152.86 143.725 153.34 143.512C153.82 143.288 154.337 143.176 154.892 143.176C155.777 143.176 156.497 143.363 157.052 143.736C157.607 144.099 158.001 144.573 158.236 145.16C158.481 145.736 158.604 146.349 158.604 147C158.604 147.768 158.46 148.456 158.172 149.064C157.884 149.672 157.441 150.152 156.844 150.504C156.257 150.856 155.527 151.032 154.652 151.032C153.532 151.032 152.625 150.744 151.932 150.168C151.239 149.592 150.817 148.824 150.668 147.864H152.092C152.231 148.472 152.524 148.947 152.972 149.288C153.42 149.629 153.985 149.8 154.668 149.8C155.511 149.8 156.145 149.549 156.572 149.048C156.999 148.536 157.212 147.864 157.212 147.032C157.212 146.2 156.999 145.56 156.572 145.112C156.145 144.653 155.516 144.424 154.684 144.424C154.119 144.424 153.623 144.563 153.196 144.84C152.78 145.107 152.476 145.475 152.284 145.944H150.908V139.416H157.868V140.696ZM160.363 149.832C161.718 148.744 162.779 147.853 163.547 147.16C164.315 146.456 164.96 145.725 165.483 144.968C166.016 144.2 166.283 143.448 166.283 142.712C166.283 142.019 166.112 141.475 165.771 141.08C165.44 140.675 164.902 140.472 164.155 140.472C163.43 140.472 162.864 140.701 162.459 141.16C162.064 141.608 161.851 142.211 161.819 142.968H160.411C160.454 141.773 160.816 140.851 161.499 140.2C162.182 139.549 163.062 139.224 164.139 139.224C165.238 139.224 166.107 139.528 166.747 140.136C167.398 140.744 167.723 141.581 167.723 142.648C167.723 143.533 167.456 144.397 166.923 145.24C166.4 146.072 165.803 146.808 165.131 147.448C164.459 148.077 163.6 148.813 162.555 149.656H168.059V150.872H160.363V149.832ZM169.358 140.76V139.432H172.366V151H170.894V140.76H169.358ZM31.6098 168.808C31.3324 168.808 31.0978 168.712 30.9058 168.52C30.7244 168.328 30.6338 168.093 30.6338 167.816C30.6338 167.539 30.7244 167.304 30.9058 167.112C31.0978 166.92 31.3324 166.824 31.6098 166.824C31.8871 166.824 32.1164 166.92 32.2978 167.112C32.4898 167.304 32.5858 167.539 32.5858 167.816C32.5858 168.093 32.4898 168.328 32.2978 168.52C32.1164 168.712 31.8871 168.808 31.6098 168.808ZM32.3298 180.904C32.3298 181.683 32.1324 182.253 31.7378 182.616C31.3431 182.979 30.7671 183.16 30.0098 183.16H29.1617V181.928H29.7698C30.1751 181.928 30.4578 181.848 30.6178 181.688C30.7884 181.528 30.8738 181.256 30.8738 180.872V170.232H32.3298V180.904ZM38.6185 179.144C37.7972 179.144 37.0505 178.957 36.3785 178.584C35.7172 178.211 35.1945 177.683 34.8105 177C34.4372 176.307 34.2505 175.507 34.2505 174.6C34.2505 173.704 34.4425 172.915 34.8265 172.232C35.2212 171.539 35.7545 171.011 36.4265 170.648C37.0985 170.275 37.8505 170.088 38.6825 170.088C39.5145 170.088 40.2665 170.275 40.9385 170.648C41.6105 171.011 42.1385 171.533 42.5225 172.216C42.9172 172.899 43.1145 173.693 43.1145 174.6C43.1145 175.507 42.9118 176.307 42.5065 177C42.1118 177.683 41.5732 178.211 40.8905 178.584C40.2078 178.957 39.4505 179.144 38.6185 179.144ZM38.6185 177.864C39.1412 177.864 39.6318 177.741 40.0905 177.496C40.5492 177.251 40.9172 176.883 41.1945 176.392C41.4825 175.901 41.6265 175.304 41.6265 174.6C41.6265 173.896 41.4878 173.299 41.2105 172.808C40.9332 172.317 40.5705 171.955 40.1225 171.72C39.6745 171.475 39.1892 171.352 38.6665 171.352C38.1332 171.352 37.6425 171.475 37.1945 171.72C36.7572 171.955 36.4052 172.317 36.1385 172.808C35.8718 173.299 35.7385 173.896 35.7385 174.6C35.7385 175.315 35.8665 175.917 36.1225 176.408C36.3892 176.899 36.7412 177.267 37.1785 177.512C37.6158 177.747 38.0958 177.864 38.6185 177.864ZM49.3809 170.072C50.0422 170.072 50.6395 170.216 51.1729 170.504C51.7062 170.781 52.1222 171.203 52.4209 171.768C52.7302 172.333 52.8849 173.021 52.8849 173.832V179H51.4449V174.04C51.4449 173.165 51.2262 172.499 50.7889 172.04C50.3515 171.571 49.7542 171.336 48.9969 171.336C48.2289 171.336 47.6155 171.576 47.1569 172.056C46.7089 172.536 46.4849 173.235 46.4849 174.152V179H45.0289V167.16H46.4849V171.48C46.7729 171.032 47.1675 170.685 47.6689 170.44C48.1809 170.195 48.7515 170.072 49.3809 170.072ZM59.5353 170.072C60.6019 170.072 61.4659 170.397 62.1273 171.048C62.7886 171.688 63.1193 172.616 63.1193 173.832V179H61.6793V174.04C61.6793 173.165 61.4606 172.499 61.0233 172.04C60.5859 171.571 59.9886 171.336 59.2313 171.336C58.4633 171.336 57.8499 171.576 57.3913 172.056C56.9433 172.536 56.7193 173.235 56.7193 174.152V179H55.2633V170.232H56.7193V171.48C57.0073 171.032 57.3966 170.685 57.8873 170.44C58.3886 170.195 58.9379 170.072 59.5353 170.072ZM73.4976 168.744C74.6816 168.744 75.711 168.968 76.5856 169.416C77.4603 169.864 78.1323 170.493 78.6016 171.304C79.071 172.104 79.3056 173.032 79.3056 174.088C79.3056 174.931 79.167 175.741 78.8896 176.52C78.6123 177.288 78.207 177.912 77.6736 178.392C77.151 178.872 76.5376 179.112 75.8336 179.112C75.3003 179.112 74.8896 178.979 74.6016 178.712C74.3136 178.445 74.1483 178.083 74.1056 177.624C73.775 178.083 73.3536 178.445 72.8416 178.712C72.3403 178.979 71.807 179.112 71.2416 179.112C70.431 179.112 69.791 178.867 69.3216 178.376C68.863 177.875 68.6336 177.203 68.6336 176.36C68.6336 175.56 68.799 174.813 69.1296 174.12C69.471 173.427 69.9403 172.872 70.5376 172.456C71.135 172.029 71.8123 171.816 72.5696 171.816C73.583 171.816 74.2656 172.2 74.6176 172.968L74.7936 171.976H76.0576L75.2576 176.6C75.2256 176.803 75.2096 176.989 75.2096 177.16C75.2096 177.8 75.4923 178.12 76.0576 178.12C76.4843 178.12 76.8523 177.917 77.1616 177.512C77.4816 177.107 77.7216 176.6 77.8816 175.992C78.0416 175.373 78.1216 174.765 78.1216 174.168C78.1216 172.771 77.7003 171.688 76.8576 170.92C76.0256 170.152 74.847 169.768 73.3216 169.768C72.0523 169.768 70.9056 170.077 69.8816 170.696C68.8683 171.304 68.0736 172.141 67.4976 173.208C66.9216 174.275 66.6336 175.453 66.6336 176.744C66.623 178.152 67.0443 179.235 67.8976 179.992C68.751 180.76 69.935 181.144 71.4496 181.144C72.4523 181.144 73.3376 180.963 74.1056 180.6L74.2976 181.592C73.3483 181.987 72.303 182.184 71.1616 182.184C70.0203 182.184 69.0123 181.965 68.1376 181.528C67.2736 181.101 66.6016 180.483 66.1216 179.672C65.6523 178.872 65.4176 177.939 65.4176 176.872C65.4176 175.368 65.7643 173.997 66.4576 172.76C67.151 171.512 68.111 170.531 69.3376 169.816C70.575 169.101 71.9616 168.744 73.4976 168.744ZM71.6736 177.976C72.1536 177.976 72.5963 177.837 73.0016 177.56C73.407 177.272 73.727 176.888 73.9616 176.408C74.1963 175.917 74.3136 175.384 74.3136 174.808C74.3136 174.253 74.159 173.805 73.8496 173.464C73.551 173.112 73.1243 172.936 72.5696 172.936C72.0576 172.936 71.6043 173.091 71.2096 173.4C70.8256 173.699 70.527 174.099 70.3136 174.6C70.1003 175.091 69.9936 175.603 69.9936 176.136C69.9936 176.701 70.1376 177.149 70.4256 177.48C70.7136 177.811 71.1296 177.976 71.6736 177.976ZM83.1568 171.848C83.4448 171.347 83.8714 170.931 84.4368 170.6C85.0128 170.259 85.6794 170.088 86.4368 170.088C87.2154 170.088 87.9194 170.275 88.5487 170.648C89.1887 171.021 89.6901 171.549 90.0528 172.232C90.4154 172.904 90.5968 173.688 90.5968 174.584C90.5968 175.469 90.4154 176.259 90.0528 176.952C89.6901 177.645 89.1887 178.184 88.5487 178.568C87.9194 178.952 87.2154 179.144 86.4368 179.144C85.6901 179.144 85.0288 178.979 84.4528 178.648C83.8874 178.307 83.4554 177.885 83.1568 177.384V183.16H81.7008V170.232H83.1568V171.848ZM89.1088 174.584C89.1088 173.923 88.9754 173.347 88.7088 172.856C88.4421 172.365 88.0794 171.992 87.6208 171.736C87.1728 171.48 86.6768 171.352 86.1328 171.352C85.5994 171.352 85.1034 171.485 84.6448 171.752C84.1968 172.008 83.8341 172.387 83.5568 172.888C83.2901 173.379 83.1568 173.949 83.1568 174.6C83.1568 175.261 83.2901 175.843 83.5568 176.344C83.8341 176.835 84.1968 177.213 84.6448 177.48C85.1034 177.736 85.5994 177.864 86.1328 177.864C86.6768 177.864 87.1728 177.736 87.6208 177.48C88.0794 177.213 88.4421 176.835 88.7088 176.344C88.9754 175.843 89.1088 175.256 89.1088 174.584ZM95.6173 179.144C94.9453 179.144 94.3426 179.032 93.8093 178.808C93.2759 178.573 92.8546 178.253 92.5453 177.848C92.2359 177.432 92.0653 176.957 92.0333 176.424H93.5373C93.5799 176.861 93.7826 177.219 94.1453 177.496C94.5186 177.773 95.0039 177.912 95.6013 177.912C96.1559 177.912 96.5933 177.789 96.9133 177.544C97.2333 177.299 97.3933 176.989 97.3933 176.616C97.3933 176.232 97.2226 175.949 96.8813 175.768C96.5399 175.576 96.0119 175.389 95.2973 175.208C94.6466 175.037 94.1133 174.867 93.6973 174.696C93.2919 174.515 92.9399 174.253 92.6413 173.912C92.3533 173.56 92.2093 173.101 92.2093 172.536C92.2093 172.088 92.3426 171.677 92.6093 171.304C92.8759 170.931 93.2546 170.637 93.7453 170.424C94.2359 170.2 94.7959 170.088 95.4253 170.088C96.3959 170.088 97.1799 170.333 97.7773 170.824C98.3746 171.315 98.6946 171.987 98.7373 172.84H97.2813C97.2493 172.381 97.0626 172.013 96.7213 171.736C96.3906 171.459 95.9426 171.32 95.3773 171.32C94.8546 171.32 94.4386 171.432 94.1293 171.656C93.8199 171.88 93.6653 172.173 93.6653 172.536C93.6653 172.824 93.7559 173.064 93.9373 173.256C94.1293 173.437 94.3639 173.587 94.6413 173.704C94.9293 173.811 95.3239 173.933 95.8253 174.072C96.4546 174.243 96.9666 174.413 97.3613 174.584C97.7559 174.744 98.0919 174.989 98.3693 175.32C98.6573 175.651 98.8066 176.083 98.8173 176.616C98.8173 177.096 98.6839 177.528 98.4173 177.912C98.1506 178.296 97.7719 178.6 97.2813 178.824C96.8013 179.037 96.2466 179.144 95.6173 179.144ZM108.425 170.232L103.145 183.128H101.641L103.369 178.904L99.8326 170.232H101.449L104.201 177.336L106.921 170.232H108.425ZM109.344 174.6C109.344 173.693 109.526 172.904 109.888 172.232C110.251 171.549 110.752 171.021 111.392 170.648C112.043 170.275 112.784 170.088 113.616 170.088C114.694 170.088 115.579 170.349 116.272 170.872C116.976 171.395 117.44 172.12 117.664 173.048H116.096C115.947 172.515 115.654 172.093 115.216 171.784C114.79 171.475 114.256 171.32 113.616 171.32C112.784 171.32 112.112 171.608 111.6 172.184C111.088 172.749 110.832 173.555 110.832 174.6C110.832 175.656 111.088 176.472 111.6 177.048C112.112 177.624 112.784 177.912 113.616 177.912C114.256 177.912 114.79 177.763 115.216 177.464C115.643 177.165 115.936 176.739 116.096 176.184H117.664C117.43 177.08 116.96 177.8 116.256 178.344C115.552 178.877 114.672 179.144 113.616 179.144C112.784 179.144 112.043 178.957 111.392 178.584C110.752 178.211 110.251 177.683 109.888 177C109.526 176.317 109.344 175.517 109.344 174.6ZM123.959 170.072C124.62 170.072 125.218 170.216 125.751 170.504C126.284 170.781 126.7 171.203 126.999 171.768C127.308 172.333 127.463 173.021 127.463 173.832V179H126.023V174.04C126.023 173.165 125.804 172.499 125.367 172.04C124.93 171.571 124.332 171.336 123.575 171.336C122.807 171.336 122.194 171.576 121.735 172.056C121.287 172.536 121.063 173.235 121.063 174.152V179H119.607V167.16H121.063V171.48C121.351 171.032 121.746 170.685 122.247 170.44C122.759 170.195 123.33 170.072 123.959 170.072ZM130.305 179.096C130.028 179.096 129.793 179 129.601 178.808C129.409 178.616 129.313 178.381 129.313 178.104C129.313 177.827 129.409 177.592 129.601 177.4C129.793 177.208 130.028 177.112 130.305 177.112C130.572 177.112 130.796 177.208 130.977 177.4C131.169 177.592 131.265 177.827 131.265 178.104C131.265 178.381 131.169 178.616 130.977 178.808C130.796 179 130.572 179.096 130.305 179.096ZM132.657 174.6C132.657 173.693 132.838 172.904 133.201 172.232C133.563 171.549 134.065 171.021 134.705 170.648C135.355 170.275 136.097 170.088 136.929 170.088C138.006 170.088 138.891 170.349 139.585 170.872C140.289 171.395 140.753 172.12 140.977 173.048H139.409C139.259 172.515 138.966 172.093 138.529 171.784C138.102 171.475 137.569 171.32 136.929 171.32C136.097 171.32 135.425 171.608 134.913 172.184C134.401 172.749 134.145 173.555 134.145 174.6C134.145 175.656 134.401 176.472 134.913 177.048C135.425 177.624 136.097 177.912 136.929 177.912C137.569 177.912 138.102 177.763 138.529 177.464C138.955 177.165 139.249 176.739 139.409 176.184H140.977C140.742 177.08 140.273 177.8 139.569 178.344C138.865 178.877 137.985 179.144 136.929 179.144C136.097 179.144 135.355 178.957 134.705 178.584C134.065 178.211 133.563 177.683 133.201 177C132.838 176.317 132.657 175.517 132.657 174.6ZM146.744 179.144C145.922 179.144 145.176 178.957 144.504 178.584C143.842 178.211 143.32 177.683 142.936 177C142.562 176.307 142.376 175.507 142.376 174.6C142.376 173.704 142.568 172.915 142.952 172.232C143.346 171.539 143.88 171.011 144.552 170.648C145.224 170.275 145.976 170.088 146.808 170.088C147.64 170.088 148.392 170.275 149.064 170.648C149.736 171.011 150.264 171.533 150.648 172.216C151.042 172.899 151.24 173.693 151.24 174.6C151.24 175.507 151.037 176.307 150.632 177C150.237 177.683 149.698 178.211 149.016 178.584C148.333 178.957 147.576 179.144 146.744 179.144ZM146.744 177.864C147.266 177.864 147.757 177.741 148.216 177.496C148.674 177.251 149.042 176.883 149.32 176.392C149.608 175.901 149.752 175.304 149.752 174.6C149.752 173.896 149.613 173.299 149.336 172.808C149.058 172.317 148.696 171.955 148.248 171.72C147.8 171.475 147.314 171.352 146.792 171.352C146.258 171.352 145.768 171.475 145.32 171.72C144.882 171.955 144.53 172.317 144.264 172.808C143.997 173.299 143.864 173.896 143.864 174.6C143.864 175.315 143.992 175.917 144.248 176.408C144.514 176.899 144.866 177.267 145.304 177.512C145.741 177.747 146.221 177.864 146.744 177.864ZM163.698 170.072C164.381 170.072 164.989 170.216 165.522 170.504C166.055 170.781 166.477 171.203 166.786 171.768C167.095 172.333 167.25 173.021 167.25 173.832V179H165.81V174.04C165.81 173.165 165.591 172.499 165.154 172.04C164.727 171.571 164.146 171.336 163.41 171.336C162.653 171.336 162.05 171.581 161.602 172.072C161.154 172.552 160.93 173.251 160.93 174.168V179H159.49V174.04C159.49 173.165 159.271 172.499 158.834 172.04C158.407 171.571 157.826 171.336 157.09 171.336C156.333 171.336 155.73 171.581 155.282 172.072C154.834 172.552 154.61 173.251 154.61 174.168V179H153.154V170.232H154.61V171.496C154.898 171.037 155.282 170.685 155.762 170.44C156.253 170.195 156.791 170.072 157.378 170.072C158.114 170.072 158.765 170.237 159.33 170.568C159.895 170.899 160.317 171.384 160.594 172.024C160.839 171.405 161.245 170.925 161.81 170.584C162.375 170.243 163.005 170.072 163.698 170.072Z" fill="black"/>
<path d="M56.4314 210.71V221.732C56.4314 223.096 56.0134 224.174 55.1774 224.966C54.356 225.758 53.2707 226.154 51.9214 226.154C50.572 226.154 49.4794 225.758 48.6434 224.966C47.822 224.174 47.4114 223.096 47.4114 221.732H49.9414C49.956 222.407 50.1247 222.942 50.4474 223.338C50.7847 223.734 51.276 223.932 51.9214 223.932C52.5667 223.932 53.058 223.734 53.3954 223.338C53.7327 222.927 53.9014 222.392 53.9014 221.732V210.71H56.4314ZM59.6753 219.884C59.6753 218.667 59.9247 217.589 60.4233 216.65C60.9367 215.711 61.626 214.985 62.4913 214.472C63.3713 213.944 64.3393 213.68 65.3953 213.68C66.3487 213.68 67.1773 213.871 67.8813 214.252C68.6 214.619 69.172 215.081 69.5973 215.638V213.878H72.1273V226H69.5973V224.196C69.172 224.768 68.5927 225.245 67.8593 225.626C67.126 226.007 66.29 226.198 65.3513 226.198C64.31 226.198 63.3567 225.934 62.4913 225.406C61.626 224.863 60.9367 224.115 60.4233 223.162C59.9247 222.194 59.6753 221.101 59.6753 219.884ZM69.5973 219.928C69.5973 219.092 69.4213 218.366 69.0693 217.75C68.732 217.134 68.2847 216.665 67.7273 216.342C67.17 216.019 66.5687 215.858 65.9233 215.858C65.278 215.858 64.6767 216.019 64.1193 216.342C63.562 216.65 63.1073 217.112 62.7553 217.728C62.418 218.329 62.2493 219.048 62.2493 219.884C62.2493 220.72 62.418 221.453 62.7553 222.084C63.1073 222.715 63.562 223.199 64.1193 223.536C64.6913 223.859 65.2927 224.02 65.9233 224.02C66.5687 224.02 67.17 223.859 67.7273 223.536C68.2847 223.213 68.732 222.744 69.0693 222.128C69.4213 221.497 69.5973 220.764 69.5973 219.928ZM81.5375 213.68C82.4908 213.68 83.3415 213.878 84.0895 214.274C84.8522 214.67 85.4462 215.257 85.8715 216.034C86.2968 216.811 86.5095 217.75 86.5095 218.85V226H84.0235V219.224C84.0235 218.139 83.7522 217.31 83.2095 216.738C82.6668 216.151 81.9262 215.858 80.9875 215.858C80.0488 215.858 79.3008 216.151 78.7435 216.738C78.2008 217.31 77.9295 218.139 77.9295 219.224V226H75.4215V213.878H77.9295V215.264C78.3402 214.765 78.8608 214.377 79.4915 214.098C80.1368 213.819 80.8188 213.68 81.5375 213.68ZM100.819 219.642C100.819 220.097 100.789 220.507 100.731 220.874H91.4686C91.5419 221.842 91.9013 222.619 92.5466 223.206C93.1919 223.793 93.9839 224.086 94.9226 224.086C96.2719 224.086 97.2253 223.521 97.7826 222.392H100.489C100.122 223.507 99.4546 224.423 98.4866 225.142C97.5333 225.846 96.3453 226.198 94.9226 226.198C93.7639 226.198 92.7226 225.941 91.7986 225.428C90.8893 224.9 90.1706 224.167 89.6426 223.228C89.1293 222.275 88.8726 221.175 88.8726 219.928C88.8726 218.681 89.1219 217.589 89.6206 216.65C90.1339 215.697 90.8453 214.963 91.7546 214.45C92.6786 213.937 93.7346 213.68 94.9226 213.68C96.0666 213.68 97.0859 213.929 97.9806 214.428C98.8753 214.927 99.5719 215.631 100.071 216.54C100.569 217.435 100.819 218.469 100.819 219.642ZM98.2006 218.85C98.1859 217.926 97.8559 217.185 97.2106 216.628C96.5653 216.071 95.7659 215.792 94.8126 215.792C93.9473 215.792 93.2066 216.071 92.5906 216.628C91.9746 217.171 91.6079 217.911 91.4906 218.85H98.2006ZM113.996 210.71C115.624 210.71 117.046 211.025 118.264 211.656C119.496 212.272 120.442 213.167 121.102 214.34C121.776 215.499 122.114 216.855 122.114 218.41C122.114 219.965 121.776 221.314 121.102 222.458C120.442 223.602 119.496 224.482 118.264 225.098C117.046 225.699 115.624 226 113.996 226H109.002V210.71H113.996ZM113.996 223.954C115.785 223.954 117.156 223.47 118.11 222.502C119.063 221.534 119.54 220.17 119.54 218.41C119.54 216.635 119.063 215.249 118.11 214.252C117.156 213.255 115.785 212.756 113.996 212.756H111.51V223.954H113.996ZM129.857 226.198C128.713 226.198 127.679 225.941 126.755 225.428C125.831 224.9 125.105 224.167 124.577 223.228C124.049 222.275 123.785 221.175 123.785 219.928C123.785 218.696 124.057 217.603 124.599 216.65C125.142 215.697 125.883 214.963 126.821 214.45C127.76 213.937 128.809 213.68 129.967 213.68C131.126 213.68 132.175 213.937 133.113 214.45C134.052 214.963 134.793 215.697 135.335 216.65C135.878 217.603 136.149 218.696 136.149 219.928C136.149 221.16 135.871 222.253 135.313 223.206C134.756 224.159 133.993 224.9 133.025 225.428C132.072 225.941 131.016 226.198 129.857 226.198ZM129.857 224.02C130.503 224.02 131.104 223.866 131.661 223.558C132.233 223.25 132.695 222.788 133.047 222.172C133.399 221.556 133.575 220.808 133.575 219.928C133.575 219.048 133.407 218.307 133.069 217.706C132.732 217.09 132.285 216.628 131.727 216.32C131.17 216.012 130.569 215.858 129.923 215.858C129.278 215.858 128.677 216.012 128.119 216.32C127.577 216.628 127.144 217.09 126.821 217.706C126.499 218.307 126.337 219.048 126.337 219.928C126.337 221.233 126.667 222.245 127.327 222.964C128.002 223.668 128.845 224.02 129.857 224.02ZM149.739 219.642C149.739 220.097 149.709 220.507 149.651 220.874H140.389C140.462 221.842 140.821 222.619 141.467 223.206C142.112 223.793 142.904 224.086 143.843 224.086C145.192 224.086 146.145 223.521 146.703 222.392H149.409C149.042 223.507 148.375 224.423 147.407 225.142C146.453 225.846 145.265 226.198 143.843 226.198C142.684 226.198 141.643 225.941 140.719 225.428C139.809 224.9 139.091 224.167 138.563 223.228C138.049 222.275 137.793 221.175 137.793 219.928C137.793 218.681 138.042 217.589 138.541 216.65C139.054 215.697 139.765 214.963 140.675 214.45C141.599 213.937 142.655 213.68 143.843 213.68C144.987 213.68 146.006 213.929 146.901 214.428C147.795 214.927 148.492 215.631 148.991 216.54C149.489 217.435 149.739 218.469 149.739 219.642ZM147.121 218.85C147.106 217.926 146.776 217.185 146.131 216.628C145.485 216.071 144.686 215.792 143.733 215.792C142.867 215.792 142.127 216.071 141.511 216.628C140.895 217.171 140.528 217.911 140.411 218.85H147.121ZM17.5749 248.416C17.7669 247.328 18.1829 246.352 18.8229 245.488C19.4736 244.613 20.2629 243.931 21.1909 243.44C22.1296 242.949 23.1109 242.704 24.1349 242.704C25.3509 242.704 26.3589 242.997 27.1589 243.584C27.9696 244.171 28.4923 245.003 28.7269 246.08H26.9829C26.7909 245.429 26.4336 244.928 25.9109 244.576C25.3883 244.213 24.7216 244.032 23.9109 244.032C23.1323 244.032 22.4016 244.213 21.7189 244.576C21.0469 244.928 20.4763 245.44 20.0069 246.112C19.5376 246.773 19.2229 247.541 19.0629 248.416C19.0096 248.693 18.9829 249.013 18.9829 249.376C18.9829 250.421 19.2869 251.253 19.8949 251.872C20.5136 252.48 21.3349 252.784 22.3589 252.784C23.1696 252.784 23.9003 252.608 24.5509 252.256C25.2016 251.904 25.7349 251.403 26.1509 250.752H27.8949C27.2869 251.819 26.4763 252.645 25.4629 253.232C24.4603 253.808 23.3509 254.096 22.1349 254.096C21.2283 254.096 20.4229 253.909 19.7189 253.536C19.0149 253.152 18.4656 252.619 18.0709 251.936C17.6763 251.243 17.4789 250.448 17.4789 249.552C17.4789 249.179 17.5109 248.8 17.5749 248.416ZM33.0383 242.16L30.9423 254H29.4863L31.5823 242.16H33.0383ZM35.9678 243.808C35.7331 243.808 35.5358 243.733 35.3758 243.584C35.2265 243.424 35.1518 243.227 35.1518 242.992C35.1518 242.672 35.2691 242.4 35.5038 242.176C35.7385 241.941 36.0105 241.824 36.3198 241.824C36.5651 241.824 36.7625 241.899 36.9118 242.048C37.0611 242.197 37.1358 242.395 37.1358 242.64C37.1358 242.96 37.0185 243.237 36.7838 243.472C36.5491 243.696 36.2771 243.808 35.9678 243.808ZM36.4318 245.232L34.8798 254H33.4238L34.9758 245.232H36.4318ZM43.2173 245.072C44.124 245.072 44.8493 245.317 45.3933 245.808C45.9373 246.288 46.2093 246.992 46.2093 247.92C46.2093 248.261 46.1826 248.565 46.1293 248.832L45.2173 254H43.7773L44.6573 249.04C44.7 248.816 44.7213 248.581 44.7213 248.336C44.7213 247.685 44.54 247.189 44.1773 246.848C43.8253 246.507 43.3293 246.336 42.6893 246.336C41.9213 246.336 41.2653 246.576 40.7213 247.056C40.188 247.536 39.8413 248.235 39.6813 249.152V249.12L38.8173 254H37.3613L38.9133 245.232H40.3693L40.1453 246.496C40.508 246.037 40.9613 245.685 41.5053 245.44C42.0493 245.195 42.62 245.072 43.2173 245.072ZM50.1397 243.808C49.905 243.808 49.7077 243.733 49.5477 243.584C49.3984 243.424 49.3237 243.227 49.3237 242.992C49.3237 242.672 49.441 242.4 49.6757 242.176C49.9104 241.941 50.1824 241.824 50.4917 241.824C50.737 241.824 50.9344 241.899 51.0837 242.048C51.233 242.197 51.3077 242.395 51.3077 242.64C51.3077 242.96 51.1904 243.237 50.9557 243.472C50.721 243.696 50.449 243.808 50.1397 243.808ZM50.6037 245.232L49.0517 254H47.5957L49.1477 245.232H50.6037ZM51.7572 249.6C51.9172 248.693 52.2372 247.904 52.7172 247.232C53.2079 246.549 53.8105 246.021 54.5252 245.648C55.2399 245.275 56.0132 245.088 56.8452 245.088C57.9225 245.088 58.7599 245.349 59.3572 245.872C59.9652 246.395 60.3012 247.12 60.3652 248.048H58.7972C58.7439 247.515 58.5252 247.093 58.1412 246.784C57.7679 246.475 57.2612 246.32 56.6212 246.32C55.7892 246.32 55.0639 246.608 54.4452 247.184C53.8372 247.749 53.4425 248.555 53.2612 249.6C53.2079 249.952 53.1812 250.245 53.1812 250.48C53.1812 251.259 53.3892 251.861 53.8052 252.288C54.2212 252.704 54.7759 252.912 55.4692 252.912C56.1092 252.912 56.6639 252.763 57.1332 252.464C57.6132 252.165 57.9812 251.739 58.2372 251.184H59.8052C59.4212 252.08 58.8292 252.8 58.0292 253.344C57.2292 253.877 56.3012 254.144 55.2452 254.144C54.1465 254.144 53.2719 253.829 52.6212 253.2C51.9812 252.571 51.6612 251.712 51.6612 250.624C51.6612 250.293 51.6932 249.952 51.7572 249.6ZM61.4759 249.584C61.6359 248.688 61.9559 247.904 62.4359 247.232C62.9266 246.549 63.5186 246.021 64.2119 245.648C64.9159 245.275 65.6626 245.088 66.4519 245.088C67.2199 245.088 67.8546 245.253 68.3559 245.584C68.8573 245.915 69.2039 246.331 69.3959 246.832L69.6839 245.232H71.1559L69.6039 254H68.1319L68.4359 252.368C68.0519 252.88 67.5453 253.307 66.9159 253.648C66.2866 253.979 65.5933 254.144 64.8359 254.144C64.1533 254.144 63.5506 254 63.0279 253.712C62.5053 253.413 62.0999 252.992 61.8119 252.448C61.5239 251.904 61.3799 251.275 61.3799 250.56C61.3799 250.24 61.4119 249.915 61.4759 249.584ZM68.9159 249.6C68.9586 249.376 68.9799 249.136 68.9799 248.88C68.9799 248.101 68.7453 247.488 68.2759 247.04C67.8173 246.581 67.2306 246.352 66.5159 246.352C65.9719 246.352 65.4493 246.48 64.9479 246.736C64.4573 246.992 64.0359 247.365 63.6839 247.856C63.3319 248.347 63.0973 248.923 62.9799 249.584C62.9373 249.808 62.9159 250.053 62.9159 250.32C62.9159 251.109 63.1453 251.733 63.6039 252.192C64.0626 252.64 64.6493 252.864 65.3639 252.864C65.9079 252.864 66.4253 252.736 66.9159 252.48C67.4173 252.213 67.8439 251.835 68.1959 251.344C68.5586 250.843 68.7986 250.261 68.9159 249.6ZM75.6164 242.16L73.5204 254H72.0644L74.1604 242.16H75.6164ZM89.6156 246.112C89.4556 247.04 89.0022 247.813 88.2556 248.432C87.5089 249.04 86.4902 249.344 85.1996 249.344H83.0556L82.2236 254H80.7676L82.7516 242.848H86.3516C87.4609 242.848 88.2929 243.088 88.8476 243.568C89.4022 244.037 89.6796 244.667 89.6796 245.456C89.6796 245.595 89.6582 245.813 89.6156 246.112ZM85.4076 248.192C86.2076 248.192 86.8316 248.011 87.2796 247.648C87.7276 247.275 88.0102 246.763 88.1276 246.112C88.1596 245.92 88.1756 245.744 88.1756 245.584C88.1756 244.528 87.4982 244 86.1436 244H83.9996L83.2636 248.192H85.4076ZM93.1212 254.144C92.2039 254.144 91.4519 253.925 90.8652 253.488C90.2785 253.051 89.9852 252.464 89.9852 251.728C89.9852 251.589 89.9905 251.488 90.0012 251.424H91.4252C91.3825 251.883 91.5159 252.256 91.8252 252.544C92.1452 252.832 92.6039 252.976 93.2012 252.976C93.7985 252.976 94.2785 252.864 94.6412 252.64C95.0145 252.405 95.2012 252.08 95.2012 251.664C95.2012 251.312 95.0519 251.035 94.7532 250.832C94.4545 250.629 93.9959 250.411 93.3772 250.176C92.8332 249.973 92.3852 249.781 92.0332 249.6C91.6812 249.419 91.3825 249.168 91.1372 248.848C90.8919 248.517 90.7692 248.101 90.7692 247.6C90.7692 247.109 90.9079 246.672 91.1852 246.288C91.4732 245.904 91.8679 245.611 92.3692 245.408C92.8812 245.195 93.4625 245.088 94.1132 245.088C95.0092 245.088 95.7452 245.312 96.3212 245.76C96.8972 246.208 97.1852 246.795 97.1852 247.52C97.1852 247.659 97.1799 247.765 97.1692 247.84H95.7772L95.7932 247.648C95.7932 247.221 95.6279 246.885 95.2972 246.64C94.9772 246.384 94.5505 246.256 94.0172 246.256C93.4945 246.256 93.0625 246.373 92.7212 246.608C92.3905 246.843 92.2252 247.157 92.2252 247.552C92.2252 247.925 92.3799 248.219 92.6892 248.432C92.9985 248.645 93.4785 248.88 94.1292 249.136C94.6732 249.349 95.1105 249.547 95.4412 249.728C95.7719 249.899 96.0545 250.139 96.2892 250.448C96.5239 250.757 96.6412 251.147 96.6412 251.616C96.6412 252.128 96.4865 252.576 96.1772 252.96C95.8785 253.344 95.4625 253.637 94.9292 253.84C94.3959 254.043 93.7932 254.144 93.1212 254.144ZM100.521 245.232L102.009 252.304L105.993 245.232H107.497L99.9446 258.128H98.4246L100.905 253.904L98.9046 245.232H100.521ZM107.632 249.6C107.792 248.693 108.112 247.904 108.592 247.232C109.083 246.549 109.686 246.021 110.4 245.648C111.115 245.275 111.888 245.088 112.72 245.088C113.798 245.088 114.635 245.349 115.232 245.872C115.84 246.395 116.176 247.12 116.24 248.048H114.672C114.619 247.515 114.4 247.093 114.016 246.784C113.643 246.475 113.136 246.32 112.496 246.32C111.664 246.32 110.939 246.608 110.32 247.184C109.712 247.749 109.318 248.555 109.136 249.6C109.083 249.952 109.056 250.245 109.056 250.48C109.056 251.259 109.264 251.861 109.68 252.288C110.096 252.704 110.651 252.912 111.344 252.912C111.984 252.912 112.539 252.763 113.008 252.464C113.488 252.165 113.856 251.739 114.112 251.184H115.68C115.296 252.08 114.704 252.8 113.904 253.344C113.104 253.877 112.176 254.144 111.12 254.144C110.022 254.144 109.147 253.829 108.496 253.2C107.856 252.571 107.536 251.712 107.536 250.624C107.536 250.293 107.568 249.952 107.632 249.6ZM123.063 245.072C123.938 245.072 124.642 245.317 125.175 245.808C125.708 246.288 125.975 246.987 125.975 247.904C125.975 248.245 125.948 248.555 125.895 248.832L124.983 254H123.543L124.423 249.04C124.466 248.816 124.487 248.581 124.487 248.336C124.487 247.685 124.306 247.189 123.943 246.848C123.591 246.507 123.095 246.336 122.455 246.336C121.687 246.336 121.031 246.576 120.487 247.056C119.954 247.536 119.607 248.235 119.447 249.152V249.12L118.583 254H117.127L119.223 242.16H120.679L119.911 246.496C120.274 246.048 120.732 245.701 121.287 245.456C121.852 245.2 122.444 245.072 123.063 245.072ZM131.217 254.144C130.481 254.144 129.831 253.995 129.265 253.696C128.711 253.387 128.279 252.96 127.969 252.416C127.66 251.861 127.505 251.221 127.505 250.496C127.505 249.504 127.735 248.597 128.193 247.776C128.652 246.944 129.281 246.288 130.081 245.808C130.892 245.328 131.793 245.088 132.785 245.088C133.521 245.088 134.172 245.243 134.737 245.552C135.313 245.851 135.756 246.277 136.065 246.832C136.385 247.376 136.545 248.016 136.545 248.752C136.545 249.744 136.311 250.651 135.841 251.472C135.372 252.293 134.732 252.944 133.921 253.424C133.111 253.904 132.209 254.144 131.217 254.144ZM131.393 252.912C132.087 252.912 132.711 252.725 133.265 252.352C133.82 251.968 134.252 251.467 134.561 250.848C134.881 250.219 135.041 249.547 135.041 248.832C135.041 248.021 134.807 247.403 134.337 246.976C133.868 246.539 133.281 246.32 132.577 246.32C131.884 246.32 131.265 246.512 130.721 246.896C130.177 247.269 129.756 247.771 129.457 248.4C129.159 249.029 129.009 249.707 129.009 250.432C129.009 251.221 129.233 251.835 129.681 252.272C130.129 252.699 130.7 252.912 131.393 252.912ZM141.148 242.16L139.052 254H137.596L139.692 242.16H141.148ZM145.389 254.144C144.653 254.144 144.003 253.995 143.437 253.696C142.883 253.387 142.451 252.96 142.141 252.416C141.832 251.861 141.677 251.221 141.677 250.496C141.677 249.504 141.907 248.597 142.365 247.776C142.824 246.944 143.453 246.288 144.253 245.808C145.064 245.328 145.965 245.088 146.957 245.088C147.693 245.088 148.344 245.243 148.909 245.552C149.485 245.851 149.928 246.277 150.237 246.832C150.557 247.376 150.717 248.016 150.717 248.752C150.717 249.744 150.483 250.651 150.013 251.472C149.544 252.293 148.904 252.944 148.093 253.424C147.283 253.904 146.381 254.144 145.389 254.144ZM145.565 252.912C146.259 252.912 146.883 252.725 147.437 252.352C147.992 251.968 148.424 251.467 148.733 250.848C149.053 250.219 149.213 249.547 149.213 248.832C149.213 248.021 148.979 247.403 148.509 246.976C148.04 246.539 147.453 246.32 146.749 246.32C146.056 246.32 145.437 246.512 144.893 246.896C144.349 247.269 143.928 247.771 143.629 248.4C143.331 249.029 143.181 249.707 143.181 250.432C143.181 251.221 143.405 251.835 143.853 252.272C144.301 252.699 144.872 252.912 145.565 252.912ZM156.968 245.088C157.725 245.088 158.36 245.253 158.872 245.584C159.384 245.915 159.73 246.331 159.912 246.832L160.2 245.232H161.672L160.088 254.192C159.949 254.992 159.65 255.701 159.192 256.32C158.744 256.949 158.173 257.44 157.48 257.792C156.786 258.144 156.018 258.32 155.176 258.32C154.024 258.32 153.112 258.043 152.44 257.488C151.768 256.944 151.442 256.208 151.464 255.28H152.92C152.984 255.813 153.234 256.24 153.672 256.56C154.12 256.891 154.696 257.056 155.4 257.056C156.2 257.056 156.898 256.805 157.496 256.304C158.093 255.803 158.472 255.099 158.632 254.192L158.952 252.352C158.568 252.864 158.061 253.291 157.432 253.632C156.813 253.973 156.125 254.144 155.368 254.144C154.685 254.144 154.082 254 153.56 253.712C153.037 253.413 152.626 252.992 152.328 252.448C152.04 251.904 151.896 251.275 151.896 250.56C151.896 250.24 151.928 249.915 151.992 249.584C152.152 248.688 152.472 247.904 152.952 247.232C153.442 246.549 154.034 246.021 154.728 245.648C155.432 245.275 156.178 245.088 156.968 245.088ZM159.432 249.6C159.474 249.376 159.496 249.136 159.496 248.88C159.496 248.101 159.261 247.488 158.792 247.04C158.333 246.581 157.746 246.352 157.032 246.352C156.488 246.352 155.965 246.48 155.464 246.736C154.973 246.992 154.552 247.365 154.2 247.856C153.848 248.347 153.613 248.923 153.496 249.584C153.453 249.808 153.432 250.053 153.432 250.32C153.432 251.109 153.661 251.733 154.12 252.192C154.578 252.64 155.165 252.864 155.88 252.864C156.424 252.864 156.941 252.736 157.432 252.48C157.933 252.213 158.36 251.835 158.712 251.344C159.074 250.843 159.314 250.261 159.432 249.6ZM165.124 243.808C164.889 243.808 164.692 243.733 164.532 243.584C164.383 243.424 164.308 243.227 164.308 242.992C164.308 242.672 164.425 242.4 164.66 242.176C164.895 241.941 165.167 241.824 165.476 241.824C165.721 241.824 165.919 241.899 166.068 242.048C166.217 242.197 166.292 242.395 166.292 242.64C166.292 242.96 166.175 243.237 165.94 243.472C165.705 243.696 165.433 243.808 165.124 243.808ZM165.588 245.232L164.036 254H162.58L164.132 245.232H165.588ZM169.606 254.144C168.688 254.144 167.936 253.925 167.35 253.488C166.763 253.051 166.47 252.464 166.47 251.728C166.47 251.589 166.475 251.488 166.486 251.424H167.91C167.867 251.883 168 252.256 168.31 252.544C168.63 252.832 169.088 252.976 169.686 252.976C170.283 252.976 170.763 252.864 171.126 252.64C171.499 252.405 171.686 252.08 171.686 251.664C171.686 251.312 171.536 251.035 171.238 250.832C170.939 250.629 170.48 250.411 169.862 250.176C169.318 249.973 168.87 249.781 168.518 249.6C168.166 249.419 167.867 249.168 167.622 248.848C167.376 248.517 167.254 248.101 167.254 247.6C167.254 247.109 167.392 246.672 167.67 246.288C167.958 245.904 168.352 245.611 168.854 245.408C169.366 245.195 169.947 245.088 170.598 245.088C171.494 245.088 172.23 245.312 172.806 245.76C173.382 246.208 173.67 246.795 173.67 247.52C173.67 247.659 173.664 247.765 173.654 247.84H172.262L172.278 247.648C172.278 247.221 172.112 246.885 171.782 246.64C171.462 246.384 171.035 246.256 170.502 246.256C169.979 246.256 169.547 246.373 169.206 246.608C168.875 246.843 168.71 247.157 168.71 247.552C168.71 247.925 168.864 248.219 169.174 248.432C169.483 248.645 169.963 248.88 170.614 249.136C171.158 249.349 171.595 249.547 171.926 249.728C172.256 249.899 172.539 250.139 172.774 250.448C173.008 250.757 173.126 251.147 173.126 251.616C173.126 252.128 172.971 252.576 172.662 252.96C172.363 253.344 171.947 253.637 171.414 253.84C170.88 254.043 170.278 254.144 169.606 254.144ZM177.085 251.6C177.053 251.76 177.037 251.899 177.037 252.016C177.037 252.283 177.117 252.475 177.277 252.592C177.448 252.709 177.72 252.768 178.093 252.768H179.165L178.941 254H177.629C176.936 254 176.413 253.867 176.061 253.6C175.72 253.333 175.549 252.896 175.549 252.288C175.549 252.053 175.57 251.824 175.613 251.6L176.525 246.432H175.405L175.613 245.232H176.749L177.133 243.024H178.605L178.221 245.232H180.493L180.285 246.432H177.997L177.085 251.6ZM26.7182 284.976C25.6942 283.973 24.8942 282.699 24.3182 281.152C23.7529 279.605 23.4702 277.936 23.4702 276.144C23.4702 274.309 23.7689 272.597 24.3662 271.008C24.9742 269.408 25.8382 268.091 26.9582 267.056H28.4782V267.2C27.2835 268.32 26.3822 269.669 25.7742 271.248C25.1769 272.816 24.8782 274.448 24.8782 276.144C24.8782 277.797 25.1609 279.376 25.7262 280.88C26.3022 282.384 27.1395 283.701 28.2382 284.832V284.976H26.7182ZM29.9678 273.344C30.0425 272.363 30.4211 271.595 31.1038 271.04C31.7865 270.485 32.6718 270.208 33.7598 270.208C34.4851 270.208 35.1091 270.341 35.6318 270.608C36.1651 270.864 36.5651 271.216 36.8318 271.664C37.1091 272.112 37.2478 272.619 37.2478 273.184C37.2478 273.845 37.0558 274.416 36.6718 274.896C36.2985 275.376 35.8078 275.685 35.1998 275.824V275.904C35.8931 276.075 36.4425 276.411 36.8478 276.912C37.2531 277.413 37.4558 278.069 37.4558 278.88C37.4558 279.488 37.3171 280.037 37.0398 280.528C36.7625 281.008 36.3465 281.387 35.7918 281.664C35.2371 281.941 34.5705 282.08 33.7918 282.08C32.6611 282.08 31.7331 281.787 31.0078 281.2C30.2825 280.603 29.8771 279.76 29.7918 278.672H31.1998C31.2745 279.312 31.5358 279.835 31.9838 280.24C32.4318 280.645 33.0291 280.848 33.7758 280.848C34.5225 280.848 35.0878 280.656 35.4718 280.272C35.8665 279.877 36.0638 279.371 36.0638 278.752C36.0638 277.952 35.7971 277.376 35.2638 277.024C34.7305 276.672 33.9251 276.496 32.8478 276.496H32.4798V275.28H32.8638C33.8451 275.269 34.5865 275.109 35.0878 274.8C35.5891 274.48 35.8398 273.989 35.8398 273.328C35.8398 272.763 35.6531 272.309 35.2798 271.968C34.9171 271.627 34.3945 271.456 33.7118 271.456C33.0505 271.456 32.5171 271.627 32.1118 271.968C31.7065 272.309 31.4665 272.768 31.3918 273.344H29.9678ZM39.4217 276.096C39.4217 274.261 39.7204 272.832 40.3177 271.808C40.915 270.773 41.9604 270.256 43.4537 270.256C44.9364 270.256 45.9764 270.773 46.5737 271.808C47.171 272.832 47.4697 274.261 47.4697 276.096C47.4697 277.963 47.171 279.413 46.5737 280.448C45.9764 281.483 44.9364 282 43.4537 282C41.9604 282 40.915 281.483 40.3177 280.448C39.7204 279.413 39.4217 277.963 39.4217 276.096ZM46.0297 276.096C46.0297 275.168 45.9657 274.384 45.8377 273.744C45.7204 273.093 45.4697 272.571 45.0857 272.176C44.7124 271.781 44.1684 271.584 43.4537 271.584C42.7284 271.584 42.1737 271.781 41.7897 272.176C41.4164 272.571 41.1657 273.093 41.0377 273.744C40.9204 274.384 40.8617 275.168 40.8617 276.096C40.8617 277.056 40.9204 277.861 41.0377 278.512C41.1657 279.163 41.4164 279.685 41.7897 280.08C42.1737 280.475 42.7284 280.672 43.4537 280.672C44.1684 280.672 44.7124 280.475 45.0857 280.08C45.4697 279.685 45.7204 279.163 45.8377 278.512C45.9657 277.861 46.0297 277.056 46.0297 276.096ZM56.8446 271.696H51.2286V275.344C51.4739 275.003 51.8366 274.725 52.3166 274.512C52.7966 274.288 53.3139 274.176 53.8686 274.176C54.7539 274.176 55.4739 274.363 56.0286 274.736C56.5832 275.099 56.9779 275.573 57.2126 276.16C57.4579 276.736 57.5806 277.349 57.5806 278C57.5806 278.768 57.4366 279.456 57.1486 280.064C56.8606 280.672 56.4179 281.152 55.8206 281.504C55.2339 281.856 54.5032 282.032 53.6286 282.032C52.5086 282.032 51.6019 281.744 50.9086 281.168C50.2152 280.592 49.7939 279.824 49.6446 278.864H51.0686C51.2072 279.472 51.5006 279.947 51.9486 280.288C52.3966 280.629 52.9619 280.8 53.6446 280.8C54.4872 280.8 55.1219 280.549 55.5486 280.048C55.9752 279.536 56.1886 278.864 56.1886 278.032C56.1886 277.2 55.9752 276.56 55.5486 276.112C55.1219 275.653 54.4926 275.424 53.6606 275.424C53.0952 275.424 52.5992 275.563 52.1726 275.84C51.7566 276.107 51.4526 276.475 51.2606 276.944H49.8846V270.416H56.8446V271.696ZM59.2914 284.976V284.832C60.3901 283.701 61.2221 282.384 61.7874 280.88C62.3634 279.376 62.6514 277.797 62.6514 276.144C62.6514 274.448 62.3474 272.816 61.7394 271.248C61.1421 269.669 60.2461 268.32 59.0514 267.2V267.056H60.5714C61.6914 268.091 62.5501 269.408 63.1474 271.008C63.7554 272.597 64.0594 274.309 64.0594 276.144C64.0594 277.936 63.7714 279.605 63.1954 281.152C62.6301 282.699 61.8354 283.973 60.8114 284.976H59.2914ZM78.4227 271.696H72.8067V275.344C73.052 275.003 73.4147 274.725 73.8947 274.512C74.3747 274.288 74.892 274.176 75.4467 274.176C76.332 274.176 77.052 274.363 77.6067 274.736C78.1614 275.099 78.556 275.573 78.7907 276.16C79.036 276.736 79.1587 277.349 79.1587 278C79.1587 278.768 79.0147 279.456 78.7267 280.064C78.4387 280.672 77.996 281.152 77.3987 281.504C76.812 281.856 76.0814 282.032 75.2067 282.032C74.0867 282.032 73.18 281.744 72.4867 281.168C71.7934 280.592 71.372 279.824 71.2227 278.864H72.6467C72.7854 279.472 73.0787 279.947 73.5267 280.288C73.9747 280.629 74.54 280.8 75.2227 280.8C76.0654 280.8 76.7 280.549 77.1267 280.048C77.5534 279.536 77.7667 278.864 77.7667 278.032C77.7667 277.2 77.5534 276.56 77.1267 276.112C76.7 275.653 76.0707 275.424 75.2387 275.424C74.6734 275.424 74.1774 275.563 73.7507 275.84C73.3347 276.107 73.0307 276.475 72.8387 276.944H71.4627V270.416H78.4227V271.696ZM83.2056 275.984C82.6082 275.749 82.1496 275.408 81.8296 274.96C81.5096 274.512 81.3496 273.968 81.3496 273.328C81.3496 272.752 81.4936 272.235 81.7816 271.776C82.0696 271.307 82.4962 270.939 83.0616 270.672C83.6376 270.395 84.3309 270.256 85.1416 270.256C85.9522 270.256 86.6402 270.395 87.2056 270.672C87.7816 270.939 88.2136 271.307 88.5016 271.776C88.8002 272.235 88.9496 272.752 88.9496 273.328C88.9496 273.947 88.7842 274.491 88.4536 274.96C88.1229 275.419 87.6696 275.76 87.0936 275.984C87.7549 276.187 88.2776 276.544 88.6616 277.056C89.0562 277.557 89.2536 278.165 89.2536 278.88C89.2536 279.573 89.0829 280.181 88.7416 280.704C88.4002 281.216 87.9149 281.616 87.2856 281.904C86.6669 282.181 85.9522 282.32 85.1416 282.32C84.3309 282.32 83.6162 282.181 82.9976 281.904C82.3896 281.616 81.9149 281.216 81.5736 280.704C81.2322 280.181 81.0616 279.573 81.0616 278.88C81.0616 278.165 81.2536 277.552 81.6376 277.04C82.0216 276.528 82.5442 276.176 83.2056 275.984ZM87.5416 273.504C87.5416 272.853 87.3282 272.352 86.9016 272C86.4749 271.648 85.8882 271.472 85.1416 271.472C84.4056 271.472 83.8242 271.648 83.3976 272C82.9709 272.352 82.7576 272.859 82.7576 273.52C82.7576 274.117 82.9762 274.597 83.4136 274.96C83.8616 275.323 84.4376 275.504 85.1416 275.504C85.8562 275.504 86.4322 275.323 86.8696 274.96C87.3176 274.587 87.5416 274.101 87.5416 273.504ZM85.1416 276.624C84.3522 276.624 83.7069 276.811 83.2056 277.184C82.7042 277.547 82.4536 278.096 82.4536 278.832C82.4536 279.515 82.6936 280.064 83.1736 280.48C83.6642 280.896 84.3202 281.104 85.1416 281.104C85.9629 281.104 86.6136 280.896 87.0936 280.48C87.5736 280.064 87.8136 279.515 87.8136 278.832C87.8136 278.117 87.5682 277.573 87.0776 277.2C86.5869 276.816 85.9416 276.624 85.1416 276.624ZM98.5633 271.696H92.9473V275.344C93.1926 275.003 93.5553 274.725 94.0353 274.512C94.5153 274.288 95.0326 274.176 95.5873 274.176C96.4726 274.176 97.1926 274.363 97.7473 274.736C98.302 275.099 98.6966 275.573 98.9313 276.16C99.1766 276.736 99.2993 277.349 99.2993 278C99.2993 278.768 99.1553 279.456 98.8673 280.064C98.5793 280.672 98.1366 281.152 97.5393 281.504C96.9526 281.856 96.222 282.032 95.3473 282.032C94.2273 282.032 93.3206 281.744 92.6273 281.168C91.934 280.592 91.5126 279.824 91.3633 278.864H92.7873C92.926 279.472 93.2193 279.947 93.6673 280.288C94.1153 280.629 94.6806 280.8 95.3633 280.8C96.206 280.8 96.8406 280.549 97.2673 280.048C97.694 279.536 97.9073 278.864 97.9073 278.032C97.9073 277.2 97.694 276.56 97.2673 276.112C96.8406 275.653 96.2113 275.424 95.3793 275.424C94.814 275.424 94.318 275.563 93.8913 275.84C93.4753 276.107 93.1713 276.475 92.9793 276.944H91.6033V270.416H98.5633V271.696ZM112.62 271.568L108.172 282H106.7L111.212 271.712H105.036V270.464H112.62V271.568ZM121.354 271.568L116.906 282H115.434L119.946 271.712H113.77V270.464H121.354V271.568ZM124.841 278.896C124.947 279.504 125.193 279.973 125.577 280.304C125.971 280.635 126.499 280.8 127.161 280.8C128.046 280.8 128.697 280.453 129.113 279.76C129.539 279.067 129.742 277.899 129.721 276.256C129.497 276.736 129.123 277.115 128.601 277.392C128.078 277.659 127.497 277.792 126.857 277.792C126.142 277.792 125.502 277.648 124.937 277.36C124.382 277.061 123.945 276.629 123.625 276.064C123.305 275.499 123.145 274.816 123.145 274.016C123.145 272.875 123.475 271.957 124.137 271.264C124.798 270.56 125.737 270.208 126.953 270.208C128.446 270.208 129.491 270.693 130.089 271.664C130.697 272.635 131.001 274.08 131.001 276C131.001 277.344 130.878 278.453 130.633 279.328C130.398 280.203 129.993 280.869 129.417 281.328C128.851 281.787 128.073 282.016 127.081 282.016C125.993 282.016 125.145 281.723 124.537 281.136C123.929 280.549 123.582 279.803 123.497 278.896H124.841ZM127.097 276.56C127.811 276.56 128.398 276.341 128.857 275.904C129.315 275.456 129.545 274.853 129.545 274.096C129.545 273.296 129.321 272.651 128.873 272.16C128.425 271.669 127.795 271.424 126.985 271.424C126.238 271.424 125.641 271.659 125.193 272.128C124.755 272.597 124.537 273.216 124.537 273.984C124.537 274.763 124.755 275.387 125.193 275.856C125.63 276.325 126.265 276.56 127.097 276.56ZM136.96 279.424V278.32L142.576 270.544H144.32V278.16H145.92V279.424H144.32V282H142.88V279.424H136.96ZM142.944 272.064L138.64 278.16H142.944V272.064ZM154.751 271.696H149.135V275.344C149.38 275.003 149.743 274.725 150.223 274.512C150.703 274.288 151.22 274.176 151.775 274.176C152.66 274.176 153.38 274.363 153.935 274.736C154.489 275.099 154.884 275.573 155.119 276.16C155.364 276.736 155.487 277.349 155.487 278C155.487 278.768 155.343 279.456 155.055 280.064C154.767 280.672 154.324 281.152 153.727 281.504C153.14 281.856 152.409 282.032 151.535 282.032C150.415 282.032 149.508 281.744 148.815 281.168C148.121 280.592 147.7 279.824 147.551 278.864H148.975C149.113 279.472 149.407 279.947 149.855 280.288C150.303 280.629 150.868 280.8 151.551 280.8C152.393 280.8 153.028 280.549 153.455 280.048C153.881 279.536 154.095 278.864 154.095 278.032C154.095 277.2 153.881 276.56 153.455 276.112C153.028 275.653 152.399 275.424 151.567 275.424C151.001 275.424 150.505 275.563 150.079 275.84C149.663 276.107 149.359 276.475 149.167 276.944H147.791V270.416H154.751V271.696ZM164.542 271.568L160.094 282H158.622L163.134 271.712H156.958V270.464H164.542V271.568ZM168.268 275.984C167.671 275.749 167.212 275.408 166.892 274.96C166.572 274.512 166.412 273.968 166.412 273.328C166.412 272.752 166.556 272.235 166.844 271.776C167.132 271.307 167.559 270.939 168.124 270.672C168.7 270.395 169.393 270.256 170.204 270.256C171.015 270.256 171.703 270.395 172.268 270.672C172.844 270.939 173.276 271.307 173.564 271.776C173.863 272.235 174.012 272.752 174.012 273.328C174.012 273.947 173.847 274.491 173.516 274.96C173.185 275.419 172.732 275.76 172.156 275.984C172.817 276.187 173.34 276.544 173.724 277.056C174.119 277.557 174.316 278.165 174.316 278.88C174.316 279.573 174.145 280.181 173.804 280.704C173.463 281.216 172.977 281.616 172.348 281.904C171.729 282.181 171.015 282.32 170.204 282.32C169.393 282.32 168.679 282.181 168.06 281.904C167.452 281.616 166.977 281.216 166.636 280.704C166.295 280.181 166.124 279.573 166.124 278.88C166.124 278.165 166.316 277.552 166.7 277.04C167.084 276.528 167.607 276.176 168.268 275.984ZM172.604 273.504C172.604 272.853 172.391 272.352 171.964 272C171.537 271.648 170.951 271.472 170.204 271.472C169.468 271.472 168.887 271.648 168.46 272C168.033 272.352 167.82 272.859 167.82 273.52C167.82 274.117 168.039 274.597 168.476 274.96C168.924 275.323 169.5 275.504 170.204 275.504C170.919 275.504 171.495 275.323 171.932 274.96C172.38 274.587 172.604 274.101 172.604 273.504ZM170.204 276.624C169.415 276.624 168.769 276.811 168.268 277.184C167.767 277.547 167.516 278.096 167.516 278.832C167.516 279.515 167.756 280.064 168.236 280.48C168.727 280.896 169.383 281.104 170.204 281.104C171.025 281.104 171.676 280.896 172.156 280.48C172.636 280.064 172.876 279.515 172.876 278.832C172.876 278.117 172.631 277.573 172.14 277.2C171.649 276.816 171.004 276.624 170.204 276.624ZM30.9769 299.808C30.6996 299.808 30.4649 299.712 30.2729 299.52C30.0916 299.328 30.0009 299.093 30.0009 298.816C30.0009 298.539 30.0916 298.304 30.2729 298.112C30.4649 297.92 30.6996 297.824 30.9769 297.824C31.2543 297.824 31.4836 297.92 31.6649 298.112C31.8569 298.304 31.9529 298.539 31.9529 298.816C31.9529 299.093 31.8569 299.328 31.6649 299.52C31.4836 299.712 31.2543 299.808 30.9769 299.808ZM31.6969 311.904C31.6969 312.683 31.4996 313.253 31.1049 313.616C30.7103 313.979 30.1343 314.16 29.3769 314.16H28.5289V312.928H29.1369C29.5423 312.928 29.8249 312.848 29.9849 312.688C30.1556 312.528 30.2409 312.256 30.2409 311.872V301.232H31.6969V311.904ZM33.6177 305.584C33.6177 304.688 33.799 303.904 34.1617 303.232C34.5244 302.549 35.0204 302.021 35.6497 301.648C36.2897 301.275 36.999 301.088 37.7777 301.088C38.5457 301.088 39.2124 301.253 39.7777 301.584C40.343 301.915 40.7644 302.331 41.0417 302.832V301.232H42.5137V310H41.0417V308.368C40.7537 308.88 40.3217 309.307 39.7457 309.648C39.1804 309.979 38.519 310.144 37.7617 310.144C36.983 310.144 36.279 309.952 35.6497 309.568C35.0204 309.184 34.5244 308.645 34.1617 307.952C33.799 307.259 33.6177 306.469 33.6177 305.584ZM41.0417 305.6C41.0417 304.939 40.9084 304.363 40.6417 303.872C40.375 303.381 40.0124 303.008 39.5537 302.752C39.1057 302.485 38.6097 302.352 38.0657 302.352C37.5217 302.352 37.0257 302.48 36.5777 302.736C36.1297 302.992 35.7724 303.365 35.5057 303.856C35.239 304.347 35.1057 304.923 35.1057 305.584C35.1057 306.256 35.239 306.843 35.5057 307.344C35.7724 307.835 36.1297 308.213 36.5777 308.48C37.0257 308.736 37.5217 308.864 38.0657 308.864C38.6097 308.864 39.1057 308.736 39.5537 308.48C40.0124 308.213 40.375 307.835 40.6417 307.344C40.9084 306.843 41.0417 306.261 41.0417 305.6ZM49.2462 301.072C50.3129 301.072 51.1769 301.397 51.8382 302.048C52.4995 302.688 52.8302 303.616 52.8302 304.832V310H51.3902V305.04C51.3902 304.165 51.1715 303.499 50.7342 303.04C50.2969 302.571 49.6995 302.336 48.9422 302.336C48.1742 302.336 47.5609 302.576 47.1022 303.056C46.6542 303.536 46.4302 304.235 46.4302 305.152V310H44.9742V301.232H46.4302V302.48C46.7182 302.032 47.1075 301.685 47.5982 301.44C48.0995 301.195 48.6489 301.072 49.2462 301.072ZM63.2086 305.28C63.2086 305.557 63.1926 305.851 63.1606 306.16H56.1526C56.2059 307.024 56.4992 307.701 57.0326 308.192C57.5766 308.672 58.2326 308.912 59.0006 308.912C59.6299 308.912 60.1526 308.768 60.5686 308.48C60.9952 308.181 61.2939 307.787 61.4646 307.296H63.0326C62.7979 308.139 62.3286 308.827 61.6246 309.36C60.9206 309.883 60.0459 310.144 59.0006 310.144C58.1686 310.144 57.4219 309.957 56.7606 309.584C56.1099 309.211 55.5979 308.683 55.2246 308C54.8512 307.307 54.6646 306.507 54.6646 305.6C54.6646 304.693 54.8459 303.899 55.2086 303.216C55.5712 302.533 56.0779 302.011 56.7286 301.648C57.3899 301.275 58.1472 301.088 59.0006 301.088C59.8326 301.088 60.5686 301.269 61.2086 301.632C61.8486 301.995 62.3392 302.496 62.6806 303.136C63.0326 303.765 63.2086 304.48 63.2086 305.28ZM61.7046 304.976C61.7046 304.421 61.5819 303.947 61.3366 303.552C61.0912 303.147 60.7552 302.843 60.3286 302.64C59.9126 302.427 59.4486 302.32 58.9366 302.32C58.2006 302.32 57.5712 302.555 57.0486 303.024C56.5366 303.493 56.2432 304.144 56.1686 304.976H61.7046ZM73.1304 299.744C74.3144 299.744 75.3438 299.968 76.2184 300.416C77.0931 300.864 77.7651 301.493 78.2344 302.304C78.7038 303.104 78.9384 304.032 78.9384 305.088C78.9384 305.931 78.7998 306.741 78.5224 307.52C78.2451 308.288 77.8398 308.912 77.3064 309.392C76.7838 309.872 76.1704 310.112 75.4664 310.112C74.9331 310.112 74.5224 309.979 74.2344 309.712C73.9464 309.445 73.7811 309.083 73.7384 308.624C73.4078 309.083 72.9864 309.445 72.4744 309.712C71.9731 309.979 71.4398 310.112 70.8744 310.112C70.0638 310.112 69.4238 309.867 68.9544 309.376C68.4958 308.875 68.2664 308.203 68.2664 307.36C68.2664 306.56 68.4318 305.813 68.7624 305.12C69.1038 304.427 69.5731 303.872 70.1704 303.456C70.7678 303.029 71.4451 302.816 72.2024 302.816C73.2158 302.816 73.8984 303.2 74.2504 303.968L74.4264 302.976H75.6904L74.8904 307.6C74.8584 307.803 74.8424 307.989 74.8424 308.16C74.8424 308.8 75.1251 309.12 75.6904 309.12C76.1171 309.12 76.4851 308.917 76.7944 308.512C77.1144 308.107 77.3544 307.6 77.5144 306.992C77.6744 306.373 77.7544 305.765 77.7544 305.168C77.7544 303.771 77.3331 302.688 76.4904 301.92C75.6584 301.152 74.4798 300.768 72.9544 300.768C71.6851 300.768 70.5384 301.077 69.5144 301.696C68.5011 302.304 67.7064 303.141 67.1304 304.208C66.5544 305.275 66.2664 306.453 66.2664 307.744C66.2558 309.152 66.6771 310.235 67.5304 310.992C68.3838 311.76 69.5678 312.144 71.0824 312.144C72.0851 312.144 72.9704 311.963 73.7384 311.6L73.9304 312.592C72.9811 312.987 71.9358 313.184 70.7944 313.184C69.6531 313.184 68.6451 312.965 67.7704 312.528C66.9064 312.101 66.2344 311.483 65.7544 310.672C65.2851 309.872 65.0504 308.939 65.0504 307.872C65.0504 306.368 65.3971 304.997 66.0904 303.76C66.7838 302.512 67.7438 301.531 68.9704 300.816C70.2078 300.101 71.5944 299.744 73.1304 299.744ZM71.3064 308.976C71.7864 308.976 72.2291 308.837 72.6344 308.56C73.0398 308.272 73.3598 307.888 73.5944 307.408C73.8291 306.917 73.9464 306.384 73.9464 305.808C73.9464 305.253 73.7918 304.805 73.4824 304.464C73.1838 304.112 72.7571 303.936 72.2024 303.936C71.6904 303.936 71.2371 304.091 70.8424 304.4C70.4584 304.699 70.1598 305.099 69.9464 305.6C69.7331 306.091 69.6264 306.603 69.6264 307.136C69.6264 307.701 69.7704 308.149 70.0584 308.48C70.3464 308.811 70.7624 308.976 71.3064 308.976ZM82.7896 302.848C83.0776 302.347 83.5042 301.931 84.0696 301.6C84.6456 301.259 85.3122 301.088 86.0696 301.088C86.8482 301.088 87.5522 301.275 88.1816 301.648C88.8216 302.021 89.3229 302.549 89.6856 303.232C90.0482 303.904 90.2296 304.688 90.2296 305.584C90.2296 306.469 90.0482 307.259 89.6856 307.952C89.3229 308.645 88.8216 309.184 88.1816 309.568C87.5522 309.952 86.8482 310.144 86.0696 310.144C85.3229 310.144 84.6616 309.979 84.0856 309.648C83.5202 309.307 83.0882 308.885 82.7896 308.384V314.16H81.3336V301.232H82.7896V302.848ZM88.7416 305.584C88.7416 304.923 88.6082 304.347 88.3416 303.856C88.0749 303.365 87.7122 302.992 87.2536 302.736C86.8056 302.48 86.3096 302.352 85.7656 302.352C85.2322 302.352 84.7362 302.485 84.2776 302.752C83.8296 303.008 83.4669 303.387 83.1896 303.888C82.9229 304.379 82.7896 304.949 82.7896 305.6C82.7896 306.261 82.9229 306.843 83.1896 307.344C83.4669 307.835 83.8296 308.213 84.2776 308.48C84.7362 308.736 85.2322 308.864 85.7656 308.864C86.3096 308.864 86.8056 308.736 87.2536 308.48C87.7122 308.213 88.0749 307.835 88.3416 307.344C88.6082 306.843 88.7416 306.256 88.7416 305.584ZM95.2501 310.144C94.5781 310.144 93.9754 310.032 93.4421 309.808C92.9087 309.573 92.4874 309.253 92.1781 308.848C91.8687 308.432 91.6981 307.957 91.6661 307.424H93.1701C93.2127 307.861 93.4154 308.219 93.7781 308.496C94.1514 308.773 94.6367 308.912 95.2341 308.912C95.7887 308.912 96.2261 308.789 96.5461 308.544C96.8661 308.299 97.0261 307.989 97.0261 307.616C97.0261 307.232 96.8554 306.949 96.5141 306.768C96.1727 306.576 95.6447 306.389 94.9301 306.208C94.2794 306.037 93.7461 305.867 93.3301 305.696C92.9247 305.515 92.5727 305.253 92.2741 304.912C91.9861 304.56 91.8421 304.101 91.8421 303.536C91.8421 303.088 91.9754 302.677 92.2421 302.304C92.5087 301.931 92.8874 301.637 93.3781 301.424C93.8687 301.2 94.4287 301.088 95.0581 301.088C96.0287 301.088 96.8127 301.333 97.4101 301.824C98.0074 302.315 98.3274 302.987 98.3701 303.84H96.9141C96.8821 303.381 96.6954 303.013 96.3541 302.736C96.0234 302.459 95.5754 302.32 95.0101 302.32C94.4874 302.32 94.0714 302.432 93.7621 302.656C93.4527 302.88 93.2981 303.173 93.2981 303.536C93.2981 303.824 93.3887 304.064 93.5701 304.256C93.7621 304.437 93.9967 304.587 94.2741 304.704C94.5621 304.811 94.9567 304.933 95.4581 305.072C96.0874 305.243 96.5994 305.413 96.9941 305.584C97.3887 305.744 97.7247 305.989 98.0021 306.32C98.2901 306.651 98.4394 307.083 98.4501 307.616C98.4501 308.096 98.3167 308.528 98.0501 308.912C97.7834 309.296 97.4047 309.6 96.9141 309.824C96.4341 310.037 95.8794 310.144 95.2501 310.144ZM108.057 301.232L102.777 314.128H101.273L103.001 309.904L99.4654 301.232H101.081L103.833 308.336L106.553 301.232H108.057ZM108.977 305.6C108.977 304.693 109.158 303.904 109.521 303.232C109.884 302.549 110.385 302.021 111.025 301.648C111.676 301.275 112.417 301.088 113.249 301.088C114.326 301.088 115.212 301.349 115.905 301.872C116.609 302.395 117.073 303.12 117.297 304.048H115.729C115.58 303.515 115.286 303.093 114.849 302.784C114.422 302.475 113.889 302.32 113.249 302.32C112.417 302.32 111.745 302.608 111.233 303.184C110.721 303.749 110.465 304.555 110.465 305.6C110.465 306.656 110.721 307.472 111.233 308.048C111.745 308.624 112.417 308.912 113.249 308.912C113.889 308.912 114.422 308.763 114.849 308.464C115.276 308.165 115.569 307.739 115.729 307.184H117.297C117.062 308.08 116.593 308.8 115.889 309.344C115.185 309.877 114.305 310.144 113.249 310.144C112.417 310.144 111.676 309.957 111.025 309.584C110.385 309.211 109.884 308.683 109.521 308C109.158 307.317 108.977 306.517 108.977 305.6ZM123.592 301.072C124.253 301.072 124.85 301.216 125.384 301.504C125.917 301.781 126.333 302.203 126.632 302.768C126.941 303.333 127.096 304.021 127.096 304.832V310H125.656V305.04C125.656 304.165 125.437 303.499 125 303.04C124.562 302.571 123.965 302.336 123.208 302.336C122.44 302.336 121.826 302.576 121.368 303.056C120.92 303.536 120.696 304.235 120.696 305.152V310H119.24V298.16H120.696V302.48C120.984 302.032 121.378 301.685 121.88 301.44C122.392 301.195 122.962 301.072 123.592 301.072ZM129.938 310.096C129.661 310.096 129.426 310 129.234 309.808C129.042 309.616 128.946 309.381 128.946 309.104C128.946 308.827 129.042 308.592 129.234 308.4C129.426 308.208 129.661 308.112 129.938 308.112C130.205 308.112 130.429 308.208 130.61 308.4C130.802 308.592 130.898 308.827 130.898 309.104C130.898 309.381 130.802 309.616 130.61 309.808C130.429 310 130.205 310.096 129.938 310.096ZM132.29 305.6C132.29 304.693 132.471 303.904 132.834 303.232C133.196 302.549 133.698 302.021 134.338 301.648C134.988 301.275 135.73 301.088 136.562 301.088C137.639 301.088 138.524 301.349 139.218 301.872C139.922 302.395 140.386 303.12 140.61 304.048H139.042C138.892 303.515 138.599 303.093 138.162 302.784C137.735 302.475 137.202 302.32 136.562 302.32C135.73 302.32 135.058 302.608 134.546 303.184C134.034 303.749 133.778 304.555 133.778 305.6C133.778 306.656 134.034 307.472 134.546 308.048C135.058 308.624 135.73 308.912 136.562 308.912C137.202 308.912 137.735 308.763 138.162 308.464C138.588 308.165 138.882 307.739 139.042 307.184H140.61C140.375 308.08 139.906 308.8 139.202 309.344C138.498 309.877 137.618 310.144 136.562 310.144C135.73 310.144 134.988 309.957 134.338 309.584C133.698 309.211 133.196 308.683 132.834 308C132.471 307.317 132.29 306.517 132.29 305.6ZM146.376 310.144C145.555 310.144 144.808 309.957 144.136 309.584C143.475 309.211 142.952 308.683 142.568 308C142.195 307.307 142.008 306.507 142.008 305.6C142.008 304.704 142.2 303.915 142.584 303.232C142.979 302.539 143.512 302.011 144.184 301.648C144.856 301.275 145.608 301.088 146.44 301.088C147.272 301.088 148.024 301.275 148.696 301.648C149.368 302.011 149.896 302.533 150.28 303.216C150.675 303.899 150.872 304.693 150.872 305.6C150.872 306.507 150.67 307.307 150.264 308C149.87 308.683 149.331 309.211 148.648 309.584C147.966 309.957 147.208 310.144 146.376 310.144ZM146.376 308.864C146.899 308.864 147.39 308.741 147.848 308.496C148.307 308.251 148.675 307.883 148.952 307.392C149.24 306.901 149.384 306.304 149.384 305.6C149.384 304.896 149.246 304.299 148.968 303.808C148.691 303.317 148.328 302.955 147.88 302.72C147.432 302.475 146.947 302.352 146.424 302.352C145.891 302.352 145.4 302.475 144.952 302.72C144.515 302.955 144.163 303.317 143.896 303.808C143.63 304.299 143.496 304.896 143.496 305.6C143.496 306.315 143.624 306.917 143.88 307.408C144.147 307.899 144.499 308.267 144.936 308.512C145.374 308.747 145.854 308.864 146.376 308.864ZM163.331 301.072C164.013 301.072 164.621 301.216 165.155 301.504C165.688 301.781 166.109 302.203 166.419 302.768C166.728 303.333 166.883 304.021 166.883 304.832V310H165.443V305.04C165.443 304.165 165.224 303.499 164.787 303.04C164.36 302.571 163.779 302.336 163.043 302.336C162.285 302.336 161.683 302.581 161.235 303.072C160.787 303.552 160.563 304.251 160.563 305.168V310H159.123V305.04C159.123 304.165 158.904 303.499 158.467 303.04C158.04 302.571 157.459 302.336 156.723 302.336C155.965 302.336 155.363 302.581 154.915 303.072C154.467 303.552 154.243 304.251 154.243 305.168V310H152.787V301.232H154.243V302.496C154.531 302.037 154.915 301.685 155.395 301.44C155.885 301.195 156.424 301.072 157.011 301.072C157.747 301.072 158.397 301.237 158.963 301.568C159.528 301.899 159.949 302.384 160.227 303.024C160.472 302.405 160.877 301.925 161.443 301.584C162.008 301.243 162.637 301.072 163.331 301.072Z" fill="black"/>
</svg>
