<svg width="165" height="310" viewBox="0 0 165 310" fill="none" xmlns="http://www.w3.org/2000/svg">
<path d="M11.99 16.05V20.31H18.86V24.27H11.99V28.89H19.76V33H6.86L6.86 11.94L19.76 11.94V16.05H11.99ZM33.2905 16.08C35.2505 16.08 36.8105 16.72 37.9705 18C39.1505 19.26 39.7405 21 39.7405 23.22V33H34.6405V23.91C34.6405 22.79 34.3505 21.92 33.7705 21.3C33.1905 20.68 32.4105 20.37 31.4305 20.37C30.4505 20.37 29.6705 20.68 29.0905 21.3C28.5105 21.92 28.2205 22.79 28.2205 23.91L28.2205 33H23.0905L23.0905 16.26H28.2205V18.48C28.7405 17.74 29.4405 17.16 30.3205 16.74C31.2005 16.3 32.1905 16.08 33.2905 16.08ZM42.2853 24.6C42.2853 22.88 42.6053 21.37 43.2453 20.07C43.9053 18.77 44.7953 17.77 45.9153 17.07C47.0353 16.37 48.2853 16.02 49.6653 16.02C50.7653 16.02 51.7653 16.25 52.6653 16.71C53.5853 17.17 54.3053 17.79 54.8253 18.57V10.8H59.9553V33H54.8253V30.6C54.3453 31.4 53.6553 32.04 52.7553 32.52C51.8753 33 50.8453 33.24 49.6653 33.24C48.2853 33.24 47.0353 32.89 45.9153 32.19C44.7953 31.47 43.9053 30.46 43.2453 29.16C42.6053 27.84 42.2853 26.32 42.2853 24.6ZM54.8253 24.63C54.8253 23.35 54.4653 22.34 53.7453 21.6C53.0453 20.86 52.1853 20.49 51.1653 20.49C50.1453 20.49 49.2753 20.86 48.5553 21.6C47.8553 22.32 47.5053 23.32 47.5053 24.6C47.5053 25.88 47.8553 26.9 48.5553 27.66C49.2753 28.4 50.1453 28.77 51.1653 28.77C52.1853 28.77 53.0453 28.4 53.7453 27.66C54.4653 26.92 54.8253 25.91 54.8253 24.63ZM71.2866 33.24C69.6466 33.24 68.1666 32.89 66.8466 32.19C65.5466 31.49 64.5166 30.49 63.7566 29.19C63.0166 27.89 62.6466 26.37 62.6466 24.63C62.6466 22.91 63.0266 21.4 63.7866 20.1C64.5466 18.78 65.5866 17.77 66.9066 17.07C68.2266 16.37 69.7066 16.02 71.3466 16.02C72.9866 16.02 74.4666 16.37 75.7866 17.07C77.1066 17.77 78.1466 18.78 78.9066 20.1C79.6666 21.4 80.0466 22.91 80.0466 24.63C80.0466 26.35 79.6566 27.87 78.8766 29.19C78.1166 30.49 77.0666 31.49 75.7266 32.19C74.4066 32.89 72.9266 33.24 71.2866 33.24ZM71.2866 28.8C72.2666 28.8 73.0966 28.44 73.7766 27.72C74.4766 27 74.8266 25.97 74.8266 24.63C74.8266 23.29 74.4866 22.26 73.8066 21.54C73.1466 20.82 72.3266 20.46 71.3466 20.46C70.3466 20.46 69.5166 20.82 68.8566 21.54C68.1966 22.24 67.8666 23.27 67.8666 24.63C67.8666 25.97 68.1866 27 68.8266 27.72C69.4866 28.44 70.3066 28.8 71.2866 28.8ZM81.7482 24.63C81.7482 22.89 82.0982 21.37 82.7982 20.07C83.5182 18.77 84.5082 17.77 85.7682 17.07C87.0482 16.37 88.5082 16.02 90.1482 16.02C92.2482 16.02 93.9982 16.57 95.3982 17.67C96.8182 18.77 97.7482 20.32 98.1882 22.32H92.7282C92.2682 21.04 91.3782 20.4 90.0582 20.4C89.1182 20.4 88.3682 20.77 87.8082 21.51C87.2482 22.23 86.9682 23.27 86.9682 24.63C86.9682 25.99 87.2482 27.04 87.8082 27.78C88.3682 28.5 89.1182 28.86 90.0582 28.86C91.3782 28.86 92.2682 28.22 92.7282 26.94H98.1882C97.7482 28.9 96.8182 30.44 95.3982 31.56C93.9782 32.68 92.2282 33.24 90.1482 33.24C88.5082 33.24 87.0482 32.89 85.7682 32.19C84.5082 31.49 83.5182 30.49 82.7982 29.19C82.0982 27.89 81.7482 26.37 81.7482 24.63ZM106.062 19.05C106.662 18.13 107.412 17.41 108.312 16.89C109.212 16.35 110.212 16.08 111.312 16.08V21.51H109.902C108.622 21.51 107.662 21.79 107.022 22.35C106.382 22.89 106.062 23.85 106.062 25.23V33H100.932V16.26H106.062V19.05ZM116.344 14.52C115.444 14.52 114.704 14.26 114.124 13.74C113.564 13.2 113.284 12.54 113.284 11.76C113.284 10.96 113.564 10.3 114.124 9.78C114.704 9.24 115.444 8.97 116.344 8.97C117.224 8.97 117.944 9.24 118.504 9.78C119.084 10.3 119.374 10.96 119.374 11.76C119.374 12.54 119.084 13.2 118.504 13.74C117.944 14.26 117.224 14.52 116.344 14.52ZM118.894 16.26V33H113.764V16.26H118.894ZM132.812 16.08C134.772 16.08 136.332 16.72 137.492 18C138.672 19.26 139.262 21 139.262 23.22V33H134.162V23.91C134.162 22.79 133.872 21.92 133.292 21.3C132.712 20.68 131.932 20.37 130.952 20.37C129.972 20.37 129.192 20.68 128.612 21.3C128.032 21.92 127.742 22.79 127.742 23.91V33H122.612V16.26H127.742V18.48C128.262 17.74 128.962 17.16 129.842 16.74C130.722 16.3 131.712 16.08 132.812 16.08ZM158.607 24.36C158.607 24.84 158.577 25.34 158.517 25.86L146.907 25.86C146.987 26.9 147.317 27.7 147.897 28.26C148.497 28.8 149.227 29.07 150.087 29.07C151.367 29.07 152.257 28.53 152.757 27.45H158.217C157.937 28.55 157.427 29.54 156.687 30.42C155.967 31.3 155.057 31.99 153.957 32.49C152.857 32.99 151.627 33.24 150.267 33.24C148.627 33.24 147.167 32.89 145.887 32.19C144.607 31.49 143.607 30.49 142.887 29.19C142.167 27.89 141.807 26.37 141.807 24.63C141.807 22.89 142.157 21.37 142.857 20.07C143.577 18.77 144.577 17.77 145.857 17.07C147.137 16.37 148.607 16.02 150.267 16.02C151.887 16.02 153.327 16.36 154.587 17.04C155.847 17.72 156.827 18.69 157.527 19.95C158.247 21.21 158.607 22.68 158.607 24.36ZM153.357 23.01C153.357 22.13 153.057 21.43 152.457 20.91C151.857 20.39 151.107 20.13 150.207 20.13C149.347 20.13 148.617 20.38 148.017 20.88C147.437 21.38 147.077 22.09 146.937 23.01L153.357 23.01Z" fill="black"/>
<path d="M41.0173 80.71V91.732C41.0173 93.096 40.5993 94.174 39.7633 94.966C38.942 95.758 37.8566 96.154 36.5073 96.154C35.158 96.154 34.0653 95.758 33.2293 94.966C32.408 94.174 31.9973 93.096 31.9973 91.732H34.5273C34.542 92.4067 34.7106 92.942 35.0333 93.338C35.3706 93.734 35.862 93.932 36.5073 93.932C37.1526 93.932 37.644 93.734 37.9813 93.338C38.3186 92.9273 38.4873 92.392 38.4873 91.732V80.71H41.0173ZM50.3553 96.198C49.2113 96.198 48.1773 95.9413 47.2533 95.428C46.3293 94.9 45.6033 94.1667 45.0753 93.228C44.5473 92.2747 44.2833 91.1747 44.2833 89.928C44.2833 88.696 44.5546 87.6033 45.0973 86.65C45.6399 85.6967 46.3806 84.9633 47.3193 84.45C48.2579 83.9367 49.3066 83.68 50.4653 83.68C51.6239 83.68 52.6726 83.9367 53.6113 84.45C54.5499 84.9633 55.2906 85.6967 55.8333 86.65C56.3759 87.6033 56.6473 88.696 56.6473 89.928C56.6473 91.16 56.3686 92.2527 55.8113 93.206C55.2539 94.1593 54.4913 94.9 53.5233 95.428C52.5699 95.9413 51.5139 96.198 50.3553 96.198ZM50.3553 94.02C51.0006 94.02 51.6019 93.866 52.1593 93.558C52.7313 93.25 53.1933 92.788 53.5453 92.172C53.8973 91.556 54.0733 90.808 54.0733 89.928C54.0733 89.048 53.9046 88.3073 53.5673 87.706C53.2299 87.09 52.7826 86.628 52.2253 86.32C51.6679 86.012 51.0666 85.858 50.4213 85.858C49.7759 85.858 49.1746 86.012 48.6173 86.32C48.0746 86.628 47.6419 87.09 47.3193 87.706C46.9966 88.3073 46.8353 89.048 46.8353 89.928C46.8353 91.2333 47.1653 92.2453 47.8253 92.964C48.4999 93.668 49.3433 94.02 50.3553 94.02ZM65.3966 83.68C66.3206 83.68 67.1419 83.878 67.8606 84.274C68.5939 84.67 69.1659 85.2567 69.5766 86.034C70.0019 86.8113 70.2146 87.75 70.2146 88.85V96H67.7286V89.224C67.7286 88.1387 67.4572 87.31 66.9146 86.738C66.3719 86.1513 65.6312 85.858 64.6926 85.858C63.7539 85.858 63.0059 86.1513 62.4486 86.738C61.9059 87.31 61.6346 88.1387 61.6346 89.224V96H59.1266V79.72H61.6346V85.286C62.0599 84.7727 62.5952 84.3767 63.2406 84.098C63.9006 83.8193 64.6192 83.68 65.3966 83.68ZM79.5297 83.68C80.483 83.68 81.3337 83.878 82.0817 84.274C82.8443 84.67 83.4383 85.2567 83.8637 86.034C84.289 86.8113 84.5017 87.75 84.5017 88.85V96H82.0157V89.224C82.0157 88.1387 81.7443 87.31 81.2017 86.738C80.659 86.1513 79.9183 85.858 78.9797 85.858C78.041 85.858 77.293 86.1513 76.7357 86.738C76.193 87.31 75.9217 88.1387 75.9217 89.224V96H73.4137V83.878H75.9217V85.264C76.3323 84.7653 76.853 84.3767 77.4837 84.098C78.129 83.8193 78.811 83.68 79.5297 83.68ZM98.4096 80.71C100.038 80.71 101.46 81.0253 102.678 81.656C103.91 82.272 104.856 83.1667 105.516 84.34C106.19 85.4987 106.528 86.8553 106.528 88.41C106.528 89.9647 106.19 91.314 105.516 92.458C104.856 93.602 103.91 94.482 102.678 95.098C101.46 95.6993 100.038 96 98.4096 96H93.4156V80.71H98.4096ZM98.4096 93.954C100.199 93.954 101.57 93.47 102.524 92.502C103.477 91.534 103.954 90.17 103.954 88.41C103.954 86.6353 103.477 85.2493 102.524 84.252C101.57 83.2547 100.199 82.756 98.4096 82.756H95.9236V93.954H98.4096ZM114.271 96.198C113.127 96.198 112.093 95.9413 111.169 95.428C110.245 94.9 109.519 94.1667 108.991 93.228C108.463 92.2747 108.199 91.1747 108.199 89.928C108.199 88.696 108.471 87.6033 109.013 86.65C109.556 85.6967 110.297 84.9633 111.235 84.45C112.174 83.9367 113.223 83.68 114.381 83.68C115.54 83.68 116.589 83.9367 117.527 84.45C118.466 84.9633 119.207 85.6967 119.749 86.65C120.292 87.6033 120.563 88.696 120.563 89.928C120.563 91.16 120.285 92.2527 119.727 93.206C119.17 94.1593 118.407 94.9 117.439 95.428C116.486 95.9413 115.43 96.198 114.271 96.198ZM114.271 94.02C114.917 94.02 115.518 93.866 116.075 93.558C116.647 93.25 117.109 92.788 117.461 92.172C117.813 91.556 117.989 90.808 117.989 89.928C117.989 89.048 117.821 88.3073 117.483 87.706C117.146 87.09 116.699 86.628 116.141 86.32C115.584 86.012 114.983 85.858 114.337 85.858C113.692 85.858 113.091 86.012 112.533 86.32C111.991 86.628 111.558 87.09 111.235 87.706C110.913 88.3073 110.751 89.048 110.751 89.928C110.751 91.2333 111.081 92.2453 111.741 92.964C112.416 93.668 113.259 94.02 114.271 94.02ZM134.153 89.642C134.153 90.0967 134.123 90.5073 134.065 90.874H124.803C124.876 91.842 125.235 92.6193 125.881 93.206C126.526 93.7927 127.318 94.086 128.257 94.086C129.606 94.086 130.559 93.5213 131.117 92.392H133.823C133.456 93.5067 132.789 94.4233 131.821 95.142C130.867 95.846 129.679 96.198 128.257 96.198C127.098 96.198 126.057 95.9413 125.133 95.428C124.223 94.9 123.505 94.1667 122.977 93.228C122.463 92.2747 122.207 91.1747 122.207 89.928C122.207 88.6813 122.456 87.5887 122.955 86.65C123.468 85.6967 124.179 84.9633 125.089 84.45C126.013 83.9367 127.069 83.68 128.257 83.68C129.401 83.68 130.42 83.9293 131.315 84.428C132.209 84.9267 132.906 85.6307 133.405 86.54C133.903 87.4347 134.153 88.4687 134.153 89.642ZM131.535 88.85C131.52 87.926 131.19 87.1853 130.545 86.628C129.899 86.0707 129.1 85.792 128.147 85.792C127.281 85.792 126.541 86.0707 125.925 86.628C125.309 87.1707 124.942 87.9113 124.825 88.85H131.535ZM47.0152 113.984L46.3432 117.808H50.3912L50.1992 118.928H46.1512L45.4472 122.848H49.9912L49.7832 124H43.7832L45.7672 112.832H51.7512L51.5432 113.984H47.0152ZM57.8423 115.072C58.749 115.072 59.4743 115.317 60.0183 115.808C60.5623 116.288 60.8343 116.992 60.8343 117.92C60.8343 118.261 60.8076 118.565 60.7543 118.832L59.8423 124H58.4023L59.2823 119.04C59.325 118.816 59.3463 118.581 59.3463 118.336C59.3463 117.685 59.165 117.189 58.8023 116.848C58.4503 116.507 57.9543 116.336 57.3143 116.336C56.5463 116.336 55.8903 116.576 55.3463 117.056C54.813 117.536 54.4663 118.235 54.3063 119.152V119.12L53.4423 124H51.9863L53.5383 115.232H54.9943L54.7703 116.496C55.133 116.037 55.5863 115.685 56.1303 115.44C56.6743 115.195 57.245 115.072 57.8423 115.072ZM62.4447 119.584C62.6047 118.688 62.9247 117.904 63.4047 117.232C63.8954 116.549 64.4927 116.021 65.1967 115.648C65.9007 115.275 66.6474 115.088 67.4367 115.088C68.1087 115.088 68.7114 115.248 69.2447 115.568C69.778 115.877 70.1567 116.288 70.3807 116.8L71.1967 112.16H72.6687L70.5727 124H69.1007L69.4047 122.352C69.0314 122.875 68.53 123.307 67.9007 123.648C67.2714 123.979 66.578 124.144 65.8207 124.144C65.138 124.144 64.5354 124 64.0127 123.712C63.49 123.413 63.0794 122.992 62.7807 122.448C62.4927 121.904 62.3487 121.275 62.3487 120.56C62.3487 120.24 62.3807 119.915 62.4447 119.584ZM69.8847 119.6C69.9274 119.376 69.9487 119.136 69.9487 118.88C69.9487 118.101 69.714 117.488 69.2447 117.04C68.786 116.581 68.1994 116.352 67.4847 116.352C66.9407 116.352 66.418 116.48 65.9167 116.736C65.426 116.992 65.0047 117.365 64.6527 117.856C64.3007 118.347 64.066 118.923 63.9487 119.584C63.906 119.808 63.8847 120.053 63.8847 120.32C63.8847 121.109 64.114 121.733 64.5727 122.192C65.0314 122.64 65.618 122.864 66.3327 122.864C66.8767 122.864 67.394 122.736 67.8847 122.48C68.386 122.213 68.8127 121.835 69.1647 121.344C69.5274 120.843 69.7674 120.261 69.8847 119.6ZM76.8892 124.144C76.1532 124.144 75.5025 123.995 74.9372 123.696C74.3825 123.387 73.9505 122.96 73.6412 122.416C73.3319 121.861 73.1772 121.221 73.1772 120.496C73.1772 119.504 73.4065 118.597 73.8652 117.776C74.3239 116.944 74.9532 116.288 75.7532 115.808C76.5639 115.328 77.4652 115.088 78.4572 115.088C79.1932 115.088 79.8439 115.243 80.4092 115.552C80.9852 115.851 81.4279 116.277 81.7372 116.832C82.0572 117.376 82.2172 118.016 82.2172 118.752C82.2172 119.744 81.9825 120.651 81.5132 121.472C81.0439 122.293 80.4039 122.944 79.5932 123.424C78.7825 123.904 77.8812 124.144 76.8892 124.144ZM77.0652 122.912C77.7585 122.912 78.3825 122.725 78.9372 122.352C79.4919 121.968 79.9239 121.467 80.2332 120.848C80.5532 120.219 80.7132 119.547 80.7132 118.832C80.7132 118.021 80.4785 117.403 80.0092 116.976C79.5399 116.539 78.9532 116.32 78.2492 116.32C77.5559 116.32 76.9372 116.512 76.3932 116.896C75.8492 117.269 75.4279 117.771 75.1292 118.4C74.8305 119.029 74.6812 119.707 74.6812 120.432C74.6812 121.221 74.9052 121.835 75.3532 122.272C75.8012 122.699 76.3719 122.912 77.0652 122.912ZM83.4916 119.6C83.6516 118.693 83.9716 117.904 84.4516 117.232C84.9422 116.549 85.5449 116.021 86.2596 115.648C86.9742 115.275 87.7476 115.088 88.5796 115.088C89.6569 115.088 90.4942 115.349 91.0916 115.872C91.6996 116.395 92.0356 117.12 92.0996 118.048H90.5316C90.4782 117.515 90.2596 117.093 89.8756 116.784C89.5022 116.475 88.9956 116.32 88.3556 116.32C87.5236 116.32 86.7982 116.608 86.1796 117.184C85.5716 117.749 85.1769 118.555 84.9956 119.6C84.9422 119.952 84.9156 120.245 84.9156 120.48C84.9156 121.259 85.1236 121.861 85.5396 122.288C85.9556 122.704 86.5102 122.912 87.2036 122.912C87.8436 122.912 88.3982 122.763 88.8676 122.464C89.3476 122.165 89.7156 121.739 89.9716 121.184H91.5396C91.1556 122.08 90.5636 122.8 89.7636 123.344C88.9636 123.877 88.0356 124.144 86.9796 124.144C85.8809 124.144 85.0062 123.829 84.3556 123.2C83.7156 122.571 83.3956 121.712 83.3956 120.624C83.3956 120.293 83.4276 119.952 83.4916 119.6ZM95.7063 116.896C96.0583 116.32 96.501 115.872 97.0343 115.552C97.5676 115.232 98.1756 115.072 98.8583 115.072L98.5863 116.576H98.2023C97.445 116.576 96.8103 116.779 96.2983 117.184C95.797 117.589 95.461 118.272 95.2903 119.232L94.4423 124H92.9863L94.5383 115.232H95.9943L95.7063 116.896ZM101.499 113.808C101.264 113.808 101.067 113.733 100.907 113.584C100.758 113.424 100.683 113.227 100.683 112.992C100.683 112.672 100.8 112.4 101.035 112.176C101.27 111.941 101.542 111.824 101.851 111.824C102.096 111.824 102.294 111.899 102.443 112.048C102.592 112.197 102.667 112.395 102.667 112.64C102.667 112.96 102.55 113.237 102.315 113.472C102.08 113.696 101.808 113.808 101.499 113.808ZM101.963 115.232L100.411 124H98.9551L100.507 115.232H101.963ZM108.749 115.072C109.655 115.072 110.381 115.317 110.925 115.808C111.469 116.288 111.741 116.992 111.741 117.92C111.741 118.261 111.714 118.565 111.661 118.832L110.749 124H109.309L110.189 119.04C110.231 118.816 110.253 118.581 110.253 118.336C110.253 117.685 110.071 117.189 109.709 116.848C109.357 116.507 108.861 116.336 108.221 116.336C107.453 116.336 106.797 116.576 106.253 117.056C105.719 117.536 105.373 118.235 105.213 119.152V119.12L104.349 124H102.893L104.445 115.232H105.901L105.677 116.496C106.039 116.037 106.493 115.685 107.037 115.44C107.581 115.195 108.151 115.072 108.749 115.072ZM118.487 115.088C119.223 115.088 119.858 115.232 120.391 115.52C120.935 115.797 121.346 116.192 121.623 116.704C121.911 117.205 122.055 117.781 122.055 118.432C122.055 118.656 122.028 118.928 121.975 119.248C121.932 119.525 121.863 119.813 121.767 120.112H114.759C114.738 120.325 114.727 120.48 114.727 120.576C114.727 121.312 114.946 121.888 115.383 122.304C115.831 122.709 116.412 122.912 117.127 122.912C117.756 122.912 118.306 122.768 118.775 122.48C119.255 122.181 119.618 121.787 119.863 121.296H121.431C121.047 122.139 120.455 122.827 119.655 123.36C118.866 123.883 117.948 124.144 116.903 124.144C115.804 124.144 114.919 123.829 114.247 123.2C113.586 122.56 113.255 121.691 113.255 120.592C113.255 120.283 113.287 119.952 113.351 119.6C113.511 118.693 113.836 117.899 114.327 117.216C114.818 116.533 115.42 116.011 116.135 115.648C116.86 115.275 117.644 115.088 118.487 115.088ZM120.503 119.056C120.535 118.843 120.551 118.645 120.551 118.464C120.551 117.781 120.332 117.253 119.895 116.88C119.468 116.507 118.908 116.32 118.215 116.32C117.468 116.32 116.791 116.565 116.183 117.056C115.575 117.536 115.164 118.203 114.951 119.056H120.503ZM13.101 154.976C12.077 153.973 11.277 152.699 10.701 151.152C10.1357 149.605 9.853 147.936 9.853 146.144C9.853 144.309 10.1517 142.597 10.749 141.008C11.357 139.408 12.221 138.091 13.341 137.056H14.861V137.2C13.6663 138.32 12.765 139.669 12.157 141.248C11.5597 142.816 11.261 144.448 11.261 146.144C11.261 147.797 11.5437 149.376 12.109 150.88C12.685 152.384 13.5223 153.701 14.621 154.832V154.976H13.101ZM16.3506 143.344C16.4253 142.363 16.804 141.595 17.4866 141.04C18.1693 140.485 19.0546 140.208 20.1426 140.208C20.868 140.208 21.492 140.341 22.0146 140.608C22.548 140.864 22.948 141.216 23.2146 141.664C23.492 142.112 23.6306 142.619 23.6306 143.184C23.6306 143.845 23.4386 144.416 23.0546 144.896C22.6813 145.376 22.1906 145.685 21.5826 145.824V145.904C22.276 146.075 22.8253 146.411 23.2306 146.912C23.636 147.413 23.8386 148.069 23.8386 148.88C23.8386 149.488 23.7 150.037 23.4226 150.528C23.1453 151.008 22.7293 151.387 22.1746 151.664C21.62 151.941 20.9533 152.08 20.1746 152.08C19.044 152.08 18.116 151.787 17.3906 151.2C16.6653 150.603 16.26 149.76 16.1746 148.672H17.5826C17.6573 149.312 17.9186 149.835 18.3666 150.24C18.8146 150.645 19.412 150.848 20.1586 150.848C20.9053 150.848 21.4706 150.656 21.8546 150.272C22.2493 149.877 22.4466 149.371 22.4466 148.752C22.4466 147.952 22.18 147.376 21.6466 147.024C21.1133 146.672 20.308 146.496 19.2306 146.496H18.8626V145.28H19.2466C20.228 145.269 20.9693 145.109 21.4706 144.8C21.972 144.48 22.2226 143.989 22.2226 143.328C22.2226 142.763 22.036 142.309 21.6626 141.968C21.3 141.627 20.7773 141.456 20.0946 141.456C19.4333 141.456 18.9 141.627 18.4946 141.968C18.0893 142.309 17.8493 142.768 17.7746 143.344H16.3506ZM25.8045 146.096C25.8045 144.261 26.1032 142.832 26.7005 141.808C27.2978 140.773 28.3432 140.256 29.8365 140.256C31.3192 140.256 32.3592 140.773 32.9565 141.808C33.5538 142.832 33.8525 144.261 33.8525 146.096C33.8525 147.963 33.5538 149.413 32.9565 150.448C32.3592 151.483 31.3192 152 29.8365 152C28.3432 152 27.2978 151.483 26.7005 150.448C26.1032 149.413 25.8045 147.963 25.8045 146.096ZM32.4125 146.096C32.4125 145.168 32.3485 144.384 32.2205 143.744C32.1032 143.093 31.8525 142.571 31.4685 142.176C31.0952 141.781 30.5512 141.584 29.8365 141.584C29.1112 141.584 28.5565 141.781 28.1725 142.176C27.7992 142.571 27.5485 143.093 27.4205 143.744C27.3032 144.384 27.2445 145.168 27.2445 146.096C27.2445 147.056 27.3032 147.861 27.4205 148.512C27.5485 149.163 27.7992 149.685 28.1725 150.08C28.5565 150.475 29.1112 150.672 29.8365 150.672C30.5512 150.672 31.0952 150.475 31.4685 150.08C31.8525 149.685 32.1032 149.163 32.2205 148.512C32.3485 147.861 32.4125 147.056 32.4125 146.096ZM43.2274 141.696H37.6114V145.344C37.8567 145.003 38.2194 144.725 38.6994 144.512C39.1794 144.288 39.6967 144.176 40.2514 144.176C41.1367 144.176 41.8567 144.363 42.4114 144.736C42.966 145.099 43.3607 145.573 43.5954 146.16C43.8407 146.736 43.9634 147.349 43.9634 148C43.9634 148.768 43.8194 149.456 43.5314 150.064C43.2434 150.672 42.8007 151.152 42.2034 151.504C41.6167 151.856 40.886 152.032 40.0114 152.032C38.8914 152.032 37.9847 151.744 37.2914 151.168C36.598 150.592 36.1767 149.824 36.0274 148.864H37.4514C37.59 149.472 37.8834 149.947 38.3314 150.288C38.7794 150.629 39.3447 150.8 40.0274 150.8C40.87 150.8 41.5047 150.549 41.9314 150.048C42.358 149.536 42.5714 148.864 42.5714 148.032C42.5714 147.2 42.358 146.56 41.9314 146.112C41.5047 145.653 40.8754 145.424 40.0434 145.424C39.478 145.424 38.982 145.563 38.5554 145.84C38.1394 146.107 37.8354 146.475 37.6434 146.944H36.2674V140.416H43.2274V141.696ZM45.6743 154.976V154.832C46.7729 153.701 47.6049 152.384 48.1703 150.88C48.7463 149.376 49.0343 147.797 49.0343 146.144C49.0343 144.448 48.7303 142.816 48.1223 141.248C47.5249 139.669 46.6289 138.32 45.4342 137.2V137.056H46.9543C48.0743 138.091 48.9329 139.408 49.5303 141.008C50.1383 142.597 50.4423 144.309 50.4423 146.144C50.4423 147.936 50.1543 149.605 49.5783 151.152C49.0129 152.699 48.2183 153.973 47.1943 154.976H45.6743ZM64.8055 141.696H59.1895V145.344C59.4348 145.003 59.7975 144.725 60.2775 144.512C60.7575 144.288 61.2748 144.176 61.8295 144.176C62.7148 144.176 63.4348 144.363 63.9895 144.736C64.5442 145.099 64.9388 145.573 65.1735 146.16C65.4188 146.736 65.5415 147.349 65.5415 148C65.5415 148.768 65.3975 149.456 65.1095 150.064C64.8215 150.672 64.3788 151.152 63.7815 151.504C63.1948 151.856 62.4642 152.032 61.5895 152.032C60.4695 152.032 59.5628 151.744 58.8695 151.168C58.1762 150.592 57.7548 149.824 57.6055 148.864H59.0295C59.1682 149.472 59.4615 149.947 59.9095 150.288C60.3575 150.629 60.9228 150.8 61.6055 150.8C62.4482 150.8 63.0828 150.549 63.5095 150.048C63.9362 149.536 64.1495 148.864 64.1495 148.032C64.1495 147.2 63.9362 146.56 63.5095 146.112C63.0828 145.653 62.4535 145.424 61.6215 145.424C61.0562 145.424 60.5602 145.563 60.1335 145.84C59.7175 146.107 59.4135 146.475 59.2215 146.944H57.8455V140.416H64.8055V141.696ZM69.5884 145.984C68.991 145.749 68.5324 145.408 68.2124 144.96C67.8924 144.512 67.7324 143.968 67.7324 143.328C67.7324 142.752 67.8764 142.235 68.1644 141.776C68.4524 141.307 68.879 140.939 69.4444 140.672C70.0204 140.395 70.7137 140.256 71.5244 140.256C72.335 140.256 73.023 140.395 73.5884 140.672C74.1644 140.939 74.5964 141.307 74.8844 141.776C75.183 142.235 75.3324 142.752 75.3324 143.328C75.3324 143.947 75.167 144.491 74.8364 144.96C74.5057 145.419 74.0524 145.76 73.4764 145.984C74.1377 146.187 74.6604 146.544 75.0444 147.056C75.439 147.557 75.6364 148.165 75.6364 148.88C75.6364 149.573 75.4657 150.181 75.1244 150.704C74.783 151.216 74.2977 151.616 73.6684 151.904C73.0497 152.181 72.335 152.32 71.5244 152.32C70.7137 152.32 69.999 152.181 69.3804 151.904C68.7724 151.616 68.2977 151.216 67.9564 150.704C67.615 150.181 67.4444 149.573 67.4444 148.88C67.4444 148.165 67.6364 147.552 68.0204 147.04C68.4044 146.528 68.927 146.176 69.5884 145.984ZM73.9244 143.504C73.9244 142.853 73.711 142.352 73.2844 142C72.8577 141.648 72.271 141.472 71.5244 141.472C70.7884 141.472 70.207 141.648 69.7804 142C69.3537 142.352 69.1404 142.859 69.1404 143.52C69.1404 144.117 69.359 144.597 69.7964 144.96C70.2444 145.323 70.8204 145.504 71.5244 145.504C72.239 145.504 72.815 145.323 73.2524 144.96C73.7004 144.587 73.9244 144.101 73.9244 143.504ZM71.5244 146.624C70.735 146.624 70.0897 146.811 69.5884 147.184C69.087 147.547 68.8364 148.096 68.8364 148.832C68.8364 149.515 69.0764 150.064 69.5564 150.48C70.047 150.896 70.703 151.104 71.5244 151.104C72.3457 151.104 72.9964 150.896 73.4764 150.48C73.9564 150.064 74.1964 149.515 74.1964 148.832C74.1964 148.117 73.951 147.573 73.4604 147.2C72.9697 146.816 72.3244 146.624 71.5244 146.624ZM77.2181 149.424V148.32L82.8341 140.544H84.5781V148.16H86.1781V149.424H84.5781V152H83.1381V149.424H77.2181ZM83.2021 142.064L78.8981 148.16H83.2021V142.064ZM99.0183 141.568L94.5703 152H93.0983L97.6103 141.712H91.4342V140.464H99.0183V141.568ZM102.745 145.984C102.147 145.749 101.689 145.408 101.369 144.96C101.049 144.512 100.889 143.968 100.889 143.328C100.889 142.752 101.033 142.235 101.321 141.776C101.609 141.307 102.035 140.939 102.601 140.672C103.177 140.395 103.87 140.256 104.681 140.256C105.491 140.256 106.179 140.395 106.745 140.672C107.321 140.939 107.753 141.307 108.041 141.776C108.339 142.235 108.489 142.752 108.489 143.328C108.489 143.947 108.323 144.491 107.993 144.96C107.662 145.419 107.209 145.76 106.633 145.984C107.294 146.187 107.817 146.544 108.201 147.056C108.595 147.557 108.793 148.165 108.793 148.88C108.793 149.573 108.622 150.181 108.281 150.704C107.939 151.216 107.454 151.616 106.825 151.904C106.206 152.181 105.491 152.32 104.681 152.32C103.87 152.32 103.155 152.181 102.537 151.904C101.929 151.616 101.454 151.216 101.113 150.704C100.771 150.181 100.601 149.573 100.601 148.88C100.601 148.165 100.793 147.552 101.177 147.04C101.561 146.528 102.083 146.176 102.745 145.984ZM107.081 143.504C107.081 142.853 106.867 142.352 106.441 142C106.014 141.648 105.427 141.472 104.681 141.472C103.945 141.472 103.363 141.648 102.937 142C102.51 142.352 102.297 142.859 102.297 143.52C102.297 144.117 102.515 144.597 102.953 144.96C103.401 145.323 103.977 145.504 104.681 145.504C105.395 145.504 105.971 145.323 106.409 144.96C106.857 144.587 107.081 144.101 107.081 143.504ZM104.681 146.624C103.891 146.624 103.246 146.811 102.745 147.184C102.243 147.547 101.993 148.096 101.993 148.832C101.993 149.515 102.233 150.064 102.713 150.48C103.203 150.896 103.859 151.104 104.681 151.104C105.502 151.104 106.153 150.896 106.633 150.48C107.113 150.064 107.353 149.515 107.353 148.832C107.353 148.117 107.107 147.573 106.617 147.2C106.126 146.816 105.481 146.624 104.681 146.624ZM112.598 148.896C112.705 149.504 112.95 149.973 113.334 150.304C113.729 150.635 114.257 150.8 114.918 150.8C115.804 150.8 116.454 150.453 116.87 149.76C117.297 149.067 117.5 147.899 117.478 146.256C117.254 146.736 116.881 147.115 116.358 147.392C115.836 147.659 115.254 147.792 114.614 147.792C113.9 147.792 113.26 147.648 112.694 147.36C112.14 147.061 111.702 146.629 111.382 146.064C111.062 145.499 110.902 144.816 110.902 144.016C110.902 142.875 111.233 141.957 111.894 141.264C112.556 140.56 113.494 140.208 114.71 140.208C116.204 140.208 117.249 140.693 117.846 141.664C118.454 142.635 118.758 144.08 118.758 146C118.758 147.344 118.636 148.453 118.39 149.328C118.156 150.203 117.75 150.869 117.174 151.328C116.609 151.787 115.83 152.016 114.838 152.016C113.75 152.016 112.902 151.723 112.294 151.136C111.686 150.549 111.34 149.803 111.254 148.896H112.598ZM114.854 146.56C115.569 146.56 116.156 146.341 116.614 145.904C117.073 145.456 117.302 144.853 117.302 144.096C117.302 143.296 117.078 142.651 116.63 142.16C116.182 141.669 115.553 141.424 114.742 141.424C113.996 141.424 113.398 141.659 112.95 142.128C112.513 142.597 112.294 143.216 112.294 143.984C112.294 144.763 112.513 145.387 112.95 145.856C113.388 146.325 114.022 146.56 114.854 146.56ZM125.038 143.344C125.113 142.363 125.491 141.595 126.174 141.04C126.857 140.485 127.742 140.208 128.83 140.208C129.555 140.208 130.179 140.341 130.702 140.608C131.235 140.864 131.635 141.216 131.902 141.664C132.179 142.112 132.318 142.619 132.318 143.184C132.318 143.845 132.126 144.416 131.742 144.896C131.369 145.376 130.878 145.685 130.27 145.824V145.904C130.963 146.075 131.513 146.411 131.918 146.912C132.323 147.413 132.526 148.069 132.526 148.88C132.526 149.488 132.387 150.037 132.11 150.528C131.833 151.008 131.417 151.387 130.862 151.664C130.307 151.941 129.641 152.08 128.862 152.08C127.731 152.08 126.803 151.787 126.078 151.2C125.353 150.603 124.947 149.76 124.862 148.672H126.27C126.345 149.312 126.606 149.835 127.054 150.24C127.502 150.645 128.099 150.848 128.846 150.848C129.593 150.848 130.158 150.656 130.542 150.272C130.937 149.877 131.134 149.371 131.134 148.752C131.134 147.952 130.867 147.376 130.334 147.024C129.801 146.672 128.995 146.496 127.918 146.496H127.55V145.28H127.934C128.915 145.269 129.657 145.109 130.158 144.8C130.659 144.48 130.91 143.989 130.91 143.328C130.91 142.763 130.723 142.309 130.35 141.968C129.987 141.627 129.465 141.456 128.782 141.456C128.121 141.456 127.587 141.627 127.182 141.968C126.777 142.309 126.537 142.768 126.462 143.344H125.038ZM141.868 141.696H136.252V145.344C136.497 145.003 136.86 144.725 137.34 144.512C137.82 144.288 138.337 144.176 138.892 144.176C139.777 144.176 140.497 144.363 141.052 144.736C141.607 145.099 142.001 145.573 142.236 146.16C142.481 146.736 142.604 147.349 142.604 148C142.604 148.768 142.46 149.456 142.172 150.064C141.884 150.672 141.441 151.152 140.844 151.504C140.257 151.856 139.527 152.032 138.652 152.032C137.532 152.032 136.625 151.744 135.932 151.168C135.239 150.592 134.817 149.824 134.668 148.864H136.092C136.231 149.472 136.524 149.947 136.972 150.288C137.42 150.629 137.985 150.8 138.668 150.8C139.511 150.8 140.145 150.549 140.572 150.048C140.999 149.536 141.212 148.864 141.212 148.032C141.212 147.2 140.999 146.56 140.572 146.112C140.145 145.653 139.516 145.424 138.684 145.424C138.119 145.424 137.623 145.563 137.196 145.84C136.78 146.107 136.476 146.475 136.284 146.944H134.908V140.416H141.868V141.696ZM144.363 150.832C145.718 149.744 146.779 148.853 147.547 148.16C148.315 147.456 148.96 146.725 149.483 145.968C150.016 145.2 150.283 144.448 150.283 143.712C150.283 143.019 150.112 142.475 149.771 142.08C149.44 141.675 148.902 141.472 148.155 141.472C147.43 141.472 146.864 141.701 146.459 142.16C146.064 142.608 145.851 143.211 145.819 143.968H144.411C144.454 142.773 144.816 141.851 145.499 141.2C146.182 140.549 147.062 140.224 148.139 140.224C149.238 140.224 150.107 140.528 150.747 141.136C151.398 141.744 151.723 142.581 151.723 143.648C151.723 144.533 151.456 145.397 150.923 146.24C150.4 147.072 149.803 147.808 149.131 148.448C148.459 149.077 147.6 149.813 146.555 150.656H152.059V151.872H144.363V150.832ZM153.358 141.76V140.432H156.366V152H154.894V141.76H153.358ZM15.6098 169.808C15.3324 169.808 15.0978 169.712 14.9058 169.52C14.7244 169.328 14.6338 169.093 14.6338 168.816C14.6338 168.539 14.7244 168.304 14.9058 168.112C15.0978 167.92 15.3324 167.824 15.6098 167.824C15.8871 167.824 16.1164 167.92 16.2978 168.112C16.4898 168.304 16.5858 168.539 16.5858 168.816C16.5858 169.093 16.4898 169.328 16.2978 169.52C16.1164 169.712 15.8871 169.808 15.6098 169.808ZM16.3298 181.904C16.3298 182.683 16.1324 183.253 15.7378 183.616C15.3431 183.979 14.7671 184.16 14.0098 184.16H13.1617V182.928H13.7698C14.1751 182.928 14.4578 182.848 14.6178 182.688C14.7884 182.528 14.8738 182.256 14.8738 181.872V171.232H16.3298V181.904ZM22.6185 180.144C21.7972 180.144 21.0505 179.957 20.3785 179.584C19.7172 179.211 19.1945 178.683 18.8105 178C18.4372 177.307 18.2505 176.507 18.2505 175.6C18.2505 174.704 18.4425 173.915 18.8265 173.232C19.2212 172.539 19.7545 172.011 20.4265 171.648C21.0985 171.275 21.8505 171.088 22.6825 171.088C23.5145 171.088 24.2665 171.275 24.9385 171.648C25.6105 172.011 26.1385 172.533 26.5225 173.216C26.9172 173.899 27.1145 174.693 27.1145 175.6C27.1145 176.507 26.9118 177.307 26.5065 178C26.1118 178.683 25.5732 179.211 24.8905 179.584C24.2078 179.957 23.4505 180.144 22.6185 180.144ZM22.6185 178.864C23.1412 178.864 23.6318 178.741 24.0905 178.496C24.5492 178.251 24.9172 177.883 25.1945 177.392C25.4825 176.901 25.6265 176.304 25.6265 175.6C25.6265 174.896 25.4878 174.299 25.2105 173.808C24.9332 173.317 24.5705 172.955 24.1225 172.72C23.6745 172.475 23.1892 172.352 22.6665 172.352C22.1332 172.352 21.6425 172.475 21.1945 172.72C20.7572 172.955 20.4052 173.317 20.1385 173.808C19.8718 174.299 19.7385 174.896 19.7385 175.6C19.7385 176.315 19.8665 176.917 20.1225 177.408C20.3892 177.899 20.7412 178.267 21.1785 178.512C21.6158 178.747 22.0958 178.864 22.6185 178.864ZM33.3809 171.072C34.0422 171.072 34.6395 171.216 35.1729 171.504C35.7062 171.781 36.1222 172.203 36.4209 172.768C36.7302 173.333 36.8849 174.021 36.8849 174.832V180H35.4449V175.04C35.4449 174.165 35.2262 173.499 34.7889 173.04C34.3515 172.571 33.7542 172.336 32.9969 172.336C32.2289 172.336 31.6155 172.576 31.1569 173.056C30.7089 173.536 30.4849 174.235 30.4849 175.152V180H29.0289V168.16H30.4849V172.48C30.7729 172.032 31.1675 171.685 31.6689 171.44C32.1809 171.195 32.7515 171.072 33.3809 171.072ZM43.5353 171.072C44.6019 171.072 45.4659 171.397 46.1273 172.048C46.7886 172.688 47.1193 173.616 47.1193 174.832V180H45.6793V175.04C45.6793 174.165 45.4606 173.499 45.0233 173.04C44.5859 172.571 43.9886 172.336 43.2313 172.336C42.4633 172.336 41.8499 172.576 41.3913 173.056C40.9433 173.536 40.7193 174.235 40.7193 175.152V180H39.2633V171.232H40.7193V172.48C41.0073 172.032 41.3966 171.685 41.8873 171.44C42.3886 171.195 42.9379 171.072 43.5353 171.072ZM57.4976 169.744C58.6816 169.744 59.711 169.968 60.5856 170.416C61.4603 170.864 62.1323 171.493 62.6016 172.304C63.071 173.104 63.3056 174.032 63.3056 175.088C63.3056 175.931 63.167 176.741 62.8896 177.52C62.6123 178.288 62.207 178.912 61.6736 179.392C61.151 179.872 60.5376 180.112 59.8336 180.112C59.3003 180.112 58.8896 179.979 58.6016 179.712C58.3136 179.445 58.1483 179.083 58.1056 178.624C57.775 179.083 57.3536 179.445 56.8416 179.712C56.3403 179.979 55.807 180.112 55.2416 180.112C54.431 180.112 53.791 179.867 53.3216 179.376C52.863 178.875 52.6336 178.203 52.6336 177.36C52.6336 176.56 52.799 175.813 53.1296 175.12C53.471 174.427 53.9403 173.872 54.5376 173.456C55.135 173.029 55.8123 172.816 56.5696 172.816C57.583 172.816 58.2656 173.2 58.6176 173.968L58.7936 172.976H60.0576L59.2576 177.6C59.2256 177.803 59.2096 177.989 59.2096 178.16C59.2096 178.8 59.4923 179.12 60.0576 179.12C60.4843 179.12 60.8523 178.917 61.1616 178.512C61.4816 178.107 61.7216 177.6 61.8816 176.992C62.0416 176.373 62.1216 175.765 62.1216 175.168C62.1216 173.771 61.7003 172.688 60.8576 171.92C60.0256 171.152 58.847 170.768 57.3216 170.768C56.0523 170.768 54.9056 171.077 53.8816 171.696C52.8683 172.304 52.0736 173.141 51.4976 174.208C50.9216 175.275 50.6336 176.453 50.6336 177.744C50.623 179.152 51.0443 180.235 51.8976 180.992C52.751 181.76 53.935 182.144 55.4496 182.144C56.4523 182.144 57.3376 181.963 58.1056 181.6L58.2976 182.592C57.3483 182.987 56.303 183.184 55.1616 183.184C54.0203 183.184 53.0123 182.965 52.1376 182.528C51.2736 182.101 50.6016 181.483 50.1216 180.672C49.6523 179.872 49.4176 178.939 49.4176 177.872C49.4176 176.368 49.7643 174.997 50.4576 173.76C51.151 172.512 52.111 171.531 53.3376 170.816C54.575 170.101 55.9616 169.744 57.4976 169.744ZM55.6736 178.976C56.1536 178.976 56.5963 178.837 57.0016 178.56C57.407 178.272 57.727 177.888 57.9616 177.408C58.1963 176.917 58.3136 176.384 58.3136 175.808C58.3136 175.253 58.159 174.805 57.8496 174.464C57.551 174.112 57.1243 173.936 56.5696 173.936C56.0576 173.936 55.6043 174.091 55.2096 174.4C54.8256 174.699 54.527 175.099 54.3136 175.6C54.1003 176.091 53.9936 176.603 53.9936 177.136C53.9936 177.701 54.1376 178.149 54.4256 178.48C54.7136 178.811 55.1296 178.976 55.6736 178.976ZM67.1568 172.848C67.4448 172.347 67.8714 171.931 68.4368 171.6C69.0128 171.259 69.6794 171.088 70.4368 171.088C71.2154 171.088 71.9194 171.275 72.5487 171.648C73.1887 172.021 73.6901 172.549 74.0528 173.232C74.4154 173.904 74.5968 174.688 74.5968 175.584C74.5968 176.469 74.4154 177.259 74.0528 177.952C73.6901 178.645 73.1887 179.184 72.5487 179.568C71.9194 179.952 71.2154 180.144 70.4368 180.144C69.6901 180.144 69.0288 179.979 68.4528 179.648C67.8874 179.307 67.4554 178.885 67.1568 178.384V184.16H65.7008V171.232H67.1568V172.848ZM73.1088 175.584C73.1088 174.923 72.9754 174.347 72.7088 173.856C72.4421 173.365 72.0794 172.992 71.6208 172.736C71.1728 172.48 70.6768 172.352 70.1328 172.352C69.5994 172.352 69.1034 172.485 68.6448 172.752C68.1968 173.008 67.8341 173.387 67.5568 173.888C67.2901 174.379 67.1568 174.949 67.1568 175.6C67.1568 176.261 67.2901 176.843 67.5568 177.344C67.8341 177.835 68.1968 178.213 68.6448 178.48C69.1034 178.736 69.5994 178.864 70.1328 178.864C70.6768 178.864 71.1728 178.736 71.6208 178.48C72.0794 178.213 72.4421 177.835 72.7088 177.344C72.9754 176.843 73.1088 176.256 73.1088 175.584ZM79.6173 180.144C78.9453 180.144 78.3426 180.032 77.8093 179.808C77.2759 179.573 76.8546 179.253 76.5453 178.848C76.2359 178.432 76.0653 177.957 76.0333 177.424H77.5373C77.5799 177.861 77.7826 178.219 78.1453 178.496C78.5186 178.773 79.0039 178.912 79.6013 178.912C80.1559 178.912 80.5933 178.789 80.9133 178.544C81.2333 178.299 81.3933 177.989 81.3933 177.616C81.3933 177.232 81.2226 176.949 80.8813 176.768C80.5399 176.576 80.0119 176.389 79.2973 176.208C78.6466 176.037 78.1133 175.867 77.6973 175.696C77.2919 175.515 76.9399 175.253 76.6413 174.912C76.3533 174.56 76.2093 174.101 76.2093 173.536C76.2093 173.088 76.3426 172.677 76.6093 172.304C76.8759 171.931 77.2546 171.637 77.7453 171.424C78.2359 171.2 78.7959 171.088 79.4253 171.088C80.3959 171.088 81.1799 171.333 81.7773 171.824C82.3746 172.315 82.6946 172.987 82.7373 173.84H81.2813C81.2493 173.381 81.0626 173.013 80.7213 172.736C80.3906 172.459 79.9426 172.32 79.3773 172.32C78.8546 172.32 78.4386 172.432 78.1293 172.656C77.8199 172.88 77.6653 173.173 77.6653 173.536C77.6653 173.824 77.7559 174.064 77.9373 174.256C78.1293 174.437 78.3639 174.587 78.6413 174.704C78.9293 174.811 79.3239 174.933 79.8253 175.072C80.4546 175.243 80.9666 175.413 81.3613 175.584C81.7559 175.744 82.0919 175.989 82.3693 176.32C82.6573 176.651 82.8066 177.083 82.8173 177.616C82.8173 178.096 82.6839 178.528 82.4173 178.912C82.1506 179.296 81.7719 179.6 81.2813 179.824C80.8013 180.037 80.2466 180.144 79.6173 180.144ZM92.4246 171.232L87.1446 184.128H85.6406L87.3686 179.904L83.8326 171.232H85.4486L88.2006 178.336L90.9206 171.232H92.4246ZM93.3443 175.6C93.3443 174.693 93.5256 173.904 93.8883 173.232C94.2509 172.549 94.7523 172.021 95.3923 171.648C96.0429 171.275 96.7843 171.088 97.6163 171.088C98.6936 171.088 99.5789 171.349 100.272 171.872C100.976 172.395 101.44 173.12 101.664 174.048H100.096C99.9469 173.515 99.6536 173.093 99.2163 172.784C98.7896 172.475 98.2563 172.32 97.6163 172.32C96.7843 172.32 96.1123 172.608 95.6003 173.184C95.0883 173.749 94.8323 174.555 94.8323 175.6C94.8323 176.656 95.0883 177.472 95.6003 178.048C96.1123 178.624 96.7843 178.912 97.6163 178.912C98.2563 178.912 98.7896 178.763 99.2163 178.464C99.6429 178.165 99.9363 177.739 100.096 177.184H101.664C101.43 178.08 100.96 178.8 100.256 179.344C99.5523 179.877 98.6723 180.144 97.6163 180.144C96.7843 180.144 96.0429 179.957 95.3923 179.584C94.7523 179.211 94.2509 178.683 93.8883 178C93.5256 177.317 93.3443 176.517 93.3443 175.6ZM107.959 171.072C108.62 171.072 109.218 171.216 109.751 171.504C110.284 171.781 110.7 172.203 110.999 172.768C111.308 173.333 111.463 174.021 111.463 174.832V180H110.023V175.04C110.023 174.165 109.804 173.499 109.367 173.04C108.93 172.571 108.332 172.336 107.575 172.336C106.807 172.336 106.194 172.576 105.735 173.056C105.287 173.536 105.063 174.235 105.063 175.152V180H103.607V168.16H105.063V172.48C105.351 172.032 105.746 171.685 106.247 171.44C106.759 171.195 107.33 171.072 107.959 171.072ZM114.305 180.096C114.028 180.096 113.793 180 113.601 179.808C113.409 179.616 113.313 179.381 113.313 179.104C113.313 178.827 113.409 178.592 113.601 178.4C113.793 178.208 114.028 178.112 114.305 178.112C114.572 178.112 114.796 178.208 114.977 178.4C115.169 178.592 115.265 178.827 115.265 179.104C115.265 179.381 115.169 179.616 114.977 179.808C114.796 180 114.572 180.096 114.305 180.096ZM116.657 175.6C116.657 174.693 116.838 173.904 117.201 173.232C117.563 172.549 118.065 172.021 118.705 171.648C119.355 171.275 120.097 171.088 120.929 171.088C122.006 171.088 122.891 171.349 123.585 171.872C124.289 172.395 124.753 173.12 124.977 174.048H123.409C123.259 173.515 122.966 173.093 122.529 172.784C122.102 172.475 121.569 172.32 120.929 172.32C120.097 172.32 119.425 172.608 118.913 173.184C118.401 173.749 118.145 174.555 118.145 175.6C118.145 176.656 118.401 177.472 118.913 178.048C119.425 178.624 120.097 178.912 120.929 178.912C121.569 178.912 122.102 178.763 122.529 178.464C122.955 178.165 123.249 177.739 123.409 177.184H124.977C124.742 178.08 124.273 178.8 123.569 179.344C122.865 179.877 121.985 180.144 120.929 180.144C120.097 180.144 119.355 179.957 118.705 179.584C118.065 179.211 117.563 178.683 117.201 178C116.838 177.317 116.657 176.517 116.657 175.6ZM130.744 180.144C129.922 180.144 129.176 179.957 128.504 179.584C127.842 179.211 127.32 178.683 126.936 178C126.562 177.307 126.376 176.507 126.376 175.6C126.376 174.704 126.568 173.915 126.952 173.232C127.346 172.539 127.88 172.011 128.552 171.648C129.224 171.275 129.976 171.088 130.808 171.088C131.64 171.088 132.392 171.275 133.064 171.648C133.736 172.011 134.264 172.533 134.648 173.216C135.042 173.899 135.24 174.693 135.24 175.6C135.24 176.507 135.037 177.307 134.632 178C134.237 178.683 133.698 179.211 133.016 179.584C132.333 179.957 131.576 180.144 130.744 180.144ZM130.744 178.864C131.266 178.864 131.757 178.741 132.216 178.496C132.674 178.251 133.042 177.883 133.32 177.392C133.608 176.901 133.752 176.304 133.752 175.6C133.752 174.896 133.613 174.299 133.336 173.808C133.058 173.317 132.696 172.955 132.248 172.72C131.8 172.475 131.314 172.352 130.792 172.352C130.258 172.352 129.768 172.475 129.32 172.72C128.882 172.955 128.53 173.317 128.264 173.808C127.997 174.299 127.864 174.896 127.864 175.6C127.864 176.315 127.992 176.917 128.248 177.408C128.514 177.899 128.866 178.267 129.304 178.512C129.741 178.747 130.221 178.864 130.744 178.864ZM147.698 171.072C148.381 171.072 148.989 171.216 149.522 171.504C150.055 171.781 150.477 172.203 150.786 172.768C151.095 173.333 151.25 174.021 151.25 174.832V180H149.81V175.04C149.81 174.165 149.591 173.499 149.154 173.04C148.727 172.571 148.146 172.336 147.41 172.336C146.653 172.336 146.05 172.581 145.602 173.072C145.154 173.552 144.93 174.251 144.93 175.168V180H143.49V175.04C143.49 174.165 143.271 173.499 142.834 173.04C142.407 172.571 141.826 172.336 141.09 172.336C140.333 172.336 139.73 172.581 139.282 173.072C138.834 173.552 138.61 174.251 138.61 175.168V180H137.154V171.232H138.61V172.496C138.898 172.037 139.282 171.685 139.762 171.44C140.253 171.195 140.791 171.072 141.378 171.072C142.114 171.072 142.765 171.237 143.33 171.568C143.895 171.899 144.317 172.384 144.594 173.024C144.839 172.405 145.245 171.925 145.81 171.584C146.375 171.243 147.005 171.072 147.698 171.072Z" fill="black"/>
<path d="M40.4314 211.71V222.732C40.4314 224.096 40.0134 225.174 39.1774 225.966C38.356 226.758 37.2707 227.154 35.9214 227.154C34.572 227.154 33.4794 226.758 32.6434 225.966C31.822 225.174 31.4114 224.096 31.4114 222.732H33.9414C33.956 223.407 34.1247 223.942 34.4474 224.338C34.7847 224.734 35.276 224.932 35.9214 224.932C36.5667 224.932 37.058 224.734 37.3954 224.338C37.7327 223.927 37.9014 223.392 37.9014 222.732V211.71H40.4314ZM43.6753 220.884C43.6753 219.667 43.9247 218.589 44.4233 217.65C44.9367 216.711 45.626 215.985 46.4913 215.472C47.3713 214.944 48.3393 214.68 49.3953 214.68C50.3487 214.68 51.1773 214.871 51.8813 215.252C52.6 215.619 53.172 216.081 53.5973 216.638V214.878H56.1273V227H53.5973V225.196C53.172 225.768 52.5927 226.245 51.8593 226.626C51.126 227.007 50.29 227.198 49.3513 227.198C48.31 227.198 47.3567 226.934 46.4913 226.406C45.626 225.863 44.9367 225.115 44.4233 224.162C43.9247 223.194 43.6753 222.101 43.6753 220.884ZM53.5973 220.928C53.5973 220.092 53.4213 219.366 53.0693 218.75C52.732 218.134 52.2847 217.665 51.7273 217.342C51.17 217.019 50.5687 216.858 49.9233 216.858C49.278 216.858 48.6767 217.019 48.1193 217.342C47.562 217.65 47.1073 218.112 46.7553 218.728C46.418 219.329 46.2493 220.048 46.2493 220.884C46.2493 221.72 46.418 222.453 46.7553 223.084C47.1073 223.715 47.562 224.199 48.1193 224.536C48.6913 224.859 49.2927 225.02 49.9233 225.02C50.5687 225.02 51.17 224.859 51.7273 224.536C52.2847 224.213 52.732 223.744 53.0693 223.128C53.4213 222.497 53.5973 221.764 53.5973 220.928ZM65.5375 214.68C66.4908 214.68 67.3415 214.878 68.0895 215.274C68.8522 215.67 69.4462 216.257 69.8715 217.034C70.2968 217.811 70.5095 218.75 70.5095 219.85V227H68.0235V220.224C68.0235 219.139 67.7522 218.31 67.2095 217.738C66.6668 217.151 65.9262 216.858 64.9875 216.858C64.0488 216.858 63.3008 217.151 62.7435 217.738C62.2008 218.31 61.9295 219.139 61.9295 220.224V227H59.4215V214.878H61.9295V216.264C62.3402 215.765 62.8608 215.377 63.4915 215.098C64.1368 214.819 64.8188 214.68 65.5375 214.68ZM84.8186 220.642C84.8186 221.097 84.7893 221.507 84.7306 221.874H75.4686C75.5419 222.842 75.9013 223.619 76.5466 224.206C77.1919 224.793 77.9839 225.086 78.9226 225.086C80.2719 225.086 81.2253 224.521 81.7826 223.392H84.4886C84.1219 224.507 83.4546 225.423 82.4866 226.142C81.5333 226.846 80.3453 227.198 78.9226 227.198C77.7639 227.198 76.7226 226.941 75.7986 226.428C74.8893 225.9 74.1706 225.167 73.6426 224.228C73.1293 223.275 72.8726 222.175 72.8726 220.928C72.8726 219.681 73.1219 218.589 73.6206 217.65C74.1339 216.697 74.8453 215.963 75.7546 215.45C76.6786 214.937 77.7346 214.68 78.9226 214.68C80.0666 214.68 81.0859 214.929 81.9806 215.428C82.8753 215.927 83.5719 216.631 84.0706 217.54C84.5693 218.435 84.8186 219.469 84.8186 220.642ZM82.2006 219.85C82.1859 218.926 81.8559 218.185 81.2106 217.628C80.5653 217.071 79.7659 216.792 78.8126 216.792C77.9473 216.792 77.2066 217.071 76.5906 217.628C75.9746 218.171 75.6079 218.911 75.4906 219.85H82.2006ZM97.9956 211.71C99.6236 211.71 101.046 212.025 102.264 212.656C103.496 213.272 104.442 214.167 105.102 215.34C105.776 216.499 106.114 217.855 106.114 219.41C106.114 220.965 105.776 222.314 105.102 223.458C104.442 224.602 103.496 225.482 102.264 226.098C101.046 226.699 99.6236 227 97.9956 227H93.0016V211.71H97.9956ZM97.9956 224.954C99.7849 224.954 101.156 224.47 102.11 223.502C103.063 222.534 103.54 221.17 103.54 219.41C103.54 217.635 103.063 216.249 102.11 215.252C101.156 214.255 99.7849 213.756 97.9956 213.756H95.5096V224.954H97.9956ZM113.857 227.198C112.713 227.198 111.679 226.941 110.755 226.428C109.831 225.9 109.105 225.167 108.577 224.228C108.049 223.275 107.785 222.175 107.785 220.928C107.785 219.696 108.057 218.603 108.599 217.65C109.142 216.697 109.883 215.963 110.821 215.45C111.76 214.937 112.809 214.68 113.967 214.68C115.126 214.68 116.175 214.937 117.113 215.45C118.052 215.963 118.793 216.697 119.335 217.65C119.878 218.603 120.149 219.696 120.149 220.928C120.149 222.16 119.871 223.253 119.313 224.206C118.756 225.159 117.993 225.9 117.025 226.428C116.072 226.941 115.016 227.198 113.857 227.198ZM113.857 225.02C114.503 225.02 115.104 224.866 115.661 224.558C116.233 224.25 116.695 223.788 117.047 223.172C117.399 222.556 117.575 221.808 117.575 220.928C117.575 220.048 117.407 219.307 117.069 218.706C116.732 218.09 116.285 217.628 115.727 217.32C115.17 217.012 114.569 216.858 113.923 216.858C113.278 216.858 112.677 217.012 112.119 217.32C111.577 217.628 111.144 218.09 110.821 218.706C110.499 219.307 110.337 220.048 110.337 220.928C110.337 222.233 110.667 223.245 111.327 223.964C112.002 224.668 112.845 225.02 113.857 225.02ZM133.739 220.642C133.739 221.097 133.709 221.507 133.651 221.874H124.389C124.462 222.842 124.821 223.619 125.467 224.206C126.112 224.793 126.904 225.086 127.843 225.086C129.192 225.086 130.145 224.521 130.703 223.392H133.409C133.042 224.507 132.375 225.423 131.407 226.142C130.453 226.846 129.265 227.198 127.843 227.198C126.684 227.198 125.643 226.941 124.719 226.428C123.809 225.9 123.091 225.167 122.563 224.228C122.049 223.275 121.793 222.175 121.793 220.928C121.793 219.681 122.042 218.589 122.541 217.65C123.054 216.697 123.765 215.963 124.675 215.45C125.599 214.937 126.655 214.68 127.843 214.68C128.987 214.68 130.006 214.929 130.901 215.428C131.795 215.927 132.492 216.631 132.991 217.54C133.489 218.435 133.739 219.469 133.739 220.642ZM131.121 219.85C131.106 218.926 130.776 218.185 130.131 217.628C129.485 217.071 128.686 216.792 127.733 216.792C126.867 216.792 126.127 217.071 125.511 217.628C124.895 218.171 124.528 218.911 124.411 219.85H131.121ZM55.5114 241.488L55.0074 244.356H58.0434L57.8994 245.196H54.8634L54.3354 248.136H57.7434L57.5874 249H53.0874L54.5754 240.624H59.0634L58.9074 241.488H55.5114ZM63.6317 242.304C64.3117 242.304 64.8557 242.488 65.2637 242.856C65.6717 243.216 65.8757 243.744 65.8757 244.44C65.8757 244.696 65.8557 244.924 65.8157 245.124L65.1317 249H64.0517L64.7117 245.28C64.7437 245.112 64.7597 244.936 64.7597 244.752C64.7597 244.264 64.6237 243.892 64.3517 243.636C64.0877 243.38 63.7157 243.252 63.2357 243.252C62.6597 243.252 62.1677 243.432 61.7597 243.792C61.3597 244.152 61.0997 244.676 60.9797 245.364V245.34L60.3317 249H59.2397L60.4037 242.424H61.4957L61.3277 243.372C61.5997 243.028 61.9397 242.764 62.3477 242.58C62.7557 242.396 63.1837 242.304 63.6317 242.304ZM67.0835 245.688C67.2035 245.016 67.4435 244.428 67.8035 243.924C68.1715 243.412 68.6195 243.016 69.1475 242.736C69.6755 242.456 70.2355 242.316 70.8275 242.316C71.3315 242.316 71.7835 242.436 72.1835 242.676C72.5835 242.908 72.8675 243.216 73.0355 243.6L73.6475 240.12H74.7515L73.1795 249H72.0755L72.3035 247.764C72.0235 248.156 71.6475 248.48 71.1755 248.736C70.7035 248.984 70.1835 249.108 69.6155 249.108C69.1035 249.108 68.6515 249 68.2595 248.784C67.8675 248.56 67.5595 248.244 67.3355 247.836C67.1195 247.428 67.0115 246.956 67.0115 246.42C67.0115 246.18 67.0355 245.936 67.0835 245.688ZM72.6635 245.7C72.6955 245.532 72.7115 245.352 72.7115 245.16C72.7115 244.576 72.5355 244.116 72.1835 243.78C71.8395 243.436 71.3995 243.264 70.8635 243.264C70.4555 243.264 70.0635 243.36 69.6875 243.552C69.3195 243.744 69.0035 244.024 68.7395 244.392C68.4755 244.76 68.2995 245.192 68.2115 245.688C68.1795 245.856 68.1635 246.04 68.1635 246.24C68.1635 246.832 68.3355 247.3 68.6795 247.644C69.0235 247.98 69.4635 248.148 69.9995 248.148C70.4075 248.148 70.7955 248.052 71.1635 247.86C71.5395 247.66 71.8595 247.376 72.1235 247.008C72.3955 246.632 72.5755 246.196 72.6635 245.7ZM77.9169 249.108C77.3649 249.108 76.8769 248.996 76.4529 248.772C76.0369 248.54 75.7129 248.22 75.4809 247.812C75.2489 247.396 75.1329 246.916 75.1329 246.372C75.1329 245.628 75.3049 244.948 75.6489 244.332C75.9929 243.708 76.4649 243.216 77.0649 242.856C77.6729 242.496 78.3489 242.316 79.0929 242.316C79.6449 242.316 80.1329 242.432 80.5569 242.664C80.9889 242.888 81.3209 243.208 81.5529 243.624C81.7929 244.032 81.9129 244.512 81.9129 245.064C81.9129 245.808 81.7369 246.488 81.3849 247.104C81.0329 247.72 80.5529 248.208 79.9449 248.568C79.3369 248.928 78.6609 249.108 77.9169 249.108ZM78.0489 248.184C78.5689 248.184 79.0369 248.044 79.4529 247.764C79.8689 247.476 80.1929 247.1 80.4249 246.636C80.6649 246.164 80.7849 245.66 80.7849 245.124C80.7849 244.516 80.6089 244.052 80.2569 243.732C79.9049 243.404 79.4649 243.24 78.9369 243.24C78.4169 243.24 77.9529 243.384 77.5449 243.672C77.1369 243.952 76.8209 244.328 76.5969 244.8C76.3729 245.272 76.2609 245.78 76.2609 246.324C76.2609 246.916 76.4289 247.376 76.7649 247.704C77.1009 248.024 77.5289 248.184 78.0489 248.184ZM82.8687 245.7C82.9887 245.02 83.2287 244.428 83.5887 243.924C83.9567 243.412 84.4087 243.016 84.9447 242.736C85.4807 242.456 86.0607 242.316 86.6847 242.316C87.4927 242.316 88.1207 242.512 88.5687 242.904C89.0247 243.296 89.2767 243.84 89.3247 244.536H88.1487C88.1087 244.136 87.9447 243.82 87.6567 243.588C87.3767 243.356 86.9967 243.24 86.5167 243.24C85.8927 243.24 85.3487 243.456 84.8847 243.888C84.4287 244.312 84.1327 244.916 83.9967 245.7C83.9567 245.964 83.9367 246.184 83.9367 246.36C83.9367 246.944 84.0927 247.396 84.4047 247.716C84.7167 248.028 85.1327 248.184 85.6527 248.184C86.1327 248.184 86.5487 248.072 86.9007 247.848C87.2607 247.624 87.5367 247.304 87.7287 246.888H88.9047C88.6167 247.56 88.1727 248.1 87.5727 248.508C86.9727 248.908 86.2767 249.108 85.4847 249.108C84.6607 249.108 84.0047 248.872 83.5167 248.4C83.0367 247.928 82.7967 247.284 82.7967 246.468C82.7967 246.22 82.8207 245.964 82.8687 245.7ZM92.0297 243.672C92.2937 243.24 92.6257 242.904 93.0257 242.664C93.4257 242.424 93.8817 242.304 94.3937 242.304L94.1897 243.432H93.9017C93.3337 243.432 92.8577 243.584 92.4737 243.888C92.0977 244.192 91.8457 244.704 91.7177 245.424L91.0817 249H89.9897L91.1537 242.424H92.2457L92.0297 243.672ZM96.3743 241.356C96.1983 241.356 96.0503 241.3 95.9303 241.188C95.8183 241.068 95.7623 240.92 95.7623 240.744C95.7623 240.504 95.8503 240.3 96.0263 240.132C96.2023 239.956 96.4063 239.868 96.6383 239.868C96.8223 239.868 96.9703 239.924 97.0823 240.036C97.1943 240.148 97.2503 240.296 97.2503 240.48C97.2503 240.72 97.1623 240.928 96.9863 241.104C96.8103 241.272 96.6063 241.356 96.3743 241.356ZM96.7223 242.424L95.5583 249H94.4663L95.6303 242.424H96.7223ZM101.811 242.304C102.491 242.304 103.035 242.488 103.443 242.856C103.851 243.216 104.055 243.744 104.055 244.44C104.055 244.696 104.035 244.924 103.995 245.124L103.311 249H102.231L102.891 245.28C102.923 245.112 102.939 244.936 102.939 244.752C102.939 244.264 102.803 243.892 102.531 243.636C102.267 243.38 101.895 243.252 101.415 243.252C100.839 243.252 100.347 243.432 99.9394 243.792C99.5394 244.152 99.2794 244.676 99.1594 245.364V245.34L98.5114 249H97.4194L98.5834 242.424H99.6754L99.5074 243.372C99.7794 243.028 100.119 242.764 100.527 242.58C100.935 242.396 101.363 242.304 101.811 242.304ZM109.115 242.316C109.667 242.316 110.143 242.424 110.543 242.64C110.951 242.848 111.259 243.144 111.467 243.528C111.683 243.904 111.791 244.336 111.791 244.824C111.791 244.992 111.771 245.196 111.731 245.436C111.699 245.644 111.647 245.86 111.575 246.084H106.319C106.303 246.244 106.295 246.36 106.295 246.432C106.295 246.984 106.459 247.416 106.787 247.728C107.123 248.032 107.559 248.184 108.095 248.184C108.567 248.184 108.979 248.076 109.331 247.86C109.691 247.636 109.963 247.34 110.147 246.972H111.323C111.035 247.604 110.591 248.12 109.991 248.52C109.399 248.912 108.711 249.108 107.927 249.108C107.103 249.108 106.439 248.872 105.935 248.4C105.439 247.92 105.191 247.268 105.191 246.444C105.191 246.212 105.215 245.964 105.263 245.7C105.383 245.02 105.627 244.424 105.995 243.912C106.363 243.4 106.815 243.008 107.351 242.736C107.895 242.456 108.483 242.316 109.115 242.316ZM110.627 245.292C110.651 245.132 110.663 244.984 110.663 244.848C110.663 244.336 110.499 243.94 110.171 243.66C109.851 243.38 109.431 243.24 108.911 243.24C108.351 243.24 107.843 243.424 107.387 243.792C106.931 244.152 106.623 244.652 106.463 245.292H110.627ZM10.7182 279.976C9.69419 278.973 8.89419 277.699 8.31819 276.152C7.75285 274.605 7.47019 272.936 7.47019 271.144C7.47019 269.309 7.76885 267.597 8.36619 266.008C8.97419 264.408 9.83819 263.091 10.9582 262.056H12.4782V262.2C11.2835 263.32 10.3822 264.669 9.77419 266.248C9.17685 267.816 8.87819 269.448 8.87819 271.144C8.87819 272.797 9.16085 274.376 9.72619 275.88C10.3022 277.384 11.1395 278.701 12.2382 279.832V279.976H10.7182ZM13.9678 268.344C14.0425 267.363 14.4211 266.595 15.1038 266.04C15.7865 265.485 16.6718 265.208 17.7598 265.208C18.4851 265.208 19.1091 265.341 19.6318 265.608C20.1651 265.864 20.5651 266.216 20.8318 266.664C21.1091 267.112 21.2478 267.619 21.2478 268.184C21.2478 268.845 21.0558 269.416 20.6718 269.896C20.2985 270.376 19.8078 270.685 19.1998 270.824V270.904C19.8931 271.075 20.4425 271.411 20.8478 271.912C21.2531 272.413 21.4558 273.069 21.4558 273.88C21.4558 274.488 21.3171 275.037 21.0398 275.528C20.7625 276.008 20.3465 276.387 19.7918 276.664C19.2371 276.941 18.5705 277.08 17.7918 277.08C16.6611 277.08 15.7331 276.787 15.0078 276.2C14.2825 275.603 13.8771 274.76 13.7918 273.672H15.1998C15.2745 274.312 15.5358 274.835 15.9838 275.24C16.4318 275.645 17.0291 275.848 17.7758 275.848C18.5225 275.848 19.0878 275.656 19.4718 275.272C19.8665 274.877 20.0638 274.371 20.0638 273.752C20.0638 272.952 19.7971 272.376 19.2638 272.024C18.7305 271.672 17.9251 271.496 16.8478 271.496H16.4798V270.28H16.8638C17.8451 270.269 18.5865 270.109 19.0878 269.8C19.5891 269.48 19.8398 268.989 19.8398 268.328C19.8398 267.763 19.6531 267.309 19.2798 266.968C18.9171 266.627 18.3945 266.456 17.7118 266.456C17.0505 266.456 16.5171 266.627 16.1118 266.968C15.7065 267.309 15.4665 267.768 15.3918 268.344H13.9678ZM23.4217 271.096C23.4217 269.261 23.7204 267.832 24.3177 266.808C24.915 265.773 25.9604 265.256 27.4537 265.256C28.9364 265.256 29.9764 265.773 30.5737 266.808C31.171 267.832 31.4697 269.261 31.4697 271.096C31.4697 272.963 31.171 274.413 30.5737 275.448C29.9764 276.483 28.9364 277 27.4537 277C25.9604 277 24.915 276.483 24.3177 275.448C23.7204 274.413 23.4217 272.963 23.4217 271.096ZM30.0297 271.096C30.0297 270.168 29.9657 269.384 29.8377 268.744C29.7204 268.093 29.4697 267.571 29.0857 267.176C28.7124 266.781 28.1684 266.584 27.4537 266.584C26.7284 266.584 26.1737 266.781 25.7897 267.176C25.4164 267.571 25.1657 268.093 25.0377 268.744C24.9204 269.384 24.8617 270.168 24.8617 271.096C24.8617 272.056 24.9204 272.861 25.0377 273.512C25.1657 274.163 25.4164 274.685 25.7897 275.08C26.1737 275.475 26.7284 275.672 27.4537 275.672C28.1684 275.672 28.7124 275.475 29.0857 275.08C29.4697 274.685 29.7204 274.163 29.8377 273.512C29.9657 272.861 30.0297 272.056 30.0297 271.096ZM40.8446 266.696H35.2286V270.344C35.4739 270.003 35.8366 269.725 36.3166 269.512C36.7966 269.288 37.3139 269.176 37.8686 269.176C38.7539 269.176 39.4739 269.363 40.0286 269.736C40.5832 270.099 40.9779 270.573 41.2126 271.16C41.4579 271.736 41.5806 272.349 41.5806 273C41.5806 273.768 41.4366 274.456 41.1486 275.064C40.8606 275.672 40.4179 276.152 39.8206 276.504C39.2339 276.856 38.5032 277.032 37.6286 277.032C36.5086 277.032 35.6019 276.744 34.9086 276.168C34.2152 275.592 33.7939 274.824 33.6446 273.864H35.0686C35.2072 274.472 35.5006 274.947 35.9486 275.288C36.3966 275.629 36.9619 275.8 37.6446 275.8C38.4872 275.8 39.1219 275.549 39.5486 275.048C39.9752 274.536 40.1886 273.864 40.1886 273.032C40.1886 272.2 39.9752 271.56 39.5486 271.112C39.1219 270.653 38.4926 270.424 37.6606 270.424C37.0952 270.424 36.5992 270.563 36.1726 270.84C35.7566 271.107 35.4526 271.475 35.2606 271.944H33.8846V265.416H40.8446V266.696ZM43.2914 279.976V279.832C44.3901 278.701 45.2221 277.384 45.7874 275.88C46.3634 274.376 46.6514 272.797 46.6514 271.144C46.6514 269.448 46.3474 267.816 45.7394 266.248C45.1421 264.669 44.2461 263.32 43.0514 262.2V262.056H44.5714C45.6914 263.091 46.5501 264.408 47.1474 266.008C47.7554 267.597 48.0594 269.309 48.0594 271.144C48.0594 272.936 47.7714 274.605 47.1954 276.152C46.6301 277.699 45.8354 278.973 44.8114 279.976H43.2914ZM62.4227 266.696H56.8067V270.344C57.052 270.003 57.4147 269.725 57.8947 269.512C58.3747 269.288 58.892 269.176 59.4467 269.176C60.332 269.176 61.052 269.363 61.6067 269.736C62.1614 270.099 62.556 270.573 62.7907 271.16C63.036 271.736 63.1587 272.349 63.1587 273C63.1587 273.768 63.0147 274.456 62.7267 275.064C62.4387 275.672 61.996 276.152 61.3987 276.504C60.812 276.856 60.0814 277.032 59.2067 277.032C58.0867 277.032 57.18 276.744 56.4867 276.168C55.7934 275.592 55.372 274.824 55.2227 273.864H56.6467C56.7854 274.472 57.0787 274.947 57.5267 275.288C57.9747 275.629 58.54 275.8 59.2227 275.8C60.0654 275.8 60.7 275.549 61.1267 275.048C61.5534 274.536 61.7667 273.864 61.7667 273.032C61.7667 272.2 61.5534 271.56 61.1267 271.112C60.7 270.653 60.0707 270.424 59.2387 270.424C58.6734 270.424 58.1774 270.563 57.7507 270.84C57.3347 271.107 57.0307 271.475 56.8387 271.944H55.4627V265.416H62.4227V266.696ZM67.2056 270.984C66.6082 270.749 66.1496 270.408 65.8296 269.96C65.5096 269.512 65.3496 268.968 65.3496 268.328C65.3496 267.752 65.4936 267.235 65.7816 266.776C66.0696 266.307 66.4962 265.939 67.0616 265.672C67.6376 265.395 68.3309 265.256 69.1416 265.256C69.9522 265.256 70.6402 265.395 71.2056 265.672C71.7816 265.939 72.2136 266.307 72.5016 266.776C72.8002 267.235 72.9496 267.752 72.9496 268.328C72.9496 268.947 72.7842 269.491 72.4536 269.96C72.1229 270.419 71.6696 270.76 71.0936 270.984C71.7549 271.187 72.2776 271.544 72.6616 272.056C73.0562 272.557 73.2536 273.165 73.2536 273.88C73.2536 274.573 73.0829 275.181 72.7416 275.704C72.4002 276.216 71.9149 276.616 71.2856 276.904C70.6669 277.181 69.9522 277.32 69.1416 277.32C68.3309 277.32 67.6162 277.181 66.9976 276.904C66.3896 276.616 65.9149 276.216 65.5736 275.704C65.2322 275.181 65.0616 274.573 65.0616 273.88C65.0616 273.165 65.2536 272.552 65.6376 272.04C66.0216 271.528 66.5442 271.176 67.2056 270.984ZM71.5416 268.504C71.5416 267.853 71.3282 267.352 70.9016 267C70.4749 266.648 69.8882 266.472 69.1416 266.472C68.4056 266.472 67.8242 266.648 67.3976 267C66.9709 267.352 66.7576 267.859 66.7576 268.52C66.7576 269.117 66.9762 269.597 67.4136 269.96C67.8616 270.323 68.4376 270.504 69.1416 270.504C69.8562 270.504 70.4322 270.323 70.8696 269.96C71.3176 269.587 71.5416 269.101 71.5416 268.504ZM69.1416 271.624C68.3522 271.624 67.7069 271.811 67.2056 272.184C66.7042 272.547 66.4536 273.096 66.4536 273.832C66.4536 274.515 66.6936 275.064 67.1736 275.48C67.6642 275.896 68.3202 276.104 69.1416 276.104C69.9629 276.104 70.6136 275.896 71.0936 275.48C71.5736 275.064 71.8136 274.515 71.8136 273.832C71.8136 273.117 71.5682 272.573 71.0776 272.2C70.5869 271.816 69.9416 271.624 69.1416 271.624ZM82.5633 266.696H76.9473V270.344C77.1926 270.003 77.5553 269.725 78.0353 269.512C78.5153 269.288 79.0326 269.176 79.5873 269.176C80.4726 269.176 81.1926 269.363 81.7473 269.736C82.302 270.099 82.6966 270.573 82.9313 271.16C83.1766 271.736 83.2993 272.349 83.2993 273C83.2993 273.768 83.1553 274.456 82.8673 275.064C82.5793 275.672 82.1366 276.152 81.5393 276.504C80.9526 276.856 80.222 277.032 79.3473 277.032C78.2273 277.032 77.3206 276.744 76.6273 276.168C75.934 275.592 75.5126 274.824 75.3633 273.864H76.7873C76.926 274.472 77.2193 274.947 77.6673 275.288C78.1153 275.629 78.6806 275.8 79.3633 275.8C80.206 275.8 80.8406 275.549 81.2673 275.048C81.694 274.536 81.9073 273.864 81.9073 273.032C81.9073 272.2 81.694 271.56 81.2673 271.112C80.8406 270.653 80.2113 270.424 79.3793 270.424C78.814 270.424 78.318 270.563 77.8913 270.84C77.4753 271.107 77.1713 271.475 76.9793 271.944H75.6033V265.416H82.5633V266.696ZM96.6198 266.568L92.1718 277H90.6998L95.2118 266.712H89.0358V265.464H96.6198V266.568ZM105.354 266.568L100.906 277H99.4342L103.946 266.712H97.7702V265.464H105.354V266.568ZM108.841 273.896C108.947 274.504 109.193 274.973 109.577 275.304C109.971 275.635 110.499 275.8 111.161 275.8C112.046 275.8 112.697 275.453 113.113 274.76C113.539 274.067 113.742 272.899 113.721 271.256C113.497 271.736 113.123 272.115 112.601 272.392C112.078 272.659 111.497 272.792 110.857 272.792C110.142 272.792 109.502 272.648 108.937 272.36C108.382 272.061 107.945 271.629 107.625 271.064C107.305 270.499 107.145 269.816 107.145 269.016C107.145 267.875 107.475 266.957 108.137 266.264C108.798 265.56 109.737 265.208 110.953 265.208C112.446 265.208 113.491 265.693 114.089 266.664C114.697 267.635 115.001 269.08 115.001 271C115.001 272.344 114.878 273.453 114.633 274.328C114.398 275.203 113.993 275.869 113.417 276.328C112.851 276.787 112.073 277.016 111.081 277.016C109.993 277.016 109.145 276.723 108.537 276.136C107.929 275.549 107.582 274.803 107.497 273.896H108.841ZM111.097 271.56C111.811 271.56 112.398 271.341 112.857 270.904C113.315 270.456 113.545 269.853 113.545 269.096C113.545 268.296 113.321 267.651 112.873 267.16C112.425 266.669 111.795 266.424 110.985 266.424C110.238 266.424 109.641 266.659 109.193 267.128C108.755 267.597 108.537 268.216 108.537 268.984C108.537 269.763 108.755 270.387 109.193 270.856C109.63 271.325 110.265 271.56 111.097 271.56ZM120.96 274.424V273.32L126.576 265.544H128.32V273.16H129.92V274.424H128.32V277H126.88V274.424H120.96ZM126.944 267.064L122.64 273.16H126.944V267.064ZM138.751 266.696H133.135V270.344C133.38 270.003 133.743 269.725 134.223 269.512C134.703 269.288 135.22 269.176 135.775 269.176C136.66 269.176 137.38 269.363 137.935 269.736C138.489 270.099 138.884 270.573 139.119 271.16C139.364 271.736 139.487 272.349 139.487 273C139.487 273.768 139.343 274.456 139.055 275.064C138.767 275.672 138.324 276.152 137.727 276.504C137.14 276.856 136.409 277.032 135.535 277.032C134.415 277.032 133.508 276.744 132.815 276.168C132.121 275.592 131.7 274.824 131.551 273.864H132.975C133.113 274.472 133.407 274.947 133.855 275.288C134.303 275.629 134.868 275.8 135.551 275.8C136.393 275.8 137.028 275.549 137.455 275.048C137.881 274.536 138.095 273.864 138.095 273.032C138.095 272.2 137.881 271.56 137.455 271.112C137.028 270.653 136.399 270.424 135.567 270.424C135.001 270.424 134.505 270.563 134.079 270.84C133.663 271.107 133.359 271.475 133.167 271.944H131.791V265.416H138.751V266.696ZM148.542 266.568L144.094 277H142.622L147.134 266.712H140.958V265.464H148.542V266.568ZM152.268 270.984C151.671 270.749 151.212 270.408 150.892 269.96C150.572 269.512 150.412 268.968 150.412 268.328C150.412 267.752 150.556 267.235 150.844 266.776C151.132 266.307 151.559 265.939 152.124 265.672C152.7 265.395 153.393 265.256 154.204 265.256C155.015 265.256 155.703 265.395 156.268 265.672C156.844 265.939 157.276 266.307 157.564 266.776C157.863 267.235 158.012 267.752 158.012 268.328C158.012 268.947 157.847 269.491 157.516 269.96C157.185 270.419 156.732 270.76 156.156 270.984C156.817 271.187 157.34 271.544 157.724 272.056C158.119 272.557 158.316 273.165 158.316 273.88C158.316 274.573 158.145 275.181 157.804 275.704C157.463 276.216 156.977 276.616 156.348 276.904C155.729 277.181 155.015 277.32 154.204 277.32C153.393 277.32 152.679 277.181 152.06 276.904C151.452 276.616 150.977 276.216 150.636 275.704C150.295 275.181 150.124 274.573 150.124 273.88C150.124 273.165 150.316 272.552 150.7 272.04C151.084 271.528 151.607 271.176 152.268 270.984ZM156.604 268.504C156.604 267.853 156.391 267.352 155.964 267C155.537 266.648 154.951 266.472 154.204 266.472C153.468 266.472 152.887 266.648 152.46 267C152.033 267.352 151.82 267.859 151.82 268.52C151.82 269.117 152.039 269.597 152.476 269.96C152.924 270.323 153.5 270.504 154.204 270.504C154.919 270.504 155.495 270.323 155.932 269.96C156.38 269.587 156.604 269.101 156.604 268.504ZM154.204 271.624C153.415 271.624 152.769 271.811 152.268 272.184C151.767 272.547 151.516 273.096 151.516 273.832C151.516 274.515 151.756 275.064 152.236 275.48C152.727 275.896 153.383 276.104 154.204 276.104C155.025 276.104 155.676 275.896 156.156 275.48C156.636 275.064 156.876 274.515 156.876 273.832C156.876 273.117 156.631 272.573 156.14 272.2C155.649 271.816 155.004 271.624 154.204 271.624ZM14.9769 294.808C14.6996 294.808 14.4649 294.712 14.2729 294.52C14.0916 294.328 14.0009 294.093 14.0009 293.816C14.0009 293.539 14.0916 293.304 14.2729 293.112C14.4649 292.92 14.6996 292.824 14.9769 292.824C15.2543 292.824 15.4836 292.92 15.6649 293.112C15.8569 293.304 15.9529 293.539 15.9529 293.816C15.9529 294.093 15.8569 294.328 15.6649 294.52C15.4836 294.712 15.2543 294.808 14.9769 294.808ZM15.6969 306.904C15.6969 307.683 15.4996 308.253 15.1049 308.616C14.7103 308.979 14.1343 309.16 13.3769 309.16H12.5289V307.928H13.1369C13.5423 307.928 13.8249 307.848 13.9849 307.688C14.1556 307.528 14.2409 307.256 14.2409 306.872V296.232H15.6969V306.904ZM17.6177 300.584C17.6177 299.688 17.799 298.904 18.1617 298.232C18.5244 297.549 19.0204 297.021 19.6497 296.648C20.2897 296.275 20.999 296.088 21.7777 296.088C22.5457 296.088 23.2124 296.253 23.7777 296.584C24.343 296.915 24.7644 297.331 25.0417 297.832V296.232H26.5137V305H25.0417V303.368C24.7537 303.88 24.3217 304.307 23.7457 304.648C23.1804 304.979 22.519 305.144 21.7617 305.144C20.983 305.144 20.279 304.952 19.6497 304.568C19.0204 304.184 18.5244 303.645 18.1617 302.952C17.799 302.259 17.6177 301.469 17.6177 300.584ZM25.0417 300.6C25.0417 299.939 24.9084 299.363 24.6417 298.872C24.375 298.381 24.0124 298.008 23.5537 297.752C23.1057 297.485 22.6097 297.352 22.0657 297.352C21.5217 297.352 21.0257 297.48 20.5777 297.736C20.1297 297.992 19.7724 298.365 19.5057 298.856C19.239 299.347 19.1057 299.923 19.1057 300.584C19.1057 301.256 19.239 301.843 19.5057 302.344C19.7724 302.835 20.1297 303.213 20.5777 303.48C21.0257 303.736 21.5217 303.864 22.0657 303.864C22.6097 303.864 23.1057 303.736 23.5537 303.48C24.0124 303.213 24.375 302.835 24.6417 302.344C24.9084 301.843 25.0417 301.261 25.0417 300.6ZM33.2462 296.072C34.3129 296.072 35.1769 296.397 35.8382 297.048C36.4995 297.688 36.8302 298.616 36.8302 299.832V305H35.3902V300.04C35.3902 299.165 35.1715 298.499 34.7342 298.04C34.2969 297.571 33.6995 297.336 32.9422 297.336C32.1742 297.336 31.5609 297.576 31.1022 298.056C30.6542 298.536 30.4302 299.235 30.4302 300.152V305H28.9742V296.232H30.4302V297.48C30.7182 297.032 31.1075 296.685 31.5982 296.44C32.0995 296.195 32.6489 296.072 33.2462 296.072ZM47.2086 300.28C47.2086 300.557 47.1926 300.851 47.1606 301.16H40.1526C40.2059 302.024 40.4992 302.701 41.0326 303.192C41.5766 303.672 42.2326 303.912 43.0006 303.912C43.6299 303.912 44.1526 303.768 44.5686 303.48C44.9952 303.181 45.2939 302.787 45.4646 302.296H47.0326C46.7979 303.139 46.3286 303.827 45.6246 304.36C44.9206 304.883 44.0459 305.144 43.0006 305.144C42.1686 305.144 41.4219 304.957 40.7606 304.584C40.1099 304.211 39.5979 303.683 39.2246 303C38.8512 302.307 38.6646 301.507 38.6646 300.6C38.6646 299.693 38.8459 298.899 39.2086 298.216C39.5712 297.533 40.0779 297.011 40.7286 296.648C41.3899 296.275 42.1472 296.088 43.0006 296.088C43.8326 296.088 44.5686 296.269 45.2086 296.632C45.8486 296.995 46.3392 297.496 46.6806 298.136C47.0326 298.765 47.2086 299.48 47.2086 300.28ZM45.7046 299.976C45.7046 299.421 45.5819 298.947 45.3366 298.552C45.0912 298.147 44.7552 297.843 44.3286 297.64C43.9126 297.427 43.4486 297.32 42.9366 297.32C42.2006 297.32 41.5712 297.555 41.0486 298.024C40.5366 298.493 40.2432 299.144 40.1686 299.976H45.7046ZM57.1304 294.744C58.3144 294.744 59.3438 294.968 60.2184 295.416C61.0931 295.864 61.7651 296.493 62.2344 297.304C62.7038 298.104 62.9384 299.032 62.9384 300.088C62.9384 300.931 62.7998 301.741 62.5224 302.52C62.2451 303.288 61.8398 303.912 61.3064 304.392C60.7838 304.872 60.1704 305.112 59.4664 305.112C58.9331 305.112 58.5224 304.979 58.2344 304.712C57.9464 304.445 57.7811 304.083 57.7384 303.624C57.4078 304.083 56.9864 304.445 56.4744 304.712C55.9731 304.979 55.4398 305.112 54.8744 305.112C54.0638 305.112 53.4238 304.867 52.9544 304.376C52.4958 303.875 52.2664 303.203 52.2664 302.36C52.2664 301.56 52.4318 300.813 52.7624 300.12C53.1038 299.427 53.5731 298.872 54.1704 298.456C54.7678 298.029 55.4451 297.816 56.2024 297.816C57.2158 297.816 57.8984 298.2 58.2504 298.968L58.4264 297.976H59.6904L58.8904 302.6C58.8584 302.803 58.8424 302.989 58.8424 303.16C58.8424 303.8 59.1251 304.12 59.6904 304.12C60.1171 304.12 60.4851 303.917 60.7944 303.512C61.1144 303.107 61.3544 302.6 61.5144 301.992C61.6744 301.373 61.7544 300.765 61.7544 300.168C61.7544 298.771 61.3331 297.688 60.4904 296.92C59.6584 296.152 58.4798 295.768 56.9544 295.768C55.6851 295.768 54.5384 296.077 53.5144 296.696C52.5011 297.304 51.7064 298.141 51.1304 299.208C50.5544 300.275 50.2664 301.453 50.2664 302.744C50.2558 304.152 50.6771 305.235 51.5304 305.992C52.3838 306.76 53.5678 307.144 55.0824 307.144C56.0851 307.144 56.9704 306.963 57.7384 306.6L57.9304 307.592C56.9811 307.987 55.9358 308.184 54.7944 308.184C53.6531 308.184 52.6451 307.965 51.7704 307.528C50.9064 307.101 50.2344 306.483 49.7544 305.672C49.2851 304.872 49.0504 303.939 49.0504 302.872C49.0504 301.368 49.3971 299.997 50.0904 298.76C50.7838 297.512 51.7438 296.531 52.9704 295.816C54.2078 295.101 55.5944 294.744 57.1304 294.744ZM55.3064 303.976C55.7864 303.976 56.2291 303.837 56.6344 303.56C57.0398 303.272 57.3598 302.888 57.5944 302.408C57.8291 301.917 57.9464 301.384 57.9464 300.808C57.9464 300.253 57.7918 299.805 57.4824 299.464C57.1838 299.112 56.7571 298.936 56.2024 298.936C55.6904 298.936 55.2371 299.091 54.8424 299.4C54.4584 299.699 54.1598 300.099 53.9464 300.6C53.7331 301.091 53.6264 301.603 53.6264 302.136C53.6264 302.701 53.7704 303.149 54.0584 303.48C54.3464 303.811 54.7624 303.976 55.3064 303.976ZM66.7896 297.848C67.0776 297.347 67.5042 296.931 68.0696 296.6C68.6456 296.259 69.3122 296.088 70.0696 296.088C70.8482 296.088 71.5522 296.275 72.1816 296.648C72.8216 297.021 73.3229 297.549 73.6856 298.232C74.0482 298.904 74.2296 299.688 74.2296 300.584C74.2296 301.469 74.0482 302.259 73.6856 302.952C73.3229 303.645 72.8216 304.184 72.1816 304.568C71.5522 304.952 70.8482 305.144 70.0696 305.144C69.3229 305.144 68.6616 304.979 68.0856 304.648C67.5202 304.307 67.0882 303.885 66.7896 303.384V309.16H65.3336V296.232H66.7896V297.848ZM72.7416 300.584C72.7416 299.923 72.6082 299.347 72.3416 298.856C72.0749 298.365 71.7122 297.992 71.2536 297.736C70.8056 297.48 70.3096 297.352 69.7656 297.352C69.2322 297.352 68.7362 297.485 68.2776 297.752C67.8296 298.008 67.4669 298.387 67.1896 298.888C66.9229 299.379 66.7896 299.949 66.7896 300.6C66.7896 301.261 66.9229 301.843 67.1896 302.344C67.4669 302.835 67.8296 303.213 68.2776 303.48C68.7362 303.736 69.2322 303.864 69.7656 303.864C70.3096 303.864 70.8056 303.736 71.2536 303.48C71.7122 303.213 72.0749 302.835 72.3416 302.344C72.6082 301.843 72.7416 301.256 72.7416 300.584ZM79.2501 305.144C78.5781 305.144 77.9754 305.032 77.4421 304.808C76.9087 304.573 76.4874 304.253 76.1781 303.848C75.8687 303.432 75.6981 302.957 75.6661 302.424H77.1701C77.2127 302.861 77.4154 303.219 77.7781 303.496C78.1514 303.773 78.6367 303.912 79.2341 303.912C79.7887 303.912 80.2261 303.789 80.5461 303.544C80.8661 303.299 81.0261 302.989 81.0261 302.616C81.0261 302.232 80.8554 301.949 80.5141 301.768C80.1727 301.576 79.6447 301.389 78.9301 301.208C78.2794 301.037 77.7461 300.867 77.3301 300.696C76.9247 300.515 76.5727 300.253 76.2741 299.912C75.9861 299.56 75.8421 299.101 75.8421 298.536C75.8421 298.088 75.9754 297.677 76.2421 297.304C76.5087 296.931 76.8874 296.637 77.3781 296.424C77.8687 296.2 78.4287 296.088 79.0581 296.088C80.0287 296.088 80.8127 296.333 81.4101 296.824C82.0074 297.315 82.3274 297.987 82.3701 298.84H80.9141C80.8821 298.381 80.6954 298.013 80.3541 297.736C80.0234 297.459 79.5754 297.32 79.0101 297.32C78.4874 297.32 78.0714 297.432 77.7621 297.656C77.4527 297.88 77.2981 298.173 77.2981 298.536C77.2981 298.824 77.3887 299.064 77.5701 299.256C77.7621 299.437 77.9967 299.587 78.2741 299.704C78.5621 299.811 78.9567 299.933 79.4581 300.072C80.0874 300.243 80.5994 300.413 80.9941 300.584C81.3887 300.744 81.7247 300.989 82.0021 301.32C82.2901 301.651 82.4394 302.083 82.4501 302.616C82.4501 303.096 82.3167 303.528 82.0501 303.912C81.7834 304.296 81.4047 304.6 80.9141 304.824C80.4341 305.037 79.8794 305.144 79.2501 305.144ZM92.0574 296.232L86.7774 309.128H85.2734L87.0014 304.904L83.4654 296.232H85.0814L87.8334 303.336L90.5534 296.232H92.0574ZM92.9771 300.6C92.9771 299.693 93.1584 298.904 93.5211 298.232C93.8837 297.549 94.3851 297.021 95.0251 296.648C95.6757 296.275 96.4171 296.088 97.2491 296.088C98.3264 296.088 99.2117 296.349 99.9051 296.872C100.609 297.395 101.073 298.12 101.297 299.048H99.7291C99.5797 298.515 99.2864 298.093 98.8491 297.784C98.4224 297.475 97.8891 297.32 97.2491 297.32C96.4171 297.32 95.7451 297.608 95.2331 298.184C94.7211 298.749 94.4651 299.555 94.4651 300.6C94.4651 301.656 94.7211 302.472 95.2331 303.048C95.7451 303.624 96.4171 303.912 97.2491 303.912C97.8891 303.912 98.4224 303.763 98.8491 303.464C99.2757 303.165 99.5691 302.739 99.7291 302.184H101.297C101.062 303.08 100.593 303.8 99.8891 304.344C99.1851 304.877 98.3051 305.144 97.2491 305.144C96.4171 305.144 95.6757 304.957 95.0251 304.584C94.3851 304.211 93.8837 303.683 93.5211 303C93.1584 302.317 92.9771 301.517 92.9771 300.6ZM107.592 296.072C108.253 296.072 108.85 296.216 109.384 296.504C109.917 296.781 110.333 297.203 110.632 297.768C110.941 298.333 111.096 299.021 111.096 299.832V305H109.656V300.04C109.656 299.165 109.437 298.499 109 298.04C108.562 297.571 107.965 297.336 107.208 297.336C106.44 297.336 105.826 297.576 105.368 298.056C104.92 298.536 104.696 299.235 104.696 300.152V305H103.24V293.16H104.696V297.48C104.984 297.032 105.378 296.685 105.88 296.44C106.392 296.195 106.962 296.072 107.592 296.072ZM113.938 305.096C113.661 305.096 113.426 305 113.234 304.808C113.042 304.616 112.946 304.381 112.946 304.104C112.946 303.827 113.042 303.592 113.234 303.4C113.426 303.208 113.661 303.112 113.938 303.112C114.205 303.112 114.429 303.208 114.61 303.4C114.802 303.592 114.898 303.827 114.898 304.104C114.898 304.381 114.802 304.616 114.61 304.808C114.429 305 114.205 305.096 113.938 305.096ZM116.29 300.6C116.29 299.693 116.471 298.904 116.834 298.232C117.196 297.549 117.698 297.021 118.338 296.648C118.988 296.275 119.73 296.088 120.562 296.088C121.639 296.088 122.524 296.349 123.218 296.872C123.922 297.395 124.386 298.12 124.61 299.048H123.042C122.892 298.515 122.599 298.093 122.162 297.784C121.735 297.475 121.202 297.32 120.562 297.32C119.73 297.32 119.058 297.608 118.546 298.184C118.034 298.749 117.778 299.555 117.778 300.6C117.778 301.656 118.034 302.472 118.546 303.048C119.058 303.624 119.73 303.912 120.562 303.912C121.202 303.912 121.735 303.763 122.162 303.464C122.588 303.165 122.882 302.739 123.042 302.184H124.61C124.375 303.08 123.906 303.8 123.202 304.344C122.498 304.877 121.618 305.144 120.562 305.144C119.73 305.144 118.988 304.957 118.338 304.584C117.698 304.211 117.196 303.683 116.834 303C116.471 302.317 116.29 301.517 116.29 300.6ZM130.376 305.144C129.555 305.144 128.808 304.957 128.136 304.584C127.475 304.211 126.952 303.683 126.568 303C126.195 302.307 126.008 301.507 126.008 300.6C126.008 299.704 126.2 298.915 126.584 298.232C126.979 297.539 127.512 297.011 128.184 296.648C128.856 296.275 129.608 296.088 130.44 296.088C131.272 296.088 132.024 296.275 132.696 296.648C133.368 297.011 133.896 297.533 134.28 298.216C134.675 298.899 134.872 299.693 134.872 300.6C134.872 301.507 134.67 302.307 134.264 303C133.87 303.683 133.331 304.211 132.648 304.584C131.966 304.957 131.208 305.144 130.376 305.144ZM130.376 303.864C130.899 303.864 131.39 303.741 131.848 303.496C132.307 303.251 132.675 302.883 132.952 302.392C133.24 301.901 133.384 301.304 133.384 300.6C133.384 299.896 133.246 299.299 132.968 298.808C132.691 298.317 132.328 297.955 131.88 297.72C131.432 297.475 130.947 297.352 130.424 297.352C129.891 297.352 129.4 297.475 128.952 297.72C128.515 297.955 128.163 298.317 127.896 298.808C127.63 299.299 127.496 299.896 127.496 300.6C127.496 301.315 127.624 301.917 127.88 302.408C128.147 302.899 128.499 303.267 128.936 303.512C129.374 303.747 129.854 303.864 130.376 303.864ZM147.331 296.072C148.013 296.072 148.621 296.216 149.155 296.504C149.688 296.781 150.109 297.203 150.419 297.768C150.728 298.333 150.883 299.021 150.883 299.832V305H149.443V300.04C149.443 299.165 149.224 298.499 148.787 298.04C148.36 297.571 147.779 297.336 147.043 297.336C146.285 297.336 145.683 297.581 145.235 298.072C144.787 298.552 144.563 299.251 144.563 300.168V305H143.123V300.04C143.123 299.165 142.904 298.499 142.467 298.04C142.04 297.571 141.459 297.336 140.723 297.336C139.965 297.336 139.363 297.581 138.915 298.072C138.467 298.552 138.243 299.251 138.243 300.168V305H136.787V296.232H138.243V297.496C138.531 297.037 138.915 296.685 139.395 296.44C139.885 296.195 140.424 296.072 141.011 296.072C141.747 296.072 142.397 296.237 142.963 296.568C143.528 296.899 143.949 297.384 144.227 298.024C144.472 297.405 144.877 296.925 145.443 296.584C146.008 296.243 146.637 296.072 147.331 296.072Z" fill="black"/>
</svg>
