<svg width="291" height="196" viewBox="0 0 291 196" fill="none" xmlns="http://www.w3.org/2000/svg">
<path d="M26.28 104L26.88 76.76L53.4 50.96H80.4L51 81.32L39.36 90.68L26.28 104ZM7.32 116V26.96H30.12V116H7.32ZM55.08 116L35.16 91.04L49.32 73.52L82.68 116H55.08ZM98.0813 116L74.9212 50.96H96.5213L114.881 105.32H104.561L123.641 50.96H143.081L161.441 105.32H151.361L170.321 50.96H190.361L167.201 116H145.121L129.521 71H136.241L120.161 116H98.0813ZM194.328 116V50.96H217.128V116H194.328ZM205.728 43.76C201.568 43.76 198.208 42.6 195.648 40.28C193.088 37.96 191.808 35.08 191.808 31.64C191.808 28.2 193.088 25.32 195.648 23C198.208 20.68 201.568 19.52 205.728 19.52C209.888 19.52 213.248 20.64 215.808 22.88C218.368 25.04 219.648 27.84 219.648 31.28C219.648 34.88 218.368 37.88 215.808 40.28C213.328 42.6 209.968 43.76 205.728 43.76ZM228.945 116V50.96H250.665V69.92L247.425 64.52C249.345 59.64 252.465 56 256.785 53.6C261.105 51.12 266.345 49.88 272.505 49.88V70.4C271.465 70.24 270.545 70.16 269.745 70.16C269.025 70.08 268.225 70.04 267.345 70.04C262.705 70.04 258.945 71.32 256.065 73.88C253.185 76.36 251.745 80.44 251.745 86.12V116H228.945Z" fill="#F0F0F0"/>
<path d="M12.975 144.2C11.6917 144.2 10.5333 143.917 9.5 143.35C8.48333 142.767 7.675 141.95 7.075 140.9C6.49167 139.833 6.2 138.592 6.2 137.175C6.2 135.758 6.5 134.525 7.1 133.475C7.7 132.408 8.51667 131.592 9.55 131.025C10.5833 130.442 11.7417 130.15 13.025 130.15C14.3083 130.15 15.4667 130.442 16.5 131.025C17.55 131.592 18.3667 132.408 18.95 133.475C19.55 134.525 19.85 135.758 19.85 137.175C19.85 138.575 19.55 139.808 18.95 140.875C18.35 141.942 17.525 142.767 16.475 143.35C15.425 143.917 14.2583 144.2 12.975 144.2ZM12.975 142.675C13.875 142.675 14.7083 142.475 15.475 142.075C16.2417 141.658 16.8583 141.042 17.325 140.225C17.8083 139.392 18.05 138.375 18.05 137.175C18.05 135.975 17.8167 134.967 17.35 134.15C16.8833 133.317 16.2667 132.7 15.5 132.3C14.7333 131.883 13.9 131.675 13 131.675C12.1 131.675 11.2667 131.883 10.5 132.3C9.73333 132.7 9.11667 133.317 8.65 134.15C8.2 134.967 7.975 135.975 7.975 137.175C7.975 138.375 8.2 139.392 8.65 140.225C9.11667 141.042 9.725 141.658 10.475 142.075C11.2417 142.475 12.075 142.675 12.975 142.675ZM34.865 130.35V144H33.115V141.6C32.715 142.45 32.0984 143.1 31.265 143.55C30.4317 144 29.4984 144.225 28.465 144.225C26.8317 144.225 25.4984 143.725 24.465 142.725C23.4317 141.708 22.915 140.242 22.915 138.325V130.35H24.64V138.125C24.64 139.608 25.0067 140.742 25.74 141.525C26.49 142.308 27.5067 142.7 28.79 142.7C30.1067 142.7 31.1567 142.283 31.94 141.45C32.7234 140.617 33.115 139.392 33.115 137.775V130.35H34.865ZM41.1354 131.825V140.3C41.1354 141.133 41.2937 141.708 41.6104 142.025C41.927 142.342 42.4854 142.5 43.2854 142.5H44.8854V144H43.0104C41.777 144 40.8604 143.717 40.2604 143.15C39.6604 142.567 39.3604 141.617 39.3604 140.3V131.825H37.4604V130.35H39.3604V126.925H41.1354V130.35H44.8854V131.825H41.1354ZM53.8318 137.15C53.8318 135.75 54.1068 134.525 54.6568 133.475C55.2235 132.408 55.9985 131.592 56.9818 131.025C57.9818 130.442 59.1068 130.15 60.3568 130.15C61.6568 130.15 62.7735 130.45 63.7068 131.05C64.6568 131.65 65.3402 132.417 65.7568 133.35V130.35H67.5068V144H65.7568V140.975C65.3235 141.908 64.6318 142.683 63.6818 143.3C62.7485 143.9 61.6318 144.2 60.3318 144.2C59.0985 144.2 57.9818 143.908 56.9818 143.325C55.9985 142.742 55.2235 141.917 54.6568 140.85C54.1068 139.783 53.8318 138.55 53.8318 137.15ZM65.7568 137.175C65.7568 136.075 65.5318 135.108 65.0818 134.275C64.6318 133.442 64.0152 132.8 63.2318 132.35C62.4652 131.9 61.6152 131.675 60.6818 131.675C59.7152 131.675 58.8485 131.892 58.0818 132.325C57.3152 132.758 56.7068 133.392 56.2568 134.225C55.8235 135.042 55.6068 136.017 55.6068 137.15C55.6068 138.267 55.8235 139.25 56.2568 140.1C56.7068 140.933 57.3152 141.575 58.0818 142.025C58.8485 142.458 59.7152 142.675 60.6818 142.675C61.6152 142.675 62.4652 142.45 63.2318 142C64.0152 141.55 64.6318 140.908 65.0818 140.075C65.5318 139.242 65.7568 138.275 65.7568 137.175ZM77.902 130.1C79.5353 130.1 80.8686 130.608 81.902 131.625C82.9353 132.625 83.452 134.083 83.452 136V144H81.727V136.2C81.727 134.717 81.352 133.583 80.602 132.8C79.8686 132.017 78.8603 131.625 77.577 131.625C76.2603 131.625 75.2103 132.042 74.427 132.875C73.6436 133.708 73.252 134.933 73.252 136.55V144H71.502V130.35H73.252V132.675C73.6853 131.842 74.3103 131.208 75.127 130.775C75.9436 130.325 76.8686 130.1 77.902 130.1ZM86.5223 137.15C86.5223 135.75 86.8056 134.525 87.3723 133.475C87.9389 132.408 88.7139 131.592 89.6973 131.025C90.6973 130.442 91.8223 130.15 93.0723 130.15C94.2723 130.15 95.3556 130.442 96.3223 131.025C97.2889 131.608 97.9973 132.367 98.4473 133.3V125.5H100.197V144H98.4473V140.95C98.0306 141.9 97.3473 142.683 96.3973 143.3C95.4473 143.9 94.3306 144.2 93.0473 144.2C91.7973 144.2 90.6723 143.908 89.6723 143.325C88.6889 142.742 87.9139 141.917 87.3473 140.85C86.7973 139.783 86.5223 138.55 86.5223 137.15ZM98.4473 137.175C98.4473 136.075 98.2223 135.108 97.7723 134.275C97.3223 133.442 96.7056 132.8 95.9223 132.35C95.1556 131.9 94.3056 131.675 93.3723 131.675C92.4056 131.675 91.5389 131.892 90.7723 132.325C90.0056 132.758 89.3973 133.392 88.9473 134.225C88.5139 135.042 88.2973 136.017 88.2973 137.15C88.2973 138.267 88.5139 139.25 88.9473 140.1C89.3973 140.933 90.0056 141.575 90.7723 142.025C91.5389 142.458 92.4056 142.675 93.3723 142.675C94.3056 142.675 95.1556 142.45 95.9223 142C96.7056 141.55 97.3223 140.908 97.7723 140.075C98.2223 139.242 98.4473 138.275 98.4473 137.175ZM112.778 133.35C113.211 132.433 113.894 131.675 114.828 131.075C115.778 130.458 116.903 130.15 118.203 130.15C119.436 130.15 120.544 130.442 121.528 131.025C122.528 131.592 123.303 132.408 123.853 133.475C124.419 134.525 124.703 135.75 124.703 137.15C124.703 138.55 124.419 139.783 123.853 140.85C123.303 141.917 122.528 142.742 121.528 143.325C120.544 143.908 119.436 144.2 118.203 144.2C116.919 144.2 115.803 143.9 114.853 143.3C113.903 142.683 113.211 141.917 112.778 141V150.45H111.053V130.35H112.778V133.35ZM122.928 137.15C122.928 136.017 122.703 135.042 122.253 134.225C121.819 133.392 121.219 132.758 120.453 132.325C119.686 131.892 118.819 131.675 117.853 131.675C116.919 131.675 116.061 131.9 115.278 132.35C114.511 132.8 113.903 133.442 113.453 134.275C113.003 135.108 112.778 136.075 112.778 137.175C112.778 138.275 113.003 139.242 113.453 140.075C113.903 140.908 114.511 141.55 115.278 142C116.061 142.45 116.919 142.675 117.853 142.675C118.819 142.675 119.686 142.458 120.453 142.025C121.219 141.575 121.819 140.933 122.253 140.1C122.703 139.25 122.928 138.267 122.928 137.15ZM129.673 132.775C130.056 131.925 130.64 131.267 131.423 130.8C132.223 130.333 133.198 130.1 134.348 130.1V131.925H133.873C132.606 131.925 131.59 132.267 130.823 132.95C130.056 133.633 129.673 134.775 129.673 136.375V144H127.923V130.35H129.673V132.775ZM142.955 144.2C141.672 144.2 140.514 143.917 139.48 143.35C138.464 142.767 137.655 141.95 137.055 140.9C136.472 139.833 136.18 138.592 136.18 137.175C136.18 135.758 136.48 134.525 137.08 133.475C137.68 132.408 138.497 131.592 139.53 131.025C140.564 130.442 141.722 130.15 143.005 130.15C144.289 130.15 145.447 130.442 146.48 131.025C147.53 131.592 148.347 132.408 148.93 133.475C149.53 134.525 149.83 135.758 149.83 137.175C149.83 138.575 149.53 139.808 148.93 140.875C148.33 141.942 147.505 142.767 146.455 143.35C145.405 143.917 144.239 144.2 142.955 144.2ZM142.955 142.675C143.855 142.675 144.689 142.475 145.455 142.075C146.222 141.658 146.839 141.042 147.305 140.225C147.789 139.392 148.03 138.375 148.03 137.175C148.03 135.975 147.797 134.967 147.33 134.15C146.864 133.317 146.247 132.7 145.48 132.3C144.714 131.883 143.88 131.675 142.98 131.675C142.08 131.675 141.247 131.883 140.48 132.3C139.714 132.7 139.097 133.317 138.63 134.15C138.18 134.967 137.955 135.975 137.955 137.175C137.955 138.375 138.18 139.392 138.63 140.225C139.097 141.042 139.705 141.658 140.455 142.075C141.222 142.475 142.055 142.675 142.955 142.675ZM164.846 130.35V144H163.096V141.6C162.696 142.45 162.079 143.1 161.246 143.55C160.412 144 159.479 144.225 158.446 144.225C156.812 144.225 155.479 143.725 154.446 142.725C153.412 141.708 152.896 140.242 152.896 138.325V130.35H154.621V138.125C154.621 139.608 154.987 140.742 155.721 141.525C156.471 142.308 157.487 142.7 158.771 142.7C160.087 142.7 161.137 142.283 161.921 141.45C162.704 140.617 163.096 139.392 163.096 137.775V130.35H164.846ZM168.041 137.15C168.041 135.75 168.324 134.525 168.891 133.475C169.457 132.408 170.232 131.592 171.216 131.025C172.216 130.442 173.341 130.15 174.591 130.15C175.791 130.15 176.874 130.442 177.841 131.025C178.807 131.608 179.516 132.367 179.966 133.3V125.5H181.716V144H179.966V140.95C179.549 141.9 178.866 142.683 177.916 143.3C176.966 143.9 175.849 144.2 174.566 144.2C173.316 144.2 172.191 143.908 171.191 143.325C170.207 142.742 169.432 141.917 168.866 140.85C168.316 139.783 168.041 138.55 168.041 137.15ZM179.966 137.175C179.966 136.075 179.741 135.108 179.291 134.275C178.841 133.442 178.224 132.8 177.441 132.35C176.674 131.9 175.824 131.675 174.891 131.675C173.924 131.675 173.057 131.892 172.291 132.325C171.524 132.758 170.916 133.392 170.466 134.225C170.032 135.042 169.816 136.017 169.816 137.15C169.816 138.267 170.032 139.25 170.466 140.1C170.916 140.933 171.524 141.575 172.291 142.025C173.057 142.458 173.924 142.675 174.891 142.675C175.824 142.675 176.674 142.45 177.441 142C178.224 141.55 178.841 140.908 179.291 140.075C179.741 139.242 179.966 138.275 179.966 137.175Z" fill="#F0F0F0"/>
<path d="M101.514 183.232C100.544 183.232 99.8287 182.972 99.3693 182.452C98.91 181.932 98.6803 181.221 98.6803 180.32C98.6803 179.41 98.9317 178.699 99.4343 178.188C99.9457 177.668 100.63 177.408 101.488 177.408C101.8 177.408 102.091 177.438 102.359 177.499C102.637 177.551 102.892 177.638 103.126 177.759L102.801 178.422C102.602 178.327 102.39 178.257 102.164 178.214C101.948 178.162 101.718 178.136 101.475 178.136C100.903 178.136 100.453 178.327 100.123 178.708C99.794 179.089 99.6293 179.631 99.6293 180.333C99.6293 181.78 100.266 182.504 101.54 182.504C101.809 182.504 102.056 182.487 102.281 182.452C102.507 182.417 102.715 182.365 102.905 182.296V183.024C102.715 183.085 102.502 183.137 102.268 183.18C102.043 183.215 101.792 183.232 101.514 183.232ZM101.319 185.715C100.583 185.715 99.8893 185.576 99.2393 185.299C98.5893 185.022 98.0173 184.64 97.5233 184.155C97.038 183.661 96.6567 183.089 96.3793 182.439C96.102 181.789 95.9633 181.096 95.9633 180.359C95.9633 179.614 96.102 178.92 96.3793 178.279C96.6567 177.629 97.038 177.061 97.5233 176.576C98.0173 176.082 98.5893 175.696 99.2393 175.419C99.8893 175.142 100.583 175.003 101.319 175.003C102.065 175.003 102.758 175.142 103.399 175.419C104.049 175.696 104.617 176.082 105.102 176.576C105.596 177.061 105.982 177.629 106.259 178.279C106.537 178.92 106.675 179.614 106.675 180.359C106.675 181.096 106.537 181.789 106.259 182.439C105.982 183.089 105.596 183.661 105.102 184.155C104.617 184.64 104.049 185.022 103.399 185.299C102.758 185.576 102.065 185.715 101.319 185.715ZM101.319 184.987C101.961 184.987 102.559 184.87 103.113 184.636C103.677 184.393 104.171 184.06 104.595 183.635C105.02 183.21 105.349 182.721 105.583 182.166C105.826 181.603 105.947 181 105.947 180.359C105.947 179.718 105.826 179.12 105.583 178.565C105.349 178.002 105.02 177.508 104.595 177.083C104.171 176.658 103.677 176.329 103.113 176.095C102.559 175.852 101.961 175.731 101.319 175.731C100.678 175.731 100.076 175.852 99.5123 176.095C98.9577 176.329 98.468 176.658 98.0433 177.083C97.6187 177.508 97.285 178.002 97.0423 178.565C96.8083 179.12 96.6913 179.718 96.6913 180.359C96.6913 181 96.8083 181.603 97.0423 182.166C97.285 182.721 97.6187 183.21 98.0433 183.635C98.468 184.06 98.9577 184.393 99.5123 184.636C100.076 184.87 100.678 184.987 101.319 184.987ZM117.2 185L113.469 180.866V185H112.286V175.939H113.469V180.138L117.213 175.939H118.708L114.6 180.476L118.747 185H117.2ZM129.558 177.876L127.335 185H126.113L124.397 179.345L122.681 185H121.459L119.223 177.876H120.432L122.07 183.856L123.838 177.876H125.047L126.776 183.869L128.388 177.876H129.558ZM131.343 176.719C131.118 176.719 130.927 176.641 130.771 176.485C130.615 176.329 130.537 176.138 130.537 175.913C130.537 175.688 130.615 175.497 130.771 175.341C130.927 175.185 131.118 175.107 131.343 175.107C131.56 175.107 131.742 175.185 131.889 175.341C132.045 175.497 132.123 175.688 132.123 175.913C132.123 176.138 132.045 176.329 131.889 176.485C131.742 176.641 131.56 176.719 131.343 176.719ZM131.915 177.876V185H130.732V177.876H131.915ZM135.115 179.033C135.323 178.626 135.617 178.309 135.999 178.084C136.389 177.859 136.861 177.746 137.416 177.746V178.968H137.104C135.778 178.968 135.115 179.687 135.115 181.126V185H133.932V177.876H135.115V179.033ZM141.909 184.051C143.01 183.167 143.872 182.443 144.496 181.88C145.12 181.308 145.644 180.714 146.069 180.099C146.502 179.475 146.719 178.864 146.719 178.266C146.719 177.703 146.58 177.261 146.303 176.94C146.034 176.611 145.597 176.446 144.99 176.446C144.401 176.446 143.941 176.632 143.612 177.005C143.291 177.369 143.118 177.859 143.092 178.474H141.948C141.983 177.503 142.277 176.754 142.832 176.225C143.387 175.696 144.102 175.432 144.977 175.432C145.87 175.432 146.576 175.679 147.096 176.173C147.625 176.667 147.889 177.347 147.889 178.214C147.889 178.933 147.672 179.635 147.239 180.32C146.814 180.996 146.329 181.594 145.783 182.114C145.237 182.625 144.539 183.223 143.69 183.908H148.162V184.896H141.909V184.051ZM149.53 180.203C149.53 178.712 149.772 177.551 150.258 176.719C150.743 175.878 151.592 175.458 152.806 175.458C154.01 175.458 154.855 175.878 155.341 176.719C155.826 177.551 156.069 178.712 156.069 180.203C156.069 181.72 155.826 182.898 155.341 183.739C154.855 184.58 154.01 185 152.806 185C151.592 185 150.743 184.58 150.258 183.739C149.772 182.898 149.53 181.72 149.53 180.203ZM154.899 180.203C154.899 179.449 154.847 178.812 154.743 178.292C154.647 177.763 154.444 177.339 154.132 177.018C153.828 176.697 153.386 176.537 152.806 176.537C152.216 176.537 151.766 176.697 151.454 177.018C151.15 177.339 150.947 177.763 150.843 178.292C150.747 178.812 150.7 179.449 150.7 180.203C150.7 180.983 150.747 181.637 150.843 182.166C150.947 182.695 151.15 183.119 151.454 183.44C151.766 183.761 152.216 183.921 152.806 183.921C153.386 183.921 153.828 183.761 154.132 183.44C154.444 183.119 154.647 182.695 154.743 182.166C154.847 181.637 154.899 180.983 154.899 180.203ZM157.55 184.051C158.65 183.167 159.513 182.443 160.137 181.88C160.761 181.308 161.285 180.714 161.71 180.099C162.143 179.475 162.36 178.864 162.36 178.266C162.36 177.703 162.221 177.261 161.944 176.94C161.675 176.611 161.237 176.446 160.631 176.446C160.041 176.446 159.582 176.632 159.253 177.005C158.932 177.369 158.759 177.859 158.733 178.474H157.589C157.623 177.503 157.918 176.754 158.473 176.225C159.027 175.696 159.742 175.432 160.618 175.432C161.51 175.432 162.217 175.679 162.737 176.173C163.265 176.667 163.53 177.347 163.53 178.214C163.53 178.933 163.313 179.635 162.88 180.32C162.455 180.996 161.97 181.594 161.424 182.114C160.878 182.625 160.18 183.223 159.331 183.908H163.803V184.896H157.55V184.051ZM165.144 177.967C165.205 177.17 165.513 176.546 166.067 176.095C166.622 175.644 167.341 175.419 168.225 175.419C168.815 175.419 169.322 175.527 169.746 175.744C170.18 175.952 170.505 176.238 170.721 176.602C170.947 176.966 171.059 177.378 171.059 177.837C171.059 178.374 170.903 178.838 170.591 179.228C170.288 179.618 169.889 179.869 169.395 179.982V180.047C169.959 180.186 170.405 180.459 170.734 180.866C171.064 181.273 171.228 181.806 171.228 182.465C171.228 182.959 171.116 183.405 170.89 183.804C170.665 184.194 170.327 184.502 169.876 184.727C169.426 184.952 168.884 185.065 168.251 185.065C167.333 185.065 166.579 184.827 165.989 184.35C165.4 183.865 165.071 183.18 165.001 182.296H166.145C166.206 182.816 166.418 183.241 166.782 183.57C167.146 183.899 167.632 184.064 168.238 184.064C168.845 184.064 169.304 183.908 169.616 183.596C169.937 183.275 170.097 182.864 170.097 182.361C170.097 181.711 169.881 181.243 169.447 180.957C169.014 180.671 168.36 180.528 167.484 180.528H167.185V179.54H167.497C168.295 179.531 168.897 179.401 169.304 179.15C169.712 178.89 169.915 178.491 169.915 177.954C169.915 177.495 169.764 177.126 169.46 176.849C169.166 176.572 168.741 176.433 168.186 176.433C167.649 176.433 167.216 176.572 166.886 176.849C166.557 177.126 166.362 177.499 166.301 177.967H165.144ZM181.842 182.985H177.89L177.162 185H175.914L179.19 175.991H180.555L183.818 185H182.57L181.842 182.985ZM181.504 182.023L179.866 177.447L178.228 182.023H181.504ZM186.429 175.38V185H185.246V175.38H186.429ZM189.628 175.38V185H188.445V175.38H189.628ZM196.293 179.033C196.501 178.626 196.796 178.309 197.177 178.084C197.567 177.859 198.04 177.746 198.594 177.746V178.968H198.282C196.956 178.968 196.293 179.687 196.293 181.126V185H195.11V177.876H196.293V179.033ZM200.571 176.719C200.346 176.719 200.155 176.641 199.999 176.485C199.843 176.329 199.765 176.138 199.765 175.913C199.765 175.688 199.843 175.497 199.999 175.341C200.155 175.185 200.346 175.107 200.571 175.107C200.788 175.107 200.97 175.185 201.117 175.341C201.273 175.497 201.351 175.688 201.351 175.913C201.351 176.138 201.273 176.329 201.117 176.485C200.97 176.641 200.788 176.719 200.571 176.719ZM201.143 177.876V185H199.96V177.876H201.143ZM206.097 177.759C206.713 177.759 207.25 177.893 207.709 178.162C208.177 178.431 208.524 178.769 208.749 179.176V177.876H209.945V185.156C209.945 185.806 209.807 186.382 209.529 186.885C209.252 187.396 208.853 187.795 208.333 188.081C207.822 188.367 207.224 188.51 206.539 188.51C205.603 188.51 204.823 188.289 204.199 187.847C203.575 187.405 203.207 186.803 203.094 186.04H204.264C204.394 186.473 204.663 186.82 205.07 187.08C205.478 187.349 205.967 187.483 206.539 187.483C207.189 187.483 207.718 187.279 208.125 186.872C208.541 186.465 208.749 185.893 208.749 185.156V183.661C208.515 184.077 208.169 184.424 207.709 184.701C207.25 184.978 206.713 185.117 206.097 185.117C205.465 185.117 204.888 184.961 204.368 184.649C203.857 184.337 203.454 183.899 203.159 183.336C202.865 182.773 202.717 182.131 202.717 181.412C202.717 180.684 202.865 180.047 203.159 179.501C203.454 178.946 203.857 178.517 204.368 178.214C204.888 177.911 205.465 177.759 206.097 177.759ZM208.749 181.425C208.749 180.888 208.641 180.42 208.424 180.021C208.208 179.622 207.913 179.319 207.54 179.111C207.176 178.894 206.773 178.786 206.331 178.786C205.889 178.786 205.486 178.89 205.122 179.098C204.758 179.306 204.468 179.609 204.251 180.008C204.035 180.407 203.926 180.875 203.926 181.412C203.926 181.958 204.035 182.435 204.251 182.842C204.468 183.241 204.758 183.548 205.122 183.765C205.486 183.973 205.889 184.077 206.331 184.077C206.773 184.077 207.176 183.973 207.54 183.765C207.913 183.548 208.208 183.241 208.424 182.842C208.641 182.435 208.749 181.962 208.749 181.425ZM215.48 177.746C216.018 177.746 216.503 177.863 216.936 178.097C217.37 178.322 217.708 178.665 217.95 179.124C218.202 179.583 218.327 180.142 218.327 180.801V185H217.157V180.97C217.157 180.259 216.98 179.718 216.624 179.345C216.269 178.964 215.784 178.773 215.168 178.773C214.544 178.773 214.046 178.968 213.673 179.358C213.309 179.748 213.127 180.316 213.127 181.061V185H211.944V175.38H213.127V178.89C213.361 178.526 213.682 178.244 214.089 178.045C214.505 177.846 214.969 177.746 215.48 177.746ZM221.703 178.851V183.05C221.703 183.397 221.776 183.644 221.924 183.791C222.071 183.93 222.327 183.999 222.691 183.999H223.562V185H222.496C221.837 185 221.343 184.848 221.014 184.545C220.684 184.242 220.52 183.743 220.52 183.05V178.851H219.597V177.876H220.52V176.082H221.703V177.876H223.562V178.851H221.703ZM227.517 185.117C226.971 185.117 226.481 185.026 226.048 184.844C225.615 184.653 225.272 184.393 225.021 184.064C224.77 183.726 224.631 183.34 224.605 182.907H225.827C225.862 183.262 226.026 183.553 226.321 183.778C226.624 184.003 227.019 184.116 227.504 184.116C227.955 184.116 228.31 184.016 228.57 183.817C228.83 183.618 228.96 183.366 228.96 183.063C228.96 182.751 228.821 182.521 228.544 182.374C228.267 182.218 227.838 182.066 227.257 181.919C226.728 181.78 226.295 181.642 225.957 181.503C225.628 181.356 225.342 181.143 225.099 180.866C224.865 180.58 224.748 180.207 224.748 179.748C224.748 179.384 224.856 179.05 225.073 178.747C225.29 178.444 225.597 178.205 225.996 178.032C226.395 177.85 226.85 177.759 227.361 177.759C228.15 177.759 228.787 177.958 229.272 178.357C229.757 178.756 230.017 179.302 230.052 179.995H228.869C228.843 179.622 228.691 179.323 228.414 179.098C228.145 178.873 227.781 178.76 227.322 178.76C226.897 178.76 226.559 178.851 226.308 179.033C226.057 179.215 225.931 179.453 225.931 179.748C225.931 179.982 226.005 180.177 226.152 180.333C226.308 180.48 226.499 180.602 226.724 180.697C226.958 180.784 227.279 180.883 227.686 180.996C228.197 181.135 228.613 181.273 228.934 181.412C229.255 181.542 229.528 181.741 229.753 182.01C229.987 182.279 230.108 182.63 230.117 183.063C230.117 183.453 230.009 183.804 229.792 184.116C229.575 184.428 229.268 184.675 228.869 184.857C228.479 185.03 228.028 185.117 227.517 185.117ZM236.436 179.033C236.644 178.626 236.939 178.309 237.32 178.084C237.71 177.859 238.182 177.746 238.737 177.746V178.968H238.425C237.099 178.968 236.436 179.687 236.436 181.126V185H235.253V177.876H236.436V179.033ZM246.603 181.165C246.603 181.39 246.59 181.629 246.564 181.88H240.87C240.913 182.582 241.151 183.132 241.585 183.531C242.027 183.921 242.56 184.116 243.184 184.116C243.695 184.116 244.12 183.999 244.458 183.765C244.804 183.522 245.047 183.202 245.186 182.803H246.46C246.269 183.488 245.888 184.047 245.316 184.48C244.744 184.905 244.033 185.117 243.184 185.117C242.508 185.117 241.901 184.965 241.364 184.662C240.835 184.359 240.419 183.93 240.116 183.375C239.812 182.812 239.661 182.162 239.661 181.425C239.661 180.688 239.808 180.043 240.103 179.488C240.397 178.933 240.809 178.509 241.338 178.214C241.875 177.911 242.49 177.759 243.184 177.759C243.86 177.759 244.458 177.906 244.978 178.201C245.498 178.496 245.896 178.903 246.174 179.423C246.46 179.934 246.603 180.515 246.603 181.165ZM245.381 180.918C245.381 180.467 245.281 180.082 245.082 179.761C244.882 179.432 244.609 179.185 244.263 179.02C243.925 178.847 243.548 178.76 243.132 178.76C242.534 178.76 242.022 178.951 241.598 179.332C241.182 179.713 240.943 180.242 240.883 180.918H245.381ZM250.686 185.117C250.14 185.117 249.65 185.026 249.217 184.844C248.784 184.653 248.441 184.393 248.19 184.064C247.939 183.726 247.8 183.34 247.774 182.907H248.996C249.031 183.262 249.195 183.553 249.49 183.778C249.793 184.003 250.188 184.116 250.673 184.116C251.124 184.116 251.479 184.016 251.739 183.817C251.999 183.618 252.129 183.366 252.129 183.063C252.129 182.751 251.99 182.521 251.713 182.374C251.436 182.218 251.007 182.066 250.426 181.919C249.897 181.78 249.464 181.642 249.126 181.503C248.797 181.356 248.511 181.143 248.268 180.866C248.034 180.58 247.917 180.207 247.917 179.748C247.917 179.384 248.025 179.05 248.242 178.747C248.459 178.444 248.766 178.205 249.165 178.032C249.564 177.85 250.019 177.759 250.53 177.759C251.319 177.759 251.956 177.958 252.441 178.357C252.926 178.756 253.186 179.302 253.221 179.995H252.038C252.012 179.622 251.86 179.323 251.583 179.098C251.314 178.873 250.95 178.76 250.491 178.76C250.066 178.76 249.728 178.851 249.477 179.033C249.226 179.215 249.1 179.453 249.1 179.748C249.1 179.982 249.174 180.177 249.321 180.333C249.477 180.48 249.668 180.602 249.893 180.697C250.127 180.784 250.448 180.883 250.855 180.996C251.366 181.135 251.782 181.273 252.103 181.412C252.424 181.542 252.697 181.741 252.922 182.01C253.156 182.279 253.277 182.63 253.286 183.063C253.286 183.453 253.178 183.804 252.961 184.116C252.744 184.428 252.437 184.675 252.038 184.857C251.648 185.03 251.197 185.117 250.686 185.117ZM261.456 181.165C261.456 181.39 261.443 181.629 261.417 181.88H255.723C255.766 182.582 256.005 183.132 256.438 183.531C256.88 183.921 257.413 184.116 258.037 184.116C258.548 184.116 258.973 183.999 259.311 183.765C259.658 183.522 259.9 183.202 260.039 182.803H261.313C261.122 183.488 260.741 184.047 260.169 184.48C259.597 184.905 258.886 185.117 258.037 185.117C257.361 185.117 256.754 184.965 256.217 184.662C255.688 184.359 255.272 183.93 254.969 183.375C254.666 182.812 254.514 182.162 254.514 181.425C254.514 180.688 254.661 180.043 254.956 179.488C255.251 178.933 255.662 178.509 256.191 178.214C256.728 177.911 257.344 177.759 258.037 177.759C258.713 177.759 259.311 177.906 259.831 178.201C260.351 178.496 260.75 178.903 261.027 179.423C261.313 179.934 261.456 180.515 261.456 181.165ZM260.234 180.918C260.234 180.467 260.134 180.082 259.935 179.761C259.736 179.432 259.463 179.185 259.116 179.02C258.778 178.847 258.401 178.76 257.985 178.76C257.387 178.76 256.876 178.951 256.451 179.332C256.035 179.713 255.797 180.242 255.736 180.918H260.234ZM264.201 179.033C264.409 178.626 264.703 178.309 265.085 178.084C265.475 177.859 265.947 177.746 266.502 177.746V178.968H266.19C264.864 178.968 264.201 179.687 264.201 181.126V185H263.018V177.876H264.201V179.033ZM270.519 183.908L272.729 177.876H273.99L271.195 185H269.817L267.022 177.876H268.296L270.519 183.908ZM281.654 181.165C281.654 181.39 281.641 181.629 281.615 181.88H275.921C275.965 182.582 276.203 183.132 276.636 183.531C277.078 183.921 277.611 184.116 278.235 184.116C278.747 184.116 279.171 183.999 279.509 183.765C279.856 183.522 280.099 183.202 280.237 182.803H281.511C281.321 183.488 280.939 184.047 280.367 184.48C279.795 184.905 279.085 185.117 278.235 185.117C277.559 185.117 276.953 184.965 276.415 184.662C275.887 184.359 275.471 183.93 275.167 183.375C274.864 182.812 274.712 182.162 274.712 181.425C274.712 180.688 274.86 180.043 275.154 179.488C275.449 178.933 275.861 178.509 276.389 178.214C276.927 177.911 277.542 177.759 278.235 177.759C278.911 177.759 279.509 177.906 280.029 178.201C280.549 178.496 280.948 178.903 281.225 179.423C281.511 179.934 281.654 180.515 281.654 181.165ZM280.432 180.918C280.432 180.467 280.333 180.082 280.133 179.761C279.934 179.432 279.661 179.185 279.314 179.02C278.976 178.847 278.599 178.76 278.183 178.76C277.585 178.76 277.074 178.951 276.649 179.332C276.233 179.713 275.995 180.242 275.934 180.918H280.432ZM282.774 181.412C282.774 180.684 282.921 180.047 283.216 179.501C283.511 178.946 283.914 178.517 284.425 178.214C284.945 177.911 285.526 177.759 286.167 177.759C286.722 177.759 287.237 177.889 287.714 178.149C288.191 178.4 288.555 178.734 288.806 179.15V175.38H290.002V185H288.806V183.661C288.572 184.086 288.225 184.437 287.766 184.714C287.307 184.983 286.769 185.117 286.154 185.117C285.521 185.117 284.945 184.961 284.425 184.649C283.914 184.337 283.511 183.899 283.216 183.336C282.921 182.773 282.774 182.131 282.774 181.412ZM288.806 181.425C288.806 180.888 288.698 180.42 288.481 180.021C288.264 179.622 287.97 179.319 287.597 179.111C287.233 178.894 286.83 178.786 286.388 178.786C285.946 178.786 285.543 178.89 285.179 179.098C284.815 179.306 284.525 179.609 284.308 180.008C284.091 180.407 283.983 180.875 283.983 181.412C283.983 181.958 284.091 182.435 284.308 182.842C284.525 183.241 284.815 183.548 285.179 183.765C285.543 183.973 285.946 184.077 286.388 184.077C286.83 184.077 287.233 183.973 287.597 183.765C287.97 183.548 288.264 183.241 288.481 182.842C288.698 182.435 288.806 181.962 288.806 181.425Z" fill="#F0F0F0"/>
</svg>
