<svg width="116" height="62" viewBox="0 0 116 62" fill="none" xmlns="http://www.w3.org/2000/svg">
<path d="M10.95 43L11.2 31.65L22.25 20.9H33.5L21.25 33.55L16.4 37.45L10.95 43ZM3.05 48V10.9H12.55V48H3.05ZM22.95 48L14.65 37.6L20.55 30.3L34.45 48H22.95ZM40.8672 48L31.2172 20.9H40.2172L47.8672 43.55H43.5672L51.5172 20.9H59.6172L67.2672 43.55H63.0672L70.9672 20.9H79.3172L69.6672 48H60.4672L53.9672 29.25H56.7672L50.0672 48H40.8672ZM80.9699 48V20.9H90.4699V48H80.9699ZM85.7199 17.9C83.9866 17.9 82.5866 17.4167 81.5199 16.45C80.4533 15.4833 79.9199 14.2833 79.9199 12.85C79.9199 11.4167 80.4533 10.2167 81.5199 9.25C82.5866 8.28333 83.9866 7.8 85.7199 7.8C87.4533 7.8 88.8533 8.26667 89.9199 9.2C90.9866 10.1 91.5199 11.2667 91.5199 12.7C91.5199 14.2 90.9866 15.45 89.9199 16.45C88.8866 17.4167 87.4866 17.9 85.7199 17.9ZM95.3938 48V20.9H104.444V28.8L103.094 26.55C103.894 24.5167 105.194 23 106.994 22C108.794 20.9667 110.977 20.45 113.544 20.45V29C113.11 28.9333 112.727 28.9 112.394 28.9C112.094 28.8667 111.76 28.85 111.394 28.85C109.46 28.85 107.894 29.3833 106.694 30.45C105.494 31.4833 104.894 33.1833 104.894 35.55V48H95.3938Z" fill="black"/>
<path d="M6.09552 57.08C5.58218 57.08 5.11885 56.9667 4.70552 56.74C4.29885 56.5067 3.97552 56.18 3.73552 55.76C3.50218 55.3333 3.38552 54.8367 3.38552 54.27C3.38552 53.7033 3.50552 53.21 3.74552 52.79C3.98552 52.3633 4.31218 52.0367 4.72552 51.81C5.13885 51.5767 5.60218 51.46 6.11552 51.46C6.62885 51.46 7.09218 51.5767 7.50552 51.81C7.92552 52.0367 8.25218 52.3633 8.48552 52.79C8.72552 53.21 8.84552 53.7033 8.84552 54.27C8.84552 54.83 8.72552 55.3233 8.48552 55.75C8.24552 56.1767 7.91552 56.5067 7.49552 56.74C7.07552 56.9667 6.60885 57.08 6.09552 57.08ZM6.09552 56.47C6.45552 56.47 6.78885 56.39 7.09552 56.23C7.40218 56.0633 7.64885 55.8167 7.83552 55.49C8.02885 55.1567 8.12552 54.75 8.12552 54.27C8.12552 53.79 8.03218 53.3867 7.84552 53.06C7.65885 52.7267 7.41218 52.48 7.10552 52.32C6.79885 52.1533 6.46552 52.07 6.10552 52.07C5.74552 52.07 5.41218 52.1533 5.10552 52.32C4.79885 52.48 4.55218 52.7267 4.36552 53.06C4.18552 53.3867 4.09552 53.79 4.09552 54.27C4.09552 54.75 4.18552 55.1567 4.36552 55.49C4.55218 55.8167 4.79552 56.0633 5.09552 56.23C5.40218 56.39 5.73552 56.47 6.09552 56.47ZM14.8515 51.54V57H14.1515V56.04C13.9915 56.38 13.7449 56.64 13.4115 56.82C13.0782 57 12.7049 57.09 12.2915 57.09C11.6382 57.09 11.1049 56.89 10.6915 56.49C10.2782 56.0833 10.0715 55.4967 10.0715 54.73V51.54H10.7615V54.65C10.7615 55.2433 10.9082 55.6967 11.2015 56.01C11.5015 56.3233 11.9082 56.48 12.4215 56.48C12.9482 56.48 13.3682 56.3133 13.6815 55.98C13.9949 55.6467 14.1515 55.1567 14.1515 54.51V51.54H14.8515ZM17.3597 52.13V55.52C17.3597 55.8533 17.423 56.0833 17.5497 56.21C17.6763 56.3367 17.8997 56.4 18.2197 56.4H18.8597V57H18.1097C17.6163 57 17.2497 56.8867 17.0097 56.66C16.7697 56.4267 16.6497 56.0467 16.6497 55.52V52.13H15.8897V51.54H16.6497V50.17H17.3597V51.54H18.8597V52.13H17.3597ZM22.4383 54.26C22.4383 53.7 22.5483 53.21 22.7683 52.79C22.9949 52.3633 23.3049 52.0367 23.6983 51.81C24.0983 51.5767 24.5483 51.46 25.0483 51.46C25.5683 51.46 26.0149 51.58 26.3883 51.82C26.7683 52.06 27.0416 52.3667 27.2083 52.74V51.54H27.9083V57H27.2083V55.79C27.0349 56.1633 26.7583 56.4733 26.3783 56.72C26.0049 56.96 25.5583 57.08 25.0383 57.08C24.5449 57.08 24.0983 56.9633 23.6983 56.73C23.3049 56.4967 22.9949 56.1667 22.7683 55.74C22.5483 55.3133 22.4383 54.82 22.4383 54.26ZM27.2083 54.27C27.2083 53.83 27.1183 53.4433 26.9383 53.11C26.7583 52.7767 26.5116 52.52 26.1983 52.34C25.8916 52.16 25.5516 52.07 25.1783 52.07C24.7916 52.07 24.4449 52.1567 24.1383 52.33C23.8316 52.5033 23.5883 52.7567 23.4083 53.09C23.2349 53.4167 23.1483 53.8067 23.1483 54.26C23.1483 54.7067 23.2349 55.1 23.4083 55.44C23.5883 55.7733 23.8316 56.03 24.1383 56.21C24.4449 56.3833 24.7916 56.47 25.1783 56.47C25.5516 56.47 25.8916 56.38 26.1983 56.2C26.5116 56.02 26.7583 55.7633 26.9383 55.43C27.1183 55.0967 27.2083 54.71 27.2083 54.27ZM32.0663 51.44C32.7196 51.44 33.253 51.6433 33.6663 52.05C34.0796 52.45 34.2863 53.0333 34.2863 53.8V57H33.5963V53.88C33.5963 53.2867 33.4463 52.8333 33.1463 52.52C32.853 52.2067 32.4496 52.05 31.9363 52.05C31.4096 52.05 30.9896 52.2167 30.6763 52.55C30.363 52.8833 30.2063 53.3733 30.2063 54.02V57H29.5063V51.54H30.2063V52.47C30.3796 52.1367 30.6296 51.8833 30.9563 51.71C31.283 51.53 31.653 51.44 32.0663 51.44ZM35.5144 54.26C35.5144 53.7 35.6278 53.21 35.8544 52.79C36.0811 52.3633 36.3911 52.0367 36.7844 51.81C37.1844 51.5767 37.6344 51.46 38.1344 51.46C38.6144 51.46 39.0478 51.5767 39.4344 51.81C39.8211 52.0433 40.1044 52.3467 40.2844 52.72V49.6H40.9844V57H40.2844V55.78C40.1178 56.16 39.8444 56.4733 39.4644 56.72C39.0844 56.96 38.6378 57.08 38.1244 57.08C37.6244 57.08 37.1744 56.9633 36.7744 56.73C36.3811 56.4967 36.0711 56.1667 35.8444 55.74C35.6244 55.3133 35.5144 54.82 35.5144 54.26ZM40.2844 54.27C40.2844 53.83 40.1944 53.4433 40.0144 53.11C39.8344 52.7767 39.5878 52.52 39.2744 52.34C38.9678 52.16 38.6278 52.07 38.2544 52.07C37.8678 52.07 37.5211 52.1567 37.2144 52.33C36.9078 52.5033 36.6644 52.7567 36.4844 53.09C36.3111 53.4167 36.2244 53.8067 36.2244 54.26C36.2244 54.7067 36.3111 55.1 36.4844 55.44C36.6644 55.7733 36.9078 56.03 37.2144 56.21C37.5211 56.3833 37.8678 56.47 38.2544 56.47C38.6278 56.47 38.9678 56.38 39.2744 56.2C39.5878 56.02 39.8344 55.7633 40.0144 55.43C40.1944 55.0967 40.2844 54.71 40.2844 54.27ZM46.0166 52.74C46.1899 52.3733 46.4633 52.07 46.8366 51.83C47.2166 51.5833 47.6666 51.46 48.1866 51.46C48.6799 51.46 49.1233 51.5767 49.5166 51.81C49.9166 52.0367 50.2266 52.3633 50.4466 52.79C50.6733 53.21 50.7866 53.7 50.7866 54.26C50.7866 54.82 50.6733 55.3133 50.4466 55.74C50.2266 56.1667 49.9166 56.4967 49.5166 56.73C49.1233 56.9633 48.6799 57.08 48.1866 57.08C47.6733 57.08 47.2266 56.96 46.8466 56.72C46.4666 56.4733 46.1899 56.1667 46.0166 55.8V59.58H45.3266V51.54H46.0166V52.74ZM50.0766 54.26C50.0766 53.8067 49.9866 53.4167 49.8066 53.09C49.6333 52.7567 49.3933 52.5033 49.0866 52.33C48.7799 52.1567 48.4333 52.07 48.0466 52.07C47.6733 52.07 47.3299 52.16 47.0166 52.34C46.7099 52.52 46.4666 52.7767 46.2866 53.11C46.1066 53.4433 46.0166 53.83 46.0166 54.27C46.0166 54.71 46.1066 55.0967 46.2866 55.43C46.4666 55.7633 46.7099 56.02 47.0166 56.2C47.3299 56.38 47.6733 56.47 48.0466 56.47C48.4333 56.47 48.7799 56.3833 49.0866 56.21C49.3933 56.03 49.6333 55.7733 49.8066 55.44C49.9866 55.1 50.0766 54.7067 50.0766 54.26ZM52.7747 52.51C52.928 52.17 53.1613 51.9067 53.4747 51.72C53.7947 51.5333 54.1847 51.44 54.6447 51.44V52.17H54.4547C53.948 52.17 53.5413 52.3067 53.2347 52.58C52.928 52.8533 52.7747 53.31 52.7747 53.95V57H52.0747V51.54H52.7747V52.51ZM58.0877 57.08C57.5744 57.08 57.111 56.9667 56.6977 56.74C56.291 56.5067 55.9677 56.18 55.7277 55.76C55.4944 55.3333 55.3777 54.8367 55.3777 54.27C55.3777 53.7033 55.4977 53.21 55.7377 52.79C55.9777 52.3633 56.3044 52.0367 56.7177 51.81C57.131 51.5767 57.5944 51.46 58.1077 51.46C58.621 51.46 59.0844 51.5767 59.4977 51.81C59.9177 52.0367 60.2444 52.3633 60.4777 52.79C60.7177 53.21 60.8377 53.7033 60.8377 54.27C60.8377 54.83 60.7177 55.3233 60.4777 55.75C60.2377 56.1767 59.9077 56.5067 59.4877 56.74C59.0677 56.9667 58.601 57.08 58.0877 57.08ZM58.0877 56.47C58.4477 56.47 58.781 56.39 59.0877 56.23C59.3944 56.0633 59.641 55.8167 59.8277 55.49C60.021 55.1567 60.1177 54.75 60.1177 54.27C60.1177 53.79 60.0244 53.3867 59.8377 53.06C59.651 52.7267 59.4044 52.48 59.0977 52.32C58.791 52.1533 58.4577 52.07 58.0977 52.07C57.7377 52.07 57.4044 52.1533 57.0977 52.32C56.791 52.48 56.5444 52.7267 56.3577 53.06C56.1777 53.3867 56.0877 53.79 56.0877 54.27C56.0877 54.75 56.1777 55.1567 56.3577 55.49C56.5444 55.8167 56.7877 56.0633 57.0877 56.23C57.3944 56.39 57.7277 56.47 58.0877 56.47ZM66.8437 51.54V57H66.1437V56.04C65.9837 56.38 65.7371 56.64 65.4037 56.82C65.0704 57 64.6971 57.09 64.2837 57.09C63.6304 57.09 63.0971 56.89 62.6837 56.49C62.2704 56.0833 62.0637 55.4967 62.0637 54.73V51.54H62.7537V54.65C62.7537 55.2433 62.9004 55.6967 63.1937 56.01C63.4937 56.3233 63.9004 56.48 64.4137 56.48C64.9404 56.48 65.3604 56.3133 65.6737 55.98C65.9871 55.6467 66.1437 55.1567 66.1437 54.51V51.54H66.8437ZM68.1218 54.26C68.1218 53.7 68.2352 53.21 68.4618 52.79C68.6885 52.3633 68.9985 52.0367 69.3918 51.81C69.7918 51.5767 70.2418 51.46 70.7418 51.46C71.2218 51.46 71.6552 51.5767 72.0418 51.81C72.4285 52.0433 72.7118 52.3467 72.8918 52.72V49.6H73.5918V57H72.8918V55.78C72.7252 56.16 72.4518 56.4733 72.0718 56.72C71.6918 56.96 71.2452 57.08 70.7318 57.08C70.2318 57.08 69.7818 56.9633 69.3818 56.73C68.9885 56.4967 68.6785 56.1667 68.4518 55.74C68.2318 55.3133 68.1218 54.82 68.1218 54.26ZM72.8918 54.27C72.8918 53.83 72.8018 53.4433 72.6218 53.11C72.4418 52.7767 72.1952 52.52 71.8818 52.34C71.5752 52.16 71.2352 52.07 70.8618 52.07C70.4752 52.07 70.1285 52.1567 69.8218 52.33C69.5152 52.5033 69.2718 52.7567 69.0918 53.09C68.9185 53.4167 68.8318 53.8067 68.8318 54.26C68.8318 54.7067 68.9185 55.1 69.0918 55.44C69.2718 55.7733 69.5152 56.03 69.8218 56.21C70.1285 56.3833 70.4752 56.47 70.8618 56.47C71.2352 56.47 71.5752 56.38 71.8818 56.2C72.1952 56.02 72.4418 55.7633 72.6218 55.43C72.8018 55.0967 72.8918 54.71 72.8918 54.27Z" fill="black"/>
</svg>
