<svg width="192" height="44" viewBox="0 0 192 44" fill="none" xmlns="http://www.w3.org/2000/svg">
<path d="M0.2 43L0.2 0.999997H9.98L33.14 28.96H28.52V0.999997L40.16 0.999997V43H30.38L7.22 15.04H11.84L11.84 43H0.2ZM59.4598 17.26H78.9598V26.14H59.4598V17.26ZM60.2998 33.82H82.2598V43L48.5398 43V0.999997L81.4798 0.999997V10.18H60.2998V33.82ZM98.6464 43L85.0264 0.999997H97.2664L108.726 37.36H102.546L114.606 0.999997H125.526L136.926 37.36H130.986L142.806 0.999997H154.146L140.526 43H127.806L118.086 12.1H121.506L111.366 43H98.6464ZM173.163 43.84C169.723 43.84 166.403 43.42 163.203 42.58C160.043 41.7 157.463 40.58 155.463 39.22L159.363 30.46C161.243 31.66 163.403 32.66 165.843 33.46C168.323 34.22 170.783 34.6 173.223 34.6C174.863 34.6 176.183 34.46 177.183 34.18C178.183 33.86 178.903 33.46 179.343 32.98C179.823 32.46 180.063 31.86 180.063 31.18C180.063 30.22 179.623 29.46 178.743 28.9C177.863 28.34 176.723 27.88 175.323 27.52C173.923 27.16 172.363 26.8 170.643 26.44C168.963 26.08 167.263 25.62 165.543 25.06C163.863 24.5 162.323 23.78 160.923 22.9C159.523 21.98 158.383 20.8 157.503 19.36C156.623 17.88 156.183 16.02 156.183 13.78C156.183 11.26 156.863 8.98 158.223 6.94C159.623 4.9 161.703 3.26 164.463 2.02C167.223 0.779998 170.663 0.159997 174.783 0.159997C177.543 0.159997 180.243 0.479998 182.883 1.12C185.563 1.72 187.943 2.62 190.023 3.82L186.363 12.64C184.363 11.56 182.383 10.76 180.423 10.24C178.463 9.68 176.563 9.4 174.723 9.4C173.083 9.4 171.763 9.58 170.763 9.94C169.763 10.26 169.043 10.7 168.603 11.26C168.163 11.82 167.943 12.46 167.943 13.18C167.943 14.1 168.363 14.84 169.203 15.4C170.083 15.92 171.223 16.36 172.623 16.72C174.063 17.04 175.623 17.38 177.303 17.74C179.023 18.1 180.723 18.56 182.403 19.12C184.123 19.64 185.683 20.36 187.083 21.28C188.483 22.16 189.603 23.34 190.443 24.82C191.323 26.26 191.763 28.08 191.763 30.28C191.763 32.72 191.063 34.98 189.663 37.06C188.303 39.1 186.243 40.74 183.483 41.98C180.763 43.22 177.323 43.84 173.163 43.84Z" fill="black"/>
</svg>
