<svg width="205" height="51" viewBox="0 0 205 51" fill="none" xmlns="http://www.w3.org/2000/svg">
<path d="M0.5 5C0.5 2.51472 2.51472 0.5 5 0.5H200C202.485 0.5 204.5 2.51472 204.5 5V46C204.5 48.4853 202.485 50.5 200 50.5H5C2.51471 50.5 0.5 48.4853 0.5 46V5Z" fill="black" stroke="black"/>
<path d="M58.1541 19.666L52.3681 35H50.0581L44.2721 19.666H46.4061L51.2241 32.888L56.0421 19.666H58.1541ZM61.3833 20.986C61.0019 20.986 60.6793 20.854 60.4153 20.59C60.1513 20.326 60.0193 20.0033 60.0193 19.622C60.0193 19.2407 60.1513 18.918 60.4153 18.654C60.6793 18.39 61.0019 18.258 61.3833 18.258C61.7499 18.258 62.0579 18.39 62.3073 18.654C62.5713 18.918 62.7033 19.2407 62.7033 19.622C62.7033 20.0033 62.5713 20.326 62.3073 20.59C62.0579 20.854 61.7499 20.986 61.3833 20.986ZM62.3513 22.944V35H60.3493V22.944H62.3513ZM76.7633 28.51C76.7633 28.8913 76.7413 29.2947 76.6973 29.72H67.0613C67.1347 30.908 67.538 31.8393 68.2713 32.514C69.0193 33.174 69.9213 33.504 70.9773 33.504C71.8427 33.504 72.5613 33.306 73.1333 32.91C73.72 32.4993 74.1307 31.9567 74.3653 31.282H76.5213C76.1987 32.4407 75.5533 33.3867 74.5853 34.12C73.6173 34.8387 72.4147 35.198 70.9773 35.198C69.8333 35.198 68.8067 34.9413 67.8973 34.428C67.0027 33.9147 66.2987 33.1887 65.7853 32.25C65.272 31.2967 65.0153 30.1967 65.0153 28.95C65.0153 27.7033 65.2647 26.6107 65.7633 25.672C66.262 24.7333 66.9587 24.0147 67.8533 23.516C68.7627 23.0027 69.804 22.746 70.9773 22.746C72.1213 22.746 73.1333 22.9953 74.0133 23.494C74.8933 23.9927 75.568 24.682 76.0373 25.562C76.5213 26.4273 76.7633 27.41 76.7633 28.51ZM74.6953 28.092C74.6953 27.3293 74.5267 26.6767 74.1893 26.134C73.852 25.5767 73.39 25.1587 72.8033 24.88C72.2313 24.5867 71.5933 24.44 70.8893 24.44C69.8773 24.44 69.012 24.7627 68.2933 25.408C67.5893 26.0533 67.186 26.948 67.0833 28.092H74.6953ZM95.4659 22.944L91.7039 35H89.6359L86.7319 25.43L83.8279 35H81.7599L77.9759 22.944H80.0219L82.7939 33.064L85.7859 22.944H87.8319L90.7579 33.086L93.4859 22.944H95.4659ZM117.816 22.724C118.755 22.724 119.591 22.922 120.324 23.318C121.057 23.6993 121.637 24.2787 122.062 25.056C122.487 25.8333 122.7 26.7793 122.7 27.894V35H120.72V28.18C120.72 26.9773 120.419 26.0607 119.818 25.43C119.231 24.7847 118.432 24.462 117.42 24.462C116.379 24.462 115.55 24.7993 114.934 25.474C114.318 26.134 114.01 27.0947 114.01 28.356V35H112.03V28.18C112.03 26.9773 111.729 26.0607 111.128 25.43C110.541 24.7847 109.742 24.462 108.73 24.462C107.689 24.462 106.86 24.7993 106.244 25.474C105.628 26.134 105.32 27.0947 105.32 28.356V35H103.318V22.944H105.32V24.682C105.716 24.0513 106.244 23.5673 106.904 23.23C107.579 22.8927 108.319 22.724 109.126 22.724C110.138 22.724 111.033 22.9513 111.81 23.406C112.587 23.8607 113.167 24.528 113.548 25.408C113.885 24.5573 114.443 23.8973 115.22 23.428C115.997 22.9587 116.863 22.724 117.816 22.724ZM131.242 35.198C130.113 35.198 129.086 34.9413 128.162 34.428C127.253 33.9147 126.534 33.1887 126.006 32.25C125.493 31.2967 125.236 30.1967 125.236 28.95C125.236 27.718 125.5 26.6327 126.028 25.694C126.571 24.7407 127.304 24.0147 128.228 23.516C129.152 23.0027 130.186 22.746 131.33 22.746C132.474 22.746 133.508 23.0027 134.432 23.516C135.356 24.0147 136.082 24.7333 136.61 25.672C137.153 26.6107 137.424 27.7033 137.424 28.95C137.424 30.1967 137.145 31.2967 136.588 32.25C136.045 33.1887 135.305 33.9147 134.366 34.428C133.427 34.9413 132.386 35.198 131.242 35.198ZM131.242 33.438C131.961 33.438 132.635 33.2693 133.266 32.932C133.897 32.5947 134.403 32.0887 134.784 31.414C135.18 30.7393 135.378 29.918 135.378 28.95C135.378 27.982 135.187 27.1607 134.806 26.486C134.425 25.8113 133.926 25.3127 133.31 24.99C132.694 24.6527 132.027 24.484 131.308 24.484C130.575 24.484 129.9 24.6527 129.284 24.99C128.683 25.3127 128.199 25.8113 127.832 26.486C127.465 27.1607 127.282 27.982 127.282 28.95C127.282 29.9327 127.458 30.7613 127.81 31.436C128.177 32.1107 128.661 32.6167 129.262 32.954C129.863 33.2767 130.523 33.438 131.242 33.438ZM142.058 24.902C142.41 24.2127 142.909 23.6773 143.554 23.296C144.214 22.9147 145.014 22.724 145.952 22.724V24.792H145.424C143.18 24.792 142.058 26.0093 142.058 28.444V35H140.056V22.944H142.058V24.902ZM159.263 28.51C159.263 28.8913 159.241 29.2947 159.197 29.72H149.561C149.635 30.908 150.038 31.8393 150.771 32.514C151.519 33.174 152.421 33.504 153.477 33.504C154.343 33.504 155.061 33.306 155.633 32.91C156.22 32.4993 156.631 31.9567 156.865 31.282H159.021C158.699 32.4407 158.053 33.3867 157.085 34.12C156.117 34.8387 154.915 35.198 153.477 35.198C152.333 35.198 151.307 34.9413 150.397 34.428C149.503 33.9147 148.799 33.1887 148.285 32.25C147.772 31.2967 147.515 30.1967 147.515 28.95C147.515 27.7033 147.765 26.6107 148.263 25.672C148.762 24.7333 149.459 24.0147 150.353 23.516C151.263 23.0027 152.304 22.746 153.477 22.746C154.621 22.746 155.633 22.9953 156.513 23.494C157.393 23.9927 158.068 24.682 158.537 25.562C159.021 26.4273 159.263 27.41 159.263 28.51ZM157.195 28.092C157.195 27.3293 157.027 26.6767 156.689 26.134C156.352 25.5767 155.89 25.1587 155.303 24.88C154.731 24.5867 154.093 24.44 153.389 24.44C152.377 24.44 151.512 24.7627 150.793 25.408C150.089 26.0533 149.686 26.948 149.583 28.092H157.195Z" fill="#F0F0F0"/>
</svg>
